<svg viewBox="0 0 21000 21000" shape-rendering="geometricPrecision" text-rendering="geometricPrecision"
  image-rendering="optimizeQuality" fill-rule="evenodd" clip-rule="evenodd" xmlns="http://www.w3.org/2000/svg">
  <defs>
    <style>
      svg {
        background-color: var(--bg, #fff);
      }

      .bg {
        fill: var(--bg, #fff);
      }

      .fg {
        fill: currentColor;
      }
    </style>
  </defs>
  <path class="fg"
    d="M12327.408 2145.136c-66.313-247.536 338.577-302.08 287.725-1.966 0 0 691.88 20.467 1368.973 116.55 677.246 96.15-275.999 223.511-407.342 234.442-71.498 6.024-569.938 34.302-1008.231 58.96l3.955 582.308 14.668 2130.592c246.055-89.879 503.945-153.306 881.945-144.848l-9.495-1391.162c-182.255 34.802-332.355 74.803-362.11 79.575-56.344 9.183-470.728 55.889-196.08-55.837 274.661-111.598 563.509-192.82 563.509-192.82-52.548-119.382 122.838-142.788 121.273-29.398 518.125-17.56 1136.655-75.662 234.824 140.65 0 0-111.645 21.568-247.306 47.42l9.637 1405.517c138.987 5.872 286.976 21.22 444.7 47.911l371.934 1784.375c153.02 734.118 343.007 872.662 376.865-10.844 17.567-457.758-138.167-1390.136-138.167-1390.136-48.157-509.588 343.568-1295.211 499.381-1794.65 129.233-414.198 117.319-326.832-51.859-110.586-179.957 229.97-399.51 169.054-248.769-191.327 197.09-471.047 17.053-754.453 960.715-1150.357-10.231-64.053-137.077-926.666-265.949-945.027-109.867-15.828-10.503-52.15-20.259-88.339-11.393-42.273-35.723-138.297-55.622-169.488-13.364-20.953-90.256-19.934-38.623-68.278 11.961-11.204-48.98-169.474-57.627-195.607l191.958-114.957 83.827 227.99c12.917 35.128 111.779 5.724 35.575 78.935-16.07 15.429 55.435 189.934 79.632 187.329 138.539-14.916 11.472 59.88 32.08 99.116 45.86 87.299 15.89 130.926 15.89 130.926l173.481 823.63c16.712 79.316 20.167 122.07 65.438 28.139 40.587-84.2 133.85-245.218 326.415-448.129 407.623-429.42 816.288 53.258 716.069 648.706 0 0-98.982 336.87-272.63 618.695-108.625 176.232-213.935 122.05-282.427 58.983-93.924-86.467-137.618-121.124-86.393 72.797 45.278 171.427 182.616 442.315 230.706 567.09 50.845 131.986-46.093 113.898-59.122 239.753-41.791 403.368 857.91 1457.315-102.063 1753.762-119.23 648.286-534.856 526.358-534.856 526.358 68.638 141.442 3.36 350.79-123.48 568.737-153.522 263.803-397.258 540.232-602.887 724.17-260.315 232.86-583.562 547.282-268.815 844.636 728.484 688.14 575.558 506.897 1270.879-333.097 320.04-386.633 623.2-1190.556 465.923-1609.068-196.581-522.304 527.4-574.101 494.204-35.955-10.098 163.743-57.854 374.764-63.067 552.989-4.136 138.43 37.012 64.146 79.738-46.625 146.285-379.223 6.956-506.857 51.472-776.906 27.351-165.896 178.727-339.962 321.424-336.662 111.778 2.578 292.749-670.939 367.997-919.396 119.463-394.411 369.574-165.542 485.002 111.406 64.636 185.65 174.116 221.611 276.118 251.495 296.512 86.893 189.545-183.323 557.375-320.874 25.252-9.444-47.323-68.831-21.79-66.506 87.181 8.031-9.929-42.473-25.96-50.29 558.571-3.666 578.704 430.047 556.874 654.09-10.525 108.04-162.489 486.202-299.025 496.372-206.337 15.415 167.247 482.757-293.779 1410.11-466.746 939.049-797.283 108.866-936.372 788.089-358.608 1751.05-288.654 2560.913-378.709 4479.725 765.35 381.581 379.451 1578.923-481.847 1412.182-234.282 290.823-583.436 461.31-951.52 510.701a6226.415 6210.093 0 01-32.996 102.009c741.627 756.905 333.885 2070.338-728.946 2254.1l-158.299 284.373-474.21-262.592a6204.327 6194.62 0 01-145.196 149.2c527.56 1640.918-1442.582 2943.148-2753.954 1849.6 24.21 1836.677-2918.3 2092.418-3151.44-20.953-248.861 152.099-582.386 189.614-865.207 88.332-276.198 390.519-936.879 159.224-876.72-336.415l-340.547-188.529c-640.689 260.16-1294.774-400.169-1017.84-1038.391-1206.557 479.318-2560.801-469.088-2465.047-1800.749 35.436-492.82 266.777-924.933 612.583-1226.133-264.318-130.672-476.294-349.165-606.755-612.523-870.534 291.762-1416.696-944.487-613.412-1389.383-158.113-681.775 248.087-1393.921 889.803-1622.151-175.344-1187.797 511.911-2913.456 262.735-3985.75-54.206-233.261-95.233-263.345-316.966-323.76-341.39-93.011-964.964-178.711-1062.263-97.923-48.159 39.982-88.01 90.412-162.469 71.052-236.12-61.395-382.891-252.549-478.139-173.02-10.972 9.164-33.911 14.783-65.263 17.308-304.024 24.505-1398.709-241.645-31.714-383.788 162.449-16.888 127.869 116.031 276.9 106.82 67.556-4.179 39.23-106.486 133.876-79.788 253.546 71.531 230.393 86.453 471.33-140.95 121.714-114.877 197.61-277.814 317.434-396.25-79.925-64.86-64.503 5.019-71.386-127.834l-49.36-826.504c-5.553-77.33 31.279-158.558-21.55-231.848-23.949-33.103 38.208-180.104 51.305-215.753 89.32-243.171-546.817-400.636-556.78-927.839-6.214-328.292 250.465-837.028 813.073-559.72 398.422 196.373 495.446 321.08 589.724 423.902 119.803 130.706 330.39-17.694 374.098-156.745-8.446 27.372-40.607 135.505-150.14 220.538-93.076 72.238-163.485 107.927 50.783 55.99 127.996-31.024 296.72-117.57 346.782-277.555-11.119 36.09-53.61 178.772-198.265 290.731-153.662 118.91 162.363 174.119 449.907 105.44 171.176-40.88 332.268-125.68 378.18-267.077-142.361 447.348-497.529 253.822-241.116 484.61 279.733 251.769 421.835 600.567 453.956 965.914 39.464 448.841 325.686 962.955 683.213 1229.792 561.451 419.016 408.658 813.947 805.555 1319.291 106.734 135.851 235.097 151.993 155.674-60.041-83.928-224.01 41.57-1835.778 217.89-1923.89l-6.247-911.524c-262.561-63.828-587.345-143.076-631.087-154.959-74.96-20.4-614.293-196.2-211.187-179.591 403.179 16.735 806.798 78.915 806.798 78.915 2.634-160.963 239.4-120.542 166.693 31.977l273.706 113.611-3.261-476.492c-445.644-18.78-966.569-41.38-1039.812-46.532-131.437-9.144-1086.544-123.508-410.609-228.876 675.817-105.3 1367.254-135.144 1367.254-135.144-49.534-270.084 356.519-275.202 287.793-1.94l503.799 100.875c-152.527-232.708 480.584-898.021 625.399-1365.163 50.637-163.363 94.645-336.923 335.301-355.643 0 0 297.916-595.262 388.853-689.553 228.649-236.96-314.44 753.64-314.507 753.772 148.67 344.04-299.379 662.609-402.504 891.864-52.495 116.731-112.814 289.29-112.814 289.29 70.549 118.27 420.773-549.262 819.608-489.587 101.361 15.141 224.305-116.624 216.28-243.865-7.35-116.404 66.507-455.166 116.069-541.252 227.606-394.192 858.618-455.519 857.321 241.591-.327 158.605 40.046 337.789 255.792 297.302 331.56-62.221 421.822 15.868 658.062 234.787 54.713 50.724 164.166 72.025 64.509-36.556-151.277-164.855-509.425-564.09-366.909-660.32 0 0-1109.705-897.57-1159.253-982.723-49.615-85.334 60.926-36.975 60.926-36.975l1171.416 933.683c426.24-51.657 382.678 437.546 645.039 743.39z" />
  <path class="bg"
    d="M11721.047 2805.865c158.018 77.442 447.42 348.884 664.135 292.396l12.91 1887.142c-296.961-320.515-1070.636-405.142-1216.18-850.737-145.381-445.069-334.225-1756.45 539.134-1328.801zm-2050.943 809.949c22.853 75.623 56.73 119.983 54.72 160.143-1.891 40.149-94.244-50.631-8.066 118.277 86.14 168.974 45.004 44.28-17.193 95.983-62.27 51.698-55.889 13.777-35.308 87.28 20.708 73.505 49.528 37.628 11.787 78.01-37.667 40.48-53.59 24.884-12.768 84.76 40.553 60.048-3.683 118.323-54.767 183.176-35.783 45.693-227.246 510.103-309.81 856.687h-9.87c-671.686-407.64-1232.356-463.409-1624.763-417.69l-4.37-640.275c743.619 111.213 435.54 18.455-1.129-162.956l-3.655-531.522 509.852 21.287 716.73-35.175c716.69-34.976 266.797-117.584 266.797-117.584l-539.895-107.98 8.332-2.126s426.253-132.312 652.483-412.659c0 0 148.837-134.858 237.669 78.769 88.545 213.574 86.82 289.304 84.917 342.82-1.87 53.55 55.421 245.071 78.307 320.775zM7512.43 4200.292l4.704 685.075c-133.201 26.178-218.432 68.299-296.412 100.395l-5.82-851.01c251.649 61.188 147.04 43.32 297.528 65.54zm10759.711 946.667c169.338 200.698 646.187 779.485 434.618 682.862-474.691-216.793-502.261-91.525-847.834 190.38l219.114-834.714c53.329-285.091 95.667-155.185 194.102-38.528zm-14690.987-4.372c145.11 190.401 571.3 1171.01 362.05 1172.037-226.938 1.126-990.082-95.324-1058.28-116.244 48.692-35.85 80.807-56.15 131.758-86.887 392.093-236.633 435.272-551.002 564.472-968.906zm1163.383 1338.305c-12.863 99.503-20.574 163.53-29.134 204.497-27.403 131.086-215.278 108.84-196.755-7.052l.314-1.859 1.905-11.183c11.707-71.671 14.319-145.135 27.784-217.873 23.547-127.247 212.003-91.084 195.886 33.47zm974.392 52.584l-65.023 268.716c-11.273 46.573-30.384 36.463-26.494-6.69 6.268-69.573 20.941-223.152 28.606-301.401 11.3-115.391 86.159-74.517 62.911 39.375zm-321.89 283.985l59.471 24.992c-49.809 78.21-81.696 61.367-59.471-24.992zm10975.389-2286.816s78.255 456.137 277.195 580.073c36.284 22.626 142.782 40.448 30.437 88.139-115.588 49.005-174.684 146.608-195.874 102.389-57.024-118.664-191.803-605.393-171.442-771.075 8.012-65.233 53.109-91.412 59.684.474zm124.488 873.074c217.29-112.278 137.625 57.703-10.678 53.471zm143.552 125.629c.455-.78.689-1.193.689-1.193-.201.4-.428.799-.689 1.193zm-166.017 42.074s148.422-15.169 166.017-42.074c-7.33 12.463-72.714 118.504-178.553 123.528zm169.024 4591.203c-511.035-3028.948 658.723-532.762 778.614 1407.743-247.66-267.403-586.657-451.594-972.361-501.211-86.461-294.682 351.359 28.211 193.747-906.533zM9612.671 5921.112h510.367v2261.132H9498.92V6700.697c-221.003 167.955-371.912 238.793-648.425 323.026V6516.94c366.314-118.049 609.148-271.355 762.175-595.828zM6208.414 7452.124l-143.339 1030.207c-209.926 214.034-886.93 8.598-1534.855 457.272 11.039-207.369 240.837-1757.342 361.39-1813.791 265.734 279.787 532.504 594.936 975.006 492.5 157.525-36.468 220.003-70.117 341.798-166.188zm6882.506 148.534c188.704 56.836 331.299 63.374 490.515-29.13l213.499 147.393-651.559 945.867-261.07-180.25 426.9-619.755c-140.912 6.457-224.459-7.545-364.309-52.124zm-7960.619 8281.286c-210.212-425.029 182.135-707.287 441.36-492.82-6.3-304.633 359.385-407.581 567.974-87.08l-178.072 102.315c-109.373-66.834-245.194 57.536-176.829 181.184 67.93 122.861 255.25 50.884 240.737-79.116l172.378-99.043c174.517 367.36-80.953 609.645-359.036 465.056 20.574 359.283-418.561 476.22-649.843 114.592l179.067-102.882c131.705 81.907 332.957-68.192 252.411-213.907-81.335-147.141-319.278-45.44-312.51 109.64zm3382.741 421.836l-251.388 435.831-116.776-67.478 251.368-435.866zm-878.584 626.046l800.13 444.649-102.77 185.362c-349.23 80.688-606.022 299.688-805.598 601.994l-273.385-151.907c225.408-303.079 391.238-435.604 740.32-577.494l-487.241-270.77zm7552.04-4655.818c167.615-640.78 1105.617-739.07 1493.875-414.137 278.831 233.361 282.153 650.518-122.557 873.815 174.069 43.034 287.331 106.207 368.679 254.169 103.539 188.328 67.971 448.514-39.818 638.282-318.804 561.259-1500.169 547.75-1733.268-254.169l616.365-81.788c39.518 201.945 111.211 330.785 307.658 330.785 299.686 0 366.341-406.321 209.945-573.582-107.856-115.351-256.032-93.478-415.741-48.651l31.54-441.044c433.529 64.78 483.524-476.252 136.515-476.252-178.118 0-242.506 114.498-269.917 297.134zm-1271.052 2481.811l435.294 251.609-67.389 116.95-435.314-251.655zm-1323.994 2553.023l639.298-381.716 128.137 215.074-433.055 258.567 63.567 159.576c235.311-351.317 704.883-236.592 722.731 175.806 7.571 174.945-88.952 294.456-245.314 387.82-203.938 121.775-390.282 140.256-567.613-24.339l254.609-192.441c140.278 169.455 372.749 28.425 240.791-193.073-112.775-189.301-293.493-116.891-328.767 63.381l-248.922 103.9zm3037.142-1665.437l184.467 102.515-132.634 239.178-184.46-102.527-522.855-290.597 163.579 436.618 84.982-153.239 216.936 110.652-219.909 396.537-225.341-125.254-316.352-829.883 132.627-239.166 606.235 336.922 68.753-123.948 212.712 118.23zm-370.449-5973.475c441.581-166.575 725.423 397.223 592.088 654.031-62.618 120.615-194.028 181.676-330.463 171.853-166.265-11.97-351.467-142.356-523.391-194.699l234.469 430.153-224.406 122.601-450.595-826.617c424.128-171.647 815.219 262.379 1006.755 157.779 115.113-62.868 76.103-322.207-176.428-226.957zm-4722.599-3039.105c129.894-929.939 1374.217-872.582 1686.726-407.4 449.032 668.4-491.629 1108.544-844.412 1455.142h963.347v503.677h-1851.155c105.171-909.831 1221.337-1154.715 1221.337-1592.32 0-230.987-301.964-325.032-457.089-171.353-49.655 49.178-83.266 136.664-100.846 262.466zm-4602.202 2833.89c318.844 162.956 485.07 344.46 321.009 673.777l-183.397-121.681c23.26-125.195-151.13-208.436-267.732-268.024-154.23-78.81-338.796-170.947-407.201-36.835-65.74 128.873 117.798 225.316 263.65 299.853 139.007 71.044 266.402 128.454 351.573 86.38l192.463 127.707c-171.997 252.355-443.384 187.002-686.172 62.921-723.728-369.885-289.109-1184.367 415.807-824.099zm2328.31-553.188l251.388 435.878-116.796 67.518-251.368-435.884zm-2332.78 1823.114l-144.186 282.779-669.757-342.3c24.852 139.016 22.012 223.71-3.78 368.425l-229.111-117.098c31.494-194.625 19.346-337.021-93.282-482.983l117.92-231.221zm2005.491-3513.004l559.373 1003.262-276.927 154.746-366.495-657.357c-56.55 129.3-105.917 198.145-207.807 304.086l-125.362-224.87c134.444-144.376 203.276-269.57 190.774-453.32zm-803.391 448.92l559.36 1003.277-276.914 154.737-366.514-657.355c-56.524 129.306-105.939 198.132-207.787 304.079l-125.371-224.85c134.445-144.383 203.278-269.584 190.775-453.34zm-532.191 2856.275l435.407 251.662-67.45 116.91-435.4-251.641zm-1741.059 1160.919c686.133 35.57 885.087 530.996 885.087 1134.982 0 1480.241-1532.985 1443.499-1782.916 624.806l613.264-77.128c27.05 140.489 85.726 235.02 222.856 235.02 264.17 0 297.153-317.102 322.666-619.129-146.232 150.487-287.498 220.013-496.922 220.013-897.822 0-1038.187-1494.984 108.243-1520.496v389.612c-279.466 52.377-279.486 495.267-147.013 650.499 163.364 191.42 512.953 111.605 512.953-270.223 0-176.385-75.24-334.436-238.218-376.157zm4757.78 6995.092c0-1487.972 1543.409-1437.554 1782.91-623.26l-613.265 75.577c-27.083-140.537-84.067-235.021-221.305-235.021-265.126 0-298.356 316.009-322.659 619.122 145.643-148.895 288.647-219.992 496.915-219.992 593.071 0 880.309 665.507 603.442 1152.303-147.106 258.652-394.659 358.175-699.11 367.792v-391.991c265.722-64.094 266.182-493.467 133.409-647.727-164.547-191.18-513.474-110.472-513.474 270.224 0 175.912 73.837 331.57 234.883 375.083v392.718c-363.969-19.367-602.64-145.461-761.26-474.286-80.158-166.161-120.485-386.7-120.485-660.541zm4798.449-5924.75h502.702v135.065H14414zm-1928.058 3478.262l251.381 435.779-116.857 67.478-251.321-435.778zm-2112.331 566.571l134.965-.03v503.264h-134.965zm134.965-8457.925v503.292h-134.919v-503.265zm3339.509 2433.493l435.314-251.642 67.389 116.93-435.294 251.623zm-7316.696 4228.889l435.4-251.623 67.449 116.931-435.407 251.642zm-565.882-2249.33l502.722.03v135.031H5965.48zm6771.817-3778.96l-251.295 435.81-116.796-67.525 251.234-435.832zm-2295.949 3580.009c146.82 0 266.283 119.596 266.283 266.584 0 146.994-119.463 266.584-266.284 266.584-146.825 0-266.287-119.59-266.287-266.584 0-146.988 119.462-266.584 266.288-266.584zm-7515.19-6270.823l-16.699 95.543-82.73-14.382 16.698-95.544zm282.935 41.92l-16.699 95.544-82.73-14.384 16.697-95.542zm152.251 23.452l82.731 14.383-16.698 95.544-82.73-14.384zm262.247 43.727l82.73 14.383-16.697 95.543-82.731-14.383zm283.656 46.299l82.73 14.382-16.697 95.544-82.731-14.382z" />
</svg>