<svg viewBox="0 0 21000 21000" shape-rendering="geometricPrecision" text-rendering="geometricPrecision"
  image-rendering="optimizeQuality" fill-rule="evenodd" clip-rule="evenodd" xmlns="http://www.w3.org/2000/svg">
  <defs>
    <style>
      svg {
        background-color: var(--bg, #fff);
      }

      .bg {
        fill: var(--bg, #fff);
      }

      .fg {
        fill: currentColor;
      }
    </style>
  </defs>
  <path class="fg"
    d="M17853.869 1825.374c401.655-71.788 784.081 187.668 854.124 579.517 82.352 460.671-314.53 878.215-780.217 850.043 889.266 1148.66 1439.861 3544.77-561.528 3768.816 2757.955 3595.068 2114.018 8696.599-1405.425 11526.662L17075.311 20500l-2245.047-.012-832.792-787.46c-2002.912 912.955-4454.43 935.888-6522.942 117.87l-843.885 668.533H4275.857l1170.632-1811.841c-3744.61-2852.008-4422.051-8207.938-1434.065-11867.578-2741.885 244.32-2368.643-2445.51-1253.438-3640.047-383.892-25.763-682.375-358.03-672.067-755.811 10.57-407.873 341.761-730.162 739.723-719.855 467.721 12.114 797.083 484.98 675.544 935.354 852.01-417.805 1920.63-509.969 2663.33-241.319 132.154-999.425 210.982-1280.326 1140.082-1542.566 1906.889-538.22 4576.617-436.125 6273.035 112.483 760.635 245.978 951.955 619.724 1099.02 1428.22 738.87-190.851 1747.845-262.911 2571.17 239.864-52.075-381.19 213.301-740.447 605.046-810.461z" />
  <path class="bg"
    d="M13942.056 6103.078l-388.506 1618.469-313.337-8.114 322.043-1350.216-205.97-5.342 27.969-99.425c215.517 5.58 371.344-49.628 557.801-155.372zM7792.413 1702.583c1579.277-460.762 3821.778-376.11 5228.737 86.72 911.848 299.97 825.405 744.56 724.084 1547.476-36.607 289.97-8.092 634.044 81.557 1008.87-849.544-349.825-1770.155-567.495-2736.158-626.077l21.992-848.305 468.346 12.149 18.684-720.514-2053.59-53.219-18.673 720.503 540.413 14-22.685 874.715c-1109.465 66.174-2163.49 344.267-3119.651 794.631 144.235-467.49 171.227-938.752 36.925-1344.204-234.918-710.047 157.168-1270.473 830.019-1466.745zm3153.838 3614.49c575.826 14.932 490.235 588.086 70.861 920.24-156.214 123.722-358.718 246.557-466.857 413.19 214.506 5.33 475.358 129.416 652.53-29.91l68.406-63.173c43.074 775.857-589.191 219.193-894.425 345.858l-83.977 34.104c-57.78-226.932 189.377-488.23 365.696-654.567 216.222-203.976 372.652-391.293 379.812-666.898 6.035-232.454-302.586-253.774-308.723-17.432-1.716 66.321 17.57 137.78 78.658 157.337-358.695 300.038-534.843-456.148 138.019-438.75zm-597.34-13.308l-388.518 1618.469-313.337-8.126 322.054-1350.205-205.982-5.34 27.97-99.438c215.528 5.614 371.344-49.604 557.812-155.36zm-2229.875 808.746L7730.53 7730.979l-313.337-8.125 322.054-1350.216-205.993-5.33 27.98-99.437c215.529 5.58 371.322-49.616 557.802-155.36zm-710.799-18.422l-388.506 1618.469-313.337-8.126 322.043-1350.204-205.982-5.342 27.98-99.437c215.518 5.614 371.334-49.616 557.802-155.36zm-1886.08 2211.93c-46.733 182.34-73.918 170.316-163.975 334.892-276.23 504.799-148.281 786.029-148.281 1265.496-618.525-55.423-389.62-1513.94 312.257-1600.388zm-716.821-21.364L4416.83 9903.123l-313.337-8.126 322.043-1350.204-205.97-5.341 27.969-99.426c215.517 5.58 371.344-49.605 557.8-155.371zm883.253 23.274c580.93 99.891 273.775 1493.052-307.78 1614.058 157.112-447.613 352.002-671.272 334.954-1184.57-4.955-149.031-27.174-273.799-27.174-429.488zm10385.215-18.206c575.883 14.955 490.19 588.132 70.873 920.251-156.203 123.711-358.718 246.558-466.857 413.169 214.403 5.568 475.472 129.325 652.518-29.888l68.407-63.174c43.108 775.824-589.203 219.205-894.426 345.836l-83.988 34.115c-57.667-227.102 189.252-488.081 365.719-654.567 216.165-203.942 372.674-391.326 379.812-666.897 6.057-233.933-302.54-256.184-308.734-17.433-1.717 66.356 17.593 137.734 78.658 157.349-358.673 300.072-534.844-456.216 138.018-438.76zM3672.095 12068.62c18.184-700.104 1006.951-907.671 986.062-101.074-33.016 1273.292-1027.988 1271.065-1018.385 899.637 2.796-107.699 66.918-159.747 192.026-156.497-151.986 144.349 205.823 425.738 439.194-142.848 48.916-119.188 197.947-741.515 80.602-911.591-128.551-186.305-421.249 12.523-431.25 397.406-8.217 316.266 233.61 268.286 302.551 101.46 230.656 289.514-566.984 536.845-550.8-86.493zm13190.211-184.441c-362.253 304.98-531.195-456.092 139.462-438.716 525.74 13.626 498.713 529.232 87.898 725.105 547.902 198.521 187.252 1015.722-483.348 895.364-420.579-75.482-392.962-681.137-23.254-671.546 92.842 2.41 145.554 41.15 158.476 115.87-242.475 9.591-254.966 375.553-97.922 418.385 395.439 107.857 542.97-598.19 94.33-769.358 377.426-99.061 540.06-588.723 202.743-597.473-79.374-2.057-154.918 68.992-156.986 147.973-2.569 98.994 23.514 157.36 78.601 174.396zm-6349.079-131.28c282.026 7.296 504.692 241.83 497.384 523.81-7.319 281.97-241.839 504.663-523.842 497.367-282.026-7.307-504.691-241.853-497.384-523.833 7.308-281.98 241.816-504.662 523.842-497.344zm-5211.95 2846.11c464.243 69.958 375.981 545.323.113 717.332 510.977 171.6 179.103 856.27-280.492 905.784v-164.69c230.35-83.913 253.102-498.196 63.156-672.33-220.017 141.701-365.32 487.48-229.587 642.283v190.328c-500.452-81.027-481.825-772.255 40.028-911.91-361.763-222.284-115.8-675.716 240.35-712.059v126.79c-185.9 105.87-153.52 396.157-22.64 516.527 166.92-102.46 306.178-407.01 189.071-516.97zm10871.79 42.718l322.793-35.195-209.369 867.271 139.257 3.603-48.074 160.587-130.54-3.386-141.7 594.7-313.701-8.136 144.246-594.621-531.275-13.774c115.55-333.221 401.633-679.318 329.59-1025.972 349.227 9.069 233.632 380.712 110.105 568.563-66.691 101.425-148.736 197.885-209.221 301.56l339.806 8.796zm-8902.996 3212.992c-87.603 185.555-127.642 355.495 24.23 493.025-42.778 106.494-292.868 98.016-367.685 16.967-96.046-104.062-44.505-357.655 11.138-485.582 118.652-272.786 423.545-611.508 652.882-869.555-229.485-37.4-503.964-19.33-639.05 125.688-47.075-233.261 30.129-343.585 287.083-336.926l714.038 18.501c-167.568 242.24-580.94 822.485-682.636 1037.882zm3514.294-286.06c287.686 7.444 344.5 323.869 47.768 327.449 172.352-151.065-245.555-484.99-479.7 348.256-334.646 1191.015 376.357 811.075 388.188 354.415 7.82-301.97-190.832-293.037-305.188-70.685-224.61-341.279 571.45-556.733 556.312 28.206-18.605 718.82-907.995 838.906-1003.53 369.519-75.851-372.678 120.64-1374.65 796.15-1357.16zm2607.8-756.277c264.887 34.468 479.007 82.89 744.644-13.716 47.109 458.364-381.778 292.083-615.877 254.001l-97.251 391.918c812.016-367.735 919.36 1000.675-1.728 976.788-473.085-12.25-420.124-436.659-284.685-553.13 93.137-80.084 324.418-122.859 351.955 43.604-253.59 29.036-280.798 358.45-29.776 364.984 394.881 10.274 468.994-1054.962-268.195-601.325z" />
</svg>