<svg viewBox="0 0 1024 1024" version="1.1"
  xmlns="http://www.w3.org/2000/svg">
  <path d="M512 512m-512 0a512 512 0 1 0 1024 0 512 512 0 1 0-1024 0Z" fill="#0A0A0A"></path>
  <path
    d="M302.848 637.888a20.032 20.032 0 0 1 14.336-5.888h495.36c8.768 0 13.44 10.944 7.104 17.28l-97.728 97.728a20.032 20.032 0 0 1-14.272 5.888H211.84c-8.832 0-13.44-10.944-7.168-17.28l98.112-97.728z"
    fill="#C931F7"></path>
  <path
    d="M302.848 272.896a20.032 20.032 0 0 1 14.336-5.888h495.36c8.768 0 13.44 10.944 7.104 17.28L721.92 381.952a20.032 20.032 0 0 1-14.272 5.952H211.84c-8.832 0-13.44-11.008-7.168-17.28l98.112-97.728z"
    fill="#1CE2AF"></path>
  <path
    d="M721.536 454.4a20.096 20.096 0 0 0-14.336-5.888H211.84c-8.768 0-13.44 10.88-7.104 17.28l97.728 97.664c3.776 3.84 8.832 5.952 14.272 5.952h495.36c8.832 0 13.44-11.008 7.104-17.28L721.536 454.4z"
    fill="#6697CE"></path>
</svg>