<svg viewBox="0 0 1024 1024" version="1.1"
  xmlns="http://www.w3.org/2000/svg" width="128" height="128" fill="#cdcdcd">
  <path
    d="M768 128H256a128 128 0 0 0-128 128v512a128 128 0 0 0 128 128h512a128 128 0 0 0 128-128V256a128 128 0 0 0-128-128zM256 213.333333h512a42.666667 42.666667 0 0 1 42.666667 42.666667v356.693333l-136.533334-116.48a118.186667 118.186667 0 0 0-150.186666 0L213.333333 755.2V256a42.666667 42.666667 0 0 1 42.666667-42.666667z"
  ></path>
  <path d="M341.333333 362.666667m-64 0a64 64 0 1 0 128 0 64 64 0 1 0-128 0Z"></path>
</svg>