<svg viewBox="0 0 21000 21000" shape-rendering="geometricPrecision" text-rendering="geometricPrecision"
  image-rendering="optimizeQuality" fill-rule="evenodd" clip-rule="evenodd" xmlns="http://www.w3.org/2000/svg">
  <defs>
    <style>
      svg {
        background-color: var(--bg, #fff);
      }

      .bg {
        fill: var(--bg, #fff);
      }

      .fg {
        fill: currentColor;
      }
    </style>
  </defs>
  <path class="fg"
    d="M14352.24 4137.81c503.021 23.638 634.806 25.858 951.29 424.68 267.177 336.7 403.314 320.395 835.63 572.612 92.601 54.02 153.747 90.333 214.893 126.646-78.599 133.405-152.902 252.381-244.576 353.39 602.557 912.957 981.171 1278.899 1699.633 2100.853 574.226 656.938 902.294 1103.028 1802.423 992.86 896.654-109.718-50.505 49.709 513.219 115.289 241.78 28.12 556.888 90.291 223.171 192.938-205.644 63.253-341.872 76.756-40.676 82.884 179.864 3.671 287.064 12.463-140.154 130.48-224.82 62.098-393.182 12.774-703.986 78.026-483.83 101.574 753.22 759.577-219.753 336.462-514.309-223.655-799.782-229.178-1069.983-733.104-108.996-203.27-290.876-484.05-910.13-938.538-592.458-434.824-649.611-481.231-1150.214-1052.196-963.046-1098.408-1405.536-951.967-1193.136-112.11 149.442 590.973 233.279 891.638 812.972 1104.97 1314.526 483.779 1444.286 1885.48 1368.065 2752.728-44.193 502.46-108.241 1026.731-185.06 1512.755-117.26 741.92-215.647 1046.11 27.035 1709.39 444.54 1214.99-80.361 2164.688-247.683 3328.429-136.686 950.655 97.413 907.96 45.637 1157.154-38.488 185.203-92.428 90.856-97.027 454.357-1.78 139.943 1.762 333.028 5.312 526.114-18.609 3.54-37.307-3.253-55.924.287 0-160.238-77.46-843.257-107.282-287.228-12.395 231.038 60.096 528.59-347.218 716.497-160.05 73.838-552.862 119.935-660.62-61.115-271.201-455.61 221.155-483.812 256.536-901.635 61.957-731.801 135.113-569.203 302.623-1124.388 440.645-1460.53-348.636-3887.22-408.077-5338.942-21.814-532.67-68.491-753.523-178.56-1258.58-97.371-446.868-371.81 96.78-438.195 263.942-173.92 437.978-681.99 1621.064-917.164 1965.801-646.06 947.075-1021.724 2153.75-1625.182 3053.853-244.026 363.95-1016.19 1091.09-864.888 1468.036 61.548 153.34 186.135 231.25 174.126 404.32-5.313 76.608-24.806 182.008-34.11 372.439-9.305 190.414-8.42 465.876-7.526 741.314l-122.292 5.326c-.721-177.191-.434-1215.885-230.533-462.15-53.153 174.094-24.814 339.937-53.924 610.057-25.125 233.118-206.013 268.17-433.325 278.985-83.058 3.957-231.525-2.753-343.012-29.57-298.483-71.799-39.922-272.455-232.09-272.455-615.238 0-423.374-469.85-486.512-883.912-41.93-275.02-339.692-472.866-204.685-774.547 256.962-574.218 378.343-169.26 118.734-1634.534-75.377-425.45-138.318-833.638-215.884-1172.64-454.54-88.062-882.218-251.373-1269.53-476.454-319.042 1564.21-1574.636 1988.628-1139.761 3412.944 68.228 223.46-240.149 426.303-240.149 1034.5 0 109.832 2.656 228.505 5.312 347.186l-95.699-5.309c2.648-163.04-11.493-864.748-103.535-224.99-44.874 311.93 31.888 726.508-312.96 782.092-178.905 28.84-587.112 12.552-739.932-77.501-125.267-73.823-79.221-591.744-244.575-977.358-154.837-361.083-199.227 733.71-207.359 835.202l-82.41-2.654c14.674-452.03 38.078-856.3-37.652-1212.517-163.829-770.622 375.877-294.995-22.6-1364.857-371.9-998.546-923.239-2137.723-860.453-3214.615 33.167-568.851-620.403-1076.12-1023.053-1441.014-349.291-316.544-1770.066-1424.652-2228.665-1000.398-354.997 328.416-537.172-201.41-347.816-506.172 122.645-197.395 315.977-454.471 556.945-378.182 1094.339 346.474 948.913 216.002 169.699-484.918l50.505-53.143c341.127 212.586 659.489 437.118 1035.03 507.5 332.937 62.4 178.412 19.393 363.325 377.748 374.229 725.255 715.814 835.366 1414.283 1285.585-50.506-818.127-134.916-1130.378-247.232-1914.429-88.935-620.904-24.306-1253.86 477.634-1674.395 120.512-100.975 264.06-187.768 407.625-274.56-396.091-179.452-909.58-405.46-1245.035-571.728-212.228-105.187-184.495-174.847-123.62-428.228 263.332-1096.096 788.97-1123.888 756.77-2103.508-21.543-655.406 427.103-941.331 591.268-1303.676 29.618-65.392 128.612-331.784-4.008-125.179-140.425 218.674-124.743 188.448-60.556-49.062 286.81-1061.234 1317.608-2279.404 2424.153-1173.41 447.155 446.934 168.166 1123.34 93.928 1661.999-22.158 160.754-29.249 356.495-36.34 552.235 207.613-565.525 439.506-625.935 574.234-1308.175 138.58-701.682 411.995-2123.958 1161.74-2358.15 1130.743-353.21 1285.44 1541.604 1245.92 2236.814-7.37 129.75-26.856 253.733-56.85 368.85-101.118 387.991-92.74 236.077-90.109 24.433 5.444-436.34-4.353-216.477-91.813 24.523-56.867 156.69-142.36 280.288-292.031 451.055 149.803 127.948 401.06 217.404 373.286 455.471-37.734 323.492-130.08 234.626 431.997 700.577 633.961 525.55-165.665 611.94-8.567 987.772 61.761 147.776 142.45 369.702 126.514 568.237 133.482 8.545 265.225 23.49 394.911 44.539 163.042-314.365 347.037-558.528 101.02-852.802-128.777-154.028-195.718-159.157-81.526-367.564 390.403-712.523 374.934-387.777 455.483-510.138 101.569-154.281 37.685-908.394 551.182-943.273 441.695-30.004 250.11 90.66 150.64-594.292-62.147-427.908 182.552-1000.668 359.776-1435.713 635.256-1559.409 2021.675-729.04 2195.858 300.255 125.653 742.51-90.296-299.01-84.739 289.318 4.329 456.192 21.995 872.654-272.381 1263.299z" />
  <path class="bg"
    d="M8713.627 8310.75l55.26-31.89 223.311 386.59-55.252 31.889zm3151.043-31.881l55.252 31.889-223.295 386.58-55.26-31.88zm-1579.792-406h63.802v446.385h-63.802zm-722.455-3928.358l-135.58 193.963-103.675-51.807c53.604-21.705 107.216-43.4 147.098-67.096 39.873-23.695 66.023-49.373 92.157-75.06zm157.525 35.207l-130.268 223.197-101.027-29.234zM7603.853 9419.964l386.779 223.188-31.905 55.232-386.771-223.188zm5425.852.008l31.905 55.224-386.78 223.196-31.905-55.224zM8468.437 7018.249c31.88 87.62 84.985 189.358 138.105 291.087a4069.007 4066.923 0 00-177.068 86.883c-25.118-56.305-50.21-112.594-78.722-157.568-28.511-44.981-60.4-78.632-109.585-88.816-159.32-33.003-328.257 193.692-450.163 275.888-374.72 252.61-398.56-301.714-331.421-570.826 35.946-144.105 80.623-342.812 126.58-549.474 31.347-141.107 133.776-193.323 133.12-5.891-.254 73.396 1.394 132.848 19.674 205.073 41.283 162.909 18.838 104.572 69.565 35.42 66.155-90.193 42.775 16.976 55.613 60.45 41.307 139.92 44.898 57.617 68.015 18.6 40.176-67.924 27.626-10.439 28.446 10.184.992 25.023 7.189 68.423 32.888 91.889 25.7 23.474 70.893 27.014 115.644 3.548 44.75-23.466 89.05-73.962 118.3-109.382 67.343-81.598 42.357-47.235 63.9 22.523 2.918 9.456 6.747 19.222 11.87 28.841 21.707 40.746 66.9 78.829 94.822 134.626 27.904 55.797 38.545 129.316 70.417 216.945zm-808.513 897.783a4113.629 4111.521 0 00-451.786 451.694c-112.397-189.382-177.093-304.466-230.377-520.002 304.008 30.422 300.45 125.859 682.163 68.308zm-494.184 3074.369h446.613v63.77H7165.74zm6302.077.016v63.77h-446.613v-63.77zM6578.99 8496.06c89.649 148.66 149.86 231.406 274.832 352.652-1030.782 1637.107-763.286 3791.487 640.848 5130.584-248.076 212.397-388.46 827.222-487.667 1142.619-202.612 644.198-614.812 1796.853-700.493 2398.454-36.48 256.142 11.312 425.573-103.684 684.64-51.694 116.478-52.309 29.308-66.908-47.825-39.423-208.276-79.238-335.183-163.043-529.646-166.091-385.368-263.43-584.042-323.001-997.292-92.084-638.422-208.613-1281.89-225.525-1927.26-8.492-323.45 9.567-487.155 94.814-792.695 149.204-534.808-89.165-1359.334 118.308-2058.788 163.935-552.842 267.25-823.765 360.21-1427.741 64.573-419.445 150.984-640.282 323.002-1017.661 146.614-321.657 223.877-558.52 258.307-910.041zm3737.786 2315.34c116.528 0 210.998 94.42 210.998 210.89 0 116.477-94.47 210.898-210.998 210.898-116.53 0-210.999-94.42-210.999-210.898 0-116.47 94.47-210.89 210.999-210.89zm-2744.827 1757.992l386.779-223.205 31.905 55.232-386.788 223.197zm5102.874-223.188l386.78 223.188-31.906 55.232-386.779-223.197zM8936.93 13347.249l55.26 31.88-223.303 386.59-55.26-31.89zm1411.75 378.084v446.377h-63.81v-446.377zm1347.93-378.084l223.312 386.59-55.26 31.88-223.311-386.581zm-6670.107-7048.57c291.572 549.745 398.583 791.23 374.4 1420.212-10.5 272.513-254.281 181.836-431.111 84.58-209.088-114.986-487.667-303.344-668.597-457.904-115.643-98.78-145.302-145.85-70.007-280.763 103.986-186.343 433.645-738.684 573.774-876.383 107.922-106.039 170.117 13.274 221.54 110.259zm5587.77 8799.508c501.677-36.06 978.302-162.582 1413.603-363.337-40.013 57.133-80.025 114.265-100.47 161.87-197.71 460.329-338.684 1180.267-532.647 1702.071-203.506 547.533-464.427 1103.062-595.498 1671.749-53.162 230.726-90.379 477.83-112.971 613.342-53.391 320.157-108.602-73.675-144-201.05-159.451-573.694-59.055-1470.207 3.1-2062.336 55.366-527.368 81.737-992.114 68.884-1522.31z" />
</svg>