<svg viewBox="0 0 21000 21000" shape-rendering="geometricPrecision" text-rendering="geometricPrecision"
  image-rendering="optimizeQuality" fill-rule="evenodd" clip-rule="evenodd" xmlns="http://www.w3.org/2000/svg">
  <defs>
    <style>
      svg {
        background-color: var(--bg, #fff);
      }

      .bg {
        fill: var(--bg, #fff);
      }

      .fg {
        fill: currentColor;
      }
    </style>
  </defs>
  <g transform="translate(-.11 -4350.003)">
    <g transform="matrix(.83983 0 0 .84077 1687.882 2364.121)">
      <path class="fg"
        d="M18063.31 8927.2c463.12 750.86 621.41 1639.28 474.87 2665.24 128.89 906.83 296.88 1882.45 503.98 2926.89-166.86 40.75-363.93 53.67-591.2 38.77-210.14 284.12-349.05 723.48-416.75 1318.07 1307.81-274.61 2322.21-452.29 3043.2-533.04 133.75 252.79 117.6 475.7-48.45 668.73-74.17 116.69-77.4 220.06-9.7 310.15 88.39 184.59 73.85 356.61-72.68 637.22l1444.09-4.84c-4138.39 13175.26-21064.15 11278.47-23795.6 8.38h4775.86c112.65-238.25 124.46-427.92 40.88-580.59-396.73 638.76-627.72 462.68-140.52-281.05-445.05-14.89-703.5-190.96-775.34-528.2 223.7-138.19 68.64-346.57-465.17-625.1 959.09-712.7 1559.98-1836.94 1802.66-3372.71 119.17-1829.17 342.08-2895.26 668.73-3198.27-708.6-1323.06-892.75-2182.39-552.45-2578 123.66-68.57 139.82-113.8 48.46-135.7-630.56-136.65-672.56-724.61-125.98-920.7-393.41-2068.02 2739.1-967.15 1540.97-96.92-7.89 92.77 3.43 163.88 33.96 213.33 188.98 94.5 187.36 188.18-4.85 281.06-18.29 359.44-153.99 525.8-407.05 499.09-263.81-217.63-381.73-69.02-353.75 445.82 278.27 167.32 543.17 378.93 794.72 634.82-129.17 547.57 410.32 836.71 324.68-4.85-229.88-59.77-389.8-243.91-479.74-552.43 191.95-363.87 418.09-399.4 678.4-106.59 376.19 1128.69 259.89 1858.8-348.91 2190.31 147.43 1032.23 160.36 2401.99 38.77 4109.29-55.26 1127.53 93.34 2154.85 445.82 3081.95 211.58 229.52 50.05 381.36-484.6 455.5 104.22 435.19 317.44 791.84 639.66 1069.94 287.91 2.26 704.14-12.54 990.7-22.68-686.23-779.51-1102.47-1802.48-1102.47-2922.65 0-2443.89 1981.18-4425.04 4425.06-4425.04 2080.94 0 3826.39 1436.38 4298.94 3371.77 243.74-249.88 498.23-401.07 577.95-329.91 308.63 177.14 487.93 160.98 537.89-48.45 113.02-296.57 277.79-511.39 494.29-644.48 16.66-291.74.51-572.8-48.46-843.19-381.17 191.53-629.92 217.38-746.25 77.53-985.86-694.5-1363.83-1124.16-1133.93-1288.98-568.41-528.75-691.17-919.65-368.29-1172.71 222.68-523.91 361.59-530.37 416.75-19.37-68.46 107.2-36.15 187.96 96.91 242.28 62.66 165.7 85.27 301.38 67.85 407.06 387.38 437.98 791.21 783.65 1211.46 1037.01 257.35-177.8 428.57-271.49 513.66-281.07 28.63-395.84 164.31-657.51 407.05-785.02 3.88-126.39-57.51-229.78-184.14-310.13 1.41-175.99 91.87-272.91 271.36-290.76 26.56-238.48-112.35-387.08-416.73-445.81-68.38-116.47-3.76-274.77 193.83-474.89-.64-85.59-32.95-134.05-96.92-145.37-70.48-126.32 13.51-216.77 251.99-271.37 75.77-160.68 159.75-270.51 251.97-329.52 21.06-81.55-17.71-136.47-116.29-164.76-184.86-149.58-55.64-207.74 387.67-174.45 1199.26-482.75 1848.61 1219.75 552.42 1880.18-54.03 141.31-41.11 254.38 38.76 339.21z" />
      <path class="bg"
        d="M4819.6 16312.74c-118.21 233.22-97.23 449.34 62.98 648.36h-911.02c-76.17-331.95 86.97-696.67 489.43-1094.18 430.99-126.74 603.83 191.47 358.61 445.82z" />
      <path class="bg"
        d="M14375.72 8896.51c169.08 100.49 166.66 275.74-14.54 271.38-291.92-76.74-214.39-336.82 14.54-271.38z" />
      <path class="bg"
        d="M13729.63 11838.62c79.18-.28 142.44 18.03 189.98 55.13 47.36 37.1 71.25 86.31 71.47 147.79.18 51.53-14.27 91.95-43.36 121.07-29.09 29.14-81.21 53.37-156.2 72.88l-3.08.53c-120.98 30.49-195.7 75.25-224 134.1 13.72-8.98 27.95-15.91 42.52-20.42 14.59-4.52 30.21-6.82 47.04-6.87 27.48-.1 64.95 5.25 112.21 16.08 47.44 10.81 80.1 16.19 98.31 16.13 28.16-.1 48.74-8.95 61.72-26.68 12.99-17.74 20.78-47.65 23.38-90.08l58.73-.22.06 14.08c.26 72.31-13.62 128.36-41.46 168.3-27.85 40.11-67.11 60.18-117.77 60.37-18.39.06-39.53-3.29-63.08-9.9-23.72-6.61-50.03-16.48-78.94-29.77-6.03-3.07-14.79-7.51-26.16-13.47-37.69-19.62-66.4-29.48-86.15-29.4-17.52.05-30.73 5.78-39.96 16.98-9.24 11.2-15.01 28.91-17.67 53.13l-59.77.22c-.35-3.43-.71-6.87-.89-10.65-.18-3.61-.21-9.28-.24-17-.2-54.1 11.32-100.34 34.7-139.08 23.39-38.72 60.37-72.52 110.93-101.57 21.07-12.61 48.16-26.63 81.25-42.37 33.1-15.57 54.7-26.14 64.81-31.66 21.09-11.42 37.52-27.45 49.64-48.11 11.95-20.65 17.87-43.68 17.78-69.11-.13-34.52-13.46-62.98-39.99-85.03-26.7-22.23-60.57-33.27-101.79-33.12-30.23.11-56.32 6.9-78.43 20.56-22.1 13.64-39.21 33.46-51.13 59.26 5.32-1.56 10.98-2.96 16.65-3.85 5.66-.88 11.83-1.24 18.54-1.26 21.64-.08 38.83 6.04 51.76 18.19 12.93 12.14 19.52 28.6 19.6 49.39.09 24.04-7.41 43.83-22.64 58.83-15.23 15.16-35.12 22.79-59.68 22.88-28.52.1-52.24-9.94-70.87-30.14-18.8-20.2-28.16-46.11-28.28-77.71-.19-51.52 22.83-95.91 69.25-132.67 46.41-36.91 103.36-55.51 171.21-55.76z" />
      <path class="bg"
        d="M7266.7 15515.49v73.09c-19.23 3.61-35.52 9.63-48.87 18.04-23.29 14.68-34.91 34.64-34.82 59.9.08 18.71 6.83 35 20.29 48.86 13.43 13.86 33.06 24.27 58.5 31.22l117.58 31.34c23.67-11.41 41.65-25.91 53.61-43.29 12.13-17.22 18.07-37.34 17.99-60.19-.1-27.82-12.38-49.76-36.83-65.98-16.83-11.26-37.94-18.54-63.34-21.88l.57-71.75c56.31 4.34 103.22 18.24 140.73 41.47 46.62 28.88 69.98 66.38 70.14 112.76.11 29.89-8.89 55.86-26.86 78.07-17.94 22.23-45.86 41.73-83.93 58.71 45.92 18.89 80.19 42.47 102.62 70.56 22.61 28.07 33.9 61.35 34.04 100 .22 61.31-24.17 109.83-73.16 145.57-42.42 30.94-98.71 48.54-168.8 52.9l.65-82.01c31.93-2.86 56.92-9.34 75.06-19.33 25.17-13.86 37.66-34.83 37.56-63-.07-18.72-6.32-34.33-18.9-46.65-12.59-12.32-33.24-23.24-61.61-32.41l-139.11-43.8c-29.83 11.44-52.45 26.47-67.67 45.07-15.4 18.45-23.04 39.59-22.96 63.3.11 30.91 14.12 55.07 42 72.49 19.76 12.46 44.93 20.42 75.55 23.93v81.98c-63.75-4.58-116.3-19.72-157.6-45.33-50.74-31.47-76.17-73.05-76.37-125.1-.12-33.48 10.6-62.38 32.15-86.84 21.55-24.3 54.29-44.34 98.2-59.97-35.64-21.68-62.01-45.63-79.44-71.66-17.45-26.05-26.13-54.88-26.25-86.48-.2-54.44 22.98-98.83 69.41-133.53 37.31-27.75 84.01-44.44 139.87-50.06z" />
      <path class="bg" d="M5163.65 16961.1c-110.61-296.34 110.69-291.5 198.68 0z" />
      <path class="bg"
        d="M15880.56 13960.63c321.8 176.93 643.24 259.32 964.33 247.14-88.86 345.72-127.62 1046.75-116.29 2103.1 1.99 170-31.93 224.92-101.78 164.77-220.92-641.86-469.67-1480.19-746.26-2515.01z" />
      <path class="bg"
        d="M14861.63 15222.24c109.37 240.07 197.76 606.84 265.15 1100.3 187.77-30.57 379.99-25.72 576.65 14.54-123.6 279.11-328.74 427.71-615.42 445.81-228.23-11.12-376.83 48.27-445.82 178.21h-708.82c429.96-495.37 751.68-1087.28 928.26-1738.86z" />
      <path class="bg"
        d="M20042.98 16264.46c423.08 234.61 523.24 466.81 300.46 696.64h-368.3c2.69-352.07 25.3-584.28 67.84-696.64z" />
      <path class="bg"
        d="M13918.32 15863.85l120.56-.44.33 88.62-120.56.44.17 44.15c.07 21.81 4.59 36.56 13.71 44.25 9.14 7.69 25.46 11.41 49.34 11.33l57.7-.21.28 74.18-364.79 1.35-.28-74.2 37.26-.14c34.36-.12 55.64-3.47 64.22-9.85 8.56-6.38 12.8-21.68 12.71-46.24l-.17-44.14-.32-88.63 2.27-225.69-203.21 226.42 155.79-.57.32 88.63-268.12.98-.29-78.5 342.11-382.36 99.62-.36z" />
      <path class="bg"
        d="M12555.78 17155.3c47.74 41.9 71.81 94.88 72.04 159.28.27 74.89-23.55 133.89-71.49 177.34-47.93 43.46-113.97 65.34-197.79 65.64-77.11.28-139.69-15.63-187.72-47.74-48.05-32.28-72.25-73.59-72.43-124.26-.09-26.44 8.76-48.46 26.38-66.39 17.63-17.75 39.75-26.77 66.2-26.86 25.08-.09 45.72 6.7 61.56 20.38 16.03 13.68 23.99 31.51 24.07 53.66.09 23.7-7.58 42.46-23.15 56.25-15.58 13.8-36.68 20.75-63.13 20.85 18.59 14.53 38.74 25.45 60.57 32.58 21.85 7.13 45.39 10.66 70.47 10.57 49.11-.18 87.19-14.06 114.4-41.63 27.21-27.59 40.81-66.29 40.63-115.93-.19-51-13.55-90.62-39.95-118.88-26.55-28.24-63.18-42.18-110.24-42.01-25.77.09-49.27 5.5-70.53 16.4-21.42 10.72-41.28 27.46-60.11 50.03l-69.91-2.83 30.56-334c33.88 10.87 68.61 18.98 104 24.35 35.4 5.37 72.68 7.99 111.66 7.85 40.2-.16 79-3.05 116.08-8.51 37.09-5.45 72.6-13.48 106.4-24.25-13.56 50.02-41.6 87.23-84.27 111.42-42.51 24.37-100.5 36.61-174.19 36.88-13.39.05-28.86-.59-46.55-2.07-17.7-1.48-39.87-3.98-66.84-7.66l-7.55 94.67c26.75-12.46 53.32-21.84 79.58-28.12 26.43-6.27 52.52-9.46 78.8-9.56 73.85-.27 134.55 20.65 182.45 62.55z" />
      <path class="bg"
        d="M10906.38 18618.72c424.69-52.01 700.91 67.52 828.65 358.61 246.62-299.09 451.96-463.86 616.04-494.3-181.33-835.75 1550.26-1346.99 1633.04-123.56 1237.69-564.19 2321.55 668.28 67.87 1385.92-132.21 1.37-141.07-39.81-26.57-123.56 1751.33-793.77 885.53-1813.01-271.38-848.03-131.03 48.14-199.65 19.66-205.85-85.45 531.38-1027.46-756.85-1079.74-942.61-403.98 829.04 191.56 862.96 748.85 101.76 1671.84-101.75 45.51-129.74 12.27-83.95-99.72 928.91-1323.22-217.51-1969.82-824.18-428.55-70.5 116.77-133.08 116.37-187.75-1.17-469.28-1590.63-2058.73 370.35-43.61 823.8 109.81 118.7 89.63 177.26-60.57 175.67-1602.4-282.67-1395.65-1602.37-600.89-1807.52z" />
      <path class="bg"
        d="M18455.79 18240.75c371.97-412.66 157.93 635.66-649.35 2054.63-314.98 268.58-104.99-923.49 649.35-2054.63z" />
      <path class="bg"
        d="M10211.91 21797.18c-198.56-194.58 176.36-305.01 380.13 59.68 86.11 1742.55-1406.43 1467.95-668.72 135.68 142.21-97.06 208.45-51.84 198.7 135.69-375.11 876.09 52.69 1050.79 252.42 82.09 53.43-259.12-25.3-278.61-162.53-413.14z" />
      <path class="bg"
        d="M12001.11 22635.65c-662.37-136.75-34.99-1897.06 523.37-1385.92 80.61 187.47-11.46 447.54-276.22 780.19-139.8 31.88-167.27-29.51-82.39-184.14 592.54-950.7-602.72-72.35-43.6 639.65 37 127.28-3.39 177.35-121.16 150.22z" />
      <path class="bg"
        d="M11523.78 21321.27c389.64 132.7 223.26 739.24-387.67 1422.26-758.58 882.09-278.03-1889.85 16.98-1153.33-178.09 554.35-221.69 900.02-130.83 1037.03 407.27-268.12 282.22-1409.83 501.52-1305.96z" />
      <path class="bg"
        d="M15240 20626.61c-198.56-194.58 176.36-305.01 380.13 59.68 86.11 1742.55-1406.43 1467.94-668.72 135.68 142.22-97.06 208.45-51.84 198.7 135.69-375.11 876.09 52.69 1050.79 252.43 82.09 53.43-259.12-25.31-278.61-162.54-413.14z" />
      <path class="bg"
        d="M15738.49 21115.21c102.46-453.26 209.57-709.16 321.31-767.65 74.87-39.2 222.46 32.3 170.83 149.78-724.15 1645.82-24.62 874.17 496.42-327.04 668.21-832.11-270.68 2595.4-285.91 1075.75-554.33 615.42-788.55 571.8-702.65-130.84z" />
      <path class="bg"
        d="M17599.33 20788.08c156.62 68.96 85.96 345.18-121.16 327.1-182.44-33.97-128.72-328.36 121.16-327.1z" />
      <path class="bg"
        d="M13684.87 20554.95c480.38-346.2-643.11 2305.07 130.84 1226 298.71-405.12 489.31-778.25 571.81-1119.38 121.65-558.31 408.36-634.25 443.39-302.88-225.95 791.35-421.5 1583.2-707.8 2428.86 473.07-175.14 5052.77-1450.01 5085.55-1016.47 3.58 47.37-76.32 183.91-239.71 216.9-1741.5 152.77-3400.41 508.95-4976.73 1068.53-483.12 2327.57-3215.38 3522.09-3782.2 2289.69 71.45-146.56 158.67-161.1 261.67-43.63 1025.1 809.46 2100.9 79.35 3227.35-2190.33-1623.77 459.11-3419.97 1253.84-5388.6 2384.17-249.98 116.71-306.52 13.33-67.85-164.76 1593.15-988.83 3428.13-1790.02 5504.91-2403.55 1446.14-3451.95-984.63 1096.54-371.88-1588.38-.8-244.15-155.87 38.53-465.21 848.02-151.72 123.38-189.16 55.63-112.34-203.25 183.3-514.86 478.9-991.36 886.8-1429.54z" />
      <path class="bg"
        d="M9923.29 20749.6c-227.26 508.67-329.02 1202.43-305.26 2081.28 70.14 378.71 13.59 537.82-169.64 477.32-293.97-587.59-177.66-1443.7 155.07-2703.97 267.47-294.3 374.07-245.84 319.83 145.37z" />
      <path class="bg"
        d="M8067.33 23664.48c665.04-379.21 902.5-399.41 712.37-60.6-1587.02 478.96-2571.53 1266.41-1376.23 785.04 167.36-50.93 194.81-4.88 82.36 138.11-1490.25 655.54-1487.02 48.21 271.37-804.4-127.89-538.38-79.03-1332.68 146.61-2382.9-1435.35 798.11-1532.27 464.98-111.45-213.21 1686.05-783.32 1992.53-499.05 478.5 48.42-291.54 843.56-359.39 1673.41-203.53 2489.54z" />
      <path class="bg"
        d="M11150.35 10217.12c-3.89 51.38-21.5 90.53-52.8 117.26-31.3 26.75-85.18 46.79-161.47 60.31l-3.12.27c-123.01 20.84-201.03 59.55-233.9 115.97 14.38-7.86 29.11-13.64 44-17 14.9-3.34 30.65-4.39 47.44-3.12 27.39 2.08 64.33 10.37 110.59 24.9 46.43 14.53 78.56 22.48 96.72 23.86 28.08 2.12 49.29-5.07 63.65-21.72 14.35-16.65 24.48-45.87 30.42-87.95l58.56 4.43-1.06 14.04c-5.45 72.1-23.71 126.88-54.64 164.49-30.92 37.79-71.66 54.68-122.18 50.87-18.32-1.38-39.12-6.4-62.08-14.85-23.13-8.47-48.57-20.39-76.34-35.93-5.76-3.53-14.16-8.65-25.01-15.49-36.02-22.53-63.87-34.64-83.56-36.12-17.46-1.32-31.09 3.33-41.18 13.77-10.09 10.42-17.24 27.63-21.81 51.57l-59.6-4.52c-.07-3.44-.17-6.9-.05-10.68.1-3.61.53-9.26 1.11-16.97 4.07-53.94 19.21-99.12 45.58-135.89 26.39-36.76 65.91-67.52 118.62-92.48 22.01-10.91 50.12-22.74 84.35-35.81 34.22-12.92 56.58-21.73 67.11-26.44 21.92-9.72 39.56-24.4 53.28-44.04 13.54-19.63 21.27-42.13 23.19-67.48 2.6-34.43-8.44-63.86-33.14-87.95-24.86-24.27-57.76-37.94-98.86-41.05-30.14-2.27-56.68 2.43-79.8 14.29-23.11 11.86-41.73 30.26-55.66 55.03 5.43-1.13 11.18-2.07 16.9-2.51 5.71-.42 11.9-.3 18.58.2 21.57 1.64 38.24 9.1 50.17 22.22 11.93 13.14 17.19 30.07 15.62 50.8-1.81 23.98-10.84 43.1-27.21 56.85-16.38 13.91-36.82 19.94-61.3 18.1-28.44-2.16-51.3-14.05-68.27-35.65-17.14-21.63-24.44-48.19-22.05-79.7 3.89-51.38 30.35-93.82 79.53-126.79 49.17-33.13 107.41-47.16 175.07-42.04 78.95 5.97 140.56 29.23 185.02 69.98 44.29 40.72 64.21 91.66 59.58 152.97z" />
      <path class="bg"
        d="M10272.9 10000.57l37.77 499.41c1.92 25.33 6.91 41.15 15.13 47.41 8.23 6.28 28.52 8.18 61.06 5.72l52.59-3.97 5.59 73.98-386.37 29.23-5.6-73.99 46.08-3.49c35.11-2.66 57.09-8.11 65.59-16.33 8.68-8.23 12.06-25.03 10.15-50.37l-24.87-328.82-126.41 9.56-5.52-72.96c49.35-5.8 87.25-17.1 113.53-34.08 26.28-16.8 45.57-41.86 57.88-75z" />
      <path class="bg"
        d="M9424.54 10468.02l1.84 500.82c.09 25.42 3.92 41.54 11.68 48.39 7.76 6.84 27.86 10.19 60.5 10.09l52.72-.2.28 74.19-387.48 1.42-.27-74.19 46.21-.18c35.21-.12 57.53-3.99 66.59-11.57 9.25-7.6 13.82-24.1 13.74-49.52l-1.21-329.76-126.75.46-.27-73.16c49.64-2.24 88.25-10.79 115.68-25.84 27.42-14.87 48.46-38.48 63.11-70.65z" />
      <path class="bg"
        d="M8782.32 10968.84c.08 25.42 3.92 41.54 11.68 48.39 7.76 6.84 27.85 10.19 60.49 10.09l52.73-.2.27 74.19-387.47 1.42-.27-74.19 46.2-.18c35.21-.12 57.53-3.99 66.6-11.57 9.25-7.6 13.82-24.1 13.73-49.52l-1.21-329.76-126.74.46-.28-73.16c49.64-2.24 88.26-10.79 115.68-25.84 27.42-14.87 48.46-38.48 63.11-70.65l83.64-.3z" />
      <path class="bg"
        d="M12479.15 10467.44l1.83 500.82c.09 25.42 3.92 41.54 11.68 48.39 7.76 6.84 27.86 10.19 60.5 10.08l52.72-.2.28 74.2-387.47 1.42-.28-74.2 46.21-.17c35.21-.13 57.53-3.99 66.59-11.58 9.25-7.59 13.83-24.09 13.74-49.51l-1.21-329.76-126.75.46-.27-73.16c49.64-2.24 88.25-10.8 115.68-25.84 27.42-14.87 48.46-38.48 63.11-70.65z" />
      <path class="bg"
        d="M8220.61 11913.75c54.29 61.32 81.76 140.88 82.11 238.78.37 98.41-26.47 178.2-80.36 239.54-48.79 55.7-110.48 86.25-185.22 91.75l.09-81.73c32.79-6.32 57.71-25.92 74.69-58.73 21.01-40.6 31.4-103.86 31.09-190.25-.32-86.21-11.2-149.54-32.49-190.01-16.83-32.16-41.06-51.48-72.73-58.05l.09-81.98c73.37 5.6 134.19 35.85 182.73 90.68z" />
      <path class="bg"
        d="M7882.28 12154.07c.32 86.73 11.04 150.07 31.96 190.18 16.13 31.05 39.36 50.05 69.78 57.03l-.33 82.27c-72.12-6.1-131.89-36.08-179.54-89.95-53.93-60.97-81.23-140.54-81.59-238.95-.37-98.24 26.32-178.21 79.84-239.71 48.31-55.51 109.57-86.18 183.92-91.86l-.33 81.92c-31.98 6.61-56.33 26.31-72.96 58.99-20.83 40.94-31.07 104.2-30.75 190.08z" />
      <path class="bg"
        d="M7455.28 12333.96c.09 25.42 3.93 41.54 11.69 48.38 7.75 6.85 27.85 10.2 60.49 10.09l52.72-.2.28 74.2-387.47 1.42-.28-74.2 46.21-.17c35.21-.12 57.53-3.99 66.6-11.57 9.25-7.6 13.82-24.1 13.73-49.52l-1.21-329.76-126.74.46-.28-73.16c49.64-2.24 88.25-10.79 115.68-25.84 27.42-14.86 48.46-38.48 63.11-70.64l83.64-.31z" />
      <path class="bg"
        d="M6797.35 13702.2c78.68 3.71 140.44 31.48 185.18 83.16 48.46 55.98 72.98 134.91 73.35 236.92.39 106.66-26.1 190.57-79.63 251.9-53.54 61.18-127.11 92.02-221.23 92.36-58.39.21-106.36-12.33-144.23-37.78-37.89-25.28-56.89-56.81-57.03-94.25-.08-23.53 7.92-42.63 24.01-57.45 16.09-14.84 36.85-22.3 62.44-22.39 22.15-.07 40.21 6.21 54.16 18.69 13.96 12.49 21.07 28.45 21.14 48.02.05 14.08-3.69 25.94-11.21 35.77-7.52 9.63-19.17 17.41-34.95 23.14 12.74 8.02 25.46 13.99 38.2 17.72 12.89 3.89 26.63 5.74 41.23 5.68 51.01-.18 88.73-19.9 113.14-58.97 24.42-39.26 36.91-99.75 37.3-181.51-25.69 19.85-52.09 34.54-78.85 44.25-26.74 9.9-55.42 14.81-85.82 14.93-62.69.22-114.97-18.83-156.85-56.97-41.88-38.32-63-85.81-63.21-142.32-.24-66.47 23.61-119.8 71.39-160.34 42.03-35.51 96.63-55.54 163.44-60.02l5.19 77.25c-23.99 4.02-43.19 14.3-57.5 30.8-18.81 21.71-28.16 53.17-28 94.21.15 41.92 10.41 74 30.58 95.91 20.17 21.91 49.24 32.8 87.37 32.65 31.94-.11 57.15-11.37 75.79-33.59 18.64-22.22 27.98-52.31 27.84-90.26-.16-42.77-9.9-75.38-29.22-97.98-14.72-17.23-34.34-27.85-58.64-31.86z" />
      <path class="bg"
        d="M14524.44 13886.86c.16 39.51-12.44 71.5-37.6 95.64-25.33 24.3-64.08 41.61-116.26 52.28 56.04 9.6 98.7 28.16 128.17 55.87 29.46 27.71 44.2 63.21 44.35 106.49.22 58.4-25.21 105.21-76.43 140.44-51.22 35.23-120.2 52.99-207.11 53.3-72.82.28-132.48-16-178.97-48.8-46.68-32.99-70.01-74.29-70.19-124.26-.11-29.9 8.57-54.15 26.18-72.59 17.47-18.43 40.44-27.79 68.61-27.9 23.88-.07 43.13 7.06 57.96 21.43 14.82 14.38 22.27 33.24 22.36 56.6.07 22.5-7.07 40.55-21.27 54.36-14.21 13.79-32.9 20.72-56.43 20.81l-7.56.02c17.75 16.77 38.06 29.24 60.76 37.22 22.54 8.18 48.13 12.2 76.65 12.1 45.86-.17 82.22-11.31 108.94-33.56 26.72-22.24 40.01-52.01 39.86-89.63-.14-40.52-12.79-70.71-37.77-90.53-24.97-19.84-62.98-29.66-113.98-29.48l-19.57.08-.28-75.23 9.95-.03c52.05-.2 90.31-8.58 114.82-24.98 24.5-16.6 36.6-42.05 36.48-76.57-.12-31.95-11.55-57.5-34.47-76.82-22.9-19.33-53.52-28.99-91.65-28.86-22.15.08-42.57 3.24-61.44 9.5-18.7 6.25-36.7 16.1-53.66 29.21 19.76 2 35.07 8.81 46.28 20.79 11.03 11.81 16.58 27.43 16.66 47 .07 21.13-7.41 38.67-22.49 52.46-15.05 13.81-34.61 20.75-58.66 20.84-24.56.09-44.67-7.75-60.71-23.49-16.03-15.74-24-35.97-24.09-60.88-.16-45 23.22-83.04 70-114.3 46.95-31.25 106.49-46.93 178.97-47.2 73.16-.26 131.94 14.28 176.54 43.67 44.59 29.37 66.88 67.59 67.05 115z" />
      <path class="bg"
        d="M10707.66 17498.67c39.27 25.97 58.96 58.19 59.1 96.66.08 23.53-7.74 42.79-23.49 57.97-15.74 15.16-35.99 22.8-60.89 22.88-22.85.08-41.42-6.19-55.71-18.69-14.3-12.48-21.58-28.78-21.65-49.04-.06-14.77 4.03-26.98 12.06-36.97 8.03-9.99 20.2-17.59 36.33-22.98-13.08-8.7-26.16-15.18-39.24-19.26-13.23-4.24-26.3-6.25-39.35-6.21-52.04.2-90.78 19.06-116.07 56.76-25.45 37.71-39.66 97.69-42.62 179.64 25.01-18.3 50.55-31.97 76.45-41.16l1.34 79.54c-18.12 5.24-33.13 15-45.09 29.17-18.93 22.42-28.31 53.86-28.15 94.39.14 41.22 10.05 72.79 29.53 94.69 19.49 21.93 47.36 32.81 83.25 32.69 34.18-.14 60.93-11.05 80.08-32.93 19.34-21.89 28.85-52.15 28.71-90.8-.17-43.61-9.73-76.39-28.88-98.64-18.21-21.37-45.11-32.43-80.52-33.15l-.02-85.37c13.5-2.26 27.34-3.41 41.46-3.46 64.75-.22 118.06 19.16 160.1 58 42.06 38.99 63.19 88.38 63.41 148.33.23 63.72-23.62 115.32-71.57 154.67-48.11 39.5-111.6 59.31-190.77 59.6-87.95.32-156.06-26.91-204.17-81.69-48.12-54.96-72.45-132.85-72.82-233.84-.39-107.34 26.09-192.28 79.45-254.83 53.19-62.54 126.42-94.07 219.33-94.41 61.14-.22 111.34 12.65 150.41 38.44z" />
      <path class="bg"
        d="M8827.72 17288.49c-12.7 48.16-19.03 101.58-18.82 159.98.04 13.06.09 22.85.28 29.38.19 6.51.57 12.86.92 18.88l-141.18.51c-.01-4.64-.21-11.84-.58-21.47-.39-9.44-.57-16.48-.6-20.78-.17-47.9 2.6-89.13 8.31-123.34 5.89-34.2 15.22-64.63 28.18-91.13 20.97-44.74 68.82-107.77 143.4-189.29 27.72-30.15 48.59-53.58 62.62-70.12-15.78 7.44-31.4 12.99-46.67 16.48-15.43 3.66-30.38 5.43-44.8 5.49-20.61.07-47.24-3.26-80.41-10-33-6.76-55.87-10.12-68.23-10.07-35.55.13-61.09 12.59-76.64 37.21-15.53 24.79-23.11 66.04-22.9 124.1l.02 6.01-70.93.25-1.04-286.48 75.39-.28.27 73.17c19.3-27.89 39.84-47.89 61.43-60.17 21.6-12.26 47.34-18.55 77.22-18.66 28.52-.09 64.96 8.19 109.5 24.85 44.55 16.67 74.12 24.98 88.55 24.92 14.09-.04 25.91-3.69 35.68-10.77 9.6-7.08 17.28-17.92 22.9-32.72l65.94-.24c-2.92 44.67-32.4 108.15-88.79 190.63-26.3 38.57-45.77 68.7-58.57 90.2-27.64 47.51-47.74 95.33-60.45 143.46z" />
    </g>
  </g>
</svg>