<svg width="850" height="850" version="1.0" shape-rendering="geometricPrecision" text-rendering="geometricPrecision"
  image-rendering="optimizeQuality" fill-rule="evenodd" clip-rule="evenodd" xmlns="http://www.w3.org/2000/svg">
  <defs>
    <style>
      svg {
        background-color: #fff;
      }

      .bg {
        fill: #fff
      }

      .fg {
        fill: #201922;
      }
    </style>
  </defs>
  <path class="fg"
    d="M205.846 54.474C263.889 23.966 329.979 6.703 400.1 6.703 631.058 6.703 818.286 193.98 818.286 425c0 231.02-187.23 418.298-418.186 418.298-152.406 0-285.77-81.55-358.857-203.404.037-.403.075-.81.115-1.217.6-6.151 1.604-12.987 2.706-19.92a983.19 983.45 0 013.508-20.601c1.202-6.64 2.405-12.89 2.405-18.16 0-5.273-1.203-9.57-2.004-14.06-.802-4.492-1.204-9.18-.652-24.704.552-15.525 2.055-41.888 2.206-57.853.15-15.964-1.053-21.53-2.206-24.214-1.153-2.685-2.255-2.49-3.207-2.636-.953-.147-1.755-.635-.752-11.767 1.003-11.13 3.81-32.904 5.388-46.28 1.578-13.378 1.929-18.357 1.904-21.872-.026-3.516-.427-5.566-2.03-7.664-1.604-2.1-4.41-4.248-7.242-7.006-2.831-2.758-5.688-6.127-7.317-11.424-1.63-5.297-2.03-12.522-2.23-20.627-.2-8.103-.2-17.087.376-28.022.577-10.936 1.73-23.825 3.108-32.953 1.379-9.13 2.98-14.5 4.836-19.162 1.854-4.663 3.96-8.617 6.365-11.717a27.617 27.624 0 018.094-7.08c2.982-1.732 6.24-2.953 8.996-3.416 2.757-.464 5.012-.172 7.092-.1 2.079.074 3.984-.073 5.613-.511 1.629-.44 2.98-1.171 4.335-2.05a34.657 34.666 0 004.01-3.052c1.302-1.148 2.554-2.417 3.507-4.272.952-1.856 1.603-4.295 2.029-6.932a49.14 49.14 0 00.602-8.13c-.026-2.66-.276-5.15-.427-8.201-.15-3.051-.2-6.664.05-9.862.25-3.198.802-5.981 1.353-8.641.552-2.662 1.103-5.2 2.23-7.543 1.129-2.344 2.832-4.492 4.41-6.346 1.58-1.856 3.034-3.418 5.314-4.64 2.28-1.22 5.387-2.097 8.119-2.538 2.73-.44 5.087-.44 7.543-.195 2.456.244 5.01.733 7.693 1.563 2.68.83 5.488 2 8.22 3.71 2.73 1.709 5.387 3.954 8.044 6.079 2.656 2.124 5.312 4.125 7.368 6.469 2.054 2.343 3.508 5.028 4.235 7.81.727 2.784.727 5.664.476 8.25-.25 2.589-.752 4.884-1.43 6.935-.676 2.05-1.528 3.857-2.18 5.32-.651 1.465-1.101 2.588-1.477 4.077-.376 1.49-.676 3.345-.676 4.907 0 1.562.3 2.83.626 4.222.326 1.392.677 2.905.827 4.126.15 1.22.1 2.147-.075 2.88-.175.733-.476 1.27-.852 1.538s-.827.268-1.43.147c-.6-.123-1.351-.367-1.98-.464-.625-.098-1.126-.048-1.502.099-.376.146-.626.39-.902.927s-.576 1.366-.927 2.636c-.35 1.27-.752 2.978-1.478 4.784-.726 1.807-1.78 3.71-2.456 5.15-.677 1.44-.978 2.417-1.604 3.126-.627.707-1.578 1.147-3.132 1.195-1.555.049-3.71-.292-5.087-.683-1.38-.39-1.98-.83-2.732-1.025a4.16 4.161 0 00-2.38.122c-.728.268-1.278.757-1.43 1.562-.15.806.1 1.929.678 3.222.577 1.293 1.478 2.759 3.257 4.32 1.779 1.56 4.435 3.223 7.818 5.518 3.383 2.294 7.493 5.224 11.202 8.275 3.708 3.05 7.016 6.225 11.3 9.08 4.286 2.856 9.548 5.395 14.009 7.714 4.46 2.32 8.119 4.418 10.525 5.517 2.405 1.099 3.558 1.196 4.386 1.074.827-.122 1.327-.463 1.302-1.366-.026-.903-.577-2.368-1.128-4.395-.551-2.025-1.102-4.613-1.93-7.127-.827-2.514-1.93-4.956-3.283-6.566-1.352-1.612-2.957-2.392-4.41-3.028-1.453-.635-2.757-1.123-3.91-1.88-1.152-.757-2.154-1.782-2.68-2.832-.526-1.05-.576-2.123-.501-3.172a11.942 11.945 0 01.652-3.15c.375-1.074.927-2.196 1.554-3.246.626-1.05 1.327-2.027 1.929-3.27.602-1.246 1.102-2.76 1.404-3.858.3-1.098.4-1.781.2-2.222-.2-.44-.702-.635-1.077-.976-.376-.342-.627-.83-.803-1.27-.175-.44-.275-.83-.1-1.27.176-.438.627-.926 1.605-1.341.977-.415 2.48-.756 3.91-1.465 1.427-.707 2.78-1.782 3.783-2.856 1.002-1.074 1.654-2.148 2.38-3.417a234.311 234.373 0 002.406-4.345c.877-1.612 1.83-3.37 2.757-4.907.927-1.538 1.828-2.856 3.107-3.808 1.278-.953 2.932-1.538 5.087-2.051 2.155-.512 4.81-.952 7.818-.952 3.007 0 6.365.44 9.673.977 3.308.537 6.565 1.17 10.249 2.66 3.683 1.49 7.793 3.833 10.824 6.177 3.033 2.343 4.987 4.687 6.942 7.03 3.326-12.148-1.235-21.376-13.682-27.68-3.52 3.984-8.432 6.035-14.734 6.15-10.323-7.665-17.14-17.43-20.45-29.291-20.196 5.505-34.03 1.11-41.495-13.182 1.459-6.564 3.865-10.372 7.216-11.424-4.05-12.472-2.747-21.847 3.91-28.12-9.884-2.28-15.297-7.845-16.24-16.696 8.639-8.298 17.46-11.617 26.464-9.96-5.34-7.315-6.24-12.196-2.706-14.647 10.103-3.943 18.823-4.92 26.16-2.93-4.65-8.03-3.898-14.57 2.257-19.625 2.415 2.335 5.17 2.92 8.269 1.757-.69-.608-1.758-2.828-3.204-6.66z" />
  <path class="bg"
    d="M229.552 93.516a15.3 15.3 0 00-.3 1.904c-17.665-1.986-24.08-11.36-19.246-28.12 16.087 2.13 22.603 10.867 19.546 26.216zm-47-4.815c11.342-3.09 17.156 1.257 17.443 13.036-11.826 2.545-17.64-1.799-17.442-13.036zm28.568 18.015c6.358 12.212 2.95 19.243-10.223 21.09-4.772-10.627-1.364-17.657 10.223-21.09zM160 109.497c11.877-8.43 22.35-8.234 31.424.586-10.973 9.77-21.447 9.574-31.423-.586zm16.615 16.001c4.784 8.315 2.053 14.808-8.194 19.48-3.124-9.943-.394-16.436 8.194-19.48zm3.909 34.2c5.13-3.537 12.849-4.636 23.155-3.296-12.428-9.971-26.561-8.653-42.4 3.955 16.179 14.062 30.06 15.307 41.648 3.734-8.943-.16-16.411-1.624-22.403-4.393zm39.693 18.087c-2.735-8.543-3.036-17.965-.901-28.267-16.804 13.047-16.903 28.914-.301 47.6 19.675-13.2 22.783-28.92 9.322-47.162.478 12.32-2.23 21.596-8.12 27.828zm47.662-86.998c-19.92 25.788-26.862-14.916 14.132-28.706-8.534 12.563-10.04 23.407-14.132 28.706z" />
  <path class="bg"
    d="M260.963 111.147c5.73-.15 9.587 1.167 11.578 3.954-17.536.75-31.318 7.925-41.347 21.53-6.15-33.706 33.81-27.745 39.52-43.076 12.354-33.169 33.31-40.68 50.39-37.476-3.02 10.307-8.38 21.537-16.088 33.686-.892-5.961.712-12.992 4.812-21.09-9.654 6.25-13.564 15.82-11.728 28.705-3.618-2.444-6.474-5.325-8.57-8.64 3.41 8.078 4.06 13.986 1.954 17.72-2.533 1.818-5.64 1.526-9.32-.877.926 2.392.826 4.345-.301 5.857-9.34-3.47-16.307-3.566-20.9-.291zm-19.396 31.195c10.424-2.245 15.285.537 14.585 8.35-6.967 1.302-11.828-1.48-14.585-8.35zm34.432-9.665c14.529 10.436 17.987 21.567 10.374 33.394-11.14-7.35-14.597-18.48-10.375-33.393zm-23.305 34.712c1.955-10.126 7.267-12.127 15.937-6.006-1.891 8.505-7.203 10.506-15.937 6.005zM311.782 96.5c9.738 31.45.516 38.578-27.665 21.384 14.258-4.068 23.478-11.197 27.665-21.384zm7.367 55.656c7.946-2.72 16.667-3.16 26.162-1.318-12.857-15.918-28.944-16.308-48.262-1.171 13.7 18.412 29.187 22.17 46.459 11.277-9.483-.108-17.602-3.038-24.357-8.787zm18.13-35.581c2.845 6.027 3.86 12.833 3.05 20.417 12.19-11.275 11.309-23.921-2.647-37.936-14.19 12.124-16.137 24.55-5.84 37.28-.621-7.445 1.192-14.031 5.438-19.76zm-1.478-40.432c12.54.83 18.053 6.397 16.539 16.696-11.845.76-17.357-4.803-16.54-16.696zM322.72 48.463c9.205-3.832 17.324-3.735 24.358.292-8.144 6.204-14.86 11.72-20.148 16.55-3.565-3.114-2.913-6.922 1.955-11.424-4.357-1.468-6.413-3.276-6.165-5.42zm29.169 9.666c8.08 1.446 10.587 5.792 7.518 13.035-7.515-.86-10.02-5.207-7.518-13.036zm16.99-12.01c4.96 4.507 4.61 8.608-1.052 12.303-3.993-4.953-3.643-9.053 1.052-12.303zm27.214 2.343c-3.136 8.262-8.85 10.557-17.14 6.884 3.268-8.236 8.982-10.53 17.14-6.884zm-33.08 32.367c11.585 2.542 17.65-.485 18.195-9.08-7.011-3.97-13.075-.944-18.194 9.08zm52.926 37.788c3.818 0 6.915 2.95 6.915 6.59 0 3.64-3.097 6.592-6.916 6.592-3.82 0-6.915-2.95-6.915-6.591 0-3.64 3.096-6.591 6.915-6.591zm-23.305 7.909c-25.743 7.428-38.873 5.475-39.392-5.858.923-12.346 2.628-20.256 5.112-23.727 8.393-10.913 21.373-8.568 38.94 7.03l-8.118.805 3.984 4.54-17.592-.512 18.043 8.422-8.646 2.93 7.669 6.37zm8.054-23.14c-12.514-24.15-12.898-37.527-1.153-40.134 13.069-1.364 21.647-1.135 25.732.686 12.95 6.306 12.899 19.607-.154 39.904l-2.341-7.9-4.008 4.788-2.713-17.534-5.467 19.442-4.656-8.03zm27.989.586c18.644-20.048 31.324-25.2 38.039-15.458 6 11.392 8.86 19.273 8.582 23.64-1.392 14.039-14.155 18.769-38.288 14.188l6.729-4.965-6.027-1.924 15.826-8.762-20.59 2.01 6.02-7.116zm8.107 28.125c27.036 6.18 37.803 14.492 32.305 24.933-7.326 10.63-13.02 16.884-17.078 18.763-13.282 5.612-23.71-2.975-31.284-25.761l7.718 3.33-1.191-6.067 15.533 9.244-11.777-16.575 9.309 1.686-3.536-9.553zm-22.627 15.635c-5.03 26.603-13.03 37.484-24.002 32.64-11.254-6.615-17.943-11.852-20.065-15.71-6.398-12.652 1.902-23.213 24.9-31.685l-3.041 7.67 6.165-1.452-8.728 15.562 16.426-12.26-1.278 9.137 9.624-3.902zm68.724-93.843c4.906 7.564 7.694 16.59 8.362 27.08 12.776-16.83 8.667-32.183-12.325-46.06-15.51 17.7-14.346 33.669 3.493 47.906-3.727-11.782-3.57-21.423.469-28.926zM442.29 39.1c7.957 4.473 14.736 11.2 20.338 20.183 3.27-20.69-7.698-32.418-32.908-35.19-5.276 22.698 3.38 36.305 25.97 40.824-8.924-8.74-13.39-17.345-13.4-25.818zm48.38 108.508c2.714 7.267 3.364 15.393 1.947 24.374 13.972-11.926 13.403-25.632-1.708-41.117-16.445 12.17-18.48 25.867-6.101 41.092-.922-10.62 1.032-18.735 5.862-24.35zm16.082 45.82c-8.651 3.333-18.4 4.338-29.241 3.012 14.79 15.553 31.25 14.458 49.377-3.28-15.165-18.367-31.697-20.244-49.6-5.629 12.738-1.396 22.56.57 29.464 5.897zm50.08-70.102c-25.65-19.028 16.34-22.972 28.687 15.256-12.431-8.963-23.27-11.24-28.686-15.256z" />
  <path class="bg"
    d="M536.327 115.531c-.145 5.58-1.7 9.264-4.662 11.054.154-17.096-6.48-30.88-19.9-41.35 34.876-4.214 26.667 34.347 42.084 40.706 33.353 13.76 39.955 34.538 35.774 50.985-10.41-3.478-21.638-9.283-33.69-17.418 6.16-.556 13.283 1.374 21.369 5.787-5.9-9.72-15.505-14.024-28.812-12.915 2.696-3.39 5.8-6.019 9.308-7.883-8.46 2.892-14.55 3.215-18.27.97-1.73-2.56-1.267-5.566 1.39-9.02-2.502.775-4.5.576-5.99-.602 4.048-8.904 4.514-15.675 1.398-20.314zm12.346 50.203c-32.752 7.822-39.575-1.522-20.468-28.033 3.422 14.084 10.245 23.429 20.468 28.034zm-4.937 26.04c7.943 5.735 8.644 12.52 2.104 20.358-8.502-6.315-9.203-13.1-2.104-20.358zm26.913-8.788c3.128 9.695.422 14.724-8.12 15.086-2.286-7.507.42-12.535 8.12-15.086zm-11.728 29.88c3.692 9.561 10.005 11.71 18.945 6.443-3.714-9.375-10.028-11.523-18.945-6.444zm36.235-30.905c4.354 12.142 2.65 19.71-5.113 22.701-1.74-9.152-5.85-17.256-12.33-24.312 5.545-.085 8.953 2.16 10.225 6.737 1.627-3.702 4.033-5.41 7.217-5.126zm4.562 78.373c-8.355-3.988-15.678-10.334-21.971-19.036-1.85 21.124 10.062 32.243 35.73 33.36 3.734-23.288-5.972-36.46-29.117-39.517 9.634 8.236 14.753 16.634 15.358 25.194zm28.297-26.394c-6.997 2.213-14.74 2.535-23.23.967 10.883 12.986 23.928 12.916 39.136-.209-11.035-15.226-23.987-17.503-38.857-6.833 10.123-.487 17.774 1.538 22.953 6.075zm21.1 34.877c4.95 5.303 8.433 12.046 10.456 20.23 7.678-15.003 2.25-26.557-16.285-34.664-9.71 16.059-6.517 28.496 9.583 37.314-4.618-8.79-5.87-16.416-3.753-22.88z" />
  <path class="bg"
    d="M649.115 268.817c4.95 5.303 8.433 12.046 10.456 20.23 7.678-15.003 2.25-26.557-16.285-34.664-9.71 16.059-6.517 28.496 9.583 37.314-4.618-8.79-5.87-16.416-3.753-22.88zm35.585.211c-3.597 4.182-8.46 7.44-14.59 9.767 12.409 4.098 20.799-1.08 25.169-15.536-13.437-5.484-22.74-1.855-27.911 10.884 6.33-4.297 12.108-6.002 17.33-5.113zm25.776-14.86c4.513 8.397 2.81 13.864-5.113 16.403-5.233-8.233-3.528-13.702 5.113-16.403zm17.666-20.066c7.078 5.258 9.233 10.7 6.465 16.33-5.836-3.794-12.527-6.82-20.073-9.08.52-3.403 3.903-3.89 10.149-1.465-2.705-4.438-1.552-6.367 3.458-5.786zm2.407 22.92c1.244 5.43-.861 8.628-6.316 9.594-2.098-5.796.007-8.994 6.315-9.593zm7.14 11.279c5.423 1.67 8.379-.333 8.872-6.006-5.017-1.41-7.974.59-8.871 6.006zm.902 5.492c1.57 5.19 5.178 7.363 10.826 6.518-1.735-6.407-5.344-8.58-10.826-6.518zm-20.748-.22c1.08 6.785 4.714 9.153 10.9 7.104-.502-6.828-4.135-9.195-10.9-7.103zM625.08 140.293c-11.608-8.635-14.94-14.883-9.993-18.74 5.866-3.566 9.98-5.373 12.343-5.424 7.614.092 10.72 6.4 9.32 18.924l-2.97-3.217-.77 3.162-5.41-7.694 1.988 10.424-4.095-2.76-.415 5.325zm21.834-1.481c3.679-13.771 8.3-19.182 13.868-16.233 5.646 3.888 8.95 6.883 9.913 8.986 2.86 6.874-1.906 12.107-14.302 15.699l1.896-3.912-3.291.533 5.186-7.84-9.096 5.823 1.027-4.746zm-4.021 33.339c5.693 13.104 5.41 20.138-.85 21.103-6.907.266-11.4-.15-13.48-1.246-6.567-3.754-6.058-10.733 1.528-20.936l.942 4.227 2.276-2.376.79 9.296 3.572-10.015 2.153 4.375 3.068-4.428zm14.988-17.72c14.605.143 21.115 3.203 19.526 9.177-2.505 6.277-4.69 10.125-6.55 11.544-6.154 4.369-12.52 1.13-19.1-9.717l4.355.845-1.327-2.981 9.065 3.005-8.003-7.188 4.977-.18-2.943-4.505zm-36.004-4.713c-12.893-6.687-20.11-7.04-21.652-1.052-.886 6.68-.862 11.076.075 13.19 3.255 6.707 10.436 6.833 21.543.38l-4.238-1.29 2.63-1.998-9.433-1.59 10.559-2.578-4.282-2.477 4.799-2.584zm17.179-.488a4.728 4.73 0 014.736 4.722 4.728 4.73 0 01-4.736 4.723 4.73 4.73 0 01-4.736-4.723 4.73 4.73 0 014.736-4.723zm33.726 63.344c-25.037-2.403 1.125-22.173 25.455-1.38-12.025-.99-20.17 1.888-25.455 1.38z" />
  <path class="bg"
    d="M655.9 215.66c2.26 3.829 2.788 6.95 1.58 9.367-7.12-11.61-17.34-18.22-30.657-19.825 21.334-17.054 32.183 12.337 45.087 10.353 27.915-4.293 41.069 7.054 45.246 19.865-8.367 1.892-18.262 2.545-29.684 1.958 3.846-2.884 9.382-4.482 16.606-4.795-8.017-4.162-16.2-3.157-24.55 3.013.353-3.39 1.3-6.43 2.839-9.117-4.385 5.4-8.284 8.1-11.698 8.099-2.228-1.025-3.19-3.245-2.89-6.661-1.33 1.544-2.737 2.222-4.223 2.034-1.08-7.664-3.63-12.428-7.655-14.292zm29.39 28.883c-18.401 18.626-26.87 15.093-25.407-10.598 8.217 8.118 16.686 11.65 25.408 10.598zm78.174 179.75c5.309-23.956 22.485 3.618-1.497 24.791 2.382-11.523.376-19.735 1.497-24.79z" />
  <path class="bg"
    d="M762.242 407.601c-4.163 1.75-7.406 1.905-9.731.46 12.654-5.566 20.56-14.7 23.717-27.405 14.957 22.591-16.256 29.737-15.705 42.45 1.192 27.506-11.881 38.94-25.424 41.52-.974-8.313-.51-17.964 1.39-28.95 2.504 4.052 3.5 9.59 2.997 16.618 5.159-7.283 5.068-15.318-.272-24.103 3.416.73 6.408 1.992 8.975 3.787-5.007-4.86-7.315-8.942-6.924-12.245 1.299-2.039 3.673-2.718 7.123-2.037-1.424-1.463-1.955-2.902-1.594-4.318 7.94-.17 13.088-2.096 15.45-5.778zm-32.811 25.146c-16.896-19.933-12.326-27.726 13.708-23.38-9.218 7.026-13.787 14.82-13.708 23.38zm-34.051-124c-11.52-13.953-13.662-22.56-6.43-25.827 8.268-2.638 13.854-3.642 16.757-3.012 9.276 2.343 11.126 10.96 5.55 25.853l-2.633-4.8-1.917 3.638-4.24-10.986-.786 13.32-4.151-4.574-2.15 6.387zm27.137 4.582c8.745-15.749 16.063-21.007 21.955-15.774 5.7 6.403 8.813 11.03 9.34 13.882 1.375 9.238-6.064 14.236-22.32 14.995l3.523-4.225-4.186-.313 8.757-8.06-12.912 4.452 2.72-5.5-6.878.543zm-15.202 39.563c2.913 17.678.396 26.19-7.55 25.537-8.523-1.698-13.885-3.52-16.086-5.468-6.867-6.51-4.092-14.89 8.326-25.136l-.152 5.44 3.514-2.235-1.904 11.588 7.456-11.19 1.28 5.974zm23.782-17.264c17.804 4.45 24.812 10.095 21.027 16.93-4.998 6.936-8.853 11-11.565 12.19-8.868 3.535-15.648-2.286-20.34-17.466l5.06 2.308-.701-4.031 10.15 6.324-7.56-11.126 6.136 1.24-2.206-6.369zm-42.54-16.302c-13.69-11.948-22.401-14.489-26.134-7.625-3.144 7.902-4.47 13.28-3.978 16.138 1.908 9.148 10.644 11.405 26.207 6.772l-4.781-2.816 3.832-1.67-11.038-4.708 13.696-.057-4.467-4.282 6.66-1.752zm21.144 4.432a5.863 5.865 0 014.33 7.16c-.805 3.186-4.05 5.15-7.245 4.384a5.863 5.865 0 01-4.33-7.158c.806-3.189 4.05-5.15 7.246-4.385zm77.616 20.786c-4.164 6.64-10.314 12.233-18.451 16.78 18.39 3.22 29.094-5.813 32.115-27.098-20.138-4.96-32.47 2.073-36.992 21.102 7.992-7.367 15.769-10.962 23.328-10.784zm-6.095-35.066c1.469 6.216 1.16 12.93-.93 20.14 12.668-8.388 13.62-19.659 2.86-33.816-14.717 8.343-17.8 19.351-9.247 33.026.345-8.78 2.784-15.23 7.318-19.35zm-56.255 77.448c-4.618 6.208-11.106 11.24-19.461 15.093 17.809 4.55 29.043-3.516 33.704-24.198-19.388-6.393-32.06-.414-38.018 17.938 8.438-6.633 16.363-9.579 23.775-8.833zm-31.242 31.351c-6.044-4.91-10.755-11.558-14.134-19.94-5.871 16.998 1.625 28.465 22.49 34.401 7.868-18.408 2.605-31.13-15.786-38.169 6.22 8.652 8.697 16.555 7.43 23.708zm-12.435 89.391c-1.02-7.602.15-15.599 3.509-23.99-16.155 8.606-18.636 21.983-7.444 40.136 18.602-8.322 23.599-21.146 14.992-38.472-1.457 10.467-5.143 17.908-11.057 22.325zm32.767 13.264c-5.46-2.486-10.28-6.51-14.46-12.075-.94 13.701 6.907 20.766 23.545 21.193 2.135-15.123-4.31-23.543-19.336-25.256 6.339 5.223 9.757 10.603 10.252 16.14zm35.884-146.959c6.082-.42 8.038-3.446 5.864-9.08-5.455.18-7.41 3.208-5.864 9.08zm9.397 3.442c1.688 5.55 5.07 6.915 10.148 4.1-.993-6.027-4.376-7.393-10.148-4.1zm-12.855 6.151c-.735 5.716 2.347 8.207 9.246 7.47-.013-6.502-3.095-8.992-9.246-7.47zm-50.37 67.738c9.674 2.213 14.034-1.205 13.08-10.252-9.327-1.357-13.687 2.06-13.08 10.252zm17.14 5.564c5.7 7.804 11.815 8.904 18.345 3.296-4.912-5.97-11.027-7.068-18.344-3.295zm22.856 18.016c-3.412 4.781-8.4 6.856-14.961 6.225-1.341-7.017 1.916-12.242 9.773-15.67 1.948 2.584 2.098 4.537.452 5.857 4.455-.013 6.034 1.182 4.735 3.59zm-35.634-13.987c5.948 2.74 7.226 7.745 3.833 15.012-8.647-3.204-9.925-8.208-3.833-15.012zm-199.367-359.12c7.046.684 9.602-2.44 7.667-9.375-6.74-.03-9.296 3.093-7.667 9.374zm-11.427-1.833c6.455 2.115 7.707 5.825 3.76 11.13-6.946-2.806-8.198-6.517-3.76-11.13zm11.352 20.944c8.35 1.906 12.76-1.22 13.23-9.374-9.055-1.738-13.466 1.386-13.23 9.374zm76.418 507.555c-4.551-.797-8.536-2.618-11.645-5.54-12.616-11.859-5.997-37.334 14.782-56.9 20.78-19.566 47.853-25.814 60.468-13.955 12.615 11.86 5.997 37.335-14.783 56.9 1.659 5.878 5.622 9.603 11.887 11.175 31.593-29.748 41.655-68.48 22.475-86.51s-60.34-8.532-91.932 21.215c-31.593 29.748-41.655 68.48-22.475 86.51 11.053 10.389 29.403 11.638 49.014 5.14-7.97-2.988-13.9-9-17.79-18.035z" />
  <path class="bg"
    d="M676.887 577.352c20.356 4.656 35.058 16.39 35.257 29.842.252 17.076-22.968 30.454-51.862 29.88-28.895-.575-52.522-14.884-52.774-31.96-.18-12.107 11.44-22.355 28.515-27.09.909-4.964.11-10.6-2.401-16.91-31.306 5.664-53.643 22.776-53.338 43.457.383 25.963 36.305 47.717 80.235 48.591 43.93.874 79.232-19.464 78.849-45.427-.318-21.54-25.098-40.183-58.618-46.409.11 6.267-1.18 11.61-3.863 16.026zM92.877 222.73c-2.004.096-3.66 1.708-4.336 2.83-.677 1.122-.375 1.758 1.378 3.59 1.754 1.83 4.962 4.856 7.994 8.2 3.032 3.344 5.89 7.006 7.819 9.497 1.93 2.49 2.932 3.808 4.134 5.37 1.203 1.562 2.606 3.37 3.558 4.955.953 1.586 1.453 2.953 2.206 3.564.752.61 1.754.463 2.105.072.35-.39.05-1.025-.1-2.22-.15-1.197-.15-2.955-.175-4.444-.026-1.489-.075-2.71-.326-3.71-.25-1-.703-1.782-1.278-2.197-.577-.415-1.28-.463-1.754-.976-.476-.513-.727-1.49-.702-2.294.025-.806.325-1.44.55-2.076a6.617 6.619 0 00.402-2.148c.026-.878-.074-2.002-1.002-3.369-.928-1.367-2.681-2.978-5.112-5.004-2.43-2.026-5.538-4.467-8.27-6.396-2.73-1.928-5.086-3.344-7.091-3.246zm29.707 25.47c.69-.256 1.742-.11 2.38.343.64.452.865 1.208 1.14 2.245.277 1.037.603 2.356.603 3.686s-.326 2.673-.74 3.527c-.413.855-.915 1.221-1.353 1.49-.438.268-.814.44-1.153.305-.338-.135-.64-.574-.94-1.27a10.543 10.545 0 01-.727-2.525c-.126-.88-.075-1.684-.062-2.417a12.83 12.834 0 00-.1-2.014c-.088-.622-.24-1.208-.152-1.83.088-.623.413-1.28 1.103-1.538zM100.62 679.81c.4-3.516 1.303-6.64 2.106-9.277.8-2.637 1.503-4.785 2.204-7.372.702-2.588 1.404-5.615 1.955-8.105.55-2.49.952-4.443 1.103-9.667.15-5.223.05-13.718.15-20.26.1-6.54.4-11.13.952-16.159.55-5.028 1.353-10.497 1.604-14.5.25-4.003-.05-6.542.25-8.836.3-2.294 1.203-4.345 2.305-7.372a146.23 146.27 0 003.358-10.497c.952-3.466 1.554-6.394 1.253-9.47-.3-3.077-1.504-6.298-2.857-10.449-1.354-4.15-2.857-9.226-4.11-12.888-1.254-3.66-2.256-5.907-3.76-7.347-1.503-1.44-3.507-2.076-5.51-2.71 2.848 46.114-10.995 64.957-17.773 118.337-1.067 8.41-1.506 17.164-1.77 26.295l15.449 8.562 3.09 1.712zm66.404-380.018c-2.968-5.563-6.827-8.883-11.577-9.96 3.762 6.875 4.813 12.783 3.157 17.722 4.626-1.143 7.433-3.73 8.42-7.762zm52.652-29.244c3.454 7.263 3.446 12.667-.03 16.21-6.658-2.686-9.415-7.08-8.27-13.182 2.999-.822 5.766-1.832 8.3-3.028zm9.313-6.168a34.381 34.39 0 01-3.544 2.84c-1.42 12.478-.194 20.064 3.675 22.76 2.449-8.003 2.405-16.536-.13-25.602zm8.55-12.773c3.612.403 4.915 10.362 3.91 29.878-6.744-1.017-9.311-8.543-7.702-22.578a34.064 34.073 0 003.79-7.3zm-83.118 79.456c-1.43.95-2.831 2.123-4.235 2.93-1.404.805-2.807 1.244-3.81 1.415-1.001.17-1.603.073-2.205-.781-.601-.854-1.202-2.465-1.328-4.101-.126-1.636.226-3.295.852-4.687.626-1.391 1.53-2.515 2.807-4.052 1.277-1.538 2.932-3.49 4.485-4.86 1.553-1.365 3.007-2.147 4.71-2.733 1.705-.586 3.66-.976 5.389-1.22 1.728-.245 3.232-.342 5.638-.855 2.405-.512 5.713-1.44 8.045-2.197 2.33-.756 3.684-1.342 5.913-1.61s5.338-.22 8.395.195c3.057.415 6.064 1.197 8.67 2.343 2.606 1.147 4.81 2.66 6.089 4.1 1.278 1.44 1.63 2.808 1.379 4.59-.25 1.78-1.102 3.978-1.905 5.81-.801 1.83-1.553 3.295-2.53 4.663-.978 1.366-2.181 2.636-2.858 3.66-.677 1.025-.827 1.806-.576 2.368.25.56.902.903 1.83.537.927-.366 2.13-1.44 3.107-2.344.978-.904 1.728-1.635 2.606-2.466.877-.83 1.879-1.757 2.756-2.245.878-.488 1.63-.537 2.406-.196.777.343 1.578 1.074 2.205 1.88a8.114 8.116 0 011.38 2.686c.3 1 .45 2.124.5 3.295.05 1.171 0 2.392-.55 3.978-.552 1.587-1.604 3.54-2.757 6.494-1.153 2.952-2.405 6.908-3.408 10.69-1.002 3.785-1.754 7.397-1.98 10.522-.225 3.125.075 5.76-.1 7.786-.176 2.026-.827 3.442-1.955 4.468-1.127 1.025-2.731 1.66-4.184 2.368-1.454.707-2.757 1.49-3.91 2.465-1.152.975-2.154 2.148-3.281 2.904-1.128.757-2.381 1.098-3.735.61-1.352-.488-2.806-1.806-3.784-3.198-.978-1.39-1.478-2.855-1.88-4.393-.4-1.537-.702-3.147-.702-4.564 0-1.416.3-2.636-.1-3.197-.401-.561-1.503-.464-2.631-.513-1.128-.048-2.28-.244-2.857-.83-.577-.586-.577-1.562-.677-2.563-.1-1.001-.3-2.027-.801-2.32-.502-.293-1.303.148-2.03 1.025-.726.879-1.38 2.197-1.93 3.125-.55.928-1.002 1.465-1.553 1.367-.551-.097-1.202-.83-1.604-1.758-.4-.927-.55-2.05-.826-3.197-.276-1.147-.677-2.32-1.254-2.71-.576-.39-1.328 0-1.904.586-.577.586-.978 1.366-1.18 2.27-.2.903-.2 1.929-.25 2.735-.05.805-.15 1.39-.426 1.904-.275.512-.726.95-1.403 1.05-.677.098-1.578-.147-2.38-.464-.802-.317-1.504-.708-2.306-1.83-.801-1.123-1.704-2.98-2.556-5.59-.852-2.612-1.653-5.981-2.13-9.52-.476-3.54-.626-7.25-.1-10.717.526-3.467 1.73-6.688 3.133-8.933 1.403-2.246 3.007-3.515 4.987-4.54 1.98-1.026 4.335-1.807 7.19-2.124 2.858-.317 6.216-.17 7.794-.416 1.579-.243 1.378-.878.802-1.318-.577-.44-1.53-.683-2.656-.975-1.128-.294-2.43-.635-4.711-.513-2.28.122-5.538.708-7.893 1.367-2.355.659-3.81 1.39-5.24 2.344zm-16.265 32.44c3.742-2.254 6.95-1.767 9.623 1.466 1.966-8.865-.14-16.383-6.315-22.555-2.926 14.158-4.03 21.189-3.308 21.09zm24.657 121.344c-5.73-.845-9.84.816-12.33 4.98 3.977 6.47 6.933 14.916 8.873 25.337 4.374-13.09 5.526-23.195 3.457-30.317zm127.046 269.708c4.32 3.127 14.143-4.732 29.469-23.58 17.312 16.816 30.442 22.577 39.392 17.282-29.118-39.016-47.862-70.383-56.23-94.101 24.82 33.968 56.093 64.823 93.818 92.563-1.928-6.286-.875-10.583 3.158-12.89 19.597 10.973 36.386 15.563 50.368 13.768-53.84-39.826-87.218-72.292-100.134-97.396 21.912 22.082 48.875 45.71 80.89 70.887 3.047 3.98 10.672 7.648 23.44 11.493 24.096 17.734 46.304 28.548 66.62 32.444 5.748-19.813 19.029-26.16 39.843-19.04.622-6.172 6.786-9.345 18.493-9.52-65.677-16.44-114.49-33.43-146.441-50.97 61.364 23.21 136.64 37.857 225.827 43.94 1.12-2.561-3.74-5.392-14.584-8.495 1.347-.58 2.199-1.556 2.556-2.93.312-2.337-2.043-5.12-7.067-8.347 13.262-.534 21.782-2.78 25.56-6.74-4.164-6.183-13.437-11.845-27.815-16.99 21.043-1.185 34.123-4.36 39.24-9.52-189.27 5.86-300.415-15.725-333.432-64.75-39.735-12.182-74.073-36.71-98.543-69.11.097 13.975 3.32 32.548 8.357 46.625 7.694 21.506 19.4 40.449 25.48 59.834 10.7 34.112 13.12 66.52 10.982 94.7" />
  <path class="bg"
    d="M239.364 535.737a194.962 195.014 0 01-16.662-29.269c-17.435 33.011-23.116 61.345-17.04 85.001-15.704-7.447-12.047-40.705 10.97-99.774-7.562-20.81-11.686-43.27-11.686-66.696 0-7.167.385-14.243 1.138-21.21-1.544.124-3.017.423-4.284.721-1.654.391-2.957.782-3.558 1.66-.6.88-.5 2.246-.5 3.955 0 1.71-.1 3.76-.803 5.467-.7 1.71-2.004 3.077-3.107 3.906-1.102.83-2.004 1.123-2.305 2.245-.3 1.123 0 3.077-.2 4.736-.201 1.66-.902 3.028-1.805 3.417-.902.391-2.005-.195-3.158-.342-1.153-.147-2.356.147-1.805 1.026.552.878 2.857 2.343 4.06 3.758 1.203 1.417 1.303 2.783.45 3.467-.851.683-2.655.683-3.91.927-1.252.244-1.953.733-2.304 1.757-.35 1.026-.35 2.588-.15 4.297.2 1.708.6 3.564.85 5.076.25 1.514.352 2.686-.35 3.32-.701.636-2.205.733-3.157.781-.952.05-1.354.05-1.253.733.1.684.702 2.05 1.052 3.271.35 1.22.45 2.294.15 3.37-.3 1.073-1.002 2.147-1.905 3.27-.901 1.123-2.005 2.295-2.255 3.857-.25 1.562.35 3.515 1.052 5.467.702 1.953 1.503 3.906 1.052 5.42-.451 1.513-2.154 2.587-3.608 3.905-1.453 1.318-2.656 2.881-3.66 7.274-1.001 4.395-1.803 11.62-2.756 19.53-.952 7.908-2.054 16.5-3.408 24.8-1.352 8.3-2.957 16.306-4.16 22.897-1.203 6.59-2.004 11.766-2.805 16.94 56.03 64.848 63.797 110.483 56.51 97.224-5.8-10.55-7.292-10.4-16.216-19.013 2.763 28.088-5.857 57.184-25.861 87.29 54.365-9.662 70.553-57.823 55.079-154.199 23.54 89.89 15.069 141.712-31.924 165.184 8.345.477 16.313 3.016 23.905 7.616 6.63.592 13.898-4.095 21.8-14.06-.894 7.371.91 12.84 5.413 16.403 5.173-9.74 6.96-19.412 10.952-31.837 6.034-18.78 11.997-38.04 10.742-59.419-1.702-29.017-13.254-59.983-22.985-93.782-3.905-13.559-5.582-24.715-5.6-40.37zm1.099-223.05c.083-.705.176-1.419.21-2.082a11.376 11.379 0 00-.452-3.76c-.275-.95-.576-1.585-.751-2.44-.176-.854-.225-1.928.275-2.66.5-.733 1.553-1.124 2.254-1.295.702-.17 1.053-.122 1.554.39.5.512 1.153 1.49 1.405 3.345.087.65.125 1.408.138 2.198a195.148 195.2 0 00-4.632 6.304zm12.32-15.722a121.005 121.005 0 01-1.487-3.764c-2.03-5.42-3.383-10.399-4.36-12.57-.978-2.174-1.58-1.539-2.156-.66-.576.88-1.127 2.002-1.277 3.37-.151 1.365.1 2.977.65 4.588.553 1.611 1.406 3.222 2.408 4.858 1.002 1.635 2.154 3.295 3.032 4.76.397.663.738 1.286 1.038 1.938a187.929 187.979 0 012.153-2.52z" />
  <path class="bg"
    d="M156.345 692.747c23.226-39.606 23.827-70.557 1.805-92.856-17.88 51.257-18.482 82.21-1.805 92.856z" />
  <path class="bg"
    d="M191.528 642.659c-3.377-9.48-8.088-16.508-14.133-21.092 5.813 27.88 1.503 54.927-12.93 81.14-1.175 12.379.529 20.97 5.112 25.777 18.696-24.296 26.013-52.906 21.952-85.827zm-78.322-240.28c.039-1.717.265-3.198 1.439-4.44.049-.051.04-.05.085-.09.12-.11.023-.036.14-.11-.068.478-.07 1.088-.085 1.58-.01.346 0 .965.11 1.31l.073.168c.195-.104.722-.795 1.11-1.072.225-.16 1.103-.805 1.47-.618.014.494-2.531 4.26-2.586 7.39.443-.221 1.209-1.132 2.754-1.47 1.066-.234 2.83-.06 3.646.47l-.074.093c-.15.142-.398.236-.6.312-.656.25-1.568.427-2.2 1.057.148.1.616.254.87.385.266.135.622.326.824.49.318.258.986.902 1.099 1.499-.832-.007-.876-.05-1.458-.416-.891-.563-1.93-.898-3.058-.714-.073.01-1.49.374-1.512.385-.05.462.674 1.12 1.1 1.63.793.95 1.74 2.123 2.208 3.297.116.29.904 2.58.023 2.345-.206-.055-.656-.391-.813-.51-.51-.39-1.06-1.43-1.374-2.03l-.621-1.155c0 .7.123 1.993-.46 2.33-.378-.087-.626-.514-.733-.927-.13-.495-.067-1.075-.11-1.578-.091.08-.024-.013-.123.148l-.258.594c-.082.198-.187.572-.333.722-.88-.41-.494-2.971-.45-3.991-.474.434-1.615 2.936-1.787 3.409-.45 1.23-.96 2.993-.56 4.453.155.575.556 1.402.864 1.74.627.692 1.914.256 2.053.247.43-.03 1.607.525 1.925.708.644.37 1.06.622 1.99.632 1.749.02 2.22-1.418 2.844-2.385.375-.58.958-.57 1.359-1.263.299-.518.062-1.68-.145-2.202-.548-1.375-1.421-2.171-2.303-2.924-.415-.354-2.635-2.038-2.388-2.728.523-.24 1.31.319 1.592.526 1.199.884 2.1 2.217 4.14 2.707.757.18 1.307.148 1.813-.262.253-.205.354-.258.55-.587.76-1.261 2.482-1.02 2.35-3.34-.09-1.571-.835-1.642-1.573-2.914-.218-.377-.264-.356-.273-.846-.008-.344.01-.766-.04-1.1-.144-.947-.908-.374-1.41-.867-.336-.333-.327-.751-1.37-.91-.676-.104-1.44-.012-2.08.133a5.5 5.502 0 00-1.635.652c-.568.33-.7.685-1.567.784.105-.936.7-1.582 1.364-2.104.39-.305 1.407-1.368 1.795-1.736.4-.381.763-.704 1.066-1.26.343-.63.328-1.162-.056-1.732-.665-.986-1.914-.731-2.283-1.203-.546-.701-.79-1.338-1.767-1.76-1.617-.702-2.126-.545-3.464.24-1.977 1.162-4.318 3.26-2.547 5.559.75.973.81 2.46 1.34 3.14l.032.037.035.037a.528.528 0 00.035.037z" />
  <path class="bg"
    d="M111.05 410.635c-1.528.574-2.663 2.172-3.396 2.284-.405-1.24.983-2.33 1.196-2.753-1.327.06-2.815 1.157-3.486 1.144-.055-.894 1.182-1.745 1.738-2.074 1.053-.623 2.47-.712 2.956-.92-.962-.406-3.296-.475-4.49-.404-1.528.09-2.808.413-3.715 1.208-.464.408-.79.712-1.086 1.359-1.115 2.42.357 2.39.106 3.812-.147.833-.162 1.31.31 1.934.939 1.239 1.84.587 2.848.82.36.084.554.322.77.485.134.1.18.17.305.264.815.61 2.425.82 3.306-.033.884-.856.738-2.457 1.004-3.855.158-.826.705-1.79 1.145-2.48.173-.272.375-.508.487-.793zm-.475-4.151c-.073-.257-.98-.93-1.283-1.187-1.127-.955-3.476-1.59-4.192-2.15-.214-.168-.583-.388-.51-.796.632-.471 2.132-.007 2.788.206.826.267 1.646.737 2.409.94-.287-.922-1.233-1.903-1.92-2.488-.74-.631-1.804-1.164-2.948-1.508-1.79-.536-3.806-.223-4.87 1.294-1.01 1.444.488 1.435.073 3.383-.195.918-.444 1.782.173 2.582.173.224.325.444.716.44 2.39-.015 2.77-1.116 5.54-1.166 1.28-.023 2.858.16 4.024.45zm-2.13-8.675l1.413 2.33c2.189 3.991 1.643 5.242 2.446 6.884.124.25.643 1.04 1.073.518.785-.957-2.132-6.539-3.078-7.833a8.02 8.021 0 00-.863-1.01c-.202-.2-.747-.776-.99-.89zm27.6-18.009c.04-1.716.266-3.196 1.44-4.44.047-.05.04-.048.085-.088.12-.11.023-.036.14-.11-.068.477-.07 1.088-.085 1.58-.01.345 0 .964.109 1.31l.074.167c.195-.105.723-.795 1.11-1.072.225-.16 1.103-.803 1.47-.617.014.493-2.531 4.26-2.586 7.39.443-.222 1.209-1.133 2.754-1.472 1.066-.233 2.829-.059 3.646.471l-.075.092c-.15.142-.398.236-.6.313-.656.25-1.57.426-2.2 1.056.148.1.616.254.87.384.266.135.622.327.824.49.317.258.986.902 1.099 1.5-.832-.007-.877-.05-1.458-.417-.891-.563-1.93-.898-3.058-.714-.073.011-1.49.374-1.512.385-.05.462.674 1.12 1.1 1.63.794.95 1.74 2.123 2.208 3.296.116.292.904 2.581.023 2.345-.206-.055-.657-.39-.813-.51-.51-.39-1.06-1.43-1.375-2.03l-.621-1.154c0 .7.123 1.993-.46 2.33-.378-.086-.626-.514-.734-.927-.13-.494-.066-1.075-.108-1.578-.092.08-.027-.013-.124.148l-.26.594c-.08.198-.186.572-.331.722-.88-.41-.494-2.971-.45-3.991-.473.434-1.614 2.936-1.786 3.409-.448 1.23-.96 2.993-.561 4.454.156.574.556 1.4.865 1.74.628.69 1.914.256 2.053.246.429-.028 1.607.525 1.925.708.645.37 1.06.622 1.99.632 1.749.02 2.22-1.418 2.844-2.384.375-.581.957-.57 1.359-1.264.298-.517.062-1.68-.146-2.202-.548-1.375-1.42-2.17-2.302-2.923-.415-.354-2.635-2.038-2.388-2.728.523-.242 1.31.318 1.592.526 1.198.883 2.1 2.217 4.139 2.707.758.182 1.308.147 1.814-.263.252-.205.354-.258.55-.587.76-1.261 2.482-1.02 2.35-3.34-.09-1.571-.835-1.64-1.573-2.913-.218-.38-.264-.356-.273-.846-.008-.345.01-.766-.04-1.1-.145-.948-.91-.375-1.41-.868-.336-.333-.33-.75-1.371-.91-.675-.104-1.44-.012-2.078.133a5.506 5.508 0 00-1.635.652c-.57.33-.701.685-1.567.784.105-.936.7-1.583 1.364-2.104.39-.305 1.407-1.366 1.794-1.736.4-.381.763-.703 1.067-1.26.343-.63.328-1.162-.056-1.732-.665-.985-1.916-.73-2.283-1.203-.546-.701-.79-1.338-1.768-1.76-1.616-.702-2.125-.544-3.463.24-1.977 1.163-4.318 3.263-2.547 5.56.75.973.81 2.46 1.34 3.14l.032.038.034.037a.566.566 0 00.036.037z" />
  <path class="bg"
    d="M133.89 388.058c-1.53.574-2.664 2.173-3.396 2.285-.405-1.24.982-2.33 1.196-2.754-1.327.062-2.816 1.158-3.486 1.144-.055-.892 1.182-1.745 1.738-2.074 1.053-.622 2.47-.71 2.956-.919-.962-.407-3.296-.475-4.49-.404-1.528.09-2.808.413-3.715 1.208-.465.408-.79.713-1.086 1.359-1.115 2.42.356 2.39.105 3.814-.146.833-.16 1.31.312 1.933.939 1.24 1.84.588 2.848.82.36.084.554.322.77.486.134.099.18.172.305.264.815.61 2.425.82 3.306-.034.884-.856.738-2.457 1.004-3.855.157-.826.705-1.788 1.145-2.48.172-.271.375-.508.487-.793zm-.475-4.15c-.073-.258-.98-.93-1.283-1.187-1.127-.955-3.476-1.59-4.192-2.15-.214-.169-.582-.388-.51-.797.63-.47 2.132-.006 2.788.206.826.268 1.646.737 2.409.941-.287-.923-1.233-1.903-1.92-2.488-.74-.632-1.804-1.165-2.95-1.508-1.787-.537-3.804-.223-4.867 1.294-1.012 1.444.486 1.436.072 3.382-.196.918-.444 1.783.173 2.582.173.225.325.444.716.442 2.39-.016 2.77-1.117 5.54-1.166 1.28-.023 2.858.158 4.024.45zm-2.13-8.676l1.413 2.33c2.188 3.993 1.643 5.243 2.446 6.885.124.25.643 1.042 1.073.518.785-.957-2.132-6.539-3.078-7.832a8.02 8.021 0 00-.863-1.012c-.202-.2-.747-.774-.99-.888zm37.632 12.221c1.243-.657 2.392-1.093 3.75-.793.055.012.05.008.098.022.125.037.035 0 .134.05-.37.145-.806.387-1.164.573-.252.13-.69.385-.893.596l-.09.118c.152.09.856.173 1.208.325.205.09 1.015.43 1.029.752-.348.206-4.056-.02-6.318 1.192.336.213 1.293.368 2.15 1.282.594.63 1.17 1.897 1.118 2.66l-.095-.014c-.161-.045-.327-.176-.462-.28-.442-.347-.93-.895-1.633-1.072-.013.14.064.518.072.743.01.232.014.55-.023.752-.058.32-.251 1.03-.633 1.343-.327-.567-.315-.613-.284-1.155.047-.83-.127-1.666-.71-2.36a56.065 56.08 0 00-.877-.873c-.35.15-.534.904-.728 1.396-.362.919-.825 2.029-1.477 2.815-.163.195-1.486 1.642-1.667.95-.042-.162.018-.602.04-.755.074-.501.6-1.29.904-1.742l.577-.882c-.5.28-1.375.878-1.85.617-.087-.29.12-.63.37-.867.303-.286.743-.475 1.086-.704-.094-.03 0-.022-.155-.025l-.528.06c-.173.023-.483.1-.648.061-.06-.76 1.927-1.52 2.674-1.896-.498-.148-2.743.075-3.15.146-1.057.186-2.523.542-3.408 1.396-.35.335-.78.936-.901 1.28-.244.702.58 1.401.643 1.492.19.28.265 1.3.26 1.588-.008.585-.02.97.342 1.603.683 1.195 1.9.942 2.839.98.565.024.79.424 1.445.419.49-.005 1.226-.628 1.517-.976.765-.92.986-1.83 1.173-2.728.087-.423.406-2.601.998-2.71.382.26.295 1.018.26 1.292-.155 1.165-.748 2.308-.286 3.887.172.587.416.946.91 1.126.249.09.328.137.64.14 1.206.013 1.72 1.277 3.327.262 1.087-.686.84-1.22 1.456-2.228.183-.3.149-.321.495-.523.244-.143.553-.299.77-.467.62-.476-.093-.766.06-1.302.104-.36.406-.522.104-1.294-.196-.5-.566-.98-.924-1.357a4.343 4.344 0 00-1.118-.849c-.464-.254-.77-.203-1.186-.75.71-.303 1.41-.157 2.048.086.374.142 1.539.41 1.958.525.432.12.807.237 1.326.22.587-.017.962-.24 1.216-.728.44-.844-.24-1.59-.05-2.029.285-.65.64-1.07.556-1.9-.144-1.378-.458-1.66-1.553-2.255-1.62-.879-4.055-1.63-4.991.487-.397.898-1.437 1.53-1.712 2.163l-.013.036-.013.038a.458.458 0 00-.012.04z" />
  <path class="bg"
    d="M162.152 389.283c-1.02-.81-2.616-.942-2.988-1.394.726-.77 2.058-.262 2.447-.285-.574-.877-1.951-1.45-2.208-1.91.617-.393 1.719.105 2.176.352.865.467 1.494 1.393 1.836 1.64-.093-.815-.974-2.426-1.501-3.208-.674-1-1.414-1.74-2.345-2.04-.477-.152-.825-.25-1.404-.195-2.175.21-1.568 1.196-2.685 1.592-.655.232-1.001.414-1.26.982-.512 1.13.315 1.483.549 2.26.084.277-.008.503-.04.716-.018.13-.05.191-.067.312-.112.795.38 1.972 1.343 2.23.964.258 2.052-.48 3.157-.856.654-.223 1.56-.236 2.23-.213.263.01.513.052.762.015zm2.779-1.978c.156-.15.275-1.035.338-1.343.235-1.146-.25-2.992-.133-3.702.035-.213.046-.55.366-.664.588.242.854 1.444.964 1.974.138.668.13 1.41.287 2.01.546-.562.87-1.595 1.014-2.293.157-.755.114-1.69-.097-2.604-.33-1.428-1.358-2.672-2.866-2.788-1.435-.11-.833.902-2.39 1.396-.736.234-1.453.41-1.78 1.147-.091.207-.187.397-.03.66.966 1.617 1.903 1.436 3.042 3.296.527.86 1.027 2.002 1.284 2.91zm5.356-4.902l-1.103 1.887c-1.983 3.078-3.094 3.205-3.948 4.406-.131.184-.49.85.057.934.997.15 3.826-4.054 4.374-5.211a6.18 6.18 0 00.379-.99c.062-.217.255-.815.24-1.026zm-39.898 86.79c-1.584.75-3.04 1.23-4.712.782-.068-.02-.063-.014-.12-.033-.154-.054-.043-.003-.164-.07.467-.16 1.026-.437 1.482-.65.32-.148.88-.44 1.145-.692l.12-.141c-.185-.122-1.056-.263-1.485-.472-.25-.122-1.238-.59-1.236-.992.443-.238 5.046.248 7.93-1.135-.404-.284-1.587-.53-2.603-1.714-.7-.817-1.347-2.424-1.235-3.375l.117.024c.199.065.397.236.56.376.529.455 1.106 1.164 1.97 1.423.024-.173-.05-.648-.047-.93.002-.29.014-.687.072-.936.09-.393.373-1.266.866-1.637.374.723.356.782.287 1.453-.107 1.03.063 2.08.746 2.976.044.058 1.023 1.12 1.042 1.135.443-.168.716-1.096.985-1.698.504-1.122 1.144-2.477 2-3.42.214-.234 1.945-1.963 2.13-1.09.044.204-.056.748-.093.938-.122.62-.82 1.57-1.226 2.118l-.771 1.066c.639-.32 1.763-1.018 2.339-.668.092.367-.184.778-.511 1.06-.392.338-.952.549-1.392.815.115.043 0 .028.19.04l.662-.047c.218-.02.607-.1.81-.042.03.95-2.486 1.786-3.438 2.214.613.21 3.419.057 3.929-.01 1.328-.174 3.172-.535 4.324-1.55.453-.397 1.026-1.121 1.194-1.543.344-.86-.641-1.775-.714-1.892-.222-.358-.256-1.633-.233-1.991.044-.728.083-1.204-.332-2.014-.781-1.524-2.31-1.276-3.477-1.374-.702-.06-.957-.57-1.774-.6-.61-.022-1.562.714-1.943 1.132-1.006 1.103-1.334 2.223-1.62 3.33-.133.52-.656 3.216-1.398 3.317-.46-.342-.308-1.28-.248-1.62.259-1.441 1.064-2.832.58-4.823-.18-.74-.463-1.2-1.068-1.451-.303-.126-.397-.19-.788-.21-1.5-.083-2.065-1.684-4.124-.508-1.393.795-1.116 1.473-1.94 2.693-.245.362-.204.39-.648.624-.311.164-.705.34-.987.536-.8.56.073.96-.15 1.618-.147.444-.534.629-.203 1.605.214.632.647 1.252 1.07 1.74.426.49.844.814 1.344 1.119.56.34.945.294 1.432.999-.902.337-1.764.117-2.544-.221-.456-.198-1.892-.595-2.405-.76-.53-.173-.99-.34-1.637-.35-.733-.01-1.211.247-1.557.842-.595 1.026.208 1.993-.055 2.527-.39.794-.86 1.297-.8 2.336.1 1.722.474 2.09 1.802 2.89 1.965 1.184 4.952 2.252 6.24-.331.547-1.095 1.877-1.826 2.256-2.597l.019-.044.018-.047a.574.575 0 00.018-.047z" />
  <path class="bg"
    d="M138.914 467.286c1.223 1.063 3.202 1.316 3.638 1.9-.947.917-2.576.213-3.061.22.663 1.123 2.344 1.91 2.637 2.498-.79.455-2.132-.226-2.688-.56-1.048-.627-1.778-1.815-2.19-2.14.07 1.018 1.073 3.072 1.683 4.075.782 1.282 1.66 2.244 2.8 2.666.586.217 1.01.358 1.737.321 2.72-.14 2.02-1.4 3.434-1.834.828-.253 1.27-.46 1.624-1.153.702-1.38-.305-1.864-.552-2.842-.09-.352.04-.628.09-.89.03-.16.073-.235.102-.385.185-.983-.36-2.475-1.542-2.85-1.184-.374-2.58.483-3.978.892-.826.242-1.955.207-2.787.141-.327-.025-.636-.09-.947-.06zm-3.571 2.31c-.202.18-.402 1.274-.498 1.654-.358 1.413.138 3.737-.048 4.614-.056.263-.088.682-.494.806-.718-.334-.98-1.845-1.086-2.51-.134-.839-.08-1.763-.242-2.518-.712.67-1.175 1.938-1.395 2.8-.24.931-.24 2.096-.03 3.244.327 1.796 1.535 3.4 3.406 3.628 1.78.217 1.089-1.078 3.056-1.608.927-.25 1.83-.43 2.28-1.33.125-.252.256-.484.075-.821-1.106-2.065-2.285-1.89-3.596-4.268-.606-1.1-1.161-2.548-1.43-3.692zm-6.95 5.809l1.48-2.288c2.648-3.722 4.039-3.82 5.17-5.267.174-.22.657-1.033-.017-1.166-1.233-.243-4.995 4.835-5.745 6.246a7.75 7.75 0 00-.53 1.21c-.09.267-.365 1.002-.358 1.265zm19.924-53.186c1.416 1.315 2.494 2.604 2.663 4.473.007.076.01.069.01.135.004.178.015.046-.011.194-.352-.411-.864-.87-1.268-1.25-.284-.268-.813-.722-1.184-.893l-.198-.068c-.058.235.13 1.173.072 1.689-.033.3-.148 1.484-.58 1.638-.426-.358-1.692-5.211-4.29-7.6-.145.52.05 1.816-.82 3.305-.602 1.026-2.068 2.305-3.126 2.562l-.021-.13c-.008-.225.1-.494.186-.712.28-.712.815-1.572.757-2.548-.195.042-.675.3-.975.407-.312.11-.74.252-1.028.29-.455.06-1.498.114-2.086-.242.629-.66.697-.664 1.442-.855 1.14-.291 2.199-.87 2.89-1.91a67.31 67.31 0 00.807-1.497c-.351-.385-1.447-.3-2.195-.34-1.395-.077-3.091-.198-4.43-.703-.332-.126-2.85-1.21-1.991-1.736.2-.124.82-.233 1.037-.27.71-.116 1.997.223 2.74.42l1.436.369c-.59-.522-1.77-1.393-1.617-2.112.354-.235.9-.115 1.329.108.513.266.956.75 1.41 1.095.002-.133.03-.012-.031-.21l-.307-.652c-.106-.212-.341-.576-.358-.806 1.003-.397 2.872 1.829 3.698 2.628-.011-.702-1.265-3.488-1.534-3.98-.7-1.278-1.802-3.007-3.332-3.781-.6-.306-1.596-.605-2.113-.613-1.051-.016-1.648 1.34-1.744 1.457-.297.364-1.646.892-2.038 1.01-.795.237-1.318.38-2.022 1.116-1.325 1.383-.467 2.836-.12 4.058.21.734-.237 1.192.049 2.03.212.627 1.368 1.308 1.962 1.532 1.568.592 2.892.49 4.187.349.608-.067 3.689-.581 4.085.133-.188.599-1.25.809-1.635.879-1.64.296-3.44.02-5.377 1.282-.721.469-1.103.935-1.136 1.646-.017.356-.048.477.08.88.494 1.55-.997 2.746 1.057 4.378 1.39 1.103 2.007.56 3.63.923.484.107.498.055.919.414.295.252.636.583.956.792.907.593.996-.446 1.787-.477.53-.02.878.3 1.792-.415.593-.462 1.088-1.141 1.444-1.761a5.77 5.772 0 00.674-1.797c.147-.7-.051-1.072.513-1.838.71.783.81 1.742.75 2.664-.035.54.1 2.148.12 2.735.02.605.02 1.136.264 1.795.274.747.732 1.132 1.5 1.251 1.328.206 2.05-.983 2.723-.924.999.09 1.719.37 2.805-.094 1.802-.767 2.05-1.29 2.39-2.948.5-2.45.484-5.893-2.775-6.198-1.382-.127-2.68-1.192-3.65-1.278-.017-.002-.037-.002-.054-.002h-.115z" />
  <path class="bg"
    d="M142.974 414.317c.66-1.652.164-3.756.618-4.425 1.347.605 1.227 2.53 1.423 3.018.942-1.108 1.132-3.119 1.645-3.644.793.625.586 2.25.446 2.941-.264 1.307-1.25 2.508-1.44 3.052 1.063-.465 2.868-2.28 3.702-3.287 1.068-1.287 1.754-2.552 1.763-3.872.004-.677-.01-1.164-.33-1.885-1.206-2.703-2.282-1.505-3.292-2.77-.591-.74-.983-1.108-1.861-1.198-1.747-.177-1.873 1.033-2.823 1.663-.34.226-.685.202-.985.253-.184.032-.28.016-.45.045-1.123.195-2.505 1.325-2.447 2.668.06 1.348 1.516 2.428 2.495 3.687.579.744.98 1.902 1.232 2.77.1.34.148.68.303.984zm3.853 2.725c.27.136 1.517-.086 1.96-.136 1.648-.186 3.939-1.588 4.948-1.74.302-.046.763-.176 1.053.188-.077.857-1.59 1.708-2.26 2.073-.844.46-1.851.763-2.596 1.22.993.463 2.526.44 3.532.33 1.087-.12 2.332-.571 3.478-1.23 1.79-1.029 3.035-2.875 2.554-4.859-.458-1.89-1.572-.686-2.903-2.475-.626-.843-1.168-1.688-2.304-1.794-.32-.03-.618-.073-.907.242-1.777 1.923-1.134 3.05-3.165 5.3-.938 1.04-2.272 2.166-3.39 2.881zm8.9 4.792l-3.02-.615c-5.001-1.24-5.646-2.61-7.631-3.198-.303-.09-1.357-.265-1.238.47.217 1.344 7.1 3.189 8.9 3.4.533.063.993.089 1.499.069.32-.013 1.21-.018 1.49-.127zm244.372-4.27a7.434 7.436 0 110 14.872 7.434 7.436 0 110-14.872zm-23.89-156.651l1.228-5.903c5.72-2.487 10.143-5.383 13.266-8.688h4.06l-7.13 33.952h-6.703l4.902-23.375c-1.377.897-2.974 1.707-4.775 2.448-1.803.739-3.423 1.259-4.848 1.566zm33.1-3.92l-6.466-.968c.52-3.132 1.739-5.533 3.658-7.201 1.912-1.67 4.304-2.503 7.176-2.503 3.156 0 5.634.85 7.428 2.557 1.8 1.708 2.698 3.88 2.698 6.51 0 1.337-.275 2.675-.834 4.02-.55 1.346-1.456 2.754-2.714 4.234-.913 1.047-2.392 2.526-4.454 4.44-2.06 1.913-3.423 3.219-4.091 3.92a29.234 29.242 0 00-1.928 2.227h11.708l-1.228 6.044h-20.536c.212-1.66.7-3.244 1.456-4.739a20.154 20.16 0 012.84-4.188c1.133-1.29 3.203-3.376 6.216-6.249 2.266-2.188 3.697-3.604 4.296-4.265 1.07-1.204 1.81-2.235 2.204-3.117.4-.873.597-1.669.597-2.377 0-1.133-.33-2.054-1-2.762-.66-.709-1.51-1.062-2.533-1.062-1.037 0-1.95.393-2.73 1.188-.778.787-1.361 2.22-1.762 4.29zm145.88 176.523l6.326-.764c.26 1.794.732 3.039 1.416 3.73.685.693 1.598 1.04 2.738 1.04 1.51 0 2.762-.513 3.754-1.528.99-1.023 1.486-2.33 1.486-3.92 0-1.392-.4-2.486-1.196-3.296-.795-.811-1.873-1.22-3.218-1.22a6.4 6.4 0 00-1.062.094l1.148-5.524c.237.03.457.046.669.046 1.763 0 3.108-.45 4.029-1.353.92-.899 1.377-2.118 1.377-3.66 0-1.094-.315-1.952-.937-2.59-.622-.63-1.44-.944-2.446-.944-.96 0-1.81.346-2.566 1.047-.747.7-1.345 1.888-1.794 3.58l-6.042-1.196c.77-2.487 1.834-4.39 3.202-5.73 2.077-1.99 4.627-2.99 7.647-2.99 3.108 0 5.469.867 7.082 2.598 1.613 1.73 2.416 3.81 2.416 6.225 0 1.755-.511 3.337-1.543 4.753-1.03 1.417-2.44 2.456-4.233 3.117 1.425.755 2.478 1.73 3.155 2.936.677 1.197 1.015 2.455 1.015 3.762 0 2.494-.882 4.785-2.651 6.878-2.408 2.866-5.524 4.298-9.332 4.298-2.856 0-5.217-.819-7.066-2.456-1.848-1.63-2.974-3.942-3.375-6.933zM400.797 578.9c.217-.018.435-.027.654-.027 2.605 0 4.76.888 6.444 2.675 1.69 1.786 2.533 4.218 2.533 7.303 0 2.448-.59 4.761-1.77 6.933-1.188 2.18-2.66 3.77-4.422 4.77-1.77 1-3.635 1.503-5.593 1.503-1.888 0-3.588-.472-5.106-1.417-1.511-.952-2.676-2.33-3.494-4.147-.827-1.81-1.236-4.242-1.236-7.287 0-6.044 1.338-11.176 4.005-15.394 2.675-4.21 6.193-6.32 10.567-6.32 2.518 0 4.524.693 6.01 2.077 1.488 1.393 2.4 3.503 2.739 6.336l-6.184.512c-.126-1.345-.44-2.282-.953-2.826-.52-.543-1.212-.81-2.085-.81-1.124 0-2.124.44-2.997 1.33-1.243 1.274-2.243 3.33-2.998 6.17-.885 3.222-1.422 6.383-1.613 9.485a13.031 13.035 0 00-.117 1.746c0 1.802.346 3.124 1.046 3.982.7.85 1.566 1.275 2.605 1.275 1.274 0 2.368-.606 3.28-1.81 1.235-1.63 1.849-3.817 1.849-6.556 0-1.77-.338-3.077-1.023-3.919-.684-.842-1.527-1.267-2.51-1.267-.385-1.124-.263-2.564.367-4.318zM235.173 430.555a8.284 8.286 0 01-.65.08c-2.596.208-4.816-.506-6.638-2.15-1.83-1.647-2.864-4.003-3.11-7.079a14.312 14.316 0 011.208-7.053c1.01-2.269 2.348-3.97 4.026-5.109 1.684-1.138 3.502-1.79 5.456-1.947 1.882-.15 3.614.182 5.203 1.002 1.583.828 2.853 2.108 3.815 3.855.968 1.738 1.57 4.129 1.815 7.165.484 6.026-.437 11.248-2.758 15.666-2.33 4.41-5.666 6.796-10.026 7.147-2.51.2-4.566-.328-6.16-1.59-1.592-1.27-2.672-3.298-3.236-6.096l6.123-1.005c.234 1.332.622 2.24 1.176 2.74.56.5 1.273.71 2.143.64 1.12-.09 2.082-.609 2.88-1.566 1.138-1.37 1.969-3.497 2.494-6.39.624-3.282.906-6.477.848-9.583a12.94 12.94 0 00-.023-1.75c-.145-1.798-.596-3.089-1.362-3.888-.767-.79-1.663-1.145-2.7-1.063-1.27.103-2.311.795-3.124 2.068-1.1 1.723-1.538 3.953-1.318 6.683.142 1.765.584 3.041 1.334 3.826.75.784 1.622 1.14 2.603 1.062.474 1.09.468 2.533-.02 4.333zm72.976-159.508l4.39-2.537 14.099 24.424-4.393 2.536-14.097-24.423zm164.084 283.818l4.39-2.537 14.098 24.424-4.39 2.537zm56.09-52.772l2.536-4.394 24.418 14.102-2.537 4.393zM244.825 338.295l2.536-4.392 24.417 14.1-2.536 4.393zm305.374-3.244l2.536 4.393-24.417 14.101-2.535-4.393zM270.382 496.983l2.537 4.393-24.418 14.101-2.536-4.392zm52.235 57.643l4.39 2.537-14.096 24.424-4.392-2.537zm164.519-285.49l4.39 2.536-14.097 24.424-4.39-2.537zm-306.492 145.64c1.358.366 2.496.83 3.285 1.975.033.046.032.041.056.083.067.113.025.025.063.13-.367-.147-.852-.268-1.241-.375-.274-.076-.767-.19-1.06-.173l-.147.023c.05.171.509.711.663 1.063.089.205.45 1.005.24 1.251-.394-.085-2.953-2.78-5.434-3.435.1.384.694 1.15.7 2.405.004.865-.436 2.185-.996 2.71l-.06-.076c-.087-.144-.12-.352-.146-.522-.087-.554-.071-1.29-.464-1.897-.105.093-.307.422-.454.592-.153.178-.365.413-.53.536-.26.193-.886.58-1.38.551.149-.638.189-.664.58-1.039.6-.575 1.044-1.306 1.09-2.21a57.138 57.153 0 00-.047-1.237c-.358-.129-1.006.298-1.483.525-.89.424-1.985.922-2.998 1.052-.251.031-2.207.188-1.868-.442.08-.148.424-.429.544-.525.396-.317 1.318-.534 1.849-.659l1.024-.25c-.556-.137-1.605-.297-1.774-.81.133-.274.516-.38.862-.382.415-.003.866.16 1.273.226-.048-.086.014-.018-.096-.125l-.43-.315c-.141-.1-.421-.255-.515-.397.475-.597 2.446.202 3.25.436-.264-.447-2.06-1.815-2.405-2.04-.902-.585-2.215-1.324-3.445-1.303-.483.007-1.21.153-1.531.323-.657.347-.53 1.421-.546 1.53-.051.334-.693 1.131-.891 1.34-.405.422-.676.693-.843 1.405-.315 1.34.749 1.983 1.41 2.652.398.401.289.847.77 1.29.362.331 1.326.378 1.776.32 1.187-.15 1.968-.666 2.718-1.195.353-.25 2.07-1.625 2.576-1.3.103.45-.477.944-.69 1.12-.907.748-2.122 1.18-2.858 2.65-.274.547-.34.976-.102 1.445.12.234.145.323.372.54.873.83.387 2.105 2.254 2.46 1.264.237 1.447-.32 2.585-.64.338-.094.327-.133.719-.044.275.062.607.16.88.186.778.074.454-.625.932-.914.322-.193.653-.105.957-.875.198-.499.255-1.104.25-1.623a4.359 4.36 0 00-.24-1.385c-.166-.502-.425-.673-.356-1.357.725.264 1.14.847 1.439 1.46.176.36.847 1.348 1.074 1.72.234.381.428.722.82 1.065.442.387.867.48 1.385.295.897-.318.907-1.327 1.347-1.517.65-.282 1.198-.346 1.702-1.013.833-1.105.796-1.527.399-2.708-.586-1.747-1.855-3.957-3.984-3.047-.903.385-2.094.14-2.726.415l-.035.017-.035.02a.317.317 0 00-.035.02z" />
  <path class="bg"
    d="M174.449 411.502c-.196-1.287-1.273-2.473-1.236-3.057 1.055-.07 1.684 1.21 1.985 1.458.179-1.033-.44-2.39-.314-2.902.719.134 1.185 1.25 1.352 1.743.315.93.144 2.038.226 2.453.488-.66.94-2.44 1.088-3.371.189-1.193.152-2.238-.326-3.092-.244-.437-.432-.745-.895-1.101-1.733-1.33-1.962-.195-3.05-.667-.637-.275-1.014-.38-1.59-.14-1.145.479-.782 1.3-1.138 2.029-.128.26-.35.362-.518.497-.102.083-.168.106-.262.182-.624.506-1.065 1.702-.537 2.547.529.847 1.827 1.049 2.893 1.527.63.283 1.302.892 1.776 1.366.186.186.34.387.547.53zm3.38.448c.217-.005.908-.57 1.163-.753.952-.68 1.857-2.36 2.425-2.8.17-.132.409-.372.72-.237.266.578-.36 1.64-.64 2.102-.353.583-.865 1.12-1.16 1.667.785-.04 1.725-.575 2.307-.988.63-.445 1.234-1.158 1.703-1.97.733-1.27.827-2.88-.197-3.995-.975-1.06-1.224.092-2.701-.608-.696-.33-1.34-.69-2.082-.373-.208.09-.41.163-.473.464-.396 1.84.414 2.346-.02 4.484a12.72 12.72 0 01-1.044 3.005zm7.26.064l-2.092.63c-3.55.898-4.45.235-5.892.53-.22.046-.937.29-.594.723.627.79 5.56-.357 6.752-.83.353-.14.646-.28.952-.465.194-.116.744-.422.876-.587zm-20.453 35.952c.802 1.155 1.373 2.243 1.238 3.627-.005.057-.002.052-.01.1-.021.13.003.036-.035.139-.188-.35-.48-.753-.708-1.086-.16-.234-.464-.64-.698-.815l-.128-.076c-.072.162-.07.87-.18 1.24-.063.213-.302 1.06-.622 1.111-.246-.32-.467-4.03-1.941-6.13-.171.36-.21 1.328-1.015 2.29-.554.664-1.741 1.39-2.508 1.43l.004-.095c.025-.166.135-.347.224-.493.29-.48.777-1.032.867-1.75-.14.003-.506.124-.73.16-.23.037-.545.08-.75.069-.323-.02-1.052-.127-1.41-.468.524-.393.572-.387 1.113-.422.83-.052 1.639-.326 2.258-.987.04-.043.753-.96.76-.977-.191-.33-.96-.42-1.473-.554-.954-.25-2.112-.575-2.97-1.13-.213-.137-1.81-1.277-1.144-1.54.156-.061.6-.055.754-.05.507.013 1.352.44 1.839.688l.945.468c-.338-.464-1.037-1.261-.836-1.763.278-.123.64.042.905.264.32.266.56.68.828.994.019-.097.022-.005.006-.158l-.124-.516c-.044-.17-.16-.468-.14-.637.748-.15 1.74 1.73 2.205 2.428.087-.512-.404-2.715-.524-3.11-.312-1.03-.841-2.44-1.795-3.217-.374-.305-1.023-.663-1.38-.74-.724-.16-1.32.745-1.402.817-.254.224-1.258.42-1.544.45-.582.062-.964.095-1.55.532-1.104.822-.707 2-.63 2.937.045.564-.326.835-.243 1.485.063.486.77 1.143 1.15 1.389 1.006.65 1.937.76 2.85.837.43.037 2.63.09 2.807.667-.21.409-.973.415-1.25.412-1.174-.013-2.381-.465-3.892.183-.561.242-.89.527-1.008 1.04-.06.257-.097.34-.062.652.133 1.2-1.06 1.86.14 3.335.813.997 1.313.687 2.388 1.177.318.146.336.11.578.43.17.225.362.513.554.71.548.558.749-.186 1.3-.1.37.06.567.34 1.297-.052.473-.255.906-.68 1.236-1.082a4.35 4.35 0 00.709-1.212c.196-.49.108-.788.602-1.268.386.67.326 1.383.16 2.046-.095.388-.221 1.577-.284 2.007-.067.443-.138.83-.06 1.343.09.58.353.927.87 1.12.89.335 1.55-.43 2.007-.293.679.204 1.14.508 1.953.322 1.35-.307 1.592-.655 2.05-1.813.678-1.714 1.13-4.223-1.083-4.897-.938-.287-1.691-1.243-2.352-1.44l-.037-.01a.313.313 0 00-.04-.007c-.01-.002-.025-.006-.04-.007z" />
  <path class="bg"
    d="M162.007 441.469c.68-1.11.62-2.71 1.024-3.134.85.627.508 2.012.577 2.394.802-.675 1.204-2.111 1.63-2.423.464.565.1 1.72-.088 2.204-.36.915-1.203 1.65-1.407 2.02.798-.19 2.29-1.258 3.003-1.876.913-.79 1.558-1.614 1.743-2.574.094-.49.15-.848.025-1.418-.47-2.135-1.375-1.413-1.903-2.475-.31-.623-.53-.946-1.126-1.133-1.184-.372-1.435.491-2.176.817-.266.117-.502.051-.716.047-.131-.003-.196-.027-.318-.03-.803-.014-1.911.616-2.052 1.603-.14.988.722 1.979 1.23 3.032.3.621.42 1.52.478 2.187.022.262.01.515.077.758zm2.297 2.52c.17.137 1.06.149 1.374.176 1.166.094 2.94-.608 3.657-.578.216.008.55-.021.704.284-.17.614-1.33 1.022-1.843 1.194-.646.218-1.384.298-1.96.527.623.476 1.688.672 2.398.732.769.065 1.69-.09 2.572-.41 1.378-.498 2.488-1.67 2.422-3.18-.062-1.44-.995-.72-1.673-2.207-.32-.701-.582-1.392-1.353-1.627-.216-.067-.417-.14-.66.05-1.488 1.152-1.196 2.06-2.904 3.417a12.736 12.739 0 01-2.734 1.624zm5.51 4.73l-2.004-.87c-3.294-1.6-3.554-2.687-4.848-3.39-.197-.108-.904-.383-.92.168-.031 1.01 4.483 3.312 5.698 3.717.36.12.675.202 1.027.258.223.035.84.156 1.049.116zm-56.581-6.73c-.802 1.156-1.373 2.244-1.24 3.629.006.057.003.052.01.1.022.128-.002.033.036.137.188-.348.48-.753.708-1.085.16-.235.464-.64.698-.816l.128-.076c.072.163.069.872.179 1.24.064.215.303 1.06.623 1.112.246-.32.467-4.03 1.94-6.13.172.36.21 1.328 1.016 2.29.554.664 1.74 1.39 2.508 1.43l-.004-.097c-.025-.166-.135-.346-.224-.493-.29-.48-.776-1.032-.867-1.75.14.004.507.126.73.16.23.037.545.08.75.068.323-.02 1.052-.127 1.41-.467-.524-.393-.572-.386-1.113-.421-.83-.053-1.64-.326-2.258-.988a53.07 53.084 0 01-.76-.977c.19-.33.96-.42 1.472-.554.954-.25 2.112-.575 2.97-1.13.213-.136 1.809-1.277 1.143-1.54-.155-.061-.598-.055-.753-.051-.507.014-1.352.44-1.84.689l-.943.468c.338-.464 1.037-1.261.836-1.763-.278-.122-.64.042-.905.264-.32.265-.56.68-.83.994-.018-.097-.021-.004-.005-.156l.124-.517c.044-.17.159-.468.14-.637-.748-.15-1.74 1.73-2.205 2.428-.087-.513.404-2.715.524-3.11.312-1.028.84-2.44 1.795-3.218.374-.305 1.023-.662 1.379-.74.725-.157 1.32.746 1.403.818.254.224 1.26.42 1.546.45.58.063.963.095 1.55.533 1.102.82.706 1.999.63 2.937-.046.564.325.834.242 1.485-.063.484-.771 1.142-1.152 1.388-1.005.65-1.935.76-2.85.838-.43.037-2.63.09-2.806.666.21.409.973.415 1.249.412 1.175-.013 2.382-.465 3.892.184.562.24.89.527 1.009 1.04.059.257.097.34.062.652-.133 1.197 1.06 1.86-.14 3.334-.813.997-1.313.688-2.388 1.178-.318.145-.336.11-.578.428-.171.225-.362.514-.554.71-.548.559-.75-.186-1.3-.098-.37.059-.567.34-1.297-.052-.473-.254-.906-.68-1.236-1.081a4.334 4.335 0 01-.71-1.213c-.195-.49-.107-.788-.602-1.267-.385.67-.325 1.38-.16 2.044.096.388.222 1.577.285 2.007.067.444.138.83.06 1.344-.09.58-.353.927-.87 1.12-.89.335-1.55-.43-2.007-.294-.68.204-1.14.508-1.953.323-1.35-.31-1.592-.655-2.05-1.814-.68-1.714-1.131-4.222 1.083-4.897.938-.286 1.69-1.243 2.35-1.44.013-.004.027-.006.038-.01a.313.313 0 01.039-.006.202.202 0 01.04-.008z" />
  <path class="bg"
    d="M115.862 435.493c-.68-1.11-.62-2.711-1.024-3.135-.85.628-.508 2.012-.577 2.394-.802-.674-1.204-2.11-1.63-2.421-.464.565-.1 1.72.088 2.204.36.914 1.203 1.65 1.408 2.02-.8-.19-2.292-1.26-3.004-1.876-.913-.79-1.558-1.614-1.742-2.574-.096-.491-.151-.848-.026-1.42.469-2.134 1.375-1.412 1.903-2.473.31-.622.53-.945 1.126-1.132 1.184-.372 1.435.49 2.176.816.267.117.502.052.716.047.13-.003.196-.028.318-.03.804-.015 1.912.616 2.053 1.6.14.99-.721 1.98-1.23 3.033-.3.622-.42 1.52-.478 2.188-.023.262-.01.516-.077.758zm-2.297 2.52c-.17.137-1.061.15-1.374.175-1.165.095-2.94-.607-3.657-.578-.216.009-.551-.02-.703.284.167.614 1.33 1.022 1.842 1.195.646.217 1.384.298 1.96.527-.623.475-1.688.672-2.398.732-.77.064-1.69-.09-2.571-.41-1.378-.5-2.49-1.67-2.422-3.181.062-1.44.995-.718 1.673-2.206.32-.702.582-1.392 1.353-1.628.216-.066.417-.138.66.049 1.488 1.152 1.195 2.062 2.904 3.417a12.736 12.739 0 002.734 1.624zm-5.511 4.73l2.005-.868c3.294-1.6 3.554-2.688 4.848-3.391.197-.108.904-.383.92.169.03 1.007-4.483 3.311-5.698 3.715a6.172 6.174 0 01-1.027.258c-.223.035-.84.155-1.05.115zm181.805 311.81c-1.57-1.53-1.82-5.142-.753-10.838" />
</svg>