<svg width="210mm" height="210mm" viewBox="0 0 21000 21000" shape-rendering="geometricPrecision"
  text-rendering="geometricPrecision" image-rendering="optimizeQuality" fill-rule="evenodd" clip-rule="evenodd"
  xmlns="http://www.w3.org/2000/svg">
  <defs>
    <style>
      svg {
        background-color: #fff;
      }

      .bg {
        fill: #fff
      }

      .fg {
        fill: #201922;
      }
    </style>
  </defs>
  <path class="fg"
    d="M10499.995 508.43c5518.39 0 9991.899 4473.365 9991.899 9991.565 0 5518.21-4473.51 9991.574-9991.899 9991.574-5518.38 0-9991.89-4473.364-9991.89-9991.574 0-5518.2 4473.51-9991.564 9991.89-9991.564z" />
  <path class="bg"
    d="M15637.29 5405.877c269.405 349.669 509.196 796.252-14.697 1482.61-1360.977-297.24-2721.908-457.415-4082.885-585.346-22.52-350.269-155.484-553.324-355.428-667.002-185.33 361.2 64.148 390.833 99.51 649.215-387.072-.683-922.497-7.99-1309.57-8.682 255.705-250.41 484.462-534.955 638.7-913.878 651.127-125.902 1255.507 159.52 1774.796 532.298 583.778 419.036 937.305 107.036 487.072-436.122-2.86-3.44-1052.897-1032.805-383.18-621.823 267.247 164.022 525.545 339.548 777.596 523.1 708.983 516.2 506.798-1079.755-1529.82-1229.32 433.866-471.474-358.103-464.435-656.127-506.8-95.304-735.722-68.134-1176.475-64.508-1433.851 6.486-463.19-217.251-363.747-539.632-215.833-563.601 258.566-1609.698 814.51-3509.8 102.875l1.651-.702c2160.43-907.31 4658.997-939.784 6846.116-87.117-20.96 61.968-31.33 156.116-10.674 236.914 64.812 253.298 252.07 573.666 291.492 572.872 19.605-.406-20.444 23.535-51.296 8.553-370.152-179.817-881.128-280.505-1033.042-496.356-83.688-118.964 21.395-375.371-207.5-573.842-20.786 209.052-26.284 335.046 19.965 442.036 92.36 213.738-181.806 47.705-199.575 30.915-219.807-207.78-471.849-228.592-733.93-191.1 220.832 224.515 245.622 418.27 520.065 422.69 172.266 2.758 269.691 102.247 430.102 185.167 298.504 154.27 322.75 14.133 51.305 235.89-114.798 93.796-210.7 202.713-295.819 320.266 357.993 160.304 667.337 180.462 874.228-94.406 162.034-215.279 248.518-25.831 557.669 37.466 391.344 80.087-141.784 132.46-276.353 808.826 338.295 13.304 679.238 47.734 948.8-488.901 954.974 742.974 303.062 1139.518 934.769 1959.388zM12602.67 7438.36c518.938-61.849 1126.215 120.302 1821.81 546.45 4655.187 3378.074 1058.1 10918.046-2824.656 11579.254-9.475-169.04 26.404-309.104 72.22-447.506-211.78 101.786-380.18 256.564-515.884 451.326-54.092-154.917-86.567-314.861-68.816-486.66-110.85 74.33-179.297 191.117-230.998 324.658-4.06-257.403 36.986-532.105 32.927-789.508 416.162-507.907 867.456-723.407 1368.108-867.52-483.861 16.329-916.491 212.474-1383.377 600.964l53.316-1175.47c257.265 294.066 252.024-126.4 142.642-344.014 490.255 430.762 555.667-9.115 187.535-189.466 568.417 162.694 526.374-321.06 31.506-281.371 611.982-113.06 428.58-516.874-64.572-256.758 439.79-376.626 144.109-657.72-181.335-168.22 265.512-627.82-175.209-545.934-220.148-141.391-111.643-557.946-453.047-343.008-234.227 131.972-344.126-488.957-618.043-109.388-191.825 166.651-584.738-252.947-612.794 194.291-105.194 209.883-501.53 58.416-498.77 533.295 54.562 277.044-477.8 432.11-130.002 591.629 153.537 232.744-181.14 312.6-28.056 615.181 161.048 302.48-16.016 491.946-71.713 1021.246-87.73 1513.192-273.095 252.661-474.57 532.003-705.393 869.263-53.03-805.468-93.237-1653.891-125.122-2526.974-108.782 641.206-188.503 1286.14-229.808 1935.807-292.876-514.991-707.239-908.445-1105.355-1318.2 448.305 764.387 725.405 1555.64 632.805 2404.58-576.776-446.04-1001.121-1021.007-1358.117-1653.016 49.349 369.587 136.515 729.745 321.116 1065.575-556.59-406.434-766.072-1056.838-697.349-1902.65-260.124 863.884-181.51 1505.783 48.62 2048.46-492.607-353.856-699.645-875.149-702.127-1516.31-116.117 175.305-222.058 362.013-316.956 561.157-116.717 244.976-254.46 768.012-447.133 154.851-154.488-491.604 278.77-1240.75 871.45-1430.124 144.995-46.322-119.558-262.367-175.679-296.225l12.796-953.29c548.766-261.325 902.09-607.497 1175.002-1158.413 1555.422 1284.434 2177.368 75.16 990.954-254.368 295.044-38.13 775.538-202.576 734.381-583.15 2342.392 656.668 4716.806-1095.66 4716.806-3574.764 0-1270.365-638.137-2391.7-1611.34-3060.943zm-6268.62 9450.39c.036 184.467-67.018 164.789-89.464 321.605-12.29 85.826-108.857 114.25-155.457-3.053-63.741-160.341-142.31-108.438-144.708-315.036-1.651-142.277 6.108-405.16 23.323-788.66 113.728 15.924 235.574 18.092 365.503 6.477zm2322.841-3167.258a3698.628 3698.508 0 00359.662 181.107c-185.477 45.436-349.92 129.002-498.143 243.049 79.777-124.38 132.115-263.077 138.481-424.156zm1844.746-3541.92c176.584 0 319.742 143.153 319.742 319.731s-143.158 319.732-319.742 319.732c-176.583 0-319.742-143.154-319.742-319.732 0-176.578 143.159-319.731 319.742-319.731zm-4277.284 2707.501c2073.706-1507.26 2032.383 2258.178 559.634 1244.617-61.112-41.977 12.003-49.893 43.15-54.967 1126.75-183.635 649.65-1334.98-128.803-941.666-278.198 180.877-358.602 541.69-259.211 894.763 101.835 362.004-169.489 19.457-213.294-76.793-57.145-92.349-92.019 13.884-171.297 109.12-360.317 432.865 119.485-509.225-166.426-900.41-123.322-133.863-295.404-206.819-591.546-124.886-523.468 226.018-455.51 915.77 261.932 1006.116 40.428 5.083 123.415 12.953 45.706 61.12-1558.513 965.56-1473.856-2925.844 620.155-1217.014zm6372.145-5447.966l3.34-2.694 2.832 1.947zm-4222.75-785.145c21.967 41.94-71.473 197.853-115.979 198.323-53.187.526-257.495-253.953-1.845-250.604 49.719.655 95.94 10.323 117.824 52.281zm-7.98-3429.69c2145.723-1559.699 2107.721 2037.095 559.624 1244.598-9.982-5.093-45.308-34.762.452-48.573 1181.239-161.217 702.008-1346.236-86.105-948.05-308.754 200.721-373.88 623.088-220.01 1010.517 23.176 43.655-3.497 40.435-31.423 29.355-153.15-60.898-171.676-100.337-199.538-170.24-98.164-246.23-136.045 123.374-360.318 167.325-50.078 9.816 277.174-632.516 1.061-1010.277-123.322-133.854-295.404-206.81-591.546-124.887-534.89 230.954-452.272 946.076 309.806 1011.172 61.813 19.872 5.969 50.769-2.168 56.073C6179.008 5459.94 6298.197 1744.44 8365.768 3224.272zm15.435 3746.24c102.103 159.971 196.41 183.164 278.262-7.787 88.227 138.596 184.047 136.483 289.204-36.017 29.523 45.86 71.842 108.973 101.384 154.843-1926.876 819.371-2810.81 3098.897-1903.543 5008.698-1095.871-248.206-2890.558-163.865-3072.788 1253.095-290.625 19.77-501.584 119.268-283.816 647.461-636.855-558.093-1419.81 278.881-261.462 475.377-336.164 144.713-666.525 332.02-918.143 628.928-935.211-1903.712-1450.985-3686.66-1153.911-5849.713 365.253 12.27 671.894-129.426 983.12-333.146-106.632 274.452-1024.95 2085.88 117.852 1150.561 304.483-249.22 332.77-744.718 323.322-1223.932 376.694-150.092 740.535-338.543 1083.324-590.014 423.238-264.443 855.951-513.562 1333.428-689.872-13.94 483.855-30.27 826.632 388.466 1133.383 243.195-380.491 186.53-876.995-78.383-1231.857 599.776-244.506 794.71-125.155 1349.426-540.934 127.742 187.483 275.855 242.725 457.697 78.565 126.68 130.81 271.25 164.262 458.84-36.441 107.307 199.642 214.623 249.313 321.92 25.343 37.992-79.35 136.258-94.11 185.8-16.542zm-273.53-2055.178c-110.111-357.299 571.35-344.678 480.06-7.353-37.641 139.066-162.08 340.12-230.066 340.876-69.425.785-207.315-195.02-249.994-333.523zm-1928.665 544.605c102.14 317.767 287.885 559.902 540.72 750.955 466.6 352.528-109.096 302.064-435.333 372.797-657.75 142.619-1233.9 473.56-1804.041 778.77-395.616 211.774-234.643 178.847-409.86-156.91-162.46-311.225-450.778-593.307-792.469-562.272-53.049 354.697 136.24 636.29 414.059 804.417 330.453 199.965 432.15 66.212-86.52 371.524-672.68 395.945-1362.832 758.382-2085.792 1029.725 399.666-2189.235 971.45-3387.419 2957.343-4379.356 125.916-62.881 129.855-3.136 36.314 53.62-460.364 279.323-710.727 504.732-859.91 704.199-340.49 455.246-106.605 885.602 545.915 536.94l966.035-556.434c417.896-216.045 818.78-135.367 1013.539 252.025zm-1702.105 9314.203c14.393 527.547 773.01 1214.569 1238.384 1266.638l-2.888 965.91c-97.416 79.193-342.622 422.247 22.631 328.239-370.106 121.38-536.219 344.659-771.092 635.08-151.249-464.997-248.545-907.623-304.786-1147.922-106.938-456.88-143.869 60.058-159.442 241.332-344.91-85.577-1364.705-1034.513-1642.321-1568.481l.341.037c646.745 65.363 1127.304-372.124 1619.173-720.833zm13140.763-4542.547c1472.87-7410.307 2274.978-256.804 1864.121 249.1-125.195 154.142-355.705 195.352-678.214 24.54 680.373-316.133 931.566-1066.22-3.174-1148.605 229.522-333.063 105.655-205.427-70.237-109.158 15.361-57.254-38.924-713.969-107.694-20.379-67.201-43.646-118.58-102.561-185.745-146.18-179.111-116.095 88.55 230.262 108.746 256.343-740.59-244.838-968.01 425.67-504.426 896.876zm1380.269-116.722c-387.995 0-387.995-589.415 0-589.415 388.023 0 388.023 589.415 0 589.415zm-344.302-56.535c63.106 64.487 70.43 140.183 12.04 200.657-83.06 86.01-157.19 73.39-232.548-15.186-45.696-53.711-45.115-113.493.295-168.376 78.273-94.636 135.806-103.345 220.213-17.095zm-419.409-650.128c387.995 0 388.014 589.405 0 589.405-388.023 0-388.004-589.405 0-589.405zM6582.226 14665.418c-221.136 170.646-378.816 378.637-456.322 633.753-76.612-270.956-203.32-501.181-415.129-662.27 177.414-57.189 329.65-168.865 456.322-335.894 81.16 147.868 224.097 267.238 415.129 364.411zm155.263-984.28c100.654 0 100.654 155.978 0 155.978-100.646 0-100.646-155.977 0-155.977zm72.884-388.47c196.207 0 196.207 299.186 0 299.186-196.198 0-196.198-299.187 0-299.187zm-1172.492 353.626c100.636 0 100.655 155.977 0 155.977-100.654 0-100.645-155.977 0-155.977zm-45.087-375.768c196.198 0 196.198 299.195 0 299.195-196.188 0-196.198-299.195 0-299.195zM7777.755 3898.23c88.283 0 88.283 136.797 0 136.797-88.273 0-88.273-136.797 0-136.797zm1184.153 2.527c88.274 0 88.265 136.798 0 136.798-88.264 0-88.273-136.798 0-136.798zm-35.464-387.991c212.777 0 212.777 324.464 0 324.464-212.758 0-212.758-324.464 0-324.464zm-1120.725-10.167c212.786 0 212.777 324.474 0 324.474-212.768 0-212.777-324.474 0-324.474zm-2153.122-741.102c20.278 212.964 6.67 464.205 26.958 677.169-798.271-39.837-963.729 162.093-558.527 581.96-347.798-18.442-723.43-17.612-1074.54 21.348 484.488-484.298 1023.17-914.414 1606.109-1280.477z" />
</svg>