<svg width="210mm" height="210mm" viewBox="0 0 21000 21000" shape-rendering="geometricPrecision"
  text-rendering="geometricPrecision" image-rendering="optimizeQuality" fill-rule="evenodd" clip-rule="evenodd"
  xmlns="http://www.w3.org/2000/svg">
  <defs>
    <style>
      svg {
        background-color: #fff;
      }

      .bg {
        fill: #fff
      }

      .fg {
        fill: #201922;
      }
    </style>
  </defs>
  <path class="fg"
    d="M10500 507.92c5518.078 0 9993.06 4474.535 9993.06 9992.08s-4474.982 9992.08-9993.06 9992.08c-5518.078 0-9993.06-4474.535-9993.06-9992.08S4981.922 507.92 10500 507.92z" />
  <path class="bg"
    d="M15722.047 2733.617c1167.303 786.715 2147.643 1829.603 2860.3 3047.952H16980.56v268.04c174.654 0 231.594-27.154 231.594 173.324 0 180.64 109.14 1070.996-95.526 1070.996-575.616-1184.718-1440.469-2165.973-2530.177-2903.062h772.386v-267.568c-181.148 0-233.022 22.799-233.022-165.273V2886.81c0-270.847 357.743-158.6 596.23-153.193zm-5223.907 7436.791c180.21 0 326.304 146.08 326.304 326.272 0 180.192-146.094 326.272-326.304 326.272-180.21 0-326.304-146.08-326.304-326.272 0-180.192 146.095-326.272 326.304-326.272zm9339.587 916.327c-241.669-.27-447.256-1103.24 4.773-1103.24 29.26 321.827 15.809 779.7-4.773 1103.24zm-1024.48-4886.168c532.316 1027.43 879.52 2166.038 997.936 3371.695l-2018.125.01c-81.552-648.466-247.755-1270.683-487.197-1855.223h1547.146V7449.48c-162.622 0-233.022 32.317-233.022-165.273V6363.95c0-171.383 42.811-163.381 193.262-163.381zm176.588 3801.493c0-194.238 171.464-247.771 171.464 11.574v1075.01c0 236.473-171.464 178.544-171.464-15.368zm-586.108 1.631c0-224.915 183.579-234.777 183.579 6.689v1075.01c0 192.394-183.579 236.612-183.579-10.482zm-570.501-18.14c125.953 11.835 222.58 1115.303-5.964 1102.489 29.254-366.673 31.162-735.523 5.964-1102.49zm-5254.767-8612.464c870.93 197.713 1695.769 516.913 2455.698 938.815l-618.762-2.97v414.497c70.115 0 189.273-19.437 219.758 54.463 31.015 75.173 11.836 897.999 11.836 1042.912 0 138.902-27.434 151.08-155.345 151.537l-608.41 2.203c-417.188-216.596-859.313-395.19-1310.633-526.815l5.858-448.535c-197.21 0-233.022 14.87-233.022-184.31V1620.262c0-207.313 57.51-182.2 233.022-182.2zm-711.849 258.26V2786.97c0 401.094-354.423 233.455-354.423-11.06v-1162.2c0-217.696 354.423-331.655 354.423 17.636zm-833.25-6.843v1166.309c0 284.044-255.838 93.713-347.032-22.162l-552.955-702.57 514.818-509.09c144.292-153.43 385.17-227.485 385.17 67.513zm7107.799 4776.484v739.838c0 221.408-451.793 258.815-451.793-12.472v-764.708c0-266.45 451.793-254.712 451.793 37.342zM9946.539 2925.4l2.945 275.716c-91.487-.245-199.143-12.994-279.56-3.826l-6.127-271.89c-289.88 0-218.648-16.453 170.25-535.878 26.128 41.078 171.806 243.383 250.617 385.32 101.88 183.495 40.347 150.558-138.125 150.558zm140.662-1775.54l.702 276.899c289.904 0 191.646 46.983-99.931 370.335-286.267-344.282-357.425-370.335-73.41-370.335v-277.747c57.405-3.524 112.762.889 172.639.848zM8783.821 2925.4l12.187 423.705c-590.366 140.044-1153.542 351.705-1679.764 625.276-29.914 7.308-136.893 10.62-158.168-44.553-23.502-60.956-9.944-1041.697-9.944-1183.454 0-185.958 71.51-163.38 233.022-163.38v-268.041l-1206.02-10.237C6862.28 1814.028 7837.547 1463.17 8871.13 1281.96l1.004-.18v144.98c145.596 0 184.182 16.558 283.223 123.127l528.556 567.338-568.57 651.427c-103.633 118.73-173.731 156.749-331.524 156.749zM3855.51 13613.736c22.54 66.967 9.659 1047.496 9.659 1193.87 0 65.744 6.453 120.868-43.717 141.814-21.397-8.091-36.603-21.134-44.091-44.936-20.794-66.127-8.117-1037.855-8.117-1183.453 0-144.62 54.11-202.836 86.266-107.295zm-476.942 1192.247c0 68.444 6.07 112.49-39.295 139.628-19.44-8.491-32.973-20.914-39.997-43.402-20.842-66.74-8.06-1037.366-8.06-1183.454 0-71.666-6.24-119.563 38.75-150.591 15.066 9.943 32.597 25.098 38.944 43.949 22.498 66.829 9.658 1047.643 9.658 1193.87zm877.277-426.65c590.422 927.722 1358.713 1717.08 2286.787 2310.039l-990.34-1.778 1.272 419.512c79.357 0 195.603-18.573 195.603 74.822 0 69.676-293.6 825.852-338.81 948.277l-335.913-827.49c-77.473-190.854-8.232-200.797 166.235-200.797l-6.51-404.732h-919.76l16.624 409.822c78.72-1.64 154.448-4.356 197.25 51.143 49.1 63.664 279.717 686.142 325.245 802.05-1369.963-1037.529-2445.527-2443.68-3079.054-4070.398-1.73-4.446 14.202-9.805 12.48-14.258l761.929 1348.89 21.39.269 333.058-881.832.302 510.135c1.484 42.277-99.09 41.338-100.42 92.05l-6.926 263.374c-.18 7.121-5.107 15.514 5.735 15.417 547.905-5.074 1096.022 2.863 1643.952 2.863v-267.568c-60.048 0-160.085 16.689-182.013-53.035-20.198-64.235-8.116-438.306-8.116-526.775zm-559.938-1089.724l-1089.276-2.275v268.04c67.03 0 195.603-21.012 195.603 74.822 0 103.241-220.63 440.68-282.8 549.092l-310.87-426.372c-37.582-51.535-32.206-99.921-32.206-119.343 0-97.938 132.822-81.453 198.442-81.453v-268.041l-811.428 3.214c-178.048-570.316-302.974-1164.09-368.993-1775.442l1111.032 1.868 1.616-281.295c-295.477 0-170.87-73.102 144.756-437.107 349.447 431.805 399.24 437.107 116.328 437.107v267.567h645.494c85.59 625.716 251.107 1223.683 482.302 1789.618zm-737.423-5602.718h746.405c-245.675 591.13-416.397 1221.016-500.257 1877.622H2686.2v268.04c270.098 0 173.863 50.71-92.28 370.336l-189.801-247.21c-100.77-130.638-.212-123.125 122.014-123.125l.807-267.69-1340.685-5.213c119.517-1201.015 466.354-2335.291 996.85-3359.166l499.27 509.433-555.084 552.656c-119.64 118.274-164.547 156.75-331.525 156.75v267.567h879.977v-267.568c-318.668 0-187.135-70.858 156.765-437.106l278.484 317.764c127.29 148.83-49.525 119.342-152.507 119.342zm3510.82-4930.574v1047.52l-539.683-575.273 537.953-532.672c1.15 17.097 1.73 37.26 1.73 60.425zm-585.153-400.613v233.538c51.808 0 174.768-19.283 174.768 44.046 0 43.256-235.771 283.123-274.7 326.289-273.001-328.336-366.716-370.335-73.41-370.335l-.595-132.295a9367.088 9367.088 0 01173.937-101.243zm-127.88 2040.57h649.199C5335.993 5115.174 4464.41 6107.75 3892.3 7272.72c-303.47 23.37-564.31-404.854-760.467-613.946l514.818-509.09c97.794-103.983 164.865-127.042 308.325-130.232v-268.04h-868.613v268.04h70.57c258.989 0-84.291 274.73-170.501 370.335-266.084-320-377.223-370.335-73.41-370.335v-268.04h-481.347c673.1-1140.908 1581.48-2126.641 2658.39-2890.427l390.097 418.72-555.084 552.657c-119.64 118.273-164.547 156.749-331.525 156.749v407.163h879.977v-407.163c-318.45 0-186.491-71.552 156.764-437.107 376.987 430.165 435.51 437.107 125.978 437.107zm8694.583 12294.868c1083.533-691.624 1973.625-1659.167 2570.909-2803.403v897.24c0 179.507-74.618 151.537-231.595 151.537v267.568h943.443v-267.568c-160.493 0-233.022 31.33-233.022-165.273v-1019.967c0-80.214 31.782-65.1 59.135 4.535l569.58 1450.124h438.283c-780.96 1325.146-1879.446 2448.207-3190.747 3258.112l-.163.106 475.09-1176.48c54.599-135.223 75.32-176.17 221.65-176.17l13.02-411.242h-995.521l-14.398 412.783c145.074 0 239.548-13.36 169.555 176.17l-311.702 844.066-294.88-830.297c-68.108-191.742-22.654-200.796 166.235-200.796l1.28-408.435zm4809.42-5183.394h540.93c-67.21 603.815-194.796 1186.211-373.316 1760.246l-810.287 2.463v268.04c158.715 0 236.49-11.965 169.556 176.171l-365.159 988.808-342.423-964.182c-64.616-182.337-34.727-200.796 166.236-200.796v-268.04l-512.2-1.852h-424.603c226.284-556.947 387.87-1146.006 472.627-1760.858l1480.18-3.254zm-115.064 2206.92c4.21-13.132 86.577-48.688 145.181-34.103-139.47 379.74-303.087 748.525-488.983 1104.381zM7282.04 17103.811c.057.02.106.04.147.07 431.12 209.866 885.825 378.867 1359.04 501.937l7.072 525.73c132.692-2.765 168.91 37.456 213.607 166.227l516.8 1488.845c-1367.417-162.492-2644.408-620.268-3765.515-1307.674l495.297-1273.089v1007.7c0 179.506-74.618 151.537-231.595 151.537v267.567l1463.13 2.284-.8-276.36c-66.524 0-194.655 20.71-223.076-53.036-23.2-60.19-9.944-990.635-9.944-1126.642 0-53.443 118.938-102.922 175.837-75.1zm-3584.776-3814.202l.17 3.72c-.504-1.24-1.01-2.48-1.524-3.72zm-1922.83-3388.18c104.36 100.485 422.222 486.179 538.713 621.591l-529.632 570.633c-2.333-169.735-27.695-1099.153-9.08-1192.222zm1387.16 106.317c-21.413 317.626-21.226 645.603-.946 963.351l-432.46-499.22zm8569.698 7731.537c695.158-115.85 1358.257-332.61 1972.165-630.235 436.472-9.062 360.574 57.873 504.825 447.515l479.16 1294.199c-910.24 461.267-1905.24 778.232-2954.96 919.083v-238.423c-66.573 0-194.656 20.678-223.077-53.035-23.502-60.956-9.944-1041.697-9.944-1183.454 0-193.251 73.9-163.381 233.022-163.381zm-2163.053 44.691l371.61 37.35v310.228c63.459 0 195.604-19.748 195.604 74.822 0 71.168-340.963 954.11-391.206 1090.157l-342.423-964.183c-68.067-191.856-12.416-200.796 166.235-200.796zm1120.87 55.801c33.071-.84 66.077-1.9 99.042-3.181l.89 294.958c160.402 0 231.593-31.428 231.593 173.324v1075.009c0 179.507-74.617 151.537-231.594 151.537l.204 316.288c-282.449 8.915-570.151 4.919-850.87-11.525l529.085-1528.462c50.112-144.792 82.604-176.171 221.65-176.171zm-9399.53-7799.973c1.127 125.002 22.785 938.488-3.792 997.307-22.303 49.349-62.895 49.112-127.626 49.112-20.777-363.63-24.163-736.722-4.527-1100.988 69.315 1.672 112.004-1.29 135.946 54.569zm5337.796 8167.248c0 67.253 4.03 99.644-32.418 129.604-48.375 9.576-68.81-10.465-72.374-19.723-23.486-61.005-9.944-1041.705-9.944-1183.454 0-28.427 57.07-71.03 114.45-28.141 7.824 366.697.286 734.879.286 1101.714z" />
</svg>