<svg width="210mm" height="210mm" viewBox="0 0 21000 21000" shape-rendering="geometricPrecision"
  text-rendering="geometricPrecision" image-rendering="optimizeQuality" fill-rule="evenodd" clip-rule="evenodd"
  xmlns="http://www.w3.org/2000/svg">
  <defs>
    <style>
      svg {
        background-color: #fff;
      }

      .bg {
        fill: #fff
      }

      .fg {
        fill: #201922;
      }
    </style>
  </defs>
  <path class="fg"
    d="M10500 500c5522.85 0 10000 4477.15 10000 10000s-4477.15 10000-10000 10000S500 16022.85 500 10500 4977.15 500 10500 500z" />
  <path class="bg"
    d="M13895.47 5535.41c76.13 81.88 56.1 68.21 166.01 91.8-63.38 85.68-58.06 62.18-50.98 168.1-111.5-24.96-89.89-26.28-197.51 12.09-5.89-105.99 2.26-83.32-71.09-160.63 106.2-36.82 88-20.82 153.57-111.36zm-1160.26 1119.45l337.75-117.11 194.94-269.16 226.31 243.38 349.52 75.04-197.9 267.54 21.09 315.54-348.62-78.04-336.49 119.97-17.56-315.76zm-667.27 461.93l1.22 219.57c-295.56-85.42-181.02-85.42-476.58 0l1.22-219.57-148.49-177.02 239.05-66.84 146.51-178.27 146.52 178.27 239.05 66.84zm-3380.81 3161.14c200.3-97.09 445.59-187.6 629.63-236.75-1.94 150.1 99.15 252.51 216.34 331.32-158.21 32.21-310.57 73.81-485.3 155.02-148.74-51.72-300.06-114.38-360.67-249.59zm-91.92 45.44c54.97 128.89 205.84 189.92 338.46 260.26-349.39 180.33-574.65 379.16-842.86 622.3-197.48-66.17-397.35-156.1-426.68-385.69 216.47-113.77 659.45-360.19 931.08-496.87zm-1019.12 541.95c28.81 245.46 208.76 327.93 437.42 412.8-73.05 71.44-43.11 76.06 146.29 227.7-10.08 17.38-21.45 34.34-34.77 50.69-123.8 152-520.75 167.47-538.07 162.69-37.03-10.21-195.34-159.68-238.87-182.78-77.88-41.32-806.38 5.64-873.87-12.03-67.25-38.38-131.59-77.28-186.88-117.8-135.65-99.41-215.12-202.76-288.55-327.52l422.35 2.67c131.49 0 46.6 93.83 116.14 153.44 62.41 53.5 88.25-28.41 117.53-57.71 26.42-26.44 87.33 163.12 135.85 52.78 31.57-71.79 42.74-62.51 103.46-34.49 129.13 59.59 61.55-124.57 143.58-160.47 124.34-54.41 345.93-75.26 538.39-169.97zm-1229.5 1556.62c76.9 82.3 101.71 197.09 98.76 306.22-75.94 38.22-155.55 28.73-240.26 4.27 7.31-57.75 1.59-118.36-17.17-168.63 72.35-33.4 123.61-73.15 158.67-141.86zm8634.33-9904.17v1214.52h-148.65v-946.5c-68.06 65.38-209.18 146.81-297.3 179.05v-143.58c136.45-63.83 287.79-177.31 350.23-303.49zM8018.55 8515.25c223.11 157.45 380.43 694.02 382.36 961.27.39 54.26-25.55 666.88-47.86 290.67-25.15-424.17-52.53-738.5-300.89-1094.11-39.03-55.89-114.28-108.44-86.39-156.77 7.21-12.5 18.12-25.52 52.78-1.06zm-223.99 319.37c-19.29-59.43 359 34.55 411.74 272.02 16.52 74.26-63.29-40.88-194.96-93.95-29.79-12.01-70.34-5.05-43.28 26.04 23.56 27.07 278.59 134.05 299.48 300.88 0 0-191.92-167.74-219.95-139.71-36.49 36.49 68.86 102.63 92.91 124.94 75.86 70.36 213.78 303.43 81.64 142.17-8.16-9.96-143.34-149.61-130.56-104.88 27.62 96.7 179.37 105.13 204.11 467 5.17 75.6 33 250.35-18.65 97.48-6.24-18.48-107.61-258.07-119.3-185.11-18.18 113.46 33.04 162.03 83.76 253.03 68.1 122.21-16.74 308.47-109.45 401.18-90.71 90.71-6.02-164.99-19-427.57-19.39-392.33-77.47-602.32-228.4-960.73-23.36-55.48-76.32-130.36-90.09-172.79zm107.71 344.88c28.53 37.51 80.07 182.21-15.83 127.04-115.94-66.71-151.22-87.44-285.41-89.74-42.22-.72-31.02-24.74-38.71-61.24-6.87-32.63-34.61-77.14 15.83-81.28 90.34-7.46 265.5 28.15 324.12 105.22zm-292.09 123.87c75.97-25.8 318.63 82.3 348.39 160.12 9.06 23.7 58.45 193.04 31.68 208.33l-104.87-93.61c-189.8-119.66-244.55-21.31-268.87-141.11-5.39-26.54-42.97-121.29-6.33-133.73zm-257.61 372.68c227.56-246 212.21-148.81 242.47-37.3 6.69 24.63 11.62 47.85 1.41 72.14-36.29 86.29-90.4 78.97-115.07 231.21-15.22 93.95-25.35 55.41-108.04-66.51-64.09-94.49-101.68-112.07-20.77-199.54zm-221.5 36.4c116.59 307.71 376.83 610.85 694.68 722.83 100.26 35.32 356.99 76.95 152.03 82.35-361.94 9.54-711.46-187.31-846.7-541.95-51.77-135.77-69.42-446.45-.01-263.23zm-935.75 731.88c29.32-12.71 199.1 182.9 362.13 63.35 118.21-86.68 65.36-76.92 204.82 3.16 122.68 70.44 191.72 58.56 297.72-27.1 151.34-122.31-112.43 189.14-134.79 210.45-51.79 49.35-82.61-9.07-129.85-56.31-177-177-112.23-173.58-270.28-8.44-87.02 90.92-77.36 125.48-289.97-108.04-52.75-57.94-72.63 50.59-196.76 159.06-22.55 19.71-31.05 22.52-39.55 25.34-68.32-22.64-143.82-154.38-195.49-198.83-37.76-32.49-199.22 224.12-255.84 191.09-31.46-18.35-184.35-199.56-199.54-194.96-54.79 16.6-168.02 171.41-225.57 206.57-50.11 30.61-215.45-205.71-228.4-243.87-12.94-38.15 115.95 112.39 237.54 89.73 76.5-14.26 207.45-128.06 239.31-104.16 133.23 99.92 167.24 136.23 335.37 49.27 155.17-80.26 38.01-82.56 214.67 38 137.92 94.13 190.98-58.12 274.48-94.31zm-378.96 500.17c175.74 19.31 370.24 5.34 539.78-28.85 113.4-22.87 12.86 49.62-57.71 72.49-85.41 27.68-227.63 36.25-299.64 30.26-95.04 7.91-346.58-3.17-404.87-99.58-14.88-24.61 183.33 21.38 222.44 25.68zm-289.58 287.33c80.17-34.37 24.63-124.31 123.69-143.05 47.2-8.93 133.41-10.35 228.64-10.27 136.15 202.4 230.16 311.34 435.9 447.03-315.22 2.5-609.25 6.07-843.86 33.18-174.33-91.38-437.39-269.26-517.43-448.61 187.01-23.53 86.81-6.56 161.31 94.27 59.47 80.49 86.01-34.69 103.46-40.65 45.41-15.51 92.02 188.62 150.27 62.64 55.2-119.38 47.34 52.91 158.02 5.46zm5629.88-2898.2l146.51 178.28 239.05 66.83-148.5 177.02 1.23 219.58c-295.56-85.42-181.03-85.42-476.59 0l1.23-219.58-148.5-177.02 239.05-66.83zm-1733.21 1680.03c175.06-70.61 370.29-84.9 566.27-63.94-59.85 136.3-58.25 243.18-12.61 377.79-141.13-14.55-282.81-8.6-410.74 22.71-83.7-102.49-150.16-205.3-142.92-336.56zm1893.84 142.54c276.45 110.04 533.01 270.1 780.07 411.65-186.83 20.62-302.44 102.95-336.11 288.51-197.92-122.11-422.12-233.7-631.55-323.63-4.08-161.31 58.97-270.77 187.59-376.53zm1822-705.5c190.8 36.49 382.7 137.47 498.67 294.09-39.65 125.43-119.62 233.35-251.83 251.9-53.23-117.27-156.26-214.5-268.45-261.47 100.02-57.63 59.52-178.86 21.61-284.52zm-909.66 1192c55.77 8.33 453.94 322.91 888.26 144.7 122.41 125.63 220.58 108.18 396.87 90.41-53.21 49.36-201.76 125.81-162.3 130.74 286.76 35.84 903.44-283.66 1292.34-99.73-10.56 34.95-26.09 60.56-56.33 78.05-66-26.93-130.35-42.2-209.82-39.55-142.62 4.76-948.17 239.87-1187.36 288.56-316.32 64.39-404.61-5.94-226.52 195.92-140.95-10.08-275.74-18.43-406.29 46.83-217.39-210.83-472.6-412.53-723.77-574.32 4.07-19.15 9.01-37.46 15.32-54.45 61.81-166.46 378.11-207.38 379.6-207.16zm1447.65-838.3c89.53 153.37 105.17 349.31 89.12 520.59-123.38 79.85-222.6 159.14-350.8 72.69 24.94-114.85 26.12-222.47-2.57-326.53 159.64-23.04 213.61-118.07 264.25-266.75zm-1302.44-70.49c96.71-283.89 419.63-325.41 680.73-295.79 49.35 99.28 86.51 198.68-6.59 275.15-14.7-3.36-29.84-6.07-45.62-8.22-159.81-21.78-363.26-16.98-430.04 148.51-76.64 189.91 131.51 409.17-30.26 347.69-153.8-58.46-219.09-318.03-168.22-467.34zm5129.07-3749.46c52.85-577.35 957.42-383.29 740.43 129.23-95.64 225.91-442.7 399.32-562.22 593.74h593.75v141.9h-800.67c-11.35-359.29 646.95-556.73 646.95-881.76 0-278.43-463.8-293.87-466.21 32.09zm-2809.71 4951.31c95.7 59.93 150.58 144.76 145.46 259.3-15.54 347.37-425.92 351.63-439.9 204.82-13.28-139.4 190.88-179.01 220.3-73.91 15.9 56.8-31.51 24.46-59.82 20.42-84.35-12.05-76.88 100.05 53.49 55.6 164.17-55.98 179.12-278.43 42.19-378.61 23.46-23.97 32.57-52.62 38.28-87.62zm-1304.66-446.06c121.18 75.81 240.71 22.16 360.63-53.71-25.72 128.87-65.16 240.95-153.58 352.29-145.79 34.24-285.24 57.01-393.74-45.28 90.86-59.57 149.4-148.09 186.69-253.3zm-765.92 1054c122.02-62.26 248.79-57.88 399.76-42.03 166.96 210.96 254.22 465.85 320.28 734.57-108.63-35.79-208.87-48.01-328.26-15.04-60.11-242.46-193.03-472.56-391.78-677.5zm1963.49-1550.33l177.17 173.84-215.46 83.45-104.82 192.94c-217.72-217.37-117.38-162.13-417.5-229.84l106.98-191.76-44.72-226.7 241.65 56.74 214.32-85.5zM13031.58 12293c107.58-21.18 221.36-4.56 330.8 21.42l52.73 265.08c15.68 138.89 33.58 191.2 60.72 258.15 177.86 438.85 114.05-85.79 415.06 141.62 99.03 74.82 117.52 186.66 256.9 200.59 192.34 19.23 348.44-4.9 503.94 186.51 104.88 129.1 213.07 337.28 64.05 468.06-416.42 365.47 124.72-254.14-432.15-174.55-259.77 37.12-787.3 153.42-853.74-223.12-49.49-280.52 147.15-161.36-51.1-430.82-24.02-32.63-47.87-70.85-72.07-128.02-44.33-104.76-.64 289.8-216.79 472.27-271.46 229.16-600.76 274.58-940.31 200.59-171.73-37.42-311.53-150.93-404.7-307.33 51.89-104.49 157.21-139.38 273.59-132.38 164.74 343.43 791.74 344.71 1011.6-287.35 53.42-153.58 38.11-350.23 1.47-530.72zm-4794.63-691.39c187.67 153.76 390.62 274.49 624.29 348.4-20.56 102.49-69.56 145.92-180.1 191.92-30.64 12.75-66.93 24.67-106.18 36.18-94.88-.48-633.19-295.71-745.52-360.45 167.61-15.05 336.62-63.41 407.51-216.05zM10500 10100c220.9 0 400 179.1 400 400s-179.1 400-400 400-400-179.1-400-400 179.1-400 400-400zm-723.68 755.33c227.78 27.9 404.62 153.68 451.58 379.63-95.15-94.51-231.49-131.41-356.43-105.38-70.97-50.61-186.24-101.54-262.41-68.73-.6-75.63 105.45-151.36 167.26-205.52zm140.71 314.32c166.42-32.23 307.85 146.78 318.14 180.98 19.32 64.23-76.67 255.72-107.21 306.6-169.79 282.83 344.66-117.4 432.87 500.23 21.86 153.04 21.36 360.67-164.94 398.43-21.76-32.02-40.41-63.38-32.84-100.84 105.35-49.79 154.95-280.2-67.17-449.5-109.45-83.43-273.67-101.93-398.29-36.53 11.96-103.7 22.96-181.56 14.45-272.12-3.57-38.01-13.42-60.7 7.33-98.24 71.66-129.66 102.26-314.51-2.34-429.01zm-181.84 142.29c50.7-3.94 42.64 79.03 26.73 111.64-39.47 80.92-308.41 142.58-463.08-60.4-112.45-147.58-22.91-516.31 395.54-513.17-63.87 58.3-136.14 144.48-118.65 228.99-55.63 36.05-87.18 79.57-74.11 145.7 40.52 204.99 181.69 91.28 233.57 87.24zm-811.27 656.56c173.97 47.26 351.18 58.18 524.05 7.75-1.57 52.6-3.92 86.5-30.67 140.21-55.25 110.92-54.71 124.5-184.7 136.78-153.38 14.49-372.5-8.37-550.55-47.25 138.26-50.04 215.96-90.53 241.87-237.49zm940.3-286.69c11.84 115.9 2.26 211.82-21.35 318.98-121.4 74.62-247.87 133.21-388.23 190.16 25.88-80.46 38.73-148.26 45.27-231.65 150.88-54.56 270.34-155.76 364.31-277.49zm1186.02-662.27l214.33 85.51 241.65-56.74-44.72 226.69 106.98 191.77c-300.11 67.7-199.78 12.46-417.5 229.84l-104.82-192.94-215.46-83.46 177.18-173.83zm-910.07 1176.97c192.94-140.9 355.34 180.43 210.33 104.31-173.97-91.32-239.03 138.53-38.73 161.61-4.57 35.42 8.75 64.76 27.02 99.83-43.83 1.98-94.95 4.48-134.13-9.49-128.63-45.86-194.39-261.4-64.49-356.26zm437.75-3854.71l-148.5 177.01 1.23 219.59c-295.56-85.43-181.02-85.43-476.59 0l1.23-219.59-148.5-177.01 239.05-66.84 146.52-178.27 146.51 178.27zm-4868.35 4155.35c12.49-312.36 395.09-275.67 593.77-115.1-31.86 68.89-67.97 112.81-138.75 134.4-73.31-116.44-329.46-175.76-379.71-57.31-53.73 126.66 42.67 157.21 56.31 175.96 17.22 23.67-139.03 47.36-131.62-137.95zm4841.3-7628.97c76.13 81.87 56.11 68.21 166.01 91.8-63.37 85.67-58.05 62.18-50.98 168.1-111.49-24.96-89.89-26.28-197.51 12.08-5.89-105.99 2.26-83.32-71.09-160.62 106.21-36.82 88-20.81 153.57-111.36zm-2814.32 1612.3c93.51 149.63-113.73 210.3.35 208.68 229.62-3.26 202.43-190.7 221.36-55.96 21.24 151.14-187.15 161.09-103.12 180.19 89.16 20.27 173.29-38.02 140.06 29.91-59.55 121.75-146.65 47.35-55.24 159.06 151.04 184.58 41.05 292.58 212.2 228.4 42.5-15.94 122.68-129.68 97.83-30.27-41.51 166.09-219.28 82.13-139.71 153.09 49.56 44.19 147.15 59.19 210.8 63.34 91.88 5.99-94.75 111.43-158.01 110.51-106.63-1.56-43.85 4.12-8.1 193.2 6.13 32.42 5.39 196.46 64.06 206.22 111.82 18.6 161.51-121.56 134.43-15.13-21.57 84.77-127.88 111.28-91.15 121.41 72.69 20.04 175.69-100.15 141.82-9.86-54.59 145.51-203.12 107.31-164.34 156.96 38.05 48.7 149.38 3.38 140.06 21.47-58.11 112.77-135 55.9-186.16 73.9-48.38 17.02-94.61 130.26-174.89 154.84-63.3 19.38 6.58-39.64 29.2-68.62 76.53-98.06 83.91-400.16-11.26-487.4-41.42-37.97-17.69-42.15 2.11-94.31 78.29-206.23-146.4-351.11-148.84-365.28-8.13-47.11 49.45-177.93-30.61-341.01-64.53-131.43-170.28-133.12-294.91-118.6-71.26 8.3 3.68-95.67-96.78-177.37-140.46-114.23-330.12 19.66-337.13 15.14-46.68-30.1-22.34-121.11-188.28-108.74-184.11 13.72-149.6 92.05-192.85 113.66-2.39 1.19-123.71-60.38-213.07-34.16 8.66-142.63 484.35-253.19 657.38-224.11 77.93 13.1 178.49 89.15 212.52 66.64 106.22-70.25 26.28-243.29 102.58-144.45 78.93 102.26 22.69 118.97 31.32 176.3 3.02 20.03 155.95-47.63 127.74-188.62-16.93-84.61 50.59 2.11 68.63 30.97zm-435.64 413.7c37.82 48.67-49.7 201.74 44.86 140.06 48.15-31.41 134.65-94.21 167.52-13.37 47.49 116.8-96.61 257.35-82.7 190.03 7.31-35.4 76.9-167.81-25.69-138.83-154.92 43.77-103.83 31.34-152.91-95.54-44.18-114.23-142.04 37.43-203.23-12.14-48.67-39.43-67.1-189.7-167.16-49.98-30 41.88-32.67 86.58-92.73 47.87-180.43-116.28-98.69 106.28-150.28 106.28-2.81 0-5.62-.36-11.08-14.78-57-150.65 72.45-295.31 168.57-132.68 73.01 123.53-22.18-159.19 174.2-138.66 123.2 12.88 87.61 156.85 114.02 154.15 37.35-3.81 129.96-153.93 216.61-42.41zm-572.41 390.1c52.61-34.27 136.5 94.48 83.88 128.76-52.61 34.27-136.5-94.48-83.88-128.76zm-165.3 80.03c63.09-56.1 200.33 98.29 137.24 154.37-63.08 56.07-200.33-98.31-137.24-154.37zm-345.84 281.38c8.15 7.78 61.78 29.74 37.66 32.55-130.5 15.32-130.35-161.09 3.34-138.3 20.28 3.46-106.96 42.82-41 105.75zm-114.66 69.85c-94.04 89.13-113.78 89.17-207.82 0 13.98-40.73 44.21-86.33 15.55-129.34-19.64-29.46-36.22-21.89-17.95-58.41 27.72-55.4 40.19-179.66-29.21-212.91-93.52-44.81 35.63-3.24-.94-158.84 71.26-89.79 59.07-375.58-51.75-524.74-65.57-88.25-163.13-176.96-252.31-250.33 251.17-16.8 629.86-16.8 881.03 0-247.84 203.95-415.32 393.79-326.09 728.59 7.5 28.16 14.76 37.32 22.03 46.48-36.46 155.76 92.56 114.03-.93 158.84-107.09 51.33-14.94 231.13-21.12 242.47-22.26 40.8-62.85 53.76-24.28 130.91 4.47 8.94 9.85 15.83 13.79 27.28zm4443.77-2291.96c184.46 198.39 98.43 146.52 370.62 204.96l-127.37 172.19 13.57 203.09c-276.88-61.97-173.7-68.29-440.96 27l-11.3-203.24-147.42-155.38c263.03-91.19 183.97-29.22 342.86-248.62zM7762.24 7596.95c133.9-64.67 292.3 69.26 139.18 149.04-50.77 26.45-203.31 28.11-55.6-24.99 89.17-32.06 21.23-94.81-39.77-104.87-13.81-2.28-65.43-8.72-43.81-19.18zm-415.92 389.04c-51.59 407.37-652.17 407.36-703.79 0h106.8c49.07 268.77 441.11 268.78 490.19 0zm-562.41 449.92c48.22 18.84 2.11 136.83-46.11 118-48.23-18.83-2.1-136.83 46.11-118zm-348.42 264.47c19.88 214.63 137.82-13.51 189.87 95.03 30.83 64.29 40.6 126.23 129.32 94.84 93.29-33 76.14-149.65 102.59-45.57 38.98 153.39 157.2 127.94 207.98-11.44 57.92-158.99 60.16 77.53 164 28.15 89.14-42.39 51.14-225.35 112.08-149.92 62.65 77.53 141.6 88.74 144.64-33.43.51-20.53 3.51-49.55 23.4-19.88 82.25 122.51-3.5 255.61-154.49 129.32-74.79-62.56 9.35 280.66-219.42 90.1-53.45-44.52-6.74 77.44-97.3 135.49-64.98 41.65-174.2 8.88-191.1-66.87-35.52-159.22-38.05 99.47-205.34-22-39.78-28.89-39.93-142.32-53.49-127.21-37.77 42.06-92.38 107.29-158.9 75.13-82.52-39.89 7.54-223.42-50.85-179.65-112.8 84.57-269.37-96.46-96.95-196.55 84.63-49.13-61.18 110.12 35.89 159.42 59.27 30.1 109.11-51.75 118.07 45.04zm-1911.53 226.09c657.53 243.33 1271.6 326.61 1994.09 243.53 343.8-39.53 665.63-136.24 955.56-243.53 273.94-101.38-193.39 146.51-451.51 236.49-283.16 98.71-763.01 201.65-1023.31 201.65-260.31 0-740.14-102.94-1023.31-201.65-258.17-90-725.43-337.85-451.52-236.49zm3269.76-632.91c220.22 115.75-7.56 309.24-99.41 135.32-18.24-34.53 177.63 77.51 114.2-95.36zM5920.84 9643.47c137.93 94.13 190.97-58.11 274.48-94.31 29.32-12.71 199.1 182.9 362.13 63.35 118.21-86.68 65.36-76.92 204.82 3.16 122.67 70.44 191.73 58.57 297.72-27.09 151.32-122.28-112.39 189.1-134.79 210.44-51.8 49.35-82.61-9.05-129.85-56.3-176.97-177-112.25-173.59-270.28-8.45-87.01 90.93-77.38 125.46-289.97-108.04-52.76-57.94-72.63 50.6-196.76 159.07-22.55 19.7-31.05 22.51-39.55 25.33-68.33-22.64-143.83-154.39-195.49-198.83-37.76-32.49-199.21 224.11-255.84 191.09-31.47-18.35-184.35-199.56-199.54-194.96-54.78 16.6-168.02 171.41-225.57 206.58-50.1 30.62-215.46-205.73-228.4-243.88-12.94-38.13 115.94 112.38 237.54 89.73 76.51-14.25 207.44-128.06 239.31-104.16 133.24 99.93 167.24 136.23 335.37 49.27 155.17-80.26 38.02-82.56 214.67 38zm-8.77 378.82c136.52-70.6 36.91-70.61 173.44 0 268.31 138.76 297.71-92.74 375.49-46.1 155.83 93.45 231.87 159.52 393.09 29.21 151.39-122.36-112.45 189.15-134.78 210.44-51.78 49.35-82.62-9.06-129.86-56.3-176.97-177-112.23-173.6-270.27-8.45-87.26 91.19-77.66 125.08-289.98-108.04-13.38-14.69-21.09-22.73-30.41-20.48-35.76-8.62-191.04 228.87-245.44 197.14-31.46-18.35-184.34-199.57-199.54-194.96-54.77 16.6-168.03 171.4-225.57 206.57-50.09 30.62-215.45-205.7-228.4-243.87-12.93-38.12 115.97 112.38 237.55 89.74 76.47-14.24 207.44-128.06 239.3-104.17 133.24 99.94 167.24 136.22 335.38 49.27zm338.9-2652.85c43.95 9.44 88.45 64.46 42.59 47.15-55.93-21.11-124.84-1.96-65.28 60.89 6.02 6.35 26.72 27.96 12.32 32.9-73.68 25.11-139.24-173.09 10.37-140.94zm132.67-369.87c80.8-82.42 192.71 16.77 206.05 106.11 2.98 19.99-62.16-74.47-89.57-77.25-18.5-1.88-188.7 44.81-116.48-28.86zm-58.59 165.58c55.52 13.2 102.23 96.02 65.99 81.64-28.67-11.38-70.78-45.17-98.36-10.73-9.03 11.28 31.26 110.12 5.1 104.7-97.88-20.35-97.29-205.23 27.27-175.61zm1375.6 131.61c-27.15 37.93-123.54 88.89-92.73 48.4 19.76-25.97 94.95-88.99 51.38-127.58-33.56-29.73-154.65 47.27-139.36 11.62 71.1-165.85 302.87-103.11 180.71 67.56zm-32.55 105.58c141.89-146.1 251.7 65.92 98.89 136.9-69.47 32.27-88.03 19.55-13.02-32.38 67.21-46.54 39.28-97.76-54.2-89.56-19.02 1.67-55.94 10.03-31.67-14.96zm159.6 417.02c174.59-29.01 221.22 190.52 23.75 184.06-71.13-2.33-87.57-19.43-15.31-37.48 69.87-17.45 74.75-79.32 12.67-111.2-14.01-7.19-57.43-29.33-21.11-35.38zm.7 229.1c215.12-24.58 186.59 242.27 2.28 198.84-145.34-34.24 126.96-28.63 65.47-121.59-9.91-14.97-117.67-71.52-67.75-77.25zm-321.94-366.17c36.8 0 36.79 52.79 0 52.79-36.77 0-36.78-52.79 0-52.79zm-34.84-114.02c51.79 0 51.79 80.24 0 80.24-51.77 0-51.77-80.24 0-80.24zm-67.56-101.35c68.12 0 68.12 105.58 0 105.58-68.13 0-68.12-105.58 0-105.58zm-76.02-78.13c59.95 0 59.96 92.91 0 92.91-59.95 0-59.94-92.91 0-92.91zm-79.8-56.36c59.96 0 59.95 92.91 0 92.91-59.94 0-59.95-92.91 0-92.91zm-97.13-46.45c59.95 0 59.96 92.91 0 92.91-59.95 0-59.94-92.91 0-92.91zm-120.53-32.32c67.78 0 67.79 105.05 0 105.05-67.78 0-67.77-105.05 0-105.05zm-610.7 484.01c3.13-51.49 129.13-43.78 125.99 7.7-3.14 51.5-129.14 43.79-125.99-7.7zm221.76 165.87c43.73-417.21 661.87-417.21 705.57 0h-106.42c-41.95-278.67-450.79-278.66-492.73 0zm854.77 213.5c36.79 0 36.79 52.78 0 52.78-36.78 0-36.78-52.78 0-52.78zm-34.84 86.56c51.77 0 51.77 80.24 0 80.24s-51.77-80.24 0-80.24zm-67.57 76.02c68.14 0 68.14 105.58 0 105.58-68.11 0-68.11-105.58 0-105.58zm-97.89 98.5c59.95 0 59.94 92.91 0 92.91-59.95 0-59.96-92.91 0-92.91zm-105.91 71.53c59.94 0 59.95 92.91 0 92.91-59.96 0-59.95-92.91 0-92.91zm-134.12 39.78c59.96 0 59.95 92.91 0 92.91-59.94 0-59.95-92.91 0-92.91zm-143.26-1.92c67.78 0 67.79 105.05 0 105.05s-67.78-105.05 0-105.05zm94.37-725.59c226.02 15.89 215.38 358.51-12.76 358.51-138.74 0-223.34-157.05-153.69-272.23 54.95-.97 122.26-55.3 166.45-86.28zm-549.7 564.04c-25.7-44.72 83.72-107.66 109.43-62.94 25.71 44.73-83.7 107.64-109.43 62.94zm1287.12 1437.01c86.16 19.74 262.82 161.62 289.63 247.4 28.05 89.71-92.62-74.92-225.23-143.58-110.29-57.1-83.16-108.12-64.4-103.82zm58.07 175.96c71.44 12.14 200.67 112.48 231.91 178.07 51.36 107.82-25.16 281.72-47.86 147.8-28.65-169.01-180.01-201.79-198.83-301.23-2.47-13.03-3.88-27.81 14.78-24.64zm-69.68 10.91c18.03 88.84 15.51 239.64 65.45 319.54 12.32 19.71 25.69 28.86 18.66 27.45-138.01-27.66-196.93-250.55-131.63-361.07 22.1-37.4 39.15-27.07 47.52 14.08zm-1112.92 945.4c-3.07-12.28 325.43 101.89 474.38-120 57.87-86.21 36.8-27.68 221.01-92.91 226.83-80.33 308.65-189.05 286.45-119.65-99.2 310.33-385.16 321.86-415.96 336.08-53.27 24.6-60.6 101.36-313.56 86.22-56.34-3.37-240.64-43-252.32-89.74zm1101.74-5870.91l189.55 203.86 292.75 62.85-165.76 224.08 17.67 264.29-291.99-65.37-281.84 100.49-14.71-264.47-191.84-202.19 282.9-98.09zm3057.09-882.5c76.13 81.87 56.11 68.21 166.01 91.8-63.37 85.67-58.05 62.18-50.98 168.1-111.49-24.96-89.89-26.28-197.51 12.08-5.89-105.98 2.25-83.32-71.09-160.62 106.21-36.82 88-20.81 153.57-111.36zm101.35 2347.98c76.13 81.86 56.12 68.2 166.01 91.8-63.37 85.67-58.05 62.17-50.97 168.09-111.5-24.96-89.89-26.28-197.51 12.09-5.9-105.98 2.25-83.32-71.1-160.62 106.2-36.83 88-20.82 153.57-111.36zm402.72-3936.7V2695h-800.67c-11.35-359.28 646.95-556.73 646.95-881.76 0-278.44-463.8-293.87-466.21 32.09l-152.03-15.2c52.9-577.41 957.44-383.22 740.43 129.23-95.68 225.94-442.74 399.31-562.22 593.75zM6421.55 5069.89c76.13 81.87 56.11 68.21 166.01 91.8-63.38 85.67-58.05 62.18-50.98 168.1-111.49-24.96-89.88-26.28-197.5 12.08-5.9-105.98 2.25-83.32-71.1-160.62 106.21-36.82 88-20.81 153.57-111.36zm2649.79 4218.1c76.13 81.88 56.1 68.21 166.01 91.8-63.37 85.67-58.05 62.18-50.98 168.09-111.49-24.95-89.89-26.27-197.51 12.09-5.89-105.99 2.26-83.32-71.09-160.62 106.21-36.82 88-20.81 153.57-111.36zm9562.22 908.81c82.68-450.56 717.9-386.61 717.9-.57 0 111.14-63.99 196.98-166.67 244.37 379.52 86.67 262.71 676.8-181.87 676.8-206.41 0-364.57-136.53-384.57-341.22l148.65-20.27c76.12 374.42 486.48 266.03 486.48-14.36 0-196.31-171.31-263.4-342.06-218.75l16.61-130.06c332.82 37.84 362.12-388.51 73.2-388.51-130.11 0-199.55 89.75-219.03 219.59zm-8511.33-8716.33V2695h-148.65v-946.51c-68.06 65.39-209.18 146.81-297.3 179.06v-143.59c136.44-63.83 287.81-177.29 350.22-303.49zM6908.2 2586.18V3800.7h-148.64v-946.5c-68.08 65.38-209.17 146.8-297.3 179.05v-143.58c136.44-63.82 287.8-177.31 350.22-303.49zm921.93 7525.54c70.71 25.7 151.9 263.68 56.65 169.98-46.21-45.45-109.26-189.1-56.65-169.98zm80.57-1467.49c9.85-12.67 16.89-18.3 38.7-1.41 16 12.38 172.82 189.09 134.08 209.74l-131.61-61.23c-131.47-39.29-168.62 16.75-41.17-147.1zm-3007.59 2131.01c148.94 221.87 477.45 107.73 474.38 120-11.69 46.75-195.98 86.37-252.32 89.74-252.97 15.14-260.34-61.65-313.56-86.22-30.89-14.26-316.76-25.76-415.96-336.08-22.18-69.39 59.61 39.32 286.46 119.65 184.24 65.24 163.12 6.69 221 92.91zm-509.78 430.36c148.01-37.51 348.57-69 468.39-84.09 81.36 236.4 272.41 329.26 491.61 452.71l-361.42 71.74c-201.43-96.99-507.89-234.47-598.58-440.36zm592.38-4721.71c252.35-55.86 438.99-134.84 666.15 52.03 182.53 150.15 237.6 328.54 185.02 550.21-26.94-49.67-74.92-79.27-125.64-87.98-89.51-15.38-47.53-21.43-85.52-107.33-22.17-50.13-83.23-81.28-91.11-109.31-55.25-196.54-364.95-259.03-548.9-297.62zm-181.9 55.75c173.22-29.13 649 81.71 657.38 224.11-89.38-26.24-210.66 35.36-213.07 34.16-43.23-21.6-8.72-99.94-192.85-113.66-165.94-12.37-141.61 78.65-188.27 108.74-7.02 4.53-196.67-129.37-337.14-15.14-100.46 81.7-25.51 185.67-96.77 177.37-124.64-14.52-230.38-12.83-294.91 118.6-80.09 163.12-22.49 293.87-30.62 341.01-2.44 14.15-227.14 159.1-148.84 365.28 19.81 52.17 43.54 56.33 2.11 94.31-95.16 87.24-87.79 389.35-11.26 487.4 22.62 28.98 92.51 87.99 29.21 68.62-80.29-24.58-126.52-137.82-174.9-154.84-51.16-17.99-128.06 38.86-186.16-73.9-9.32-18.09 102.03 27.24 140.06-21.47 38.78-49.67-109.78-11.44-164.34-156.96-33.86-90.3 69.13 29.91 141.82 9.86 36.75-10.14-69.56-36.6-91.14-121.41-27.08-106.43 22.58 33.73 134.43 15.13 58.68-9.76 57.92-173.83 64.05-206.22 35.8-189.12 98.52-194.76-8.1-193.2-63.26.92-249.89-104.52-158.01-110.51 63.65-4.15 161.25-19.14 210.8-63.34 79.56-70.97-98.2 13-139.71-153.09-24.85-99.41 55.33 14.33 97.84 30.27 171.14 64.16 61.15-43.76 212.2-228.4 91.41-111.73 4.26-37.32-55.25-159.06-33.21-67.94 50.88-9.64 140.06-29.91 84.06-19.11-124.35-29.03-103.11-180.19 18.93-134.74-8.26 52.7 221.35 55.96 114.1 1.62-93.18-59.06.36-208.68 18.05-28.86 85.55-115.58 68.62-30.97-28.21 141.01 124.74 208.64 127.74 188.62 8.62-57.5-47.6-74.05 31.33-176.3 76.29-98.83-3.65 74.19 102.58 144.45 34.02 22.5 134.58-53.54 212.51-66.64zM6448.9 7565.12c38.77-65.91 200.07 28.97 161.31 94.9-38.76 65.92-200.07-28.97-161.31-94.9zm-343.88 252.58l-13.66 146.37c-41.93 42.36-79.64 85.24-134.81 46.18-65.26-46.2-53.51-68.63-63.99-192.55 85.86 35.84 126.6 35.82 212.46 0zm-17.03 258.28c8.66 398.38 281.95 201.07 126.56 353.43-111.44 109.27-167.59 178.07-215.76 318.12-48.22-140.06-104.29-208.81-215.76-318.12-155.38-152.37 117.89 44.96 126.55-353.43 87.03 72.66 91.38 72.65 178.41 0zm-348.78-536.04c133.71-22.79 133.83 153.64 3.35 138.3-24.13-2.81 29.5-24.77 37.65-32.55 65.95-62.97-61.29-102.29-41-105.75zm-35.19-123.35c-45.89 17.31-1.35-37.71 42.58-47.15 149.62-32.15 84.05 166.05 10.38 140.94-14.41-4.94 6.29-26.54 12.32-32.9 59.59-62.83-9.37-81.98-65.28-60.89zm641.69-880.67c227.21-186.87 413.77-107.9 666.15-52.03-184 38.6-493.59 101.07-548.9 297.62-10.99 39.06-91.17 59.41-107.65 160.34-13.82 84.64-64.5 37.73-136.55 83.05-21.82 13.72-42.23 32.02-58.06 61.23-52.67-221.58 2.56-400.14 185.01-550.21zm-673.19 629.23c124.56-29.62 125.15 155.24 27.28 175.61-26.19 5.42 14.14-93.41 5.1-104.7-27.57-34.45-69.71-.64-98.36 10.73-36.26 14.39 10.46-68.44 65.98-81.64zm-224.38-103.98c64.21-107.59 217.02 2.99 159.89 18.35-19.82 5.33-92.33-61.09-132.44-13.78-6.15 7.25-57.25 77.05-54.38 57.72 1.76-11.79 13.4-39.61 26.93-62.29zm-420.85-278.73c196.36-20.53 101.21 262.22 174.21 138.66 96.08-162.62 225.57-17.99 168.56 132.68-5.45 14.42-8.26 14.78-11.08 14.78-51.6 0 30.18-222.53-150.27-106.28-60.09 38.71-62.72-5.99-92.73-47.87-100.11-139.7-118.46 10.52-167.17 49.98-61.2 49.57-159.01-102.09-203.23 12.14-49.11 126.86 2.07 139.32-152.91 95.54-102.6-28.99-32.99 103.44-25.68 138.83 13.91 67.33-130.2-73.24-82.71-190.03 32.87-80.85 119.37-18.03 167.52 13.37 94.57 61.67 7.05-91.37 44.87-140.06 86.62-111.52 179.27 38.6 216.61 42.41 26.4 2.7-9.19-141.27 114.01-154.15zm688.75 1713.48c172.44 100.1 15.85 281.12-96.95 196.55-58.39-43.77 31.68 139.75-50.85 179.65-66.51 32.15-121.13-33.08-158.89-75.13-13.58-15.13-13.7 98.32-53.49 127.21-167.33 121.48-169.78-137.22-205.34 22-17.29 77.41-125.99 108.61-191.1 66.87-90.56-58.05-43.87-180-97.3-135.49-228.77 190.56-144.63-152.64-219.43-90.1-151.04 126.28-236.73-6.83-154.49-129.32 19.91-29.67 22.89-.66 23.4 19.88 3.04 122.17 82 110.96 144.64 33.43 60.94-75.42 22.95 107.51 112.09 149.92 103.82 49.39 106.09-187.15 163.99-28.15 50.76 139.39 169.01 164.81 207.99 11.44 26.45-104.08 9.28 12.56 102.58 45.57 88.72 31.39 98.5-30.55 129.33-94.84 52.05-108.54 169.98 119.6 189.86-95.03 8.96-96.78 58.8-14.94 118.07-45.04 97.07-49.3-48.72-208.54 35.89-159.42zm-446.97-1211.64c52.62 34.28-31.27 163.03-83.87 128.76-52.62-34.29 31.27-163.04 83.87-128.76zm279.6 280.84c38.78 65.93-122.54 160.82-161.31 94.9-38.77-65.92 122.54-160.81 161.31-94.9zm29.03 172.55c3.13 51.49-122.87 59.19-126 7.7-3.13-51.48 122.87-59.19 126-7.7zm-927.34 165.87c43.73-417.21 661.87-417.21 705.57 0h-106.42c-41.95-278.67-450.79-278.66-492.73 0zm340.02-141.62c44.21 30.97 111.5 85.31 166.46 86.28 69.62 115.19-14.92 272.23-153.69 272.23-228.13 0-238.78-342.62-12.77-358.51zm-339.13 224.07h106.8c49.07 268.77 441.11 268.78 490.19 0h106.8c-51.59 407.37-652.17 407.36-703.79 0zm888.83 339.97c-25.71 44.71-135.14-18.22-109.42-62.94 25.71-44.71 135.13 18.21 109.42 62.94zm-205.63 21.64c52.61-34.28 136.48 94.48 83.88 128.76-52.61 34.27-136.49-94.48-83.88-128.76zm-120.79 88.31c48.22-18.84 94.34 99.17 46.11 118-48.21 18.84-94.32-99.17-46.11-118zm880.35-5849.73V3800.7h-148.65v-946.5c-68.06 65.38-209.17 146.81-297.29 179.05v-143.58c136.44-63.82 287.8-177.31 350.22-303.49zm1639.32 6268.85c19.54 17.91 100.46 136.61 68.63 161.52-13.27 10.38-260.06 3.58-243.53-16.89l108.73-112.96c21.71-27.14 37.17-58.26 66.17-31.67zm-61.56 714.39c80-13.01 332.49 138.07 349.8 224.52 28.26 141.15-41.22-44.55-294.9-146.04-83.32-33.34-70.95-75.87-54.9-78.48zm4.22 235.78c-19.92 106.62-80.87 185.64-56.31 310.04 13.41 67.95-2.33 50.72-46.1 8.45-145.32-140.34 58.7-352.11 90.79-349.81 9.86.71 15.48 10.56 11.62 31.32zm-155.47-338.63c-278.46 210.66-249 266.09-274.92 191.18-31-89.57-28.01-79.23 153.43-232.62 89.13-75.35 133.8-112.63 140.77 18.66.35 6.68-1.94 9.67-19.28 22.78zm-55.12-212.99c-255.41 157.59-226.52 353.52-265 95.72-13.46-90.18 93.46-156.12 158.72-206.58 31.26-24.18 73.7-65.91 97.83-29.74 24.17 36.29 52.42 113.47 8.45 140.6zm-2598.89 458.87c69.36-183.21 51.79 127.4-.01 263.23-135.24 354.64-484.78 551.49-846.7 541.95-204.97-5.4 51.74-47.02 152.02-82.35 317.84-111.97 578.1-415.13 694.69-722.83zm-564.15 1517.65c94.73 260.2 312.21 333.29 563.11 451.03-150.63 45.23-556.31 183.86-650.66 249.89-146.04-31.57-283.72-106.03-368.63-225.66-41.01-57.77-70.63-178.24-84.73-271.67 173.07-81.17 356.19-150.97 540.91-203.59zm7803.62 1321.24c77.01 14.21 184.02 85.5 234.38 140.06 61.41 66.54 26.92 247.57-79.53 237.9-58.42-5.31-51.39-44.56-51.39-89.39 0-128.45-293.12-122.82-222.62 181.34-111.33-9.19-237.47 26.13-288.32 127.64-58.64-149.48-47.77-311.32 37.97-437.78 69.55-102.58 245.58-182.65 369.51-159.77zm-4519.3-6.51l157.14 168.99 242.68 52.11-137.4 185.75 14.64 219.1c-300.23-67.21-185.91-74.21-475.7 29.12l-12.19-219.25-159.03-167.61 234.52-81.32zM6878.8 7253.24c48.22-18.83 94.33 99.17 46.12 118.01-48.21 18.84-94.33-99.15-46.12-118.01zm-299.55 1223.12c-52.62-34.27 31.27-163.03 83.87-128.76 52.62 34.29-31.27 163.04-83.87 128.76zm1100.45 11.47c87.43 67.85 96.82 230.29-56.83 194.43-50.95-11.89-136.1-93.01-69.68-68.09 190.73 71.55 95.02-150.78 126.51-126.34zM4797.17 9349.3c-38.48 257.8-9.58 61.87-265-95.72-43.95-27.12-15.72-104.33 8.46-140.6 24.11-36.18 66.56 5.57 97.82 29.74 65.27 50.47 172.18 116.4 158.72 206.58zm287.59-861.79c67.77 0 67.78 105.05 0 105.05-67.79 0-67.78-105.05 0-105.05zm-989.45 691.99c58.63-77.07 233.76-112.68 324.11-105.22 50.44 4.14 22.71 48.65 15.84 81.28-7.69 36.51 3.51 60.52-38.72 61.24-134.19 2.3-169.46 23.04-285.4 89.74-95.91 55.18-44.36-89.53-15.83-127.04zm508.26-899.88c68.12 0 68.12 105.58 0 105.58-68.13 0-68.12-105.58 0-105.58zm-285.7 208.21c31.54-24.45-64.25 197.9 126.52 126.34 66.41-24.91-18.74 56.2-69.69 68.09-153.64 35.86-144.25-126.58-56.83-194.43zm489.51-38.18c59.95 0 59.96 92.91 0 92.91s-59.95-92.91 0-92.91zm-604.37 384.97c-13.77 42.43-66.73 117.3-90.09 172.79-150.93 358.52-208.98 568.29-228.4 960.73-12.99 262.51 71.73 518.3-19 427.57-92.71-92.71-177.54-278.98-109.44-401.18 50.73-91.03 101.91-139.55 83.75-253.03-11.67-72.96-113.06 166.63-119.3 185.11-51.74 153.22-23.75-22.93-18.65-97.48 24.74-361.86 176.49-370.29 204.11-467 12.77-44.72-122.39 94.91-130.56 104.88-132.14 161.25 5.78-71.78 81.65-142.17 24.05-22.31 129.39-88.45 92.9-124.94-28.04-28.04-219.94 139.71-219.94 139.71 20.89-166.86 275.85-273.74 299.48-300.88 27.07-31.09-13.51-38.04-43.29-26.04-131.71 53.09-211.44 168.2-194.96 93.95 52.74-237.45 431.03-331.46 411.74-272.02zm61.23 20.41c29.01-26.59 44.45 4.53 66.17 31.67l108.73 112.96c16.53 20.47-230.24 27.28-243.52 16.89-31.83-24.9 49.08-143.62 68.62-161.52zm702.75-1601.37c67.78 0 67.79 105.05 0 105.05s-67.78-105.05 0-105.05zm-120.53 32.32c59.95 0 59.96 92.91 0 92.91s-59.95-92.91 0-92.91zm-97.13 46.45c59.96 0 59.95 92.91 0 92.91-59.94 0-59.95-92.91 0-92.91zm-79.8 56.36c59.95 0 59.96 92.91 0 92.91-59.95 0-59.94-92.91 0-92.91zm-76.01 78.13c68.12 0 68.12 105.58 0 105.58-68.13 0-68.12-105.58 0-105.58zm347.97 1022.51c59.96 0 59.95 92.91 0 92.91-59.94 0-59.95-92.91 0-92.91zm-342.94 935.7c181.3 153.24 184.45 143.07 153.43 232.62-25.94 74.9 3.56 19.49-274.93-191.18-17.33-13.11-19.62-16.1-19.28-22.78 6.88-131.35 51.75-93.91 140.78-18.66zm-196.02 213.62c30.25-111.41 14.87-208.78 242.47 37.3 80.91 87.48 43.34 105.03-20.76 199.54-82.78 122.05-92.81 160.38-108.04 66.51-24.7-152.26-78.8-144.93-115.08-231.21-10.2-24.29-5.28-47.51 1.41-72.14zm-167.19-2041.8c21.61 10.47-30 16.9-43.82 19.18-60.99 10.06-128.93 72.81-39.76 104.87 147.68 53.09-4.82 51.45-55.6 24.99-153.14-79.79 5.28-213.71 139.18-149.04zm154.31-251.79c30.8 40.48-65.58-10.46-92.73-48.4-122.15-170.7 109.62-233.39 180.71-67.56 15.29 35.66-105.79-41.36-139.35-11.62-43.56 38.61 31.6 101.6 51.37 127.58zm-159.06 194.08c-152.77-70.97-43.09-282.97 98.89-136.9 24.25 24.99-12.65 16.63-31.68 14.96-93.47-8.2-121.4 43.03-54.2 89.56 75 51.93 56.48 64.66-13.01 32.38zm270.57 577.8c36.79 0 36.79 52.78 0 52.78-36.78 0-36.78-52.78 0-52.78zm-297.31 176.52l-14.78 39.96c-63.43 172.88 132.44 60.82 114.2 95.36-91.85 173.91-319.64-19.57-99.42-135.32zm1230.52-929.25c63.1 56.06-74.15 210.45-137.24 154.37-63.08-56.07 74.17-210.48 137.24-154.37zm-315.6-111.07c48.21 18.86 2.1 136.85-46.11 118.01-48.23-18.85-2.11-136.84 46.11-118.01zm-417.3 1124.88c59.95 0 59.94 92.91 0 92.91-59.95 0-59.96-92.91 0-92.91zm-375.67 1191.3c16.87 2.74 27.3 45.6-54.89 78.48-253.75 101.52-323.13 287.18-294.91 146.04 17.28-86.44 269.83-237.53 349.8-224.52zm-362.46 440.95c26.82-85.78 203.46-227.66 289.62-247.4 18.77-4.3 45.9 46.72-64.4 103.82-132.63 68.65-253.27 233.3-225.22 143.58zm369.86-236.49c32.1-2.3 236.11 209.48 90.8 349.81-43.78 42.28-59.51 59.5-46.11-8.45 24.55-124.48-36.43-203.38-56.3-310.04-3.87-20.76 1.76-30.61 11.61-31.32zm-21.11 161.88c65.29 110.5 6.39 333.43-131.62 361.07-7.04 1.41 6.33-7.74 18.65-27.45 49.95-79.91 47.42-230.69 65.45-319.54 8.37-41.15 25.42-51.48 47.52-14.08zm-102.41 27.81c-18.76 99.34-170.2 132.26-198.84 301.23-22.7 133.9-99.2-39.94-47.85-147.8 31.23-65.59 160.47-165.93 231.9-178.07 18.66-3.17 17.25 11.61 14.79 24.64zm-42.24 148.15c52.62-19.11-10.45 124.53-56.65 169.98-95.26 93.71-14.03-144.29 56.65-169.98zm-1123.67 1766.75c273.58-216.26 390.28-283.41 637.68-406.16 29.53 235.34 85.86 350.82 284.39 464.61 145.59 83.45 220.42 58.03 300.64 100.82-73.76 100.99-177.57 186.19-297.13 253.55-197.24 111.12-190.64 44.03-376.19 74.95-86.13 14.35-175.39 74.84-255.81 156.51-234.01-209.58-286.35-320.69-293.58-644.28zm1482.18-4310.2c51.77 0 51.77 80.24 0 80.24s-51.77-80.24 0-80.24zm-379.82 435.15c-197.48 6.46-150.86-213.05 23.75-184.06 36.32 6.05-7.11 28.19-21.12 35.38-62.1 31.88-57.17 93.75 12.68 111.2 72.25 18.05 55.81 35.16-15.31 37.48zm20.76 243.88c-184.3 43.42-212.86-223.41 2.29-198.84 49.9 5.73-57.84 62.28-67.75 77.25-61.5 92.97 210.81 87.34 65.46 121.59zm324.22-565.01c36.78 0 36.77 52.79 0 52.79-36.78 0-36.79-52.79 0-52.79zm-442.94 960.53c21.82-16.89 28.85-11.26 38.71 1.41 127.45 163.86 90.26 107.81-41.18 147.1l-131.61 61.23c-38.73-20.65 118.09-197.36 134.08-209.74zm-9.17 820.67c29.75-77.82 272.42-185.92 348.39-160.12 36.64 12.44-.94 107.18-6.33 133.73-24.32 119.8-79.06 21.44-268.86 141.11l-104.88 93.61c-26.77-15.3 22.62-184.62 31.68-208.33zm497-1259.89c51.77 0 51.77 80.24 0 80.24s-51.77-80.24 0-80.24zm-590.59 469.48c-248.34 355.59-275.74 669.97-300.89 1094.11-19.45 328.02-147.73-887.99 321.7-1242.59 20.19-15.22 48.03-38.71 65.58-8.29 27.91 48.33-47.35 100.88-86.39 156.77zm-378.32-3099.13c377.58 65.83 360.53 707.41 278.13 955.83-47.17 142.19-134.14 243.01-278.13 267.33v-129.63c252.34-102.96 178.37-767.36 100.21-877.84-28.82-40.95-62.25-69.06-100.21-84.4zm1032.59 6606.2c-41.44 88.91-92.43 149.58-197.83 197.36-44.23 20.05-97.85 37.21-155.84 53.01-81.81-23.24-164.22-40.09-242.18-51.88 137.69-70.4 256.62-170.53 339.95-304.51zM3261.1 12604.9l-283.97 375.45c-212.28-259.76-308.72-401.84-358.16-745.54 120.38-105.45 233.78-201.56 332.72-282.31 11.12 309.09 82.8 466.03 309.41 652.4zm294.55-7032.75c-3.81-.54 11.44-2.07 11.44 1.78-3.78-.64-7.59-1.24-11.44-1.78zm1118.38 6647.91c127.57 74.48 260.62 156 362.65 253.26-77.14 73.28-151.07 119.25-262.15 137.86-182.7 30.61-91.41-22.38-404.49-139.93 135.02-47.97 249.81-128.72 303.99-251.19zm637.53 557.02c-55.63 116.41-187.39 135.53-317.86 130.73-75.88-86.69-154.54-161.07-240.14-225.93 143.29-13.01 233.18-51.95 342.67-147.98 73.42 77.76 152.12 152.93 215.33 243.18zm-1896.5-6113.17v131.65c-368.36-71.01-351.95-710.08-269.44-955.25 46.72-138.82 130.34-238.14 269.44-264.96v131.29c-221.81 94.92-186.77 742.53-91.79 876.35 26.93 38.02 57.54 64.98 91.79 80.92zm-495.98 6404.5c-91.32 140.47-183.78 290.73-267.65 421.84l-322.58 499.71c-268.21-336.92-372.07-672.4-398.14-1116.72l603.87-563.98c50.02 396.84 144.14 479.06 384.5 759.15zm3271.77-269.31c78.51 26.65 166.28 24.16 247.49-2.7-21.35 114.44-103.06 230.87-190.9 313.72-69.39-19.49-119.21-61.56-159.32-126.91 49.34-45.69 82.54-116.11 102.73-184.11zm-566.5 301.84c144.43 11.64 274.24-10.44 405.75-78.1 31.97 70.65 78.84 112.69 152.74 139.44-74.97 51.32-330.68 145.48-391.36 130.56-37.09-9.12-128.82-97.41-144.55-129.15-8.77-17.7-16.09-39.18-22.58-62.75zm-72.05-12.93c25.81 96.76 68.2 156.25 145.99 216.74-83.68 14.48-129.17 55.67-107.14 152.34-72.08 23.21-141.75 25.88-221.68 22.07-83.57-177.08-193.35-347.73-321.36-506.52 128.31-10.36 229.81-35.26 297.5-144.89 56.16 86.52 117.74 229.31 206.69 260.26zm-2818.46-3034.69c76.13 81.86 56.12 68.2 166.01 91.8-63.37 85.67-58.05 62.17-50.97 168.09-111.5-24.95-89.9-26.27-197.52 12.09-5.89-105.98 2.26-83.32-71.08-160.62 106.2-36.82 87.99-20.81 153.56-111.36zm996.62 2871.62c76.13 81.87 56.11 68.21 166.01 91.8-63.37 85.68-58.05 62.18-50.97 168.1-111.49-24.96-89.89-26.28-197.51 12.08-5.9-105.98 2.25-83.32-71.1-160.62 106.21-36.82 88-20.81 153.57-111.36zm-1904.1 51.55c23.56 513.06 143.74 789.37 392.51 1212.17-23.65 45.88-46 91.09-68.57 137.04-255.93 521.19-262.45 665.87-403.99 400.48-86.06-161.36-447.52-966.32-468.05-1113.29-12.5-89.49 403.11-491.72 548.1-636.4zm893.31-7408.42V6782.6h-148.65v-946.51c-68.08 65.37-209.17 146.81-297.3 179.05v-143.58c136.43-63.82 287.82-177.31 350.22-303.49zm-387.85 4559.18c90.08 209.07 132.77 990.15-381.76 990.15-189.89 0-315.51-111.83-339.52-300.68l141.89-11.82c56.6 313.38 496.77 270.41 481.41-277.59-5.21-185.7 12.84-521.39-248.02-521.39-311.02 0-338.66 548.98-4.22 548.98 68.68 0 125-23.93 169.2-72.07l5.94 129.99c-252.8 197.89-568.16-8.92-568.16-321.99 0-456.16 572.21-560.54 743.24-163.58zm3379.92 3848.21c1.88 48.26 4.67 107.62 11.21 186.95 10.9 132.15 32.59 389.61 158.36 454.67 124.58 64.44 54.9-107.98 315.31-146.4 134.71-19.88 343.78 20.22 427.93 140.77 51.64 73.98 58.29 274.59 125.29 300.54 125.85 48.74 62.85-96.35 64.75-102.06 7.1-21.32 199.98 174.28-14.08 287.17-157.17 82.89-199.03-67.86-275.2-114.73-225.39-138.68-387.75 242.4-542.65 39.42-102.55-134.37-57.03-210.16-79.53-318.84-3.71-17.93-110.3-80.83-164-178.77-32.28-58.86-44.37 9.55-55.63 51.38-56.83-35.38-168.07-108.69-178.54-176.38 11.6-83.94 14.37-170.43 11.06-265.62-1.98-56.45-6.09-115.96-13.05-176.24 69.91 19.37 137.35 25.43 208.77 18.14zm738.32-374.84c76.13 81.86 56.12 68.2 166.01 91.8-63.37 85.67-58.05 62.18-50.98 168.09-111.5-24.96-89.89-26.28-197.51 12.09-5.89-105.99 2.26-83.32-71.09-160.62 106.2-36.83 88-20.82 153.57-111.36zm2499.27 187.49c76.13 81.87 56.11 68.2 166.01 91.8-63.37 85.67-58.05 62.18-50.98 168.09-111.5-24.96-89.89-26.28-197.51 12.09-5.89-105.99 2.26-83.32-71.09-160.62 106.19-36.83 88-20.83 153.57-111.36zm-3460.79 702.56c49.83 64.23 108.21 110.41 178.66 147.87-52.59 205.31-130.23 392.67-265.97 566.53-92.11-29.56-133.58-69.41-167.07-156.9 114.01-160.05 212.3-367.96 254.38-557.5zm7383.72-531.15c270.82 96.58 165.9 90.15 446.48 27.34l-13.74 205.64 128.97 174.35c-276.27 59.32-188.53 6.7-375.27 207.52-160.84-222.11-80.18-159.18-347.16-251.74l149.27-157.32zm5257.77 193.69v783.78h163.85v136.83h-163.85v288.85h-148.64v-969.87l-379.23 544.19h278.33v136.83h-424.44v-136.83l552.36-783.78zm-12942.58 955.98c32.95 87.13 79.45 121.73 164.82 156.09-202.75 239.9-342.37 306.93-649.17 292.83-416.88-19.16-510.38-539.75-254.79-634.86 76.88-28.61 21.34 102.99 16.19 150.62-26.16 241.99 95.6 335.11 337.13 289.97 158.22-29.57 276.86-122.78 385.82-254.65zm5500.2 597.71c106.21-36.82 88-20.81 153.57-111.36 76.13 81.87 56.11 68.21 166.01 91.8-63.37 85.67-58.05 62.18-50.98 168.1-111.49-24.96-89.89-26.28-197.51 12.08-5.89-105.99 2.26-83.32-71.09-160.62zm-2768.73 142.02c76.13 81.87 56.11 68.21 166.01 91.8-63.38 85.67-58.05 62.18-50.97 168.1-111.5-24.96-89.89-26.28-197.52 12.08-5.89-105.98 2.26-83.32-71.08-160.62 106.2-36.82 87.99-20.81 153.56-111.36zm-2303.95-214.93c279.51 41.49 178.89 59.95 424.25-62.51 72.6 264.44 19.17 177.19 236.64 357.62l-195.02 94.88-82.98 188.66c-219.65-185.53-123.68-142.67-408.44-182.4l85.08-187.71zm8886.22 1633.72h599.66v141.89h-481.14l-64.47 326.29c400.59-282.1 794.64 238.04 507.6 599.38-212.41 267.39-671.22 161.12-705.24-190.88l155.41-11.83c53.22 349.28 488.17 272.82 488.17-67.28 0-284.88-339.32-373.56-476.34-155.68l-140.21-20.27zm-3965.71 1129.36c189.19 0 319.56 112.84 343.75 300.68l-146.97 11.82c-69.78-307.6-484.43-275.88-484.79 277.31-.12 188.69 13.62 523.36 270.55 523.36 302.96 0 308.29-552.36-5.91-552.36-58.64 0-109.74 18.55-152.91 55.44l-7.95-131.66c332.97-213.68 682.98 182.49 499.26 548.34-121.38 241.71-459.57 267.04-632.88 65.32-176.56-205.5-227.12-1098.25 317.85-1098.25zm-4684.46-1119.22h782.09v114.86c-12.26 30.99-417.61 436.44-461.15 1079.39h-152.03c6.22-350.03 190.89-788.05 422.3-1052.36h-591.21zM3285.4 14811.54c36.11-16.8 87.66-42.37 114.8-68.79 261.44 185.61 110.01 626.68-271.51 626.68-441.02 0-550.02-572.93-167.23-675.96 79.23-21.33 260.64-62.53 309.69-111.2 181.66-180.26-104.08-447.72-283.79-271.4-75.39 73.96-71.4 202.28 1.31 272.94l-136.92 44.58c-177.77-170.15-30.13-493.76 274.97-493.76 341.67 0 504.13 415.88 173.14 558.84-48.46 20.93-119.03 57.55-174.83 64.47-70.39 0-128.1 23.09-173.71 69.26-154.08 155.99-39.93 420.6 178.5 420.6 234.14 0 333.82-291.81 155.58-436.26z" />
</svg>