<svg xml:space="preserve" width="210mm" height="210mm" version="1.1" viewBox="0 0 21000 21000"
  shape-rendering="geometricPrecision" text-rendering="geometricPrecision" image-rendering="optimizeQuality"
  fill-rule="evenodd" clip-rule="evenodd" xmlns="http://www.w3.org/2000/svg">
  <defs>
    <style>
      svg {
        background-color: #fff;
      }

      .bg {
        fill: #fff
      }

      .fg {
        fill: #201922;
      }
    </style>
  </defs>
  <g transform="translate(.038 -4349.88)">
    <g transform="matrix(.92215 0 0 .9241 -474.863 2498.217)">
      <path class="fg"
        d="M18413.36 7526.2c789.38-3.69 938.04-101.19 1316.77 378.34 254.84 322.65 504.5 593.85 766.32 941.12 1445.63 1917.37 2153.62 3988.65 2002.25 6499.52-48.88 810.78-321.11 2150.54-597.18 2816.83-618.55 1492.93-1086.15 2032.81-2027.99 3095.3-274.7 309.89-518.22 527.49-859.28 808.46-146.25 120.47-387.91 243.02-496.3 357.25-78.24 82.46-136.1 203.06-388.47 465.42-266.02 276.55-569.14 537.92-932.92 774.73-2219.88 1445.03-7530.24 1109.66-9315.24-817.89-545.02-588.55-82.04-425.83-695.44-1013.43-1830.17-1753.17-1119.5-1578.54-1323.21-2092.05-56.55-142.58-235.85-364.53-327.22-529.41-784.51-1415.71-1125.74-3065.41-1241.31-4708.2-302.81-97.41-601.85-108.97-696.39-429.54-90.06-305.36 103.98-621.25 141.62-920.85-214.73 117.67-275.2 476.23-357.22 680.22-328.36 816.62-759.71 1631.08-550.14 2421.11 255.57 963.41 1516.97 1226.45 2045.99 1987.46 305.02 438.76 246.05 1181.85 36.84 1685.27-163.31 392.94-609.38 800.44-994.57 999.95-476.82 246.97-1297.87 75.32-1308.99-476.78-17.62-874.34 713.02-565.83 1198.02-815.12-7.44-184-97.1-195.71-263.01-304.09l-975.75-651.38c-1941.7-1491.39 233.98-3154.52 13.76-4858.55-56.52-437.32-504.45-1033.35-687.21-1460.92-226.15-529.12-375.19-1053.35-480.3-1668.13-389.27-2276.93 34.22-4054.82 1837.4-5402.28 928.62-693.92 779.57-1206.27 1520.6-1693.09 414.58-272.37 1025.23-469.13 1501.28-654.02 808.62-314.06 408.93-288.69 1556.54-601.18 601.48-163.77 1297.24-21.49 1829.18 175.91 224.33 83.24 568.96 267.03 790.46 307.01 418.19 75.44 1410.23-502.25 2556-646.68 13.55 653.94-331.42 926.39-372.36 1225.2 555.01-27.91 643.54 88.47 1040.9 187.84-75.22 204.85-546.43 561.22-712.79 711.19-623.25 561.88 284.33 676.53-795.73 1889.79-527.35 592.39-212.13 367.85-367.95 975.8-248.42 99.77-353.66-52.09-652.55 74.86-233.89 99.34-372.22 121.33-650.83 50.04-383.64-98.15-600.43-339.23-1008.31-447.69-45.67 194.38-243.44 525.66-219.54 689.96 838.39 7.85 1681.6-1.57 2517.05 10.99 433.17 6.51 256.17-124.74 488.93-150.21 258.57-28.29 199.68 129.58 426.85-100.59 120.58-122.18 226.4-232.71 470.86-111.45 62.87 31.2 275.16 237.23 319.1 290.98 437.91-100.3 328.07-55.29 729.74 34.61 639.49 143.15 3346.51 22.33 4191.74 18.37z" />
      <path class="bg"
        d="M19571.65 8026.53c93.59 55.13 709.7 838.38 785.84 1004.62-500.8-43.97-588.45 122.64-866.72-230.91-420.25-533.97-1176.4 62.29-1672.96 64.6-384.79 1.8-482.31-229.98-784.62-281.71-735.84-125.92-897.65 278.54-1834.51-125.97-990.05-427.48-951.23 198.14-1609.65 188.4-422.35-6.25-552.53-87.75-881.85-172.97-629.82-163.01-1384.87 152.37-1950.99-5.93-347.59-97.19-289.81-341.83-751.66-194-263.58 84.37-482.79 279.96-801.08 244.96-297-32.67-523.93-258.44-847.92-186.42-351.32 78.11-239.19 266.07-832.89 236-230.59-11.67-257.65-10.4-234.34-286.98 12.28-145.63 56.3-258.87 117.06-375.93 464.02-76.44 6377.98 46.96 6995.81 57.16 403.53 6.65 5032.23-16.33 5170.48 65.08z" />
      <path class="bg"
        d="M17282.64 9086.51c670.81-249.1 1121.3 298.57 1593.16 301.11 575.03 3.1-25.42-332.29 1633.06-211.03 417.78 671.54 572.6 859.03 910.34 1645.46 1122.87 2614.62 962.49 5733.72-356.17 8221.42-154.68 291.8-302.51 529.03-480.49 783.94l-1135.45 1385.71-1020.8 891.61c-177.26 173.52-1004.46 630.89-1199.89 702.06 79.82-1682.39-585.94-1623.4-212.11-2114.92 344.89-453.47 849.48-881.35 1093.96-1468.78 436.32-1048.34-290.24-2127.9-364.79-3257.27-13.73-207.97-12.23-425.65 19.69-632.03 22.46-145.25 104.11-328.35 115.7-446.66-704.01 379.45-260.62 1766.96-170.39 2460.71 70.45 541.68-98.18 876.85-351.96 1205.3-152.02 196.74-560.49 679-802.8 745.34-13.77-489.54 229-766.94 275.83-1187.38 43.7-392.3-46.3-912.59-322.81-1108.51 112.52 521.87 20.38 682.85-171.19 1095.86-153.71 331.35-212.93 610.65-348.1 943.37-398.6-242.87-548.36-1323.19-177.96-2032.5 296.33-567.47 845.82-926.02 636.27-1866.91-200.8-901.59-1071.65-1697.34-455.35-2995.39 222.06-467.68 435.25-558.37 520.17-732.97-327.42-21.35-522.3 143.13-706.29 300.09-273.45 233.29-381.51 435.69-473.44 498.01l-174.18-457.72c-65.17-149.73-145.93-278.85-242.25-387.35-34.49-169.93-388.5-595.69-491.52-712.59-524.08-594.74-1444.79-1080.91-2308.11-1233.05-2152.45-379.35-3351.86 1033.5-3570.56 1094.58-475.55-763.64-1142.51-1094.14-1221.31-1912.58 185.94 200.64 361.94 158.07 814.58 153.62 327.7-3.21 637.36-15.57 964.74 23.43 555.6 66.18 991.92 338.38 1633.66 176.38 1872.16-472.61 2149.51 553.9 3313.31 108.5 464.9-177.92 290.21-75.32 880.74-92.09 1149.46-32.68 1046.22 313.02 1626.7 335.36 322.44 12.42 492.27-135.34 726.01-222.13z" />
      <path class="bg"
        d="M15030.19 13440.4c52.6 9 92.6 26.42 120.29 52.42 27.66 26 41.51 59.36 41.63 99.98.2 54.77-23.67 98.72-71.74 131.78-48.07 33.09-112.84 49.73-194.36 50.02-68.35.28-124.32-15.01-167.95-45.83-43.86-30.94-65.77-69.69-65.93-116.61-.09-28.04 8.08-50.78 24.63-68.11 16.36-17.28 37.92-26.08 64.37-26.17 22.39-.08 40.46 6.63 54.39 20.08 13.88 13.55 20.9 31.21 20.97 53.15.05 21.14-6.64 38.07-19.99 51.04-13.3 12.93-30.85 19.41-52.92 19.48l-7.08.07c16.63 15.71 35.72 27.44 57 34.92 21.15 7.64 45.2 11.46 71.96 11.33 43-.14 77.14-10.61 102.24-31.47 25.08-20.9 37.54-48.83 37.39-84.15-.14-38.02-11.99-66.34-35.45-84.93-23.43-18.66-59.1-27.87-106.96-27.71l-18.37.08-.25-70.62 9.34-.01c48.84-.17 84.76-8.02 107.74-23.44 23.02-15.55 34.35-39.45 34.22-71.87-.07-29.97-10.82-53.96-32.34-72.1-21.47-18.14-50.24-27.2-86-27.1-20.78.09-39.95 3.05-57.67 8.95-17.54 5.86-34.44 15.12-50.32 27.45 18.49 1.85 32.89 8.23 43.37 19.47 10.37 11.09 15.59 25.75 15.66 44.11.07 19.82-6.94 36.26-21.12 49.24-14.09 12.96-32.46 19.48-55.01 19.54-23.08.12-41.93-7.27-57.01-22.04-15.06-14.78-22.53-33.73-22.62-57.14-.13-42.24 21.83-77.91 65.7-107.27 44.08-29.35 99.96-44.03 167.96-44.28 68.68-.26 123.85 13.41 165.72 41 41.85 27.53 62.76 63.43 62.91 107.9.15 37.07-11.65 67.11-35.3 89.76-23.74 22.83-60.12 39.07-109.1 49.08z" />
      <path class="bg"
        d="M11334.68 17549.35l-.95 163.81c-298.25 63.38-540.15 86.05-762.14 235.53-163.75 110.28-408.52 386.97-586.36 402.06-37.55-331.51-59.39-617.47 83.53-870.24-143.81 16.82-229.72 192.51-272.79 380.88-49.46 216.31-3.33 434.03 7.01 628.34-550.91 349.49-50.23 394.35-117.59 801.64-16.6 100.42-69.35 168.82-80.51 259.61-24.64 200.28 20.26 105.69 43.08 279.23-177.97 111.28-233.76 255.42-478.96 344.33 81.61-393.65 372.23-1168.41-60.86-1418.85 117.02 474.51-43.71 567.13-286.94 1146.39l-84.08 139.05c-476.95-1012.52-89.74-1095.05 262.34-1710.58 386.96-676.54-225.34-1209.97-334.16-1843.17 598.61 298.41 818.49 919.92 2669.38 1061.97z" />
      <path class="bg"
        d="M10337.86 18440.02c631.78-445.1 937.96 642.48 134.17 590.28l52.97-53.32c365.79-372.04-92.28-436.87-187.14-536.96z" />
      <path class="bg"
        d="M15418 14470.34c527.72 947.83-474.65 1832.9-652.2 2586.88-270.27 1147.88 638.61 1740.72 753.97 2648.75-210.17 115.23-453.74 60.34-683.39 231.81-221.23 165.16-240.92 388.58-394.53 488.14-324.5-570.96-126.73-2073.58-161.02-2389.42-262.47 111.25-255.68 627.34-318.55 820.22l-59.77 116.94c-240.61-383.43-608.47-589.43-866.6-813.29 88.19-293.79 481.24-475.19 552.91-732.12-78.91-72.15-101.94-91.81-192.99-135.52-43.47-20.87-79.35-30.53-114.38-48.76-138.67-72.17-40.58-4.63-114.03-76.65 535.49-208.5 1078.19-737.55 1392.69-1084.04 599.83-660.84 773.17-1513.52 857.89-1612.94z" />
      <path class="bg"
        d="M11458.99 5646.69c196.08 163.13 285.9 280.08 269.47 350.82-76.24 33.25-175.39 59.53-297.43 78.8-16.9-156.9-7.58-300.11 27.96-429.62z" />
      <path class="bg"
        d="M14635.11 11773.11l55.11-.23.08 13.2c.23 67.9-12.78 120.49-38.91 157.96-26.17 37.67-63 56.51-110.55 56.69-17.28.04-37.09-3.1-59.21-9.31-22.27-6.2-46.96-15.47-74.07-27.93l-24.56-12.66c-35.39-18.4-62.3-27.67-80.82-27.58-16.47.04-28.88 5.42-37.52 15.91-8.7 10.55-14.11 27.14-16.63 49.89l-56.07.22-.82-10.02-.24-15.92c-.21-50.77 10.63-94.21 32.57-130.54 21.94-36.34 56.67-68.11 104.11-95.34 19.8-11.8 45.2-25.02 76.24-39.74 31.05-14.64 51.36-24.56 60.83-29.77 19.82-10.69 35.23-25.74 46.62-45.14 11.22-19.36 16.73-41.01 16.69-64.84-.14-32.36-12.68-59.12-37.56-79.82-25.09-20.82-56.82-31.2-95.52-31.09-28.36.12-52.86 6.5-73.58 19.29-20.78 12.82-36.85 31.4-48.01 55.64 4.99-1.47 10.29-2.77 15.61-3.63 5.31-.8 11.11-1.13 17.4-1.17 20.31-.07 36.45 5.66 48.55 17.06 12.2 11.43 18.39 26.87 18.43 46.36.07 22.58-6.96 41.14-21.26 55.21-14.31 14.26-32.94 21.4-56 21.48-26.78.09-49.03-9.32-66.5-28.27-17.65-18.96-26.45-43.26-26.53-72.94-.22-48.36 21.4-90.01 64.97-124.52 43.56-34.63 96.99-52.08 160.71-52.32 74.32-.3 133.67 16.92 178.28 51.71 44.44 34.83 66.86 81.03 67.07 138.74.17 48.35-13.38 86.27-40.69 113.6-27.31 27.38-76.22 50.1-146.61 68.37l-2.89.56c-113.5 28.58-183.64 70.61-210.22 125.84 12.84-8.46 26.21-14.94 39.9-19.17 13.7-4.28 28.34-6.4 44.15-6.44 25.76-.07 60.96 4.92 105.32 15.05 44.53 10.18 75.19 15.23 92.25 15.17 26.42-.09 45.74-8.39 57.93-25.02 12.2-16.65 19.51-44.75 21.95-84.54z" />
      <path class="bg"
        d="M14604.49 14808.85l1.26 348.19 113.15-.42.28 83.16-113.14.45.17 41.41c.07 20.49 4.31 34.32 12.83 41.53 8.59 7.23 23.91 10.71 46.33 10.63l54.14-.21.29 69.64-342.35 1.27-.28-69.65 34.98-.1c32.24-.15 52.19-3.29 60.27-9.27 8.02-6 11.98-20.34 11.94-43.4l-.19-41.43-.28-83.17 2.12-211.82-190.7 212.51 146.19-.53.3 83.16-251.62.94-.28-73.66 321.07-358.85z" />
      <path class="bg"
        d="M12951.92 16127.39c31.8 10.2 64.43 17.8 97.61 22.84 33.24 5.04 68.23 7.49 104.8 7.36 37.74-.15 74.15-2.86 108.95-8 34.82-5.08 68.17-12.61 99.87-22.7-12.73 46.91-39.04 81.82-79.1 104.54-39.89 22.87-94.31 34.34-163.49 34.62-12.55.02-27.07-.56-43.67-1.94-16.62-1.43-37.39-3.77-62.71-7.21l-7.11 88.89c25.12-11.73 50.02-20.52 74.68-26.4 24.83-5.88 49.3-8.92 73.95-8.99 69.3-.25 126.27 19.37 171.26 58.68 44.84 39.35 67.39 89.09 67.61 149.5.25 70.28-22.14 125.64-67.1 166.46-44.99 40.77-106.97 61.32-185.63 61.6-72.39.26-131.12-14.68-176.21-44.8-45.08-30.3-67.79-69.08-67.97-116.65-.06-24.8 8.25-45.48 24.78-62.29 16.56-16.67 37.29-25.14 62.11-25.23 23.53-.03 42.91 6.3 57.81 19.12 15.03 12.88 22.49 29.6 22.57 50.36.09 22.26-7.11 39.87-21.73 52.8-14.6 12.97-34.45 19.52-59.27 19.59 17.43 13.6 36.41 23.86 56.88 30.61 20.46 6.65 42.58 9.97 66.13 9.9 46.08-.17 81.83-13.21 107.37-39.06 25.53-25.92 38.29-62.24 38.11-108.85-.18-47.84-12.7-85.03-37.48-111.54-24.9-26.53-59.28-39.62-103.45-39.45-24.2.11-46.27 5.18-66.2 15.42-20.08 10.06-38.74 25.75-56.44 46.96l-65.59-2.67z" />
      <path class="bg"
        d="M13267.71 10607.78c7.29 6.43 26.14 9.58 56.76 9.48l49.49-.2.27 69.67-363.65 1.29-.28-69.64 43.37-.14c33.08-.13 54-3.76 62.5-10.89 8.68-7.1 13.03-22.58 12.93-46.43l-1.15-309.51-118.98.42-.23-68.64c46.56-2.13 82.82-10.16 108.55-24.27 25.73-13.93 45.48-36.12 59.22-66.31l78.52-.24 1.74 470.01c.05 23.83 3.64 38.99 10.94 45.4z" />
      <path class="bg"
        d="M10023.09 16095.9c-2.72 41.92-30.41 101.52-83.33 178.9-24.7 36.23-42.96 64.5-54.99 84.66-25.94 44.59-44.78 89.47-56.73 134.62-11.94 45.22-17.85 95.35-17.66 150.14l.26 27.61.9 17.72-132.55.46-.54-20.11-.57-19.54c-.13-44.96 2.48-83.64 7.85-115.74 5.5-32.14 14.27-60.65 26.42-85.55 19.67-41.99 64.59-101.11 134.55-177.65 26.06-28.28 45.61-50.28 58.8-65.83-14.81 7.01-29.48 12.22-43.79 15.47-14.49 3.51-28.5 5.11-42.06 5.19-19.33.06-44.32-3.1-75.44-9.41-30.98-6.35-52.44-9.49-64.06-9.41-33.35.1-57.34 11.79-71.93 34.88-14.54 23.26-21.69 62.01-21.5 116.51v5.62l-66.57.24-.92-268.9 70.72-.22.28 68.68c18.11-26.18 37.37-44.98 57.65-56.49 20.29-11.56 44.41-17.4 72.46-17.54 26.76-.1 60.97 7.73 102.78 23.36 41.82 15.63 69.55 23.44 83.07 23.37 13.26-.02 24.35-3.49 33.53-10.14 8.99-6.6 16.17-16.79 21.48-30.71z" />
      <path class="bg"
        d="M11592.46 16691.36c36.83 24.38 55.28 54.58 55.45 90.73.07 22.09-7.29 40.16-22.05 54.39-14.79 14.22-33.78 21.4-57.15 21.47-21.44.09-38.88-5.78-52.27-17.55-13.43-11.68-20.26-27-20.33-46-.07-13.87 3.78-25.31 11.32-34.7 7.52-9.37 18.95-16.5 34.07-21.55-12.26-8.15-24.56-14.27-36.82-18.08-12.4-3.99-24.7-5.9-36.91-5.81-48.85.17-85.22 17.85-108.94 53.24-23.89 35.4-37.22 91.67-40.01 168.6 23.46-17.17 47.46-30.02 71.73-38.65l1.26 74.69c-16.98 4.86-31.08 14.06-42.28 27.33-17.76 21.06-26.56 50.56-26.43 88.64.16 38.65 9.43 68.3 27.69 88.86 18.31 20.57 44.47 30.76 78.13 30.63 32.11-.1 57.2-10.35 75.13-30.86 18.19-20.56 27.12-48.96 26.98-85.24-.14-40.92-9.1-71.7-27.13-92.58-17.06-20.03-42.28-30.44-75.53-31.08l-.03-80.13c12.66-2.12 25.67-3.21 38.92-3.22 60.78-.24 110.83 17.93 150.23 54.41 39.5 36.57 59.32 82.94 59.53 139.18.24 59.86-22.15 108.24-67.14 145.18-45.17 37.08-104.76 55.65-179.09 55.98-82.51.27-146.43-25.3-191.61-76.71-45.17-51.58-67.96-124.7-68.3-219.46-.39-100.75 24.45-180.46 74.52-239.18 49.97-58.7 118.65-88.31 205.87-88.59 57.37-.21 104.48 11.85 141.19 36.06z" />
      <path class="bg"
        d="M11778.34 9648.15c74.1 5.59 131.93 27.44 173.66 65.69 41.55 38.22 60.27 86.04 55.91 143.57-3.65 48.19-20.19 84.95-49.53 110.02-29.41 25.12-79.96 43.95-151.58 56.63l-2.91.25c-115.46 19.56-188.65 55.87-219.54 108.79 13.53-7.31 27.33-12.74 41.32-15.88 13.97-3.16 28.75-4.14 44.49-2.95 25.72 1.94 60.42 9.74 103.81 23.38 43.58 13.61 73.74 21.07 90.78 22.35 26.34 2.02 46.26-4.72 59.77-20.35 13.42-15.63 22.94-43.07 28.5-82.55l54.97 4.16-.99 13.18c-5.12 67.66-22.25 119.07-51.28 154.38-29.02 35.43-67.25 51.31-114.68 47.72-17.19-1.27-36.7-5.97-58.25-13.91-21.72-7.98-45.59-19.15-71.62-33.74l-23.5-14.51c-33.82-21.16-59.97-32.53-78.45-33.91-16.38-1.26-29.18 3.1-38.64 12.93-9.48 9.78-16.16 25.91-20.45 48.39l-55.96-4.25c-.06-3.24-.15-6.48-.03-10.02l1.03-15.92c3.83-50.62 18.05-93.05 42.79-127.54 24.79-34.52 61.82-63.37 111.34-86.83 20.62-10.18 47-21.32 79.16-33.56 32.12-12.13 53.08-20.41 62.99-24.85 20.54-9.1 37.14-22.9 50-41.3 12.7-18.47 19.94-39.55 21.79-63.34 2.4-32.29-7.93-59.95-31.14-82.54-23.34-22.8-54.24-35.6-92.79-38.55-28.28-2.14-53.17 2.28-74.87 13.45-21.67 11.09-39.17 28.37-52.23 51.61 5.08-1.02 10.48-1.92 15.84-2.34 5.34-.37 11.18-.3 17.47.19 20.23 1.54 35.84 8.55 47.06 20.84 11.2 12.36 16.14 28.23 14.64 47.68-1.68 22.53-10.14 40.45-25.54 53.36-15.36 13.07-34.56 18.71-57.53 17.01-26.69-2.02-48.16-13.21-64.08-33.49-16.06-20.26-22.93-45.19-20.67-74.81 3.64-48.2 28.48-88.03 74.63-118.98 46.13-31.06 100.79-44.24 164.31-39.46z" />
      <path class="bg"
        d="M11184.38 9654.18l35.48 468.71c1.79 23.77 6.46 38.6 14.19 44.48 7.71 5.91 26.74 7.67 57.3 5.37l49.37-3.73 5.24 69.45-362.65 27.45-5.21-69.49 43.23-3.26c32.94-2.49 53.55-7.62 61.56-15.33 8.13-7.74 11.32-23.47 9.52-47.26l-23.35-308.62-118.64 8.96-5.16-68.47c46.31-5.46 81.9-16.03 106.55-31.96 24.64-15.78 42.76-39.32 54.3-70.42z" />
      <path class="bg"
        d="M10389.94 10562.92c.05 23.85 3.66 38.98 10.95 45.43 7.29 6.42 26.12 9.56 56.78 9.48l49.49-.2.23 69.6-363.67 1.31-.24-69.61 43.4-.14c33.01-.13 53.99-3.75 62.49-10.89 8.65-7.1 12.96-22.61 12.84-46.46l-1.1-309.48-118.97.44-.26-68.72c46.62-2.06 82.8-10.11 108.57-24.21 25.75-13.96 45.47-36.1 59.25-66.32l78.47-.27z" />
      <path class="bg"
        d="M9086.77 11364.62c68.83 5.27 125.93 33.65 171.48 85.11 50.98 57.55 76.75 132.26 77.07 224.13.35 92.35-24.83 167.26-75.43 224.78-45.77 52.28-103.68 80.95-173.84 86.13l.08-76.72c30.78-5.91 54.19-24.31 70.13-55.1 19.7-38.14 29.44-97.48 29.16-178.59-.3-80.9-10.52-140.33-30.5-178.34-15.77-30.14-38.51-48.27-68.24-54.44z" />
      <path class="bg"
        d="M9038.39 11364.62l-.34 76.9c-30 6.23-52.85 24.72-68.49 55.39-19.54 38.44-29.14 97.77-28.81 178.39.29 81.41 10.33 140.86 29.96 178.48 15.17 29.14 36.96 46.96 65.52 53.51l-.33 77.23c-67.67-5.72-123.78-33.9-168.5-84.43-50.58-57.25-76.22-131.9-76.55-224.25-.38-92.2 24.68-167.24 74.91-224.98 45.33-52.07 102.84-80.88 172.63-86.24z" />
      <path class="bg"
        d="M9796.41 10608.35c7.28 6.42 26.16 9.56 56.75 9.48l49.48-.2.25 69.6-363.63 1.31-.26-69.61 43.38-.14c33.03-.13 53.99-3.75 62.49-10.89 8.68-7.1 12.98-22.61 12.91-46.46l-1.13-309.48-118.98.44-.28-68.72c46.63-2.06 82.84-10.11 108.6-24.21 25.74-13.96 45.44-36.1 59.23-66.32l78.52-.27 1.71 470.04c.07 23.85 3.66 38.98 10.96 45.43z" />
      <path class="bg"
        d="M8538.26 11374.1l1.7 470.02c.07 23.84 3.71 38.97 10.97 45.39 7.3 6.45 26.16 9.62 56.77 9.5l49.48-.22.3 69.65-363.72 1.33-.21-69.6 43.36-.18c33.01-.12 54.01-3.74 62.51-10.88 8.69-7.11 12.96-22.59 12.86-46.45l-1.12-309.51-118.94.46-.29-68.69c46.63-2.1 82.88-10.12 108.56-24.27 25.76-13.94 45.54-36.09 59.26-66.28z" />
      <path class="bg"
        d="M7922.48 13128.27c73.86 3.44 131.79 29.53 173.79 78.02 45.5 52.55 68.49 126.63 68.84 222.37.38 100.1-24.51 178.86-74.74 236.4-50.22 57.46-119.28 86.4-207.62 86.71-54.82.21-99.8-11.57-135.39-35.46-35.53-23.7-53.38-53.32-53.48-88.45-.09-22.08 7.42-40.02 22.52-53.95 15.14-13.92 34.58-20.9 58.6-21.02 20.8-.03 37.73 5.88 50.82 17.56 13.12 11.74 19.79 26.7 19.86 45.07.02 13.21-3.45 24.37-10.52 33.56-7.04 9.05-18 16.36-32.8 21.75 11.98 7.55 23.91 13.13 35.83 16.63 12.11 3.61 25.01 5.35 38.72 5.33 47.83-.18 83.28-18.7 106.16-55.38 22.95-36.84 34.63-93.62 35.03-170.36-24.14 18.65-48.88 32.45-74 41.56-25.09 9.28-52 13.89-80.56 13.97-58.82.25-107.91-17.6-147.21-53.42-39.3-35.94-59.14-80.53-59.33-133.58-.2-62.37 22.16-112.41 67-150.49 39.46-33.33 90.7-52.14 153.4-56.34l4.86 72.54c-22.5 3.73-40.51 13.41-53.96 28.87-17.63 20.42-26.44 49.93-26.23 88.42.1 39.36 9.74 69.45 28.68 90.02 18.9 20.56 46.19 30.8 82.02 30.65 29.93-.07 53.6-10.69 71.08-31.53 17.5-20.83 26.3-49.09 26.16-84.74-.18-40.07-9.31-70.72-27.43-91.93-13.83-16.17-32.27-26.15-55.04-29.93z" />
      <path class="bg"
        d="M8362.98 14830.1v68.56c-18.04 3.41-33.32 9.06-45.86 16.97-21.87 13.76-32.77 32.48-32.66 56.19.08 17.58 6.39 32.87 19 45.88 12.61 13 31.05 22.75 54.93 29.32l110.36 29.41c22.2-10.74 39.07-24.34 50.3-40.65 11.37-16.17 16.96-35.02 16.88-56.5-.08-26.09-11.59-46.72-34.55-61.91-15.8-10.56-35.63-17.42-59.47-20.54l.56-67.35c52.85 4.09 96.85 17.11 132.06 38.95 43.77 27.09 65.72 62.27 65.82 105.8.14 28.05-8.32 52.45-25.2 73.27-16.82 20.87-43.02 39.18-78.76 55.09 43.1 17.77 75.27 39.87 96.31 66.2 21.21 26.4 31.83 57.61 31.97 93.9.16 57.54-22.73 103.07-68.71 136.62-39.82 29.06-92.64 45.57-158.41 49.62l.62-76.92c29.95-2.7 53.43-8.77 70.45-18.16 23.6-13.02 35.35-32.7 35.25-59.13-.05-17.59-5.93-32.21-17.76-43.78-11.8-11.58-31.17-21.83-57.79-30.42l-130.58-41.11c-27.97 10.76-49.21 24.82-63.51 42.3-14.45 17.32-21.61 37.16-21.53 59.4.08 29.01 13.26 51.71 39.42 68.05 18.54 11.68 42.16 19.14 70.89 22.46v76.93c-59.83-4.31-109.14-18.49-147.93-42.55-47.59-29.54-71.46-68.53-71.67-117.42-.1-31.42 9.97-58.54 30.17-81.46 20.26-22.82 51-41.64 92.17-56.33-33.44-20.32-58.19-42.82-74.54-67.22-16.36-24.48-24.52-51.49-24.64-81.18-.21-51.11 21.55-92.75 65.18-125.33 34.99-26.03 78.8-41.69 131.23-46.96z" />
      <path class="bg"
        d="M7955.73 19249.09c58.64 378.15 396.51 721.11 498.58 1123.4 154.08 607.25-315.43 575.79-213.81 1302.71-911.98-888.3-534.67-2015.37-601.8-2280.39-390.39 329.62-206.07 1296.12-153.1 1803.07l-539.46-503.99c-465.5-476.79-1002.71-1142.61-1320.78-1771.63-424.93-840.37-838.89-2102.31-960.98-3175.58-175.36-1541.72-244.02-2239.88 237.61-3622.71 174.51-501.04 380.14-1036.35 584.03-1492.87 333.75-747.35 517.48-889.81 730.16-1304.26 707.93 310.82 906.61 1226.2 1137.84 1764.63 425.22 990.06 569.2-106.41 165.51 1206.17-62.17 202.15-111.01 431.3-136.35 664-107.93 990.81 97.49 1824.33 582.61 2645.76 53.7 90.94 92.98 148.11 164.3 243.49 289.18 386.67-90.23 213.74 134.83 918.94 154.2 483.25 361.04 794.49 106.68 1297.43-176.77 349.54-496.18 663.8-415.87 1181.83z" />
      <path class="bg"
        d="M8873.78 6348.34c-473.14 456.59-835.81 885.36-1088.03 1286.3-88.21 11.83-132.26-13.6-132.18-76.26 289.24-438.9 665.47-908.34 1128.69-1408.32 75.99 51.53 106.49 117.63 91.52 198.28z" />
      <path class="bg"
        d="M5932.61 7815.21c-242.39 540.12-196.63 982.45 137.27 1326.98-16.31 68.4-70.55 117.53-162.69 147.44-250.48-286.61-325.05-679.79-223.71-1179.54 243-732.46 400.62-1345.94 472.86-1840.45 200.84-915.22 249.98-915.22 147.44 0-149.13 735.55-272.86 1250.73-371.17 1545.57z" />
      <path class="bg"
        d="M3703.43 7973.16c947-25.4 1502.4 607.98 1674.86 1464.63 54.46 270.5 97.24 906-157.41 1025.86-37.71-1625.48-327.5-2301.92-2005.61-2317.64 74.05-162.42 290-167.53 488.16-172.85z" />
      <path class="bg"
        d="M15422.6 21200.38l675.52-378.23c-18.77 284-239.84 86.72-42.97 645.4 79.49 225.52 102.19 422.44 142.3 673.44 98.79 618.17 413.68 1035.61-183.08 1198.45 107.38-560.96 86.05-726.38-160.21-1184.19-147.23-273.73-328.29-638.64-431.56-954.87z" />
      <path class="bg"
        d="M11895.39 21473.85c213.98 53.44 130.09 218.98 512.33 224.18 662.43 9.01 1106.23-476.73 1782.66-481.02 84.12 272.06-9.28 517.17 90.33 727.15 102.58 216.21 268.8 242.01 434.53 374.9 217.19 174.17 311.83 956.2 354.34 1302.13-514.74 36.38-989.73 162.51-1563.1 170.7-1220.42 17.46-3349.19-325.39-4201.07-954.08 372.89-414.97 397.52-811.16 195.96-1367.15-132-364.11-148.2-290.81 109.22-576.27l438.53-430.36c442.09 888.62-80.54 907.36 1285.87 1367.22 462.38 155.6 398.81 254.16 587.48 273.69z" />
      <path class="bg"
        d="M8858.57 22058.53c212.65-56.32 281.28 116.54 205.9 518.6-40.04 79.7-95.11 91.56-165.22 35.59 31.32-236.54 17.76-421.28-40.68-554.19z" />
    </g>
  </g>
</svg>