<svg viewBox="0 0 21000 21000" shape-rendering="geometricPrecision" text-rendering="geometricPrecision"
  image-rendering="optimizeQuality" fill-rule="evenodd" clip-rule="evenodd" version="1.1"
  xmlns="http://www.w3.org/2000/svg" style="background-color:#fff">
  <defs>
    <style>
      svg {
        background-color: #fff;
      }

      .bg {
        fill: #fff
      }

      .fg {
        fill: #201922;
      }
    </style>
  </defs>
  <g transform="translate(7.13 -4100.368)">
    <g>
      <path class="fg"
        d="M10492.85 24554.158c5497.44 0 9953.84-4456.48 9953.84-9953.8 0-5497.33-4456.4-9953.78-9953.84-9953.78-4831.34 0-8858.54 3442.14-9763.46 8007.77 30.29 84.74 64.34 168.79 102.75 251.19 86.71 185.99 195.27 363.64 330.91 522.49 47.07 55.07 96.55 106.87 148.38 155.39 23.54-214.32 21.94-428.27 21.94-428.27s65.96 260.88 106.62 538.12c318.71 248.14 714.45 388.33 1181.4 418.46 2.58-9.58 5.44-19.23 8.93-28.97 89.47-249.86 428.69-336.85 678.17-173.96 249.28 162.95 491.51 230.57 646.06 179.53l-162.37 197.58s183.64 15.88 330.09 163.58c0 0-275.57-36.74-461.58 104.94 0 0-10.3 172.68 173.44 209.88 0 0-780.25 85.34-1080.51-232.41 0 0-146.58-137.93-144.97-327.8-448.24-29.95-833.84-157.89-1152-382.45 28.71 258.33 23.1 498.09-91.25 519.77-255.47 48.44-210.88-207.78-119.5-441.01 21.88-55.95 38.3-127.9 50.62-204.93-72.26-63.34-140.41-132.5-204.37-207.43-118.44-138.71-216.89-291.05-298.61-450.57-35.37-69.04-67.51-139.47-96.88-210.69-103.51 575.54-157.61 1168.24-157.61 1773.57 0 1319.4 256.84 2578.77 723.04 3731.04 240.24-259.9 472.89-379.55 837.2-208.36 0 0-79.01 496.77-482.13 487.67-139.97-3.16-219.42-86.35-285.47-111.65 116.07 272.36 244.04 538.42 383.03 797.67 49.06-38.07 119.66-71.61 218.27-97.71 191.68-520.09 759.99-1586.15 2265.21-1935.7 24.78-5.71 49.27 9.73 55.07 34.41 5.82 24.87-9.52 49.46-34.29 55.17-1506.92 349.91-2046.36 1436.68-2214.89 1919.21 25.07 139.34 70.71 421.54 76.09 650.47 1764.73 2783.67 4872.82 4631.58 8412.67 4631.58z" />
      <path class="bg"
        d="M10337.34 17104.54s-126.98 106.79-292.69 116.13c-165.68 9.27-291.94-109.84-291.94-109.84 327.87-198.01 584.63-6.29 584.63-6.29zm-1005.91-628.18c95.38 41.18 243.42 72.55 187.76 501.3 0 0-101.05-140.68-170.94-203.21-70.05-62.59-260.79-144.94-281.53-396.28 0 0 169.34 57.02 264.71 98.19zm236.03 651.37s-187.27 96.94-343.1 45.93c-155.78-51.16-315.14-168.31-356.14-186.01-40.89-17.66 212.78-118.35 321.72-71.33 109.01 47.07 282.23 170.27 377.52 211.41zm-3813.33-3957.18c102.92 34.3 342.85 34.3 479.87 291.3 0 0-205.63 17.06-325.61 17.06-119.97 0-291.29 34.49-428.51-445.57 0 0 171.52 102.91 274.25 137.21zm101.1 5162.31c327.7-35.25 492.74 322.08 492.74 322.08-72.98 23.75-329.51 178.96-523.9 27.83-194.87-150.83-215.92-215.44-361.91-167.9-146.08 47.66 65.36-146.37 393.07-182.01zm-1928.6-1036.29s-396.87 184.28-783.19 96.62c-275.56-62.7-205.24-271-217.44-285.3-12.19-14.29 151.6-54.32 384.01 44.78 232.71 99.11 479.5 186.21 616.62 143.9zm4686.73 705.34c280.03 38.17 228.33 251.86 241.75 265.02 13.39 13.16-146.24 67.47-386.48-10.78-240.53-78.21-494.04-143.24-626.9-89.01 0 0 379.1-218.53 771.63-165.23zm-878.1 5323.26c40.98 272.36-130.36 344.11-199.72 116.65-42.51-138.84-96.44-427.67 375.53-822.93 0 0-216.4 433.95-175.81 706.28z" />
      <path class="bg"
        d="M8974.64 22517.83c163.41 128.8 9.59 469.07 352.54 547.54-42.73-8.46-170.65-28.53-232.17 19.16 0 0-4.1 271.58 175.05 345.14 0 0-250.05-30.02-494.66-210.11l-108.44 200.47s44.41-186 18.39-267.94c0 0-51.07-103.2-155.89-234.5 0 0-90.62-127.62-27.64-263.87 18.84-40.96 54.31-81.27 98.93-114.24-107.8-193.69-128.78-355.66-123.82-466.81-142.21 175.96-359.14 336.86-649.76 480.61-248.16 122.93-503.03 209.91-756.04 260.62-5.59 3.47-11.97 5.77-19.06 5.25l-5.5-.42c-452.08 86.42-897.3 56.39-1286.44-94.49-579.94-224.52-1031.04-713.73-1304.43-1414.5-6.57-16.88 1.82-35.64 18.58-42.11 16.68-6.59 35.45 1.52 41.92 18.48 270.54 693.14 697.16 1156.82 1267.56 1377.71 323.29 125.24 686.99 164.38 1061.1 120.33-191.17-45.73-480.78-149.53-724.09-381.52-43.39 24.5-100.72 29.58-165.58 1.05-127.5-56.15-120.78-253.77-356.83-247.06 30.04-1.72 114.95-10.11 146.72-50.45 0 0-41.75-175.71-170.58-193.63 0 0 167.9-21.71 356.68 54.13l37.63-147.31s1.54 127.01 32.03 175.7c0 0 50.11 57.95 139.97 125.22 0 0 80.15 67.65 61.66 165.61-5.08 26.95-16.46 52.11-32.71 73.5 342.89 322.68 790.92 384.81 873.18 393.8 252.5-49.11 507.3-135.25 755.45-258.03 81.53-40.38 157.03-82.01 226.46-124.87-967.87 458.69-1291.99-364.38-1108.84-410.2 199.24-49.83 245.27 59.85 563.06 313.99 204.34 163.58 483.15 93.72 656.31 22.99 165.44-116.8 288.39-241.95 368.03-374.65 2.4-6.84 4.16-11.07 4.71-12.35 2.16-4.77 5.48-8.5 9.27-11.61 27.06-48.58 48.44-98.13 63.91-148.66 40.92-133.73 31.46-248.76 13.2-328.44-262.61 233.42-654.58 95.6-710.22 74.2-99.04 52.92-305.28 143.73-460.96 81.19-212.4-85.57-354.57-318.27-648.26-406.13-293.58-88.15 313.32-72.99 479.99 21.63 166.56 94.53-22.68-299.88-98.64-346.39-75.31-45.93 587.23-96.11 780.88 599.15 106.33 33.86 432.67 114.55 636.52-93.84-10.65-28.71-19.63-45.22-19.96-45.81-8.86-15.44-3.42-35.25 12.01-44.11 15.72-8.87 35.64-3.64 44.4 12.09 4.76 8.47 119.31 212.22 33.74 493.79-18.71 61.54-45.69 121.57-79.98 180.17-16.14 49.61-69.32 263.72 92.26 557.82 98.55-50.79 221.78-63.66 318.36 12.71z" />
      <path class="bg"
        d="M5598.36 22156.62c-6.73.39-10.71.43-10.71.43 3.63-.18 7.2-.33 10.71-.43zm3728.82 908.75c9.02 1.77 14.25 3.05 14.25 3.05-4.84-.97-9.59-1.99-14.25-3.05zm-5297.42-2243.71s64.92 285.33 333.03 612.17c-32.75-32.96-114.21-91.94-280.15-95.51-231.27-5.33-370.01-103.49-374.97-347.32-4.77-244.05-29.16-328.09-207.45-292.06 0 0 366.01-244.72 529.54 122.72zm333.03 612.17c12.85 12.95 18.2 21.89 18.2 21.89-6.17-7.32-12.24-14.61-18.2-21.89zm171.32-799.73c-67.46 238.51-151.89 347.8-128.93 525.24 0 0-233.18-281.49-260.23-491.22-27.16-209.74-104.82-429.29-56.99-566.79 0 0 513.8 294.33 446.15 532.77zm252.03-131.17s546.62 452.1 257.84 640.43c-288.6 188.2-461.59 29.6-461.59 29.6s494.23-305.88 203.75-670.03zM3764.6 17862.55c-504.76 453.6-128.06 751.58-44.78 878.5 83.19 127.29-105.58 312.36-224.03 289.48-118.45-23.06-273.39-89.2-286.35-424.62-19.44-512.09 555.16-743.36 555.16-743.36zm3089.55 412.86c-84.04 188.19-356.19 294.92-356.19 294.92-34.11-203.35-74.91-279.4 9.16-467.69 84.04-188.29 380.58-517.05 331.03-322.26-49.55 194.67 100.05 306.83 16 495.03zm-4216.1 727.23c259.19 101.48 343.05 54.68 648.84 240.11 305.78 185.36 243.08 461.03 243.08 461.03-383.93-44.89-617.87-291.02-701.05-418.34-83.09-127.02-190.87-282.8-190.87-282.8zm3784.64-68.3c516.66 296.07 371.44 593.66 325.89 751.46-45.75 157.61-124.36 362.01-124.36 362.01-125.68-137.69-412.6-472.94-269-626.91 143.7-154 67.47-486.56 67.47-486.56zm-145.34-9185.82c.17 64.76 58.55 310.8-113.06 427.96-171.62 117.26-229.03 117.38-228.55 247.05.47 129.54-100.65-90.28-44.34-362.64 56.46-272.38 385.95-312.37 385.95-312.37zm2402.42-4220.28c106.1-175.89-40.16 608.13-18.63 861.37 21.7 252.91-315.75 812.34-543.85 1045.33 0 0-24.43-320.71-46.58-464.77-22.14-143.99-59.08-624.7 108.11-828.53 167.19-204.44 394.69-437.29 500.95-613.4zm948.33 1469.12s-231.62 369.34-418.5 482.16c-187.2 112.84-703.56 195.9-951.98-2.74 0 0 205.65-211.93 466.14-339.03 260.64-127.65 703.1-5.73 904.34-140.39zm-1629.01 319.86c-1102.22 143.67-1702.87-1282.76-1562.57-1122.76 140.32 159.87 544.78 292.99 783.13 338.43 238.18 45.73 487.36 210.93 555.31 412.09 68.09 201.76 224.13 372.24 224.13 372.24zm-4910.43 3467.89c.1.23-.19 1.47-.19 1.47l-27.73-2.67.28-1.1h-.18c.76-5.81 76.61-570.93-8.39-900.28-80.52-311.04 30.69-1267.33 784.43-1788l25.26-17.61-3.52 30.67c-.59 5.01-57.95 508.17 12.76 753.79 70.13 243.51 47.36 754.12-149.03 1032-61 85.85-145.81 180.97-235.95 281.45-182.38 203.57-389.17 434.8-397.74 610.28zm6767.65-2036.14c238.99-21.33 486.31 6.45 373.3 228.16-112.9 221.82-1081.33-347.39-1081.33-347.39s469.34 140.65 708.03 119.23zM5780.13 6778.86c-8.38 9.81 39.89 152.78-149.26 195.82-265.15 60.16-537.55-66.32-537.55-66.32 94.1 29.04 263.51-30.74 423.23-98.75 159.52-68.03 271.95-40.56 263.58-30.75zm844.92 1089.41c-113.05-34.82-143.23.54-442.75 113.29-299.69 112.72-541.98-154.25-541.98-154.25 299.37-520.67 1097.86 75.87 984.73 40.96zm1560.93 2139.25c-236.45 52.29-373.23-307.97-56.95-617.23 232.68-227.95 239.71-800.7-426.93-1309.39 0 0-219.62-155.94-48.25-123.26 0 0 961.14 412.08 964.18 1435.77 0 0-38.04 527.28-432.05 614.11z" />
      <path class="bg"
        d="M9495.3 11557.99c-179.99 132.88-220 396.1-220 396.1-96.63-174.18-61.8-347.17-61.8-347.17l-225.15 96.36c88.31-128.72 91.01-369.09 8.24-641.88-82.89-272.91 87.98-561.43 341.5-576.56 9.98-.59 19.42-.1 29 .11 128.32-574.4 48.87-1086.82-237.29-1523.74-663.54-1012.61-2226.73-1297.49-2242.57-1300.25-24.28-4.26-40.4-27.37-36.11-51.54 4.19-24.32 27.27-40.48 51.57-36.17 16.02 2.83 1616.52 294.17 2301.39 1338.82 299.17 456.29 383.03 989.56 251.4 1585.79 174.81 49.54 262.34 220.73 262.34 220.73 211.51 360.98-76.07 1054.87-76.07 1054.87 15.03-178.64-146.45-215.47-146.45-215.47zM5299.63 8141.64c-68.63 105.03-261.64 308.1-578.38 345.12 0 0-51.73-227.43 200.55-380.35 252.27-152.97 321.46-114.38 535.3-198.1 0 0-88.92 128.54-157.47 233.33zm94.69 3897.63s376.87 428.52-17.16 719.82c0 0-171.34-514.01 17.16-719.82zm709.2-2795.34c129.42 116.15 144.66 362.28 144.66 362.28-172.09-25.27-243.63-12.12-373.05-128.35-129.42-116.03-316.75-439.24-173.21-349.09 143.55 90.03 272.25-1.07 401.6 115.16zm2126.96 2695.82c551.74-36.54 654.84 68.37 622.24 213.83-32.49 145.42-106.34 259.24-470.54 255.8-582.98-5.53-1561.99-971.57-1561.99-971.57 383.16 201.16 858.56 538.49 1410.29 501.94zm-1838.47-366.31c434.15 305.84 429.38 825.99 241.66 865.73-187.53 39.98-217.74-74.71-142.36-344.53 75.28-269.82-99.3-521.2-99.3-521.2zm-2494.63 352.2s-2.86 312.03-305.88 434.06c0 0-193.82-397.13 305.88-434.06zm527.79-8.92c-43.72 228.54-255.76 642.69 125.6 1051.8 0 0-1011.31-903.92-163.14-1499.63 0 0 81.28 219.37 37.54 447.83zm746.16 1082.3c-257 360.01-617.01 274.26-617.01 274.26s85.77-171.35 257.2-257.11c171.41-85.64 359.81-17.15 359.81-17.15zm120.08 68.62c342.85 274.24 68.59 839.78 51.44 719.92-17.15-119.98-222.97-257.19-239.94-428.53-17.15-171.53 188.5-291.39 188.5-291.39zm2315.95 1183.7c13.4 13.17-146.25 67.47-386.47-10.78-240.54-78.22-494.05-143.23-626.9-89.01 0 0 379.1-218.53 771.62-165.24 280.03 38.18 228.33 251.86 241.75 265.03zM4757.03 7035.67s305.09 122.8 294.77 394.69c-6.88 178.09-89.14 213.21-152.04 225.45-62.89 12.14-163.11-86.11-118.94-153.71 44.22-67.39 244.22-225.59-23.79-466.43z" />
      <path class="bg"
        d="M4871.6 6827.55c646.13 523.33 786.28 1183.86 803.72 1278.92 374.39 118.22 184.72 382.46 69.83 495.22-122.41 120.28-223.12 238.83-223.12 238.83-31.44-251.09 70.75-755.64 70.75-755.64l.77.19c-37.16-167.27-203.59-752.15-793.38-1217.36 0 0 14.34-34.4 24.61-40.16 10.21-5.72 46.82 0 46.82 0zm1962.79 2400.86c-42.34 181.59-414.04 403.12-414.04 403.12 71.13-142.99-115.71-245.82-173.44-414.12-57.98-168.22 56.37-207.54 213.87-285.73 157.43-78.23 70.49-324.09 199.68-220.82 129.35 103.19 216.27 336.05 173.93 517.55zm632.79 658.54c-143.07 65.41-486.46 208.95-572.9 53.68-86.44-154.94-373.36-179.96-373.36-179.96 371.37-338.11 572.89-144.57 687.64-67.17 114.91 77.42 258.62 193.45 258.62 193.45zm-1301.69 2837.84c51.46 0-171.42 222.87-308.44 222.87-137.13 0-377.17-51.35-497.05-51.35 0 0 154.19-188.49 342.77-205.73 188.57-17.06 411.17 34.21 462.72 34.21zm1072.76 253.61c64.48 508.39-487.51 789.39-487.51 789.39 462.82-496.29 61.36-759.93-32.79-879.02-94.07-119.48 77.66-320.45 197.66-308.08 120.02 12.51 280.19 64.73 322.64 397.71zm3657.45 1253.97c175.96 0 318.51 142.56 318.51 318.56 0 176.01-142.55 318.51-318.51 318.51-175.86 0-318.52-142.5-318.52-318.51 0-176 142.66-318.56 318.52-318.56zm-448.18 6014.08c212.26 130.22 94.44 285.21-170.82 171.99-265.28-112.94-762.02-7.52-762.02-7.52 524.69-374.34 803.18-243.84 932.84-164.47zm-5404.06-2346.77c-559.07 1575.83-228.99 1780.31 428.62 2187.77l30.28 18.97c580.9 360.39 681.33 1148.25 657.52 1224.38-4.76 15.15-23.26 30.21-39.08 29.35-31.26-1.7-42.3-31.35-55.45-96.91-46.12-229.26-250.91-312.55-449.21-393.17-82.7-33.64-160.84-65.27-228.12-107.29l-74.13-43.84c-228.32-133.13-573.26-334.28-671.42-1006.94-106.73-731.54 317.98-1792.12 336.18-1836.71 7.06-17.73 26.78-26.32 44.51-19.63 17.44 6.85 26.49 26.29 20.3 44.02zm2614.67 810.44c-69.47 183.62-300.65 366.2-520.86 384.41-220.22 17.99-605.38-320.86-605.38-320.86 187.16 28.4 235.36-219.74 404.22-346.18 168.67-126.46 254.61-11.72 400.21 137.51 145.42 149.23 391.27-38.32 321.81 145.12zm-5482.31-2804.1c54.47 161.38 179.28 297.75 179.28 297.75-881.61 114.9-1362.05-1026.02-1249.82-898.05 112.24 127.87 435.73 234.36 626.37 270.7 190.52 36.58 389.81 168.7 444.17 329.6zm640.15-305.07c14.38 167.75-209.45 538.84-360.75 693.38 0 0-16.2-212.74-30.89-308.29-14.69-95.51-39.19-414.38 71.7-549.58 110.91-135.6 261.81-290.06 332.3-406.88 70.38-116.67-26.64 403.38-12.36 571.37zm856.7 343.38s-185.25 295.41-334.72 385.65c-149.74 90.25-562.75 156.7-761.44-2.19 0 0 164.49-169.5 372.85-271.17 208.45-102.09 562.35-4.58 723.31-112.29zm3507.9-527.98c-10.68 8.97-1055.63 900.59-1961.47 1172.37-868.09 260.13-1572.47 226.21-1851.97 164.84l-52.58-11.52 51.54-15.35c5.25-1.71 532.67-161.99 719.26-407.27l18.1-23.44c199.91-263.57 534.96-704.34 964.43-856.93 348.66-123.74 730.69-76.53 1037.42-38.66l227.19 24.84c335.42 25.33 686.46 11.57 834.92-32.94zm598.98 1704.84c-85.56 249 98.73 573.08 98.73 573.08-539.15-202.59-607.19-713.06-552.69-972.53 54.31-259.57 384.32-1068.01 384.32-1068.01 232.41 740.78 155.22 1218.56 69.64 1467.46zm1727.18 109.75s-40.19 467.43-260.67 566.36c0 0-152.55-470 260.67-566.36z" />
      <path class="bg"
        d="M9679.86 17152.46c288.3 345.48 462 733.53 510.02 1147.09 49.72 426.1-35.33 876.83-237.98 1304.41l-1.07 6.06c-1.31 7.27-5.34 13.1-10.39 17.77-115.78 238.61-268.1 469.73-454.41 684.88-218.07 252.17-434.27 426.66-646.13 522.8 111.82 23.78 267.46 86.43 432.41 243.66 44.41-36.03 93.81-60.89 139.56-69.13 151.83-27.21 255.43 95.87 255.43 95.87 103.69 138.26 193.3 215.8 193.3 215.8 74.82 47.04 271.5 50.74 271.5 50.74l-227.84 56.19c116.11 289.94 81.61 546.63 81.61 546.63-26.97-197.34-298.3-263.26-298.3-263.26-63.39 48.72-76.46 180.77-79.1 225.66 10.33-361.11-367.82-295.91-454.01-491.79-50.94-115.78-6.63-235.25 69.22-320.28-250.66-236.31-476.99-238.99-530.8-235.83-67.27 19.06-134.05 30.44-200.21 33.17-302.44 12.42-475.74-154.14-483.03-160.98-13.1-12.99-13.27-33.9-.55-47.45 13.13-13.12 34.17-13.53 47.28-.54.45.45 14.51 13.63 40.27 31.62 260.03-149.09 264.19-494.48 257.86-609.21-642.16-372.31-421.02-1018.94-394.7-932.01 26.69 87.68 370.4 377.66 319.25 187.51-51.15-190.25 90.5-798.41 102.33-483.3 11.66 314.95 206.47 516.65 236.96 750.16 22.11 171.05-121.51 352.93-199.78 437.89 6.93 60.99 42.94 486.66-257.29 687.78 74.6 38.78 186.69 77.89 330.4 71.64 54.33-2.39 109.24-11.03 164.62-25.42 4.06-2.89 8.62-5.17 13.88-6.02l12.03-1.4c153.19-44.85 310.14-135.17 469.73-270.32 115.01-154.23 255.95-413.33 146.06-658.65-170.84-381.89-268.11-456.01-167.19-641.46 92.98-170.37 827.76 364.09 122.94 1208.58 60.27-57.83 120.88-121.91 181.76-192.27 186.36-215.32 337.93-446.73 452.01-685.41 12.4-84.63 65.96-546.32-166.65-970.69-25.44 10.63-53.4 15.46-81.5 13.58-102.29-6.7-148.82-104.06-148.82-104.06-43.86-106.82-88.52-171.78-88.52-171.78-40.62-42.79-166.64-77.12-166.64-77.12l156.15.55c-26.66-207.47 38.39-368.98 38.39-368.98-15.55 132.66 148.69 219.77 148.69 219.77 49.87-21.94 80.53-108.99 88.89-135.61-69.89 235.3 129.97 279.73 152.89 421.71 11.66 71.74-8.17 127.44-43.74 164.29 168.05 302.07 196.58 617.17 192.75 819.32 140.46-361.02 195.39-733.17 154.11-1087.27-48.02-413.78-218.39-792.28-508.16-1131.01 0 0 11.67-30.13 20.87-33.99 10.32-4.31 43.64 10.11 43.64 10.11zm-71.39 4785.17c-.14 4.98-.36 10.03-.65 15.17 0 0 .09-5.6.65-15.17zm-6930.8-8890.64c-92.76 249.2-440.33 225.85-440.33 225.85-667.68-95.63-848.71-760.5-848.71-760.5-5.67-114.78 75.94 42.75 75.94 42.75 270.95 481.61 645.4 529.32 815.51 398.29 230.72-178.05 453.3-55.95 397.59 93.61zm4698.2 2234.85c-5.14-1.62-523.63-149.85-793.77-118.51-268.33 31.08-800.42-81.75-1057.63-336.66-79.66-78.85-164.47-184.71-254.52-296.83-182.2-227.39-388.79-484.58-572.12-524.5l-1.43-.39 7.06-27.01 1.24.37c5.9 1.68 586.22 180.01 947.56 148.09 340.76-30.07 1325.3 254.38 1740.19 1135.9l12.96 27.68z" />
      <path class="bg"
        d="M7983.37 14085.21c-1.57 856.63-449.74 1654.3-1331.55 2372.13 134.13 111.92 228.55 285.01 173.48 470.74-91.23 307.4-666.85 280.7-580.73 817.06-11.84-63.57-56.3-261.07-160.85-322.36 0 0-390.86 148.23-393.3 446.45 0 0-100.07-374.73 17.45-826.9l-349.38-41.02s291.56-42.24 394.07-125.88c0 0 118.28-131.7 245.94-356.24 0 0 130.85-202.19 361.68-189.88 67.51 3.6 143.2 29.87 214.24 72.84 872.19-703.41 1315.39-1482.72 1317.42-2316.94.24-108.67-7.31-215.66-21.13-320.77l-9.29-64.22c-209.35-1328.32-1436.17-2330.27-1449.81-2341.04-11.81-9.1-1081.09-823.36-1727.14-1750.58 50.93 378.32 97.38 1348.58-636.4 1913.07-465.59 358.21-890.17 319.5-1163.88 223.88-457.05-159.63-778.65-574.91-859.76-902.65-47.49-190.41-1.22-375.44 120.71-482.64 112.84-99.3 271.48-116.21 446.92-47.95 23.56 9 35.3 35.72 26.2 59.22-9.31 23.61-35.87 35.26-59.43 26.07-142.01-55.15-267.43-43.9-353.04 31.34-94.62 83.26-130.86 237.16-92.56 391.9 75.47 303.82 374.83 689.42 801.28 838.07 252.5 88.28 644.5 123.44 1077.81-209.84 747.46-575.1 749.83-1581.98 387.85-2359.14-222.44-477.48-355-918.99-433.92-1268.85 0 0 20.56-41.63 33.98-47.2 11.97-4.96 51.15 8.3 51.15 8.3 77.09 346.92 208.46 789.18 431.96 1268.79 511.41 1098.61 1989.68 2224.48 2004.68 2235.79 14.77 11.84 1271.26 1037.32 1484.53 2404.48 82.71-10 156.44-23.78 218.87-38.27-42.72-155.07-95.17-199.59-107.81-432.02-13.78-252.56 172.25-325.95 172.25-325.95 256.27 371.46 92.01 426.84-34.16 750.68 73.44-18.28 129.03-36.71 162.55-48.95 20.08-20.53 313.27-318.66 499.56-414.43 0 0-35.21 128.64-61.14 273.48-24.27 135.94-119.63 398.15-384.64 189.91-22.27 9-82.53 31.89-172.78 55.73 92.27 27.05 265.42 102.56 312.54 295.44 65.09 266.58 54.66 305.07 133.99 368.24 77.64 61.77-692.68-201.14-518.86-646.03-61.26 13.77-132.32 26.67-211.18 36.25 14.14 108.06 21.87 218.08 21.63 329.89zm894.34 1618.84c-161.98 167.07-566.5 396.93-472.2 948.22 0 0-349.42-1310.63 686.54-1343.19 0 0-52.42 227.98-214.34 394.97zm1009.26 721.02c-27.54 101.27 88.99 281 43.68 423.03-45.23 142.25-249.85 166.98-249.85 166.98-178.45-335.7 233.67-691.19 206.17-590.01z" />
    </g>
  </g>
</svg>