<svg xml:space="preserve" width="210mm" height="210mm" version="1.1" style="background-color:#fff"
  viewBox="0 0 21000 21000" shape-rendering="geometricPrecision" text-rendering="geometricPrecision"
  image-rendering="optimizeQuality" fill-rule="evenodd" clip-rule="evenodd" xmlns="http://www.w3.org/2000/svg">
  <defs>
    <style>
      svg {
        background-color: #fff;
      }

      .bg {
        fill: #fff
      }

      .fg {
        fill: #201922;
      }
    </style>
  </defs>
  <g transform="translate(-.016 -4350.025)">
    <g transform="matrix(.66676 0 0 .66678 3503.79 4947.988)">
      <path class="fg"
        d="M10492.87-149.47c8284.28 0 15000 6715.72 15000 15000 0 8284.28-6715.72 15000-15000 15000-8284.28 0-15000-6715.72-15000-15000 0-8284.28 6715.72-15000 15000-15000z" />
      <path class="bg"
        d="M14031.99 24259.96c316.24 49.1 632.48 98.19 896.99 152.07 264.52 53.88 477.32 112.55 690.11 171.21 289.78 93.4 559.76 201.87 803.7 321.24 537.11 262.81 948.09 578.55 1254.12 879.29 37.91 37.26 74.22 74.29 109.1 111.11-3.32-103.38-4.58-256.82-3.31-488.59.46-85.48 1.28-181.63 2.39-285.53-345.67-283.13-722.14-536.32-1098.6-745.46-309.1-171.72-618.22-313.78-928.07-428.37l-313.95-106.71c-413.84-128.4-829.46-209.32-1253.88-233.97-425.09-24.69-859.01 7.06-1299.99 70.56-162.97 23.47-326.9 51.28-489.04 82.48-1.13 63.07-2.45 121.39-3.94 173.46-4.49 156.53-10.73 256.69-18.11 320.69 517.35-48.59 1092.02-48.06 1652.48 6.52z" />
      <path class="bg"
        d="M12170.19 23097.07c-238.08 74.73-465.25 157.35-665.32 236.94-1.49 30.46-2.12 71.3-2.58 128.04-.7 84.58-1.08 204.56-1.42 322.54 223.36-66.35 449.21-127.69 679.18-180.64-4.15-156.67-7.63-331.44-9.86-506.88z" />
      <path class="bg"
        d="M15446.98 23630.48l312.63 94.17c22.72 7.46 45.37 15.04 67.87 22.71 548.57 186.97 1031.87 433.92 1467.55 733.78 173.31 119.28 339.09 246.93 493.32 374.41 1.82-132.75 6.65-325.75 9.11-468.63-392.67-310.1-1287.94-835.2-1767.14-1049.67-91.47-40.94-183.09-79.46-274.68-115.55-100.81-36.84-201.63-73.67-302.44-110.51-344.94-116.22-686.34-197.87-1013.91-244.9-509.75-73.2-986.01-62.61-1489.6 31.75-179.19 33.58-361.86 77.78-541.48 128.2-.65 181.58-1.8 364.07-3.7 529.03 535.58-108.85 1090.82-168.67 1643.2-146.58 478.09 19.12 954.08 99.62 1399.27 221.79z" />
      <path class="bg"
        d="M12168.31 22908.04c-.85-119.46-1.02-236.29-.3-344.8-111.85 43.52-221.71 88.09-328.05 132.6 38.79 16.77 71.71 43.82 94.58 77.41 42.33 62.18 50.27 146.84 23.37 209.9-.77 1.8-1.57 3.58-2.39 5.35 73.52-28.48 144.6-55.4 212.79-80.46z" />
      <path class="bg"
        d="M15455.88 22886.95c98.81 33.48 197.63 66.95 296.44 100.43 337.94 122.99 674.48 274.35 996.78 446.89 376.45 201.52 733.52 431.96 1052.04 664.5 4.21-211.91 8.93-422.28 13.94-616.89-354.03-251.44-729.68-475.93-1116.25-667.62-316.74-157.05-640.81-292.12-957.18-400.77-93.01-29.86-186.02-59.73-279.03-89.59-225.05-67.14-443.74-119.74-650.26-156.11-575.91-101.41-1057.46-76.72-1603.38 56.45-258.73 63.11-531.92 150.61-799.95 248.18.02 109.32-.04 228.37-.27 351.1 356.82-118.58 646.73-179.41 1014.53-200.65 442.73-25.57 998.37 6.18 1578.68 140.23 150.04 34.66 301.73 76.18 453.91 123.85z" />
      <path class="bg"
        d="M15465.89 22050.5l269.03 68.13c137.13 37.99 274.48 81.09 411.82 129.42 572.66 201.51 1145.31 494.18 1678.37 879.48 2.59-82.44 5.22-158.91 7.86-227.72 8.65-225.57 17.43-368.95 26.14-459.59-255.51-169.59-512.16-322.53-756.33-453.23-506.98-271.4-960.19-447.04-1387.3-552.96-80.52-17.72-161.04-35.43-241.56-53.15-37.52-7.2-74.9-13.89-112.1-20.07-530.93-88.18-1031.88-74.08-1564.58 17.64-449.42 77.38-921.45 210.03-1391.94 401.06 3.16 61.34 3.32 180.53 3.54 414.59 0 3.5.01 7.06.01 10.62 54.83-19.12 109.18-37.34 162.97-54.57 641.57-205.48 1206.02-270.75 1788.98-247.82 362.68 14.26 732.54 62.67 1105.09 148.17z" />
      <path class="bg"
        d="M10351.52 23722.25c-27.34 13.67-68.8 46.31-76.3 68.8-7.49 22.49 18.97 34.83 45.87 33.95 26.9-.88 54.24-14.99 68.35-34.84 14.11-19.84 15-45.41 8.82-60.85-6.17-15.43-19.4-20.73-46.74-7.06z" />
      <path class="bg"
        d="M10043.71 23923.34c-26.45-102.74-65.26-302.95-86.43-455.97-21.16-153.01-24.69-258.85-29.54-313.53-4.85-54.68-11.03-58.21-61.74-42.78-50.71 15.44-145.96 49.83-233.28 86.87-87.31 37.05-166.68 76.73-211.22 85.55-44.54 8.82-54.24-13.22-17.64-48.94s119.51-85.11 206.38-128.33c86.87-43.21 177.71-80.25 239.44-94.36 61.74-14.11 94.38-5.3 115.54-11.03 21.17-5.73 30.87-26.02 63.06-52.04 32.19-26.01 86.88-57.76 138.91-74.08 52.04-16.31 101.42-17.2 145.08-4.85 43.66 12.35 81.58 37.92 102.75 80.69 21.17 42.78 25.58 102.76 4.41 165.82-21.16 63.06-67.91 129.2-111.13 171.53-43.21 42.34-82.9 60.86-84.23 46.75-1.32-14.11 35.73-60.86 58.66-115.1 22.93-54.24 31.75-115.97 11.9-153.46-19.84-37.48-68.35-50.7-111.57-48.06-43.21 2.65-81.14 21.17-106.28 52.48-25.13 31.31-37.47 75.4-38.8 141.99-1.32 66.59 8.38 155.66 18.08 263.7 9.7 108.04 19.41 235.04 26.46 331.61 7.06 96.58 11.47 162.72 6.62 193.15-4.85 30.43-18.97 25.14-45.43-77.61z" />
      <path class="bg"
        d="M9080.19 23721.37c131.85-56 399.08-160.07 546.36-212.99 147.29-52.91 174.63-54.68 191.38-44.1 16.76 10.59 22.94 33.52-109.8 96.14-132.73 62.62-404.37 164.92-553.42 219.16-149.05 54.24-175.51 60.42-188.3 54.68-12.79-5.73-11.9-23.37-13.23-36.16-1.32-12.79-4.84-20.72 127.01-76.73z" />
      <path class="bg"
        d="M9183.81 24183.07c124.36-59.97 373.95-161.39 515.06-207.7 141.11-46.3 173.75-37.48 186.53-22.49 12.79 15 5.74 36.16-127 95.69-132.73 59.54-391.14 157.43-528.29 202.41-137.14 44.98-153.01 37.05-161.39 23.82-8.38-13.23-9.26-31.75 115.09-91.73z" />
      <path class="bg"
        d="M8791.34 24230.7c-34.39-133.17-79.37-355.43-104.51-564.45-25.13-209.02-30.42-404.81-18.07-528.28 12.35-123.47 42.33-174.63 115.97-211.67 73.65-37.04 190.94-59.98 282.22-40.14 91.29 19.85 156.55 82.47 179.48 148.17 22.94 65.71 3.53 134.51-63.94 195.36-67.47 60.86-183 113.77-209.02 115.53-26.02 1.77 37.48-47.62 81.13-97.01 43.66-49.39 67.48-98.78 65.27-144.64-2.2-45.86-30.43-88.2-81.14-106.28s-123.91-11.9-175.95 11.91c-52.03 23.81-82.9 65.27-101.42 104.95-18.52 39.69-24.7 77.62-21.17 179.92 3.53 102.31 16.76 268.99 31.75 412.75 15 143.76 31.75 264.58 48.95 384.97 17.2 120.39 34.84 240.33 31.75 278.25-3.08 37.93-26.9-6.16-61.3-139.34z" />
      <path class="bg"
        d="M8296.57 24908.02c373.95-141.99 1128.9-399.51 1546.06-537.1 417.16-137.58 496.54-155.22 538.87-155.22 42.33 0 47.63 17.64-356.31 166.69-403.93 149.05-1217.08 429.51-1633.36 571.5-416.28 142-435.69 145.52-448.92 134.05-13.23-11.46-20.28-37.92 353.66-179.92z" />
      <path class="bg"
        d="M8290.4 25395.74c429.51-151.69 1286.77-439.2 1706.57-570.62 419.81-131.41 402.17-106.71 393.35-84.67-8.82 22.05-8.82 41.46-350.14 169.34-341.31 127.88-1023.93 364.25-1428.75 504.48-404.81 140.23-531.82 184.32-611.2 207.25-79.37 22.93-111.12 24.7-127 14.11-15.87-10.58-15.87-33.51-14.99-52.91.89-19.4 2.65-35.28 432.16-186.98z" />
      <path class="bg"
        d="M7249.71 25797.93c-187.85 45.86-565.33 167.56-1011.6 246.05-446.27 78.49-961.32 113.77-1454.33 86.43-493.01-27.34-963.97-117.3-1314.99-235.48-351.01-118.18-582.08-264.59-699.38-328.97-117.3-64.38-120.83-46.74 38.8 52.92s482.43 281.34 844.91 402.16c362.48 120.83 764.65 180.81 1162.41 204.62 397.76 23.81 791.1 11.47 1165.04-40.57 373.95-52.03 728.5-143.76 967.5-212.55 239.01-68.79 362.49-114.66 425.11-152.58 62.62-37.92 64.39-67.89-123.47-22.03z" />
      <path class="bg"
        d="M7679.69 24079.03c5.74 294.57.43 885.48-8.84 1199.45-9.26 313.97-22.48 351.01-41 93.48s-42.34-809.63-54.69-1122.28c-12.34-312.65-13.23-385.85-10.14-423.33 3.09-37.48 10.14-39.25 23.37-39.69 13.23-.44 32.64.44 50.72 0 18.09-.44 34.85-2.2 40.58 292.37z" />
      <path class="bg"
        d="M8542.69 24327.74c-77.61 8.82-224.02 41.46-331.18 73.21-107.15 31.75-175.06 62.62-211.66 93.04-36.6 30.43-41.89 60.42 0 59.97 41.9-.44 130.97-31.3 245.18-70.55 114.22-39.25 253.56-86.87 318.82-118.18 65.27-31.31 56.45-46.31-21.16-37.49z" />
      <path class="bg"
        d="M8450.53 23867.37c-86.87 21.17-250.03 82.02-358.95 123.91-108.92 41.9-163.61 64.83-175.52 85.11-11.9 20.29 18.97 37.92 97.46 26.45 78.5-11.46 204.61-52.02 303.39-93.47 98.78-41.45 170.22-83.79 200.65-114.22 30.43-30.42 19.84-48.95-67.03-27.78z" />
      <path class="bg"
        d="M8442.59 23468.29c-54.24 9.26-150.37 40.13-249.59 65.26-99.22 25.14-201.52 44.54-260.17 71.44-58.65 26.9-73.65 61.29-52.48 74.08 21.17 12.79 78.49 3.97 168.45-21.61 89.96-25.57 212.55-67.91 296.77-99.66 84.23-31.75 130.09-52.91 146.84-69.67 16.76-16.76 4.42-29.1-49.82-19.84z" />
      <path class="bg"
        d="M7389.55 23653.93c-41.01 11.47-92.17 31.76-137.59 41.02-45.42 9.26-85.1 7.49-102.74 18.96s-13.24 36.16 13.22 48.95c26.46 12.79 74.97 13.67 120.39 1.32s87.76-37.92 122.15-61.3c34.4-23.37 60.85-44.53 58.64-53.79-2.2-9.26-33.06-6.62-74.07 4.84z" />
      <path class="bg"
        d="M5802.48 24273.06c78.5 7.06 245.18 25.58 405.25 29.99 160.08 4.41 313.54-5.29 412.32-14.11 98.78-8.82 142.87-16.75 145.07-40.13 2.21-23.37-37.47-62.17-62.17-104.95-24.69-42.77-34.4-89.52-19.85-127.89 14.56-38.36 53.36-68.34 111.57-89.95 58.21-21.61 135.82-34.84 206.37-44.1 70.56-9.26 134.06-14.55 153.9 9.7 19.85 24.26-3.96 78.06-45.41 115.1-41.45 37.04-100.55 57.33-119.51 78.49-18.96 21.17 2.2 43.22 32.63 56.01 30.43 12.79 70.12 16.31 97.9 29.98 27.78 13.67 43.66 37.49 58.21 216.52 14.55 179.04 27.78 513.29 25.57 717.46-2.2 204.17-19.84 278.26-46.3 347.49-26.46 69.23-61.73 133.62-111.56 168.89-49.83 35.28-114.22 41.46-172.43 26.02-58.2-15.43-110.24-52.48-143.75-104.07-33.51-51.59-48.51-117.74-41.46-179.04 7.06-61.29 36.17-117.73 69.68-153.89 33.51-36.16 71.44-52.04 74.96-37.49 3.53 14.56-27.33 59.54-40.56 109.37-13.23 49.83-8.82 104.51 11.46 146.4 20.29 41.89 56.45 71 102.75 67.91 46.3-3.09 102.75-38.36 135.82-82.02 33.07-43.66 42.78-95.69 51.15-166.69 8.38-71 15.44-160.95 11.91-308.68-3.53-147.73-17.64-353.22-26.02-470.96-8.38-117.74-11.02-147.73-35.72-176.39-24.69-28.66-71.44-56.01-106.28-52.92-34.83 3.09-57.76 36.6-71.87 73.2-14.11 36.61-19.41 76.29-74.53 93.93-55.12 17.64-160.07 13.23-322.79 2.2-162.72-11.02-383.2-28.66-526.52-51.15s-209.46-49.83-229.75-64.38c-20.28-14.55 5.29-16.32 13.23-19.41 7.94-3.08-1.76-7.49 76.73-.44z" />
      <path class="bg"
        d="M6776.59 24737.85c-43.65-13.23-136.26-13.23-245.18-19.41-108.92-6.17-234.15-18.51-338.22-37.48-104.07-18.96-186.98-44.53-268.56-68.35-81.58-23.81-161.84-45.85-190.07-45.85-28.22 0-4.4 22.04 51.16 57.76 55.56 35.72 142.88 85.11 246.06 118.62 103.19 33.52 222.26 51.16 332.5 61.74 110.24 10.59 211.67 14.11 284.43 12.79 72.76-1.32 116.85-7.5 141.54-23.82 24.7-16.31 30-42.77-13.66-56z" />
      <path class="bg"
        d="M5641.53 25501.17c49.83-3.96 148.6-1.32 253.55-7.49 104.96-6.17 216.08-21.17 319.71-38.81 103.63-17.63 199.76-37.92 236.36-37.04 36.6.89 13.67 22.93-43.22 48.51-56.88 25.58-147.72 54.68-253.11 74.08-105.39 19.41-225.34 29.11-315.3 28.67-89.95-.44-149.93-11.03-186.53-19.85-36.6-8.82-49.83-15.87-56.01-24.69-6.17-8.82-5.28-19.41 44.55-23.38z" />
      <path class="bg"
        d="M5063.4 25237.91c-38.8-13.22-96.12-29.1-149.92-15.43-53.8 13.67-104.07 56.89-128.33 120.83-24.25 63.94-22.48 148.61 10.15 215.2 32.63 66.59 96.13 115.09 168.45 129.64 72.32 14.56 153.46-4.85 222.69-67.91 69.24-63.06 126.56-169.77 136.7-200.64 10.15-30.87-26.9 14.11-67.91 51.15s-85.99 66.15-131.85 82.02c-45.86 15.88-92.61 18.52-132.3-1.32-39.68-19.84-72.31-62.18-83.34-100.1-11.02-37.92-.43-71.44 28.67-98.34 29.1-26.9 76.73-47.18 114.21-59.53 37.48-12.35 64.82-16.76 68.35-24.26 3.53-7.49-16.76-18.08-55.57-31.31z" />
      <path class="bg"
        d="M4331.39 23021.14c123.47 72.76 374.83 230.63 648.23 348.81 273.4 118.18 568.86 196.68 818.45 243.42 249.59 46.74 453.32 61.74 641.61 69.67 188.3 7.94 361.17 8.82 420.7 21.61 59.53 12.79 5.73 37.48-108.93 67.47-114.65 29.99-290.15 65.26-441.41 113.33-151.25 48.07-278.25 108.92-421.13 152.58-142.87 43.66-301.63 70.11-383.65 91.28-82.02 21.17-87.31 37.04-91.72 194.91-4.41 157.87-7.93 457.73-15.87 615.15-7.94 157.43-20.29 172.43-35.29-23.37-14.99-195.79-32.62-602.36-33.06-795.07-.44-192.7 16.31-171.54 41-149.49 24.7 22.05 57.33 44.98 106.72 52.47 49.39 7.5 115.53-.43 287.07-41.44s448.48-115.1 590.03-153.47c141.55-38.36 147.73-41-13.23-62.61-160.96-21.61-489.04-62.18-790.23-137.59-301.18-75.4-575.47-185.65-782.73-289.72-207.25-104.07-347.48-201.96-428.18-261.94-80.7-59.97-101.86-82.01-114.65-99.21-12.79-17.2-17.2-29.55 106.27 43.21z" />
      <path class="bg"
        d="M4692.11 23966.59c-45.86-35.72-158.75-93.92-216.08-112.89-57.32-18.96-59.09 1.33-31.31 29.99 27.79 28.66 85.11 65.71 131.85 91.28 46.75 25.58 82.91 39.69 111.57 40.13 28.67.44 49.83-12.79 3.97-48.51z" />
      <path class="bg"
        d="M4538.65 24377.58c-51.15-41.01-158.74-100.98-221.8-124.79-63.06-23.81-81.59-11.47-75.86 6.61 5.74 18.08 35.72 41.9 76.29 71.88 40.57 29.99 91.73 66.15 137.15 89.08 45.42 22.93 85.1 32.63 107.59 26.45 22.49-6.17 27.79-28.22-23.37-69.23z" />
      <path class="bg"
        d="M4362.26 24584.4c24.7 32.63 62.63 73.2 119.51 93.92 56.89 20.73 132.73 21.62 195.79-12.34 63.06-33.95 113.33-102.75 126.12-182.13 12.79-79.37-11.91-169.33-12.79-220.04-.88-50.71 22.05-62.18 59.53-101.87 37.49-39.68 89.52-107.59 101.43-180.35 11.91-72.76-16.32-150.38-71-203.74-54.68-53.35-135.82-82.46-162.28-88.19-26.46-5.73 1.77 11.91 37.48 41.45 35.72 29.55 78.94 71 104.07 108.04 25.14 37.04 32.19 69.68 25.13 104.95-7.05 35.28-28.21 73.21-82.01 101.87-53.8 28.66-140.23 48.07-174.19 63.94-33.95 15.88-15.43 28.22 4.85 52.91 20.29 24.7 42.34 61.75 53.8 114.22 11.47 52.48 12.35 120.39-3.09 171.1-15.43 50.71-47.18 84.23-88.19 100.1-41.01 15.88-91.28 14.11-139.79 3.53-48.5-10.58-95.25-29.99-112.89-27.35-17.63 2.65-6.17 27.35 18.52 59.98z" />
      <path class="bg"
        d="M4175.75 24750.23c-51.59 55.12-150.81 166.24-202.41 229.96-51.6 63.72-55.57 80.03-15 124.79 40.57 44.76 125.68 117.97 170 160.74 44.32 42.78 47.84 55.12 30.42 105.61-17.41 50.5-55.78 139.13-69.67 178.6s-3.3 29.76 64.16-70.56c67.47-100.32 191.83-291.26 244.74-380.56 52.92-89.29 34.4-76.95-15.87-42.33-50.27 34.62-132.3 91.5-178.82 117.74-46.52 26.24-57.55 21.83-84.45-3.97-26.89-25.8-69.67-72.98-83.78-108.26s.44-58.65 47.62-121.27c47.19-62.62 127-164.48 157.87-211.67 30.87-47.18 12.79-39.69 1.77-36.38-11.02 3.31-14.98 2.44-66.58 57.56z" />
      <path class="bg"
        d="M3351.14 24885.17c38.81 41.89 118.19 97.45 194.03 139.34 75.85 41.89 148.17 70.12 189.18 75.41 41.01 5.29 50.72-12.35 24.26-33.52-26.46-21.16-89.08-45.86-150.82-77.17-61.73-31.3-122.59-69.23-171.1-104.07-48.5-34.83-84.66-66.58-103.62-68.35-18.96-1.76-20.73 26.47 18.07 68.36z" />
      <path class="bg"
        d="M3065.84 24580.01c-39.25 69.24-114.21 222.69-173.31 319.26-59.09 96.58-102.3 136.27-163.16 157.88-60.85 21.61-139.35 25.13-155.67 7.49-16.31-17.64 29.56-56.44 67.92-129.65 38.37-73.2 69.23-180.79 51.15-272.52-18.08-91.72-85.1-167.56-160.51-186.53-75.41-18.96-159.19 18.97-212.55 111.13-53.36 92.16-76.29 238.57-48.95 361.16 27.34 122.59 104.96 221.36 194.03 268.54 89.08 47.19 189.62 42.78 283.1-35.27 93.49-78.05 179.92-229.75 239.45-348.81s92.17-205.49 106.72-256.2c14.55-50.71 11.03-65.71-28.22 3.52z" />
      <path class="bg"
        d="M3438.46 23692.33c-34.39 96.13-94.37 291.05-125.68 398.64-31.31 107.6-33.95 127.89-20.28 122.15 13.67-5.73 43.65-37.48 91.27-158.31 47.63-120.82 112.9-330.73 133.62-421.13 20.73-90.4-3.08-61.29-19.4-48.07-16.31 13.23-25.13 10.59-59.53 106.72z" />
      <path class="bg"
        d="M3025.71 23649.56c22.05-82.46 71.44-233.28 152.58-346.61 81.14-113.33 194.02-189.17 339.98-207.7 145.97-18.52 325 20.29 458.17 101.87 133.18 81.58 220.5 205.93 229.32 381 8.82 175.07-60.86 400.84-160.96 543.71-100.1 142.88-230.63 202.86-346.17 235.05-115.53 32.19-216.07 36.6-223.13 17.19-7.05-19.4 79.38-62.61 183.45-141.55 104.07-78.93 225.78-193.59 286.19-317.5 60.42-123.91 59.53-257.09 13.67-359.84-45.86-102.74-136.7-175.06-260.18-188.29-123.47-13.23-279.57 32.64-386.73 82.47-107.16 49.83-165.36 103.62-206.82 156.09-41.45 52.48-66.14 103.64-81.14 122.16-14.99 18.52-20.28 4.41 1.77-78.05z" />
      <path class="bg"
        d="M4187.23 21804.53c59.97-118.62 186.97-335.58 323.23-495.66 136.26-160.07 281.79-263.25 403.05-314.85 121.27-51.59 218.29-51.59 281.79 10.14 63.5 61.74 93.48 185.21 70.55 351.01-22.93 165.81-98.77 373.95-243.41 586.94-144.64 212.99-358.08 430.84-672.05 589.59-313.97 158.75-728.49 258.41-1015.56 379.67-287.07 121.27-446.71 264.15-524.32 434.8-77.61 170.66-73.2 369.1-26.9 537.99 46.3 168.9 134.5 308.24 167.57 382.76 33.07 74.53 11.03 84.24-66.59-13.22-77.61-97.45-210.78-302.07-253.12-538.87-42.33-236.8 6.18-505.8 108.93-701.15 102.75-195.35 259.73-317.06 474.04-425.54 214.32-108.48 485.96-203.73 771.71-325.88 285.75-122.15 585.61-271.2 768.61-394.68 183.01-123.47 249.15-221.36 274.73-302.06 25.58-80.7 10.58-144.2-33.08-172.87-43.65-28.66-115.97-22.48-196.23 10.59-80.25 33.07-168.45 93.05-276.05 193.15-107.59 100.1-234.59 240.33-301.62 308.24s-74.08 63.5-81.14 51.15c-7.06-12.34-14.11-32.63 45.86-151.25z" />
      <path class="bg"
        d="M3777.12 22109.68c-74.96-52.48-217.84-165.36-283.1-366.45-65.26-201.08-52.92-490.36 50.27-752.3 103.19-261.94 297.21-496.54 433.03-627.95 135.82-131.41 213.44-159.63 260.18-164.92 46.74-5.29 62.62 12.34-40.57 118.17-103.19 105.84-325.44 299.87-464.79 497.43-139.34 197.56-195.79 398.64-213.87 561.8-18.08 163.17 2.21 288.4 33.07 382.77 30.87 94.37 72.33 157.87 126.57 217.4 54.24 59.53 121.26 115.1 151.24 146.84 29.99 31.75 22.94 39.69-52.03-12.79z" />
      <path class="bg"
        d="M6584.39 11283.35c-1.93-228.33-15.16-643.73-29.27-859.37-14.11-215.63-29.11-231.51-51.16-238.57-22.04-7.05-51.15-5.28-65.7 6.62-14.55 11.91-14.55 33.96 0 220.93 14.55 186.98 43.66 538.87 57.33 767.73 13.67 228.87 11.9 334.71 21.33 383.12 9.43 48.42 30.04 39.43 45.03 14.29 15-25.13 24.37-66.41 22.44-294.75z" />
      <path class="bg"
        d="M7400.46 10520.55c12.79-187.85 10.15-531.81.44-714.37-9.7-182.57-26.45-203.73-61.29-205.05-34.84-1.33-87.75 17.2-108.04 41.01-20.28 23.81-7.94 52.92 14.55 205.49 22.49 152.58 55.13 428.63 71 603.25 15.88 174.63 14.99 247.83 28.66 268.55 13.67 20.73 41.9-11.02 54.68-198.88z" />
      <path class="bg"
        d="M6960.37 8880.58c56.89 14.55 176.84 53.35 254.45 108.92 77.61 55.56 112.88 127.88 105.38 206.82-7.49 78.93-57.76 164.48-175.06 242.53-117.3 78.05-301.62 148.61-529.17 221.37-227.54 72.76-498.29 147.72-689.24 203.28-190.94 55.57-302.06 91.73-375.71 131.86-73.64 40.13-109.8 84.22-114.21 119.5-4.41 35.28 22.93 61.74 123.91 73.64 100.99 11.91 275.61 9.27 393.79 21.61 118.19 12.35 179.92 39.69 123.92 112.01-56 72.32-229.75 189.62-451.12 320.15-221.37 130.53-490.36 274.28-638.09 353.21-147.73 78.94-174.18 93.05-236.36 92.61-62.18-.44-160.07-15.43-183-24.25-22.93-8.82 29.1-11.46 95.69-20.73 66.59-9.26 147.72-25.13 186.08-41.01 38.37-15.87 33.96-31.75 31.31-56.89-2.64-25.13-3.52-59.52 4.86-83.78 8.38-24.25 26.01-38.36 216.07-128.76 190.06-90.4 552.55-257.09 728.5-344.85 175.95-87.75 165.36-96.57 59.52-107.6-105.83-11.02-306.91-24.24-428.18-51.14-121.27-26.9-162.72-67.47-168.9-113.33-6.17-45.86 22.94-97.02 258.42-182.13 235.48-85.1 677.33-204.17 983.37-299.86 306.04-95.69 476.25-168.01 580.32-235.48 104.07-67.47 142-130.09 157.87-180.36 15.88-50.27 9.7-88.2-4.41-121.71-14.11-33.51-36.16-62.62-96.58-97.01-60.41-34.4-159.18-74.08-211.66-98.77-52.47-24.7-58.65-34.41-1.77-19.85z" />
      <path class="bg"
        d="M4974.23 8868.67c165.37-17.64 489.92-28.22 816.68-27.78 326.77.44 655.73 11.9 825.94 20.28 170.22 8.38 181.69 13.68 170.66 18.09-11.02 4.41-44.54 7.93-278.26 7.05-233.71-.88-667.62-6.18-981.16 1.76-313.53 7.94-506.67 29.1-608.54 39.25-101.86 10.14-112.45 9.26-114.66-3.52-2.2-12.79 3.98-37.49 169.34-55.13z" />
      <path class="bg"
        d="M4607.34 9251.88c57.77 227.98 183 650.44 254 874.01 71 223.57 87.75 248.27 104.07 259.73 16.32 11.47 32.19 9.7 47.18 3.97 15-5.73 29.11-15.44-34.83-226.67-63.94-211.22-205.94-623.97-287.08-858.56-81.14-234.6-101.42-291.05-116.42-302.51-14.99-11.47-24.69 22.05 33.08 250.03z" />
      <path class="bg"
        d="M4368.77 9246.15c55.57 215.19 162.28 624.42 225.78 833.44 63.5 209.02 83.79 217.84 101.87 221.81 18.08 3.97 33.95 3.08-21.61-207.71-55.56-210.78-182.57-631.47-256.21-850.63-73.64-219.17-93.93-236.8-101.87-235.03-7.93 1.76-3.52 22.92 52.04 238.12z" />
      <path class="bg"
        d="M3659.72 7239.28c97.9 312.65 291.92 929.14 406.57 1237.82 114.66 308.68 149.94 309.56 171.55 308.68 21.61-.88 29.54-3.53-72.33-308.68-101.86-305.15-313.52-912.82-432.59-1243.55-119.06-330.73-145.52-384.53-157.87-400.4-12.35-15.88-10.58 6.17-11.03 25.14-.44 18.96-3.08 34.83-3.52 47.18-.44 12.35 1.32 21.16 99.22 333.81z" />
      <path class="bg"
        d="M3518.61 6604.74c-17.63-45.86-40.56-155.23-41.44-218.29-.88-63.06 20.28-79.81 49.38-74.96 29.11 4.85 66.16 31.31 237.69 439.65 171.54 408.34 477.57 1198.56 627.05 1603.81 149.49 405.25 142.44 425.54 127 433.48-15.43 7.93-39.24 3.52-179.91-344.85s-398.2-1040.69-533.14-1403.17-147.28-395.12-160.95-421.13c-13.67-26.02-28.67-45.43-42.78-44.98-14.11.44-27.34 20.72-40.13 39.69-12.78 18.96-25.13 36.61-42.77-9.25z" />
      <path class="bg"
        d="M7147.86 7176.26c-41.45 83.78-110.25 239-225.35 401.72-115.09 162.72-276.48 332.93-504.91 508.88-228.42 175.95-523.88 357.64-671.17 458.62-147.28 100.98-146.39 121.27-112.44 123.48 33.96 2.2 100.98-13.68 323.67-152.14 222.7-138.47 601.05-399.52 838.73-621.77 237.69-222.26 334.71-405.7 384.1-531.82 49.39-126.12 51.15-194.92 49.39-234.6-1.76-39.69-7.06-50.28-16.76-49.39-9.7.88-23.81 13.23-65.26 97.02z" />
      <path class="bg"
        d="M6728.95 5129.25c-110.24 56.44-322.79 185.21-439.65 314.42-116.86 129.2-138.02 258.84-122.59 371.29 15.44 112.45 67.47 207.7 173.3 292.37 105.84 84.66 265.47 158.75 393.35 231.95 127.88 73.2 224.02 145.52 287.08 221.81 63.06 76.29 93.04 156.54 114.65 219.6s34.84 108.92 54.24 126.56c19.41 17.64 44.98 7.05 33.07-80.7-11.9-87.75-61.29-252.68-157.87-370.86-96.57-118.18-240.32-189.61-379.23-261.49-138.91-71.88-272.96-144.2-346.17-226.66-73.2-82.46-85.54-175.07-80.69-248.71 4.85-73.64 26.89-128.33 55.99-175.95 29.11-47.63 65.27-88.2 156.55-160.08 91.28-71.88 237.69-175.06 306.92-234.59 69.23-59.53 61.3-75.41-48.95-18.96z" />
      <path class="bg"
        d="M4708.84 4915.37c42.78-36.6 119.51-90.4 176.39-117.74 56.89-27.34 93.94-28.22 225.35-16.31 131.41 11.9 357.18 36.6 703.79 52.92 346.61 16.31 814.04 24.24 1042.47 37.03 228.43 12.79 217.84 30.43 202.4 42.78-15.43 12.35-35.71 19.4-371.74 6.62-336.02-12.79-987.78-45.43-1329.98-62.62-342.19-17.2-374.83-18.97-410.55-9.71-35.72 9.26-74.52 29.55-124.8 55.13-50.27 25.57-112 56.44-138.46 62.18-26.46 5.73-17.64-13.68 25.13-50.28z" />
      <path class="bg"
        d="M4487.91 4759.27c62.62-60.42 194.92-164.49 282.23-220.93 87.31-56.45 129.65-65.26 387.62-46.3 257.97 18.96 731.57 65.71 1089.64 89.52 358.08 23.81 600.61 24.69 715.26 35.28 114.66 10.58 101.44 30.86 72.77 44.53-28.66 13.67-72.76 20.73-392.47 5.3-319.71-15.44-915.02-53.37-1250.61-73.21-335.58-19.84-411.42-21.61-456.4-18.08-44.98 3.53-59.09 12.35-132.29 61.3-73.2 48.95-205.5 138.02-276.06 180.8-70.55 42.77-79.37 39.25-87.31 29.11-7.94-10.15-14.99-26.91 47.62-87.32z" />
      <path class="bg"
        d="M2449.74 6833.17c386.29-334.26 1185.34-1006.3 1597.2-1348.49 411.87-342.2 436.57-354.54 455.09-365.12 18.52-10.59 30.86-19.41-358.08 311.32-388.93 330.73-1179.16 1001-1583.97 1345.84-404.81 344.84-424.22 364.25-447.15 375.72-22.93 11.46-49.38 14.98 336.91-319.27z" />
      <path class="bg"
        d="M1702.73 7156.84c-39.68 19.4-96.13 29.99-129.64 34.4-33.51 4.41-44.1 2.64 396.87-370.42 440.98-373.06 1333.5-1117.42 1796.52-1497.54 463.02-380.12 496.54-395.99 519.47-396.87 22.93-.89 35.27 13.23-378.36 369.54-413.63 356.3-1253.24 1054.8-1677.46 1409.34-424.21 354.54-433.03 365.13-448.91 384.53-15.87 19.4-38.8 47.62-78.49 67.02z" />
      <path class="bg"
        d="M-742.02 9511.64C-256.07 9091.83 737 8245.16 1254.7 7813.89s560.04-447.14 576.79-448.02c16.76-.89 7.94 13.22-493.01 436.56C837.54 8225.76-155.53 9058.31-658.24 9479c-502.71 420.69-515.05 429.51-531.81 437.44-16.76 7.94-37.92 15 448.03-404.8z" />
      <path class="bg"
        d="M-1429.94 9812.38c-22.04 2.64-50.27-4.41-67.03-21.17-16.75-16.76-22.04-43.21 455.97-456.84 478.02-413.64 1439.34-1214.44 1935.87-1621.9 496.54-407.46 528.29-421.57 550.34-424.21 22.05-2.65 34.39 6.17-418.93 404.81S-346.02 8880.16-824.04 9293.8c-478.01 413.63-515.06 452.43-541.52 478.01-26.45 25.58-42.33 37.92-64.38 40.57z" />
      <path class="bg"
        d="M-765.83 9839.72c149.93-61.74 439.2-164.04 953.37-294.57 514.18-130.53 1253.25-289.28 1924.41-403.93 671.16-114.66 1274.41-185.21 1601.61-219.61 327.2-34.4 378.36-32.63 397.76-28.22 19.4 4.41 7.06 11.46-373.94 74.08s-1130.66 180.8-1817.7 314.86c-687.03 134.05-1311.44 283.98-1760.35 395.11-448.91 111.12-722.32 183.44-875.78 221.36-153.45 37.93-186.97 41.46-198.44 32.64-11.46-8.82-.87-29.98 149.06-91.72z" />
      <path class="bg"
        d="M-32.05 10260.4c956.03 67.91 2853.97 182.57 3811.76 235.48 957.8 52.92 975.43 44.1 948.09 27.34-27.34-16.75-99.66-41.45-1033.64-118.18-933.98-76.72-2729.62-205.49-3662.72-271.64-933.09-66.14-1003.65-69.67-1034.52-56.44-30.86 13.23-22.04 43.21-10.58 68.79 11.47 25.58 25.58 46.74 981.61 114.65z" />
      <path class="bg"
        d="M-190.8 10532.04c878.42 69.68 2629.96 187.86 3570.11 249.59 940.15 61.74 1068.92 67.03 1150.94 65.26 82.02-1.76 117.29-10.58 106.71-21.17-10.58-10.58-67.03-22.92-978.96-89.95-911.93-67.03-2679.34-188.73-3611.56-254.88-932.21-66.14-1029.23-76.73-1077.74-77.61-48.5-.88-48.5 7.94-45.86 22.93 2.65 15 7.95 36.16 886.36 105.83z" />
      <path class="bg"
        d="M-330.6 10778.99c930.02 84.67 2775.93 224.02 3712.12 293.69 936.19 69.67 962.65 69.67 952.06 54.68-10.58-14.99-58.2-44.98-959.55-130.97-901.35-85.99-2656.42-227.98-3567.03-304.71-910.61-76.73-976.75-88.2-1018.65-86.88-41.89 1.33-59.53 15.44-61.3 37.49-1.76 22.05 12.34 52.04 942.35 136.7z" />
      <path class="bg"
        d="M-1439.64 10431.07c-206.38-16.32-611.19-56-818.45-84.23-207.26-28.22-216.96-44.97-148.17-104.51 68.8-59.53 216.08-161.83 309.57-210.34 93.49-48.51 133.17-43.21 251.79-26.46 118.63 16.76 316.18 44.99 419.37 63.07s112.01 26.01-1.76 27.33c-113.77 1.33-350.14-3.97-484.64.44-134.49 4.41-167.13 18.53-206.38 44.98-39.24 26.46-85.1 65.27-98.77 88.64-13.67 23.37 4.85 31.31 175.06 57.33 170.22 26.02 492.14 70.11 654.86 97.45 162.72 27.34 166.24 37.93 164.03 46.74-2.2 8.82-10.13 15.88-216.51-.44z" />
      <path class="bg"
        d="M-2379.36 10816.04c-18.08 31.75-44.53 91.73-69.67 129.65-25.13 37.92-48.95 53.8-43.22 60.41 5.74 6.62 41.01 3.97 74.08-12.79 33.08-16.75 63.95-47.62 79.82-77.61 15.88-29.98 16.76-59.09 13.67-82.02-3.09-22.93-10.14-39.68-18.52-46.3-8.38-6.61-18.08-3.09-36.16 28.66z" />
      <path class="bg"
        d="M-3080.5 11313.9c72.76-70.99 221.8-203.29 324.55-354.55 102.75-151.25 159.19-321.46 192.7-412.75 33.52-91.28 44.11-103.62 229.76-80.25 185.65 23.37 546.36 82.46 732.01 119.94 185.65 37.49 196.24 53.36 31.75 43.22-164.48-10.14-504.03-46.3-683.51-63.5-179.47-17.2-198.88-15.43-227.1 41.89-28.22 57.33-65.27 170.22-117.75 284.87-52.47 114.66-120.38 231.07-191.38 318.38-70.99 87.32-145.08 145.53-198.88 179.04-53.79 33.52-87.31 42.33-110.24 40.56-22.93-1.76-35.27-14.1-43.21-25.13-7.94-11.02-11.46-20.72 61.3-91.72z" />
      <path class="bg"
        d="M-2833.81 11789.97c119.95-68.35 357.54-187.32 474.56-256.07 117.03-68.74 113.51-87.26 123.65-193.1 10.14-105.83 33.96-298.97 49.83-381 15.88-82.02 23.81-52.91 22.93 62.62-.88 115.54-10.58 317.5-21.17 429.95-10.58 112.45-22.04 135.38-152.57 204.17-130.53 68.79-380.12 183.45-503.6 230.63-123.47 47.18-120.82 26.9-118.35 7.89 2.48-19.01 4.78-36.74 124.72-105.09z" />
      <path class="bg"
        d="M-3310.26 12308.74c-10.58-114.21-7.93-332.05.88-451.56 8.82-119.5 23.82-140.66 113.33-203.72 89.52-63.06 253.57-168.02 373.51-248.28 119.95-80.25 195.79-135.82 224.45-152.14 28.67-16.31 10.15 6.62-83.34 84.67-93.48 78.06-261.94 211.23-358.95 287.52-97.01 76.29-122.59 95.69-138.91 115.97-16.31 20.29-23.36 41.46-31.74 153.02-8.38 111.57-18.09 313.54-25.15 420.25-7.05 106.72-11.46 118.18-25.57 118.62-14.11.45-37.92-10.14-48.51-124.35z" />
      <path class="bg"
        d="M-3361.41 11466.92c-36.16 12.35-102.3 50.27-136.7 89.08-34.4 38.81-37.04 78.49-51.16 224.89-14.11 146.41-39.68 399.53-33.51 537.55 6.18 138.03 44.1 160.96 76.29 168.01 32.2 7.06 58.65-1.76 69.23-24.69 10.59-22.93 5.3-59.98 4.86-204.18-.44-144.19 3.96-395.55 8.81-527.84 4.85-132.29 10.15-145.52 28.67-167.13 18.52-21.61 50.27-51.59 63.06-73.2s6.61-34.84-29.55-22.49z" />
      <path class="bg"
        d="M3044.19 12811.89c-564.45-79.37-1703.92-201.08-2739.33-315.74-1035.41-114.65-1966.74-222.24-2458.87-274.28-492.13-52.03-545.04-48.51-570.62-33.52-25.58 15-23.81 41.46-58.21 56.45-34.4 15-104.95 18.52-169.34 23.81-64.38 5.3-122.59 12.35-129.65 23.81-7.05 11.47 37.05 27.35 949.86 145.53 912.82 118.18 2694.36 338.66 3807.37 471.83 1113.02 133.18 1557.53 179.05 1802.71 203.74 245.18 24.7 291.04 28.22 274.28 4.41-16.76-23.81-96.13-74.97-134.06-104.96-37.92-29.98-34.39-38.8-27.34-61.73 7.06-22.93 17.65-59.97-546.8-139.35z" />
      <path class="bg"
        d="M3295.54 12600.22c-321.91-58.21-967.49-142.87-1964.98-265.46-997.48-122.59-2346.86-283.11-3068.3-360.72-721.43-77.61-814.91-72.31-861.66-59.97-46.74 12.35-46.74 31.75 567.98 119.06s1844.15 242.54 2867.21 368.66c1023.06 126.12 1839.75 223.13 2268.37 271.64 428.63 48.51 469.2 48.51 490.36 32.63 21.17-15.87 22.94-47.63-298.98-105.84z" />
      <path class="bg"
        d="M2813.11 12090.46c-948.97-134.05-2841.63-370.42-3795.9-477.14-954.26-106.71-970.14-83.78-978.96-65.26-8.82 18.52-10.58 32.64 832.56 146.41s2531.19 327.2 3482.81 444.5c951.62 117.3 1166.82 138.46 1280.59 147.28 113.77 8.82 126.12 5.3 129.65-12.34 3.53-17.64-1.77-49.39-950.75-183.45z" />
      <path class="bg"
        d="M3876.29 12941.56c-15.43-3.52-38.36-22.93-52.91-41.01-14.55-18.08-20.73-34.83-19.41-103.63 1.33-68.79 10.14-189.61 25.57-262.38 15.44-72.76 37.49-97.45 128.77-185.65 91.29-88.19 251.8-239.89 354.55-392.03 102.75-152.13 147.73-304.7 178.6-433.03 30.87-128.32 47.62-232.39 57.32-268.99 9.7-36.6 12.35-5.74 8.82 106.71-3.53 112.45-13.23 306.48-70.12 473.61-56.88 167.13-160.95 307.36-259.29 434.8-98.34 127.44-190.94 242.09-242.1 313.08-51.15 71-60.85 98.35-67.03 147.29-6.17 48.95-8.81 119.51-14.11 160.96-5.29 41.45-13.22 53.8-28.66 50.27z" />
      <path class="bg"
        d="M4094.13 13021.37c-2.2-93.04-.43-246.5 8.83-334.26 9.26-87.75 26.01-109.79 123.46-209.89 97.46-100.1 275.62-278.26 377.48-432.16 101.87-153.9 127.44-283.54 150.81-413.19 23.38-129.65 44.54-259.29 58.65-308.68 14.12-49.39 21.17-18.53 14.55 103.62-6.61 122.15-26.89 335.59-80.25 500.51-53.36 164.93-139.79 281.34-237.25 390.26-97.45 108.92-205.93 210.35-263.7 268.55-57.77 58.21-64.82 73.21-71.88 161.4-7.05 88.2-14.11 249.59-25.13 333.82-11.02 84.23-26.02 91.28-36.6 78.49-10.58-12.78-16.76-45.42-18.97-138.47z" />
      <path class="bg"
        d="M5478.36 12785.45c-283.11 100.55-836.97 317.51-1115.67 447.15-278.7 129.65-282.22 171.99-283.11 194.92-.88 22.93.89 26.45 285.76-95.26 284.87-121.71 852.84-368.65 1130.65-500.06 277.82-131.41 265.48-147.29-17.63-46.75z" />
      <path class="bg"
        d="M4674.9 13604.34c28.22 33.96 98.78 106.28 126.56 151.26 27.78 44.98 12.78 62.62-30.88 119.94-25.99 34.13-62.14 82.33-93.93 130.63-21.61 32.83-41.21 65.72-54.23 94.27-32.19 70.55-24.25 114.65-5.73 487.27 18.52 372.63 47.63 1073.78 70.12 1426.56 22.49 352.78 38.36 357.19 43.65 7.94 5.3-349.25 0-1052.17-7.06-1422.15-7.05-369.97-15.87-407.02 15.44-475.81 31.31-68.79 102.75-169.33 139.35-233.27 36.6-63.94 38.37-91.28-1.32-137.14-39.69-45.86-120.83-110.25-168.46-144.65-47.62-34.39-61.73-38.8-33.51-4.85z" />
      <path class="bg"
        d="M3971.98 13678.86c-38.8 37.93-103.19 119.95-124.8 173.31-21.6 53.36-.44 78.05 43.66 144.64 44.1 66.59 111.13 175.07 145.08 246.95 33.96 71.88 34.84 107.15 82.02 511.52 47.19 404.38 140.68 1177.85 194.48 1581.78 53.8 403.93 67.91 438.33 95.25 459.49 27.34 21.17 67.91 29.11 111.12 26.9 43.22-2.2 89.08-14.55 130.09-49.83 41.01-35.28 77.17-93.48 75.4-103.63-1.76-10.14-41.44 27.79-91.27 51.6-49.83 23.81-109.81 33.51-151.7 22.92-41.89-10.58-65.71-41.44-108.49-393.78-42.77-352.34-104.5-1026.14-144.63-1428.31-40.13-402.17-58.65-532.7-75.41-613.84-16.75-81.14-31.75-112.89-71-179.48-39.24-66.58-102.74-168.01-132.73-224.9-29.98-56.88-26.46-69.22-6.18-103.62 20.29-34.4 57.34-90.84 69.24-122.15 11.91-31.31-1.32-37.49-40.13.43z" />
      <path class="bg"
        d="M3293.32 13275.81c-560.48-86.43-1677.02-238.12-2824.44-390.7-1147.41-152.58-2325.7-306.03-2936.01-373.06-610.3-67.03-652.64-47.63-522.99-18.53 129.65 29.11 431.27 67.91 1536.79 220.05 1105.53 152.14 3014.95 417.61 4028.75 551.22 1013.8 133.62 1131.98 135.39 1197.24 136.71 65.27 1.32 77.61 2.2 81.58-7.95 3.97-10.14-.44-31.3-560.92-117.74z" />
      <path class="bg"
        d="M1374.68 13676.2c11.47 315.74 51.14 958.69 85.97 1285.45 34.84 326.76 64.82 337.35 85.99 332.94 21.17-4.41 33.51-23.82 11.46-325.89-22.04-302.06-78.49-886.79-111.12-1198.12-32.63-311.32-41.45-349.25-54.24-373.95-12.78-24.69-29.52-36.16-18.06 279.57z" />
      <path class="bg"
        d="M1823.6 13677.97c29.11 306.04 69.68 919.87 82.91 1234.72 13.23 314.86-.89 330.74-20.29 336.47-19.4 5.73-44.1 1.32-59.09-216.08-14.99-217.4-20.29-647.79-29.99-959.56s-23.81-504.91-22.05-602.37c1.77-97.45 19.41-99.22 48.51 206.82z" />
      <path class="bg"
        d="M2219.15 13715.89c34.84 340.43 90.41 1002.78 117.75 1337.92 27.34 335.14 26.45 343.07-57.78 340.86-84.22-2.2-251.79-14.54-324.99-28.21-73.2-13.67-52.04-28.67 13.66-38.81 65.71-10.14 175.96-15.43 230.64-29.54 54.68-14.11 53.8-37.04 32.63-355.43-21.16-318.38-62.62-932.21-78.5-1248.83-15.87-316.62-6.16-336.03 5.74-336.47 11.91-.44 26.02 18.08 60.85 358.51z" />
      <path class="bg"
        d="M2578.98 13648.87c7.5 241.65 35.73 714.38 57.33 960 21.61 245.62 36.61 264.14 149.5 49.82 112.89-214.31 323.67-661.45 424.65-889.88 100.99-228.42 92.17-238.13-2.64-70.12-94.81 168.02-275.61 513.74-369.54 684.4-93.93 170.66-100.98 166.25-120.39-20.29-19.4-186.53-51.15-555.18-73.2-748.33-22.05-193.15-34.39-210.78-47.18-214.31-12.79-3.53-26.02 7.06-18.53 248.71z" />
      <path class="bg"
        d="M2974.99 15456.86c-45.42.88-131.86-12.35-180.37-35.28-48.5-22.93-59.09-55.56 75.41-364.24s414.07-893.42 562.24-1184.91c148.17-291.48 164.93-289.71 59.98-34.83-104.95 254.88-331.62 762.89-458.62 1054.37-127 291.49-154.34 366.45-163.6 410.11-9.26 43.66-.44 56 29.1 71.43 29.55 15.44 79.82 33.96 102.75 50.71 22.93 16.76 18.53 31.76-26.89 32.64z" />
      <path class="bg"
        d="M2951.17 15631.04c44.54-35.72 135.38-93.92 185.65-118.18 50.27-24.25 59.98-14.55 57.77-1.76-2.2 12.79-16.32 28.66-41.9 46.74-25.57 18.08-62.61 38.37-104.95 61.3-42.33 22.93-89.95 48.5-114.65 54.67-24.69 6.18-26.46-7.05 18.08-42.77z" />
      <path class="bg"
        d="M2867.82 15879.31c-4.4 43.22 1.77 108.48 11.91 150.37 10.15 41.9 24.26 60.42 102.75 21.17 78.5-39.24 221.37-136.26 291.92-196.23 70.56-59.97 68.8-82.91 62.62-141.56-6.17-58.65-16.76-153.01-22.49-184.32-5.73-31.31-6.61.44-12.79 48.06-6.17 47.63-17.63 111.13-31.3 151.7-13.67 40.57-29.55 58.21-79.82 95.69-50.27 37.49-134.93 94.81-181.24 121.71-46.3 26.9-54.24 23.37-65.71-7.06-11.46-30.43-26.46-87.75-41.45-105.83-14.99-18.08-29.99 3.08-34.4 46.3z" />
      <path class="bg"
        d="M1577.09 15561.81c67.47 34.4 209.47 93.49 419.81 137.58 210.35 44.1 489.04 73.21 603.69 77.62 114.66 4.41 65.27-15.88-122.15-59.98-187.41-44.09-512.84-112-694.97-150.81-182.12-38.8-220.92-48.51-243.86-48.51-22.93 0-29.98 9.71 37.48 44.1z" />
      <path class="bg"
        d="M1350 15388.5c-45.86 20.73-119.95 67.48-169.34 124.8-49.39 57.33-74.08 125.24-75.85 184.77-1.76 59.53 19.4 110.69 152.13 152.14 132.74 41.45 377.04 73.2 642.5 108.92 265.47 35.72 552.11 75.4 677.34 86.42 125.24 11.03 89.08-6.6-117.74-49.82-206.81-43.21-584.29-112.01-819.77-160.52-235.48-48.5-328.96-76.73-380.56-104.51-51.59-27.78-61.29-55.12-47.18-94.81 14.11-39.68 52.04-91.72 92.61-136.7 40.57-44.97 83.78-82.9 96.57-104.51 12.79-21.6-4.85-26.9-50.71-6.18z" />
      <path class="bg"
        d="M2096.91 16190.33c-9.7 19.41-26.45 68.8-27.78 115.98-1.32 47.19 12.8 92.17 41.46 117.3 28.66 25.14 71.88 30.43 116.41 18.08 44.54-12.35 90.41-42.33 123.04-82.02 32.63-39.69 52.03-89.07 52.47-102.74.44-13.67-18.08 8.37-47.63 29.09-29.54 20.73-70.11 40.14-105.39 48.96s-65.26 7.05-86.87-3.97-34.83-31.31-41.89-56.01c-7.05-24.69-7.94-53.79-9.71-73.64-1.76-19.84-4.4-30.43-14.11-11.03z" />
      <path class="bg"
        d="M1639.18 16068.62c-9.7 19.41-26.45 68.8-27.78 115.98-1.32 47.19 12.8 92.17 41.46 117.3 28.66 25.14 71.88 30.43 116.41 18.08 44.54-12.35 90.41-42.33 123.04-82.02 32.63-39.69 52.03-89.07 52.47-102.74.44-13.67-18.08 8.37-47.63 29.09-29.54 20.73-70.11 40.14-105.39 48.96s-65.26 7.05-86.87-3.97-34.83-31.31-41.89-56.01c-7.05-24.69-7.94-53.79-9.71-73.64-1.76-19.84-4.4-30.43-14.11-11.03z" />
      <path class="bg"
        d="M1183.3 15990.43c-9.7 19.41-26.45 68.8-27.78 115.98-1.32 47.19 12.8 92.17 41.46 117.3 28.66 25.14 71.88 30.43 116.41 18.08 44.54-12.35 90.41-42.33 123.04-82.02 32.63-39.69 52.03-89.07 52.47-102.74.44-13.67-18.08 8.37-47.63 29.09-29.54 20.73-70.11 40.14-105.39 48.96s-65.26 7.05-86.87-3.97-34.83-31.31-41.89-56.01c-7.05-24.69-7.94-53.79-9.71-73.64-1.76-19.84-4.4-30.43-14.11-11.03z" />
      <path class="bg"
        d="M-964.68 16260.77c75.25 0 136.26 61.01 136.26 136.26s-61.01 136.26-136.26 136.26-136.26-61.01-136.26-136.26 61.01-136.26 136.26-136.26z" />
      <path class="bg"
        d="M-867.63 13001.96c14.11 26.02 37.93 59.54 50.27 95.7 12.35 36.16 13.24 74.96-6.17 118.62-19.4 43.66-59.09 92.16-85.11 133.61-26.02 41.46-38.36 75.85-21.17 496.1 17.2 420.25 63.95 1226.35 86.88 1647.48 22.93 421.13 22.04 457.29 2.2 492.12-19.84 34.84-58.65 68.36-65.26 88.64-6.61 20.29 18.96 27.34 62.17 14.11 43.22-13.22 104.08-46.74 111.13-288.84 7.06-242.09-39.69-692.76-67.03-1117.86-27.34-425.1-35.27-824.63-29.98-1039.83 5.29-215.19 23.81-246.05 48.5-292.36 24.7-46.3 55.56-108.03 61.73-156.98 6.18-48.95-12.34-85.11-44.97-125.24-32.63-40.13-79.38-84.22-100.55-97.01-21.16-12.79-16.75 5.73-2.64 31.74z" />
      <path class="bg"
        d="M-1592.15 12915.98c-26.01 26.46-63.06 80.25-87.31 131.4-24.25 51.16-35.72 99.66-30.87 138.91 4.86 39.25 26.02 69.23 63.06 109.36 37.05 40.13 89.96 90.41 164.92 544.61 74.97 454.2 171.99 1312.34 227.11 1761.25 55.12 448.91 68.35 488.6 96.57 511.97 28.22 23.37 71.44 30.43 83.78 25.13 12.35-5.29-6.17-22.92-22.93-41-16.75-18.08-31.75-36.61-93.05-476.26-61.29-439.65-168.88-1300.43-228.86-1745.37-59.97-444.94-72.31-474.05-98.33-515.5-26.02-41.45-65.71-95.25-87.32-140.67-21.61-45.42-25.13-82.47-10.58-135.83 14.55-53.35 47.19-123.03 56.01-158.31 8.82-35.27-6.18-36.15-32.2-9.69z" />
      <path class="bg"
        d="M14655.95 11030.38c-5.73 17.64-3.96 37.05 10.59 42.78 14.55 5.73 41.89-2.2 56.44-17.64 14.55-15.43 16.32-38.36 8.38-52.03-7.94-13.67-25.58-18.08-41.02-12.35-15.43 5.73-28.65 21.61-34.39 39.24z" />
      <path class="bg"
        d="M14498.08 11199.72c2.21 24.7 15.44 72.32 39.69 102.75 24.26 30.43 59.53 43.65 73.64 29.54 14.12-14.11 7.06-55.56-12.78-86.87-19.84-31.31-52.48-52.47-73.21-62.18-20.72-9.7-29.54-7.93-27.34 16.76z" />
      <path class="bg"
        d="M14308.47 10914.41c-17.2 26.02-43.66 70.11-34.84 117.73 8.82 47.63 52.91 98.79 104.06 109.81 51.16 11.03 109.37-18.08 134.94-56.45 25.58-38.36 18.53-85.98-15.43-123.03-33.95-37.04-94.81-63.49-129.21-72.75-34.39-9.26-42.32-1.33-59.52 24.69z" />
      <path class="bg"
        d="M11773.12 1627.74c-33.73-27.12-78.7-69.01-111.56-112.66-32.85-43.66-53.57-89.09-56.22-138.7-2.65-49.61 12.79-103.4 42.55-143.97 29.77-40.57 73.86-67.91 123.91-80.48 50.05-12.57 106.06-10.36 156.99 7.06 50.93 17.41 96.8 50.05 142.88 99 46.08 48.94 92.38 114.21 105.39 137.58 13.01 23.37-7.28 4.85-44.54-19.18-37.26-24.04-91.5-53.58-148.83-70.34-57.32-16.76-117.74-20.72-162.94-10.14-45.2 10.58-75.18 35.72-83.78 71.22-8.6 35.49 4.19 81.36 26.9 135.16 22.71 53.8 55.34 115.53 60.41 140.23 5.07 24.69-17.42 12.34-51.16-14.78z" />
      <path class="bg"
        d="M12039.26 1580.78c-14.11-22.93-32.64-61.3-52.93-91.72-20.28-30.43-42.32-52.92-64.59-60.86-22.27-7.94-44.76-1.32-51.6 23.82-6.83 25.13 1.99 68.78 26.46 109.57 24.48 40.79 64.6 78.72 98.55 102.09 33.96 23.37 61.75 32.19 73.65 22.27 11.91-9.92 7.94-38.59 1.1-56.67-6.83-18.08-16.53-25.57-30.64-48.5z" />
      <path class="bg"
        d="M14769.97 2273.09c-24.91-30.87-57.99-87.32-79.38-136.93-21.38-49.61-31.08-92.38-23.59-136.04 7.5-43.66 32.2-88.19 52.92-99.21 20.73-11.03 37.48 11.46 41.89 40.79 4.41 29.32-3.52 65.48-5.07 106.05-1.54 40.57 3.31 85.55 16.32 130.75s34.17 90.62 36.37 110.69c2.21 20.06-14.54 14.76-39.46-16.1z" />
      <path class="bg"
        d="M14614.3 2308.37c-21.38-29.99-49.16-56.89-78.05-80.92-28.88-24.04-58.86-45.2-96.57-52.92-37.7-7.72-83.12-1.98-104.07 11.47-20.94 13.45-17.42 34.61 3.53 48.28 20.95 13.67 59.31 19.85 97.89 31.98 38.59 12.12 77.4 30.2 115.54 54.24 38.14 24.03 75.63 54.01 86.87 52.47 11.25-1.54-3.75-34.62-25.14-64.6z" />
      <path class="bg"
        d="M16183.3 3834.6c-20.5-4.85-46.07-9.71-74.3-6.84-28.22 2.87-59.09 13.45-101.65 26.46-42.55 13.01-96.79 28.45-111.79 38.37-14.99 9.92 9.27 14.33 37.93 25.58 28.66 11.24 61.74 29.32 116.2 25.57s130.31-29.32 178.6-46.08c48.29-16.76 69.01-24.7 65.48-31.31-3.52-6.62-31.31-11.91-52.92-16.98-21.6-5.07-37.04-9.92-57.55-14.77z" />
      <path class="bg"
        d="M19500.1 19951.7c19.41 92.16 72.32 257.09 112.89 404.81 40.57 147.73 68.8 278.26 92.61 350.14 23.81 71.88 43.22 85.11 54.68 58.21 11.47-26.9 14.99-93.93-18.53-243.42-33.51-149.49-104.06-381.45-149.04-511.98-44.98-130.52-64.39-159.63-81.15-164.48-16.75-4.85-30.86 14.56-11.46 106.72z" />
      <path class="bg"
        d="M19081.62 18521.62c-71.88 20.29-166.24 48.51-279.57 60.85-113.33 12.35-245.63 8.83-299.43 15-53.8 6.17-29.1 22.05 8.82 46.3 37.92 24.25 89.08 56.89 209.02 267.67 119.95 210.79 308.68 599.73 435.68 932.22 127 332.5 192.27 608.55 245.18 777.88 52.92 169.34 93.49 231.95 117.74 241.65 24.26 9.7 32.2-33.51 11.91-123.47-20.28-89.96-68.79-226.66-100.54-347.05-31.75-120.38-46.74-224.45-88.19-348.37-41.45-123.91-109.36-267.66-181.68-429.94-72.32-162.28-149.05-343.08-227.55-494.34-78.49-151.25-158.74-272.96-190.94-333.82-32.19-60.85-16.31-60.85 24.25-72.76 40.57-11.9 105.84-35.72 190.94-77.17 85.11-41.45 190.07-100.54 217.85-123.91 27.78-23.37-21.61-11.02-93.49 9.26z" />
      <path class="bg"
        d="M19146.57 16477.3c55.81 8.88 144.62 7.81 218.59 34.85 73.97 27.04 133.11 82.18 174.04 184.47 40.92 102.3 63.65 251.75 92.62 363.95 28.96 112.2 64.17 187.16 128.3 256.41 64.13 69.27 157.18 132.82 232.12 161.33 74.93 28.52 131.75 21.99 172.95 60.93 41.19 38.95 66.77 123.35 31.15 186.59-35.61 63.25-132.42 105.33-251.43 57.67-119.02-47.67-260.27-185.1-343.16-371.11-82.89-186-107.46-420.59-130.26-562.09-22.8-141.5-43.84-189.9-80.32-211.92-36.47-22.01-88.38-17.63-139.4-3.84-51.02 13.81-101.15 37.04-130.6 34.66-29.45-2.37-38.22-30.35-47.44-74.36-9.23-43.99-18.9-104.03-12.33-124.64 6.56-20.6 29.37-1.77 85.17 7.1z" />
      <path class="bg"
        d="M17742.82 16917.4c-41.89 37.93-116.86 85.55-164.04 148.61-47.18 63.06-66.59 141.56-44.98 249.59 21.61 108.04 84.22 245.63 121.26 355.43 37.05 109.8 48.51 191.82 32.63 284.86-15.87 93.05-59.08 197.12-106.27 261.94-47.18 64.83-98.34 90.4-111.57 145.52-13.22 55.13 11.47 139.79 75.85 173.3 64.39 33.52 168.46 15.88 242.1-89.07 73.64-104.95 116.86-297.22 84.66-498.3-32.19-201.08-139.78-410.99-197.99-541.96-58.21-130.97-67.03-183-48.51-221.37 18.52-38.36 64.39-63.06 114.66-79.38 50.27-16.31 104.95-24.24 128.32-42.32 23.37-18.08 15.43-46.31-.89-88.2-16.31-41.89-41.01-97.46-57.77-111.13-16.75-13.67-25.57 14.56-67.46 52.48z" />
      <path class="bg"
        d="M18268.46 17438.19c155.67-40.13 470.52-110.68 646.91-147.29 176.39-36.6 214.32-39.24 238.13-23.37 23.81 15.88 33.51 50.27 30.42 70.55-3.08 20.29-18.96 26.47-185.65 86-166.68 59.53-484.19 172.42-650 222.25-165.8 49.83-179.91 36.6-190.94 7.93-11.02-28.66-18.95-72.75-24.69-101.42-5.73-28.66-9.26-41.89-12.79-53.36-3.53-11.46-7.05-21.16 148.61-61.29z" />
      <path class="bg"
        d="M17671.85 13470.34c97.9 297.66 295.44 875.34 404.8 1187.99 109.36 312.65 130.52 360.27 118.17 295.89-12.34-64.38-58.2-240.77-166.68-562.24s-279.57-788.02-366-1012.48c-86.43-224.45-88.18-206.81 9.71 90.84z" />
      <path class="bg"
        d="M17287.78 13823.13c138.92 514.62 416.73 1503.29 563.57 2017.46 146.85 514.18 162.73 553.86 192.27 559.15 29.55 5.3 72.76-23.81 124.79-50.27 52.04-26.45 112.9-50.27 192.71-74.97 79.82-24.69 178.6-50.26 203.73-63.05 25.14-12.79-23.36-12.79-101.86-2.65-78.49 10.15-186.97 30.43-258.85 41.45-71.88 11.03-107.16 12.8-262.39-444.05s-430.4-1372.32-582.54-1878.56-181.25-603.25-195.8-631.48c-14.54-28.22-14.54 12.36 124.37 526.97z" />
      <path class="bg"
        d="M22959.58 9933.75c7.5 36.6 20.73 78.94 30.87 117.3 10.14 38.37 17.2 72.76 30.87 83.78 13.67 11.03 33.95-1.31 69.67-1.31s86.88 12.34 119.07 18.51c32.19 6.18 45.41 6.18 43.2-18.96-2.2-25.13-19.83-75.4-20.72-109.8-.88-34.39 15-52.91 13.67-69.23-1.32-16.31-19.84-30.43-56.44-45.87-36.6-15.43-91.28-32.18-134.5-44.53-43.21-12.35-74.96-20.28-89.96-8.82-14.99 11.47-13.22 42.33-5.73 78.93z" />
      <path class="bg"
        d="M22410.56 10108.82c-14.11 41.45-26.45 83.79-38.36 118.18-11.9 34.4-23.37 60.86-14.99 75.41 8.38 14.55 36.6 17.2 60.41 29.98 23.81 12.79 43.22 35.73 57.77 33.08 14.55-2.64 24.26-30.87 44.1-46.31 19.84-15.43 49.83-18.07 61.73-26.45 11.91-8.38 5.73-22.49-9.7-50.27-15.43-27.78-40.13-69.24-60.86-114.22-20.72-44.98-37.47-93.48-53.79-97.45-16.32-3.97-32.19 36.6-46.31 78.05z" />
      <path class="bg"
        d="M23092.31 9319.04c-24.69 36.6-53.8 93.92-67.03 139.79-13.22 45.86-10.58 80.25 7.94 82.02 18.53 1.76 52.92-29.1 80.26-69.23 27.34-40.13 47.63-89.52 53.8-127.88 6.17-38.37-1.76-65.71-15.88-71.44-14.11-5.74-34.39 10.14-59.09 46.74z" />
      <path class="bg"
        d="M22176.41 9562.46c27.78 44.53 71.88 117.74 112.01 150.81 40.13 33.07 76.29 26.02 92.16 3.53 15.88-22.49 11.47-60.42-15.87-98.34s-77.62-75.85-121.28-97.89c-43.65-22.05-80.69-28.23-93.48-23.38-12.79 4.85-1.32 20.73 26.46 65.27z" />
      <path class="bg"
        d="M21839.51 7167.5c-34.84 15.87-78.05 49.39-97.46 75.85-19.4 26.45-14.99 45.86 16.76 40.13 31.75-5.74 90.84-36.6 123.47-62.18 32.63-25.58 38.81-45.86 28.66-56.88-10.14-11.03-36.59-12.8-71.43 3.08z" />
      <path class="bg"
        d="M21645.91 8657.56c-14.99 18.96-28.21 77.16-29.98 120.38-1.76 43.21 7.94 71.44 21.61 72.32 13.67.88 31.31-25.58 41.45-58.65 10.15-33.08 12.79-72.76 5.73-102.74-7.05-29.99-23.81-50.28-38.81-31.31z" />
      <path class="bg"
        d="M21360.6 7965.66c15.44 44.98 46.31 122.6 104.96 207.27 58.65 84.66 145.08 176.38 223.13 234.15 78.05 57.76 147.73 81.58 222.69 71.44 74.97-10.15 155.23-54.24 207.26-124.79 52.04-70.56 75.85-167.58 63.06-253.57-12.79-85.99-62.17-160.95-111.12-225.33-48.95-64.39-97.46-118.19-116.42-153.47-18.96-35.28-8.38-52.03 11.9-59.97 20.29-7.94 50.28-7.05 87.76-2.2 37.48 4.85 82.46 13.67 91.28-3.08 8.82-16.76-18.52-59.1-58.21-90.85-39.68-31.75-91.72-52.91-125.23-49.82-33.51 3.08-48.51 30.42-57.77 54.68-9.26 24.25-12.79 45.41-32.64 39.68-19.84-5.73-56-38.37-98.34-59.97-42.33-21.61-90.83-32.2-114.65-15.44-23.81 16.76-22.92 60.85-28.22 85.55-5.29 24.69-16.75 29.99-44.54 24.26-27.78-5.74-71.87-22.49-96.13-7.94-24.25 14.55-28.66 60.41-6.17 100.54 22.49 40.13 71.88 74.52 116.42 127 44.54 52.48 84.22 123.03 115.09 168.9 30.87 45.86 52.92 67.02 66.59 44.09 13.67-22.93 18.96-89.96 6.17-145.96-12.79-56.01-43.65-100.99-54.68-134.5-11.02-33.52-2.2-55.56 28.22-48.06 30.43 7.49 82.47 44.53 130.53 99.65 48.07 55.12 92.16 128.33 112.44 195.36 20.29 67.02 16.77 127.88-8.81 175.51-25.58 47.62-73.2 82.01-133.18 85.1-59.97 3.09-132.29-25.14-191.38-65.26-59.09-40.13-104.95-92.17-150.37-145.96-45.42-53.8-90.4-109.37-119.51-142.44-29.1-33.07-42.33-43.66-48.95-42.77-6.61.88-6.61 13.22 8.82 58.2z" />
      <path class="bg"
        d="M21121.16 7798.1c-42.33 57.32-115.54 156.98-139.8 204.61-24.25 47.62.45 43.21 29.99 32.63 29.55-10.59 63.94-27.34 104.95-59.53 41.02-32.2 88.64-79.82 114.22-125.24s29.1-88.64 26.89-116.42c-2.2-27.78-10.13-40.12-22.92-41.44-12.79-1.33-30.43 8.37-44.98 20.72-14.55 12.34-26.02 27.34-68.35 84.67z" />
      <path class="bg"
        d="M21290.93 7514.55c6.62-27.78-9.26-77.17-40.57-115.53-31.3-38.37-78.05-65.71-129.2-78.94-51.15-13.23-106.72-12.35-123.04-6.17-16.31 6.17 6.62 17.63 36.16 39.68 29.55 22.05 65.71 54.68 87.32 86.87 21.61 32.19 28.66 63.95 43.65 82.91 15 18.96 37.93 25.14 63.94 25.14 26.02 0 55.13-6.18 61.74-33.96z" />
      <path class="bg"
        d="M18401.25 9937.68c60.86-98.77 159.63-267.23 241.65-379.67 82.02-112.45 147.29-168.9 264.58-257.97 117.3-89.08 286.64-210.79 358.07-251.8 71.44-41.01 44.99-1.33 8.83 57.32-36.16 58.65-82.03 136.27-161.41 238.58-79.37 102.3-192.25 229.3-334.25 358.51-141.99 129.2-313.09 260.61-387.18 311.76-74.08 51.16-51.14 22.05 9.71-76.73z" />
      <path class="bg"
        d="M18694.92 7947.55c10.59-56.89 51.16-175.95 73.21-242.97 22.05-67.03 25.57-82.03 39.24-79.82 13.67 2.2 37.49 21.6 64.39 28.22 26.9 6.61 56.88.43 60.85 10.14 3.97 9.7-18.08 35.27-43.22 72.32-25.13 37.04-53.35 85.54-81.57 130.52-28.22 44.98-56.45 86.44-80.26 109.81-23.81 23.37-43.22 28.66-32.64-28.22z" />
      <path class="bg"
        d="M18422.84 7892.87c-11.9-37.48-22.49-101.87-18.08-154.34 4.41-52.48 23.82-93.05 59.09-134.5 35.28-41.45 86.44-83.79 107.16-92.16 20.73-8.38 11.03 17.19 18.08 33.07 7.06 15.87 30.87 22.05 41.45 30.43 10.59 8.37 7.94 18.96-10.58 49.39-18.52 30.42-52.91 80.69-82.02 138.46-29.1 57.77-52.92 123.03-71.44 150.38-18.52 27.34-31.75 16.75-43.66-20.73z" />
      <path class="bg"
        d="M15396.88 7514.52c57.77-17.2 115.09-37.48 172.42-73.2 57.33-35.72 114.65-86.88 149.49-110.25 34.84-23.37 47.19-18.96 84.23-.44 37.04 18.52 98.78 51.16 124.79 70.12 26.02 18.96 16.32 24.25-51.59 41.45-67.91 17.2-194.03 46.3-312.65 67.91-118.62 21.61-229.75 35.72-256.21 35.72-26.45 0 31.75-14.11 89.52-31.31z" />
      <path class="bg"
        d="M14158.2 7128.23c22.93-7.94 55.57-18.97 98.34-29.55 42.78-10.58 95.69-20.73 163.38-20.07 67.69.66 150.16 12.13 183.67 20.29 33.52 8.15 18.08 13.01-4.85 26.9-22.93 13.89-53.35 36.82-94.81 50.93-41.45 14.11-93.92 19.4-144.86 17.64-50.93-1.77-100.32-10.58-141.78-19.84-41.45-9.26-74.96-18.97-85.11-26.24-10.14-7.28 3.09-12.13 26.02-20.06z" />
      <path class="bg"
        d="M19876.31 5576.01c-24.69 11.46-43.22 43.21-35.28 68.79 7.94 25.57 42.33 44.98 71.87 46.75 29.55 1.76 54.25-14.12 61.74-35.28 7.5-21.17-2.2-47.63-22.49-65.27-20.28-17.64-51.14-26.46-75.84-14.99z" />
      <path class="bg"
        d="M20414.29 5295.12c-41.45-2.21-99.65 23.36-115.97 56.44-16.31 33.07 9.26 73.64 49.39 99.66 40.13 26.01 94.81 37.48 123.47 19.4 28.67-18.08 31.31-65.71 20.28-104.51-11.02-38.81-35.71-68.79-77.17-70.99z" />
      <path class="bg"
        d="M19960.54 5250.57c-31.31-6.17-72.77 10.58-89.97 34.84-17.19 24.25-10.14 56 14.55 74.96 24.7 18.96 67.04 25.14 94.82 15.44 27.78-9.71 41.01-35.28 37.04-62.62-3.97-27.34-25.13-56.45-56.44-62.62z" />
      <path class="bg"
        d="M19080.35 5347.59c-31.31-4.41-69.23 13.22-82.46 45.41-13.23 32.19-1.77 78.94 28.22 94.38 29.99 15.43 78.49-.45 104.07-19.41s28.22-41.01 17.2-65.26c-11.02-24.26-35.72-50.71-67.03-55.12z" />
      <path class="bg"
        d="M19172.07 4963.06c-18.08-15-41.01-16.76-76.29-1.33-35.27 15.43-82.9 48.07-91.72 78.94-8.81 30.86 21.17 59.97 55.12 71 33.96 11.02 71.89 3.96 98.78-11.91 26.9-15.88 42.78-40.57 44.1-67.03 1.32-26.46-11.91-54.68-29.99-69.67z" />
      <path class="bg"
        d="M15392.06 4899.55c-54.24 1.76-141.56 3.52-211.23 40.57-69.67 37.04-121.71 109.35-132.74 183.44-11.02 74.08 18.97 149.93 67.91 192.27 48.95 42.33 116.86 51.15 175.51 24.69 58.65-26.46 108.04-88.19 109.8-107.59 1.77-19.41-44.09 3.52-94.8 12.34-50.71 8.82-106.28 3.52-125.24-28.23-18.96-31.75-1.32-89.95 33.96-138.9s88.19-88.64 136.7-117.74c48.51-29.11 92.6-47.63 104.06-56.01 11.47-8.38-9.69-6.61-63.93-4.84z" />
      <path class="bg"
        d="M12186.01 23802.96c-201.65 42.91-398.56 90.56-585.21 141.08-33.84 9.15-67.33 18.42-100.52 27.75-.13 35.6-.29 68.59-.46 97.48-.95 160.52-2.73 194.91-12.43 215.63-9.7 20.73-27.34 27.79-40.57 17.2-13.23-10.58-22.04-38.8-28.22-255.32-.46-16.1-.91-33.24-1.33-51.28-327.11 94.82-625.75 197.63-924.4 300.43v343.96c543.61-147.44 1087.23-294.89 1721.21-369.01-8.12-59.31-15.72-159.86-22.89-330.38-1.76-41.89-3.49-88.03-5.18-137.54z" />
      <path class="bg"
        d="M11413.99 23810.68c-1.81-140.4-2.45-299.2-1.1-439.52-368.85 151.25-644.44 291.95-920.02 432.65v306.92c305.57-102.99 611.16-205.99 921.12-300.05z" />
      <path class="bg"
        d="M11415.76 23206.03c.2-7.39.41-14.68.63-21.8 5.4-174.2 16.57-263.09 43.29-323.43-371.47 166.62-674.49 318.66-966.81 468.39v268.24c314-134.53 628.02-269.06 922.89-391.4z" />
      <path class="bg"
        d="M12172.33 22291.42c.5-17.97 1.06-35.4 1.65-52.2 6.84-193.87 19.66-307.89 35.65-376.82-21.86 9.64-43.71 19.44-65.55 29.34-556.01 252.24-1103.61 587.38-1651.21 922.52v232.84c572.84-275.56 1145.69-551.13 1679.46-755.68z" />
      <path class="bg"
        d="M10492.87 7633.27v-305.43c72.17 9.29 144.13 16 215.61 17.35 139.34 2.64 276.94-15 474.49-69.68 197.56-54.68 455.08-146.4 682.62-217.83 227.55-71.44 425.1-122.6 611.19-152.58 186.1-29.99 360.72-38.81 525.64-8.82 164.93 29.98 320.16 98.77 519.48 207.25s442.73 256.65 651.75 359.84c209.03 103.19 383.65 161.39 620.89 188.73 237.25 27.34 537.11 23.82 800.81-5.28 263.7-29.11 491.25-83.79 596.2-104.95 104.95-21.17 87.32-8.83-38.8 38.8-126.12 47.62-360.72 130.53-670.29 182.57-309.56 52.03-694.09 73.19-1090.97-23.82-396.87-97.02-806.1-312.21-1107.73-445.38-301.62-133.18-495.64-184.34-760.23-179.04-264.58 5.29-599.72 67.02-881.06 170.21-281.34 103.19-508.89 247.83-672.93 317.51-164.04 69.67-264.59 64.37-367.78 49.38-36.01-5.23-72.35-11.65-108.89-18.83z" />
      <path class="bg"
        d="M10492.87 7071.27c71.8 7.74 143.01 13.64 212.97 15.51 131.4 3.53 258.41-7.06 322.79-45.86 64.38-38.81 66.15-105.84 50.27-170.22-15.87-64.39-49.39-126.12-54.68-193.15-5.29-67.03 17.64-139.35 77.61-204.61 59.97-65.27 156.99-123.47 187.85-119.94 30.87 3.52-4.4 68.79-7.05 116.42-2.64 47.62 27.34 77.6 55.56 112 28.23 34.4 54.68 73.2 44.98 114.66-9.7 41.45-55.56 85.54-62.62 138.46-7.05 52.92 24.7 114.65 94.37 132.29 69.68 17.64 177.27-8.82 275.17-56.44 97.9-47.63 186.09-116.42 298.1-151.7 112.01-35.28 247.83-37.04 367.77-45.86 119.95-8.82 224.01-24.7 317.49-51.15 93.49-26.46 176.4-63.51 224.9-132.3 48.51-68.79 62.63-169.33 33.52-252.23-29.1-82.9-101.42-148.17-178.15-180.8-76.73-32.63-157.87-32.63-239.01 0-81.14 32.63-162.28 97.9-188.74 105.84-26.46 7.93 1.77-41.46 54.68-92.61 52.92-51.16 130.53-104.07 224.9-127.88 94.37-23.82 205.49-18.53 298.09 30.86 92.61 49.39 166.7 142.87 209.03 220.49 42.33 77.61 52.92 139.34 77.61 220.48 24.7 81.14 63.5 181.69 125.24 259.3 61.74 77.61 146.4 132.29 242.53 175.51 96.14 43.21 203.73 74.96 305.15 81.14 101.43 6.17 196.68-13.24 289.28-24.7 92.61-11.47 182.57-14.99 263.71-8.81 81.14 6.17 153.46 22.04 230.19 52.91 76.73 30.87 157.87 76.73 185.21 105.84 27.34 29.1.88 41.44-32.64 73.19-33.51 31.75-74.08 82.91-119.94 118.19-45.86 35.27-97.02 54.68-154.35 57.33-57.32 2.64-120.82-11.47-198.43-32.63-77.61-21.17-169.33-49.4-188.73-42.34-19.4 7.05 33.51 49.39 137.58 92.61 104.07 43.21 259.29 87.3 420.68 94.36 161.4 7.05 328.97-22.93 478.9-65.26 149.93-42.34 282.23-97.02 352.78-136.7 70.56-39.69 79.38-64.39 10.59-139.35-68.79-74.97-215.2-200.2-479.79-372.18-264.58-171.98-647.34-390.71-963.08-553.87-315.74-163.16-564.44-270.76-839.61-341.31-275.17-70.56-576.79-104.08-878.42-71.44-301.63 32.63-603.25 131.41-781.41 183.45-178.15 52.03-232.83 57.32-283.99 68.79-51.15 11.46-98.77 29.1-111.12 62.62-12.35 33.51 10.58 82.9-19.41 112.89-29.98 29.98-112.89 40.57-213.43 78.49-100.54 37.92-218.72 103.19-321.03 164.93-55.06 33.23-105.54 65.43-153.87 97.16z" />
      <path class="bg"
        d="M10492.87 6372.6c43.91-29.26 84.29-57.03 118.6-82.22 82.9-60.85 130.53-106.72 186.97-162.28s121.71-120.83 188.73-167.57c67.03-46.74 135.83-74.97 217.85-89.08 82.02-14.11 177.27-14.11 263.7-41.45 86.43-27.34 164.04-82.02 225.77-109.36 61.74-27.34 107.61-27.34 140.24-52.91 32.63-25.58 52.04-76.74 18.52-142-33.51-65.27-119.95-144.64-189.63-197.56-69.67-52.92-122.58-79.37-160.51-72.31-37.92 7.05-60.85 47.62-26.46 86.43 34.4 38.8 126.13 75.84 144.65 110.24 18.52 34.39-36.16 66.14-108.48 79.37-72.32 13.23-162.28 7.94-224.02-21.16-61.73-29.11-95.25-82.02-89.96-132.29 5.3-50.28 49.39-97.9 73.2-134.94 23.82-37.05 27.34-63.5 21.17-89.96-6.17-26.46-22.05-52.92-.88-70.56s79.37-26.46 148.16-21.17c68.8 5.29 148.17 24.7 219.61 56.45 71.44 31.75 134.94 75.84 189.62 105.83 54.68 29.99 100.55 45.86 131.41 41.45 30.87-4.41 46.75-29.1 73.2-21.16 26.46 7.93 63.51 48.5 104.96 42.33 41.45-6.18 87.31-59.09 137.58-74.96 50.27-15.88 104.95 5.28 181.68 4.4 76.73-.88 175.51-23.81 249.59-89.95 74.09-66.15 123.47-175.51 135.82-264.58 12.35-89.08-12.35-157.88-9.7-204.62 2.65-46.74 32.63-71.44 43.21-103.19 10.59-31.75 1.77-70.55-49.39-120.82-51.15-50.28-144.63-112.01-242.53-158.75-97.9-46.75-200.2-78.5-316.62-89.08-116.42-10.59-246.94 0-378.35 31.75-131.41 31.75-263.71 84.66-392.48 138.46-128.76 53.8-253.99 108.48-349.24 143.76-95.25 35.28-160.52 51.15-223.14 59.97-62.61 8.82-122.59 10.59-211.67 29.11-71.94 14.96-162.87 40.84-241.18 67.44z" />
      <path class="bg"
        d="M15481.31 24765.5c-302.69-80.61-605.37-161.22-847.21-209.49-241.84-48.26-422.84-64.19-603.83-80.11-466.1-50.46-880.66-54.79-1287.84-37.09-446.26 19.39-883.71 65.27-1257.17 135.82-373.45 70.56-682.92 165.81-992.39 261.06v3984.85c2807.94 0 5422.38-828.43 7612.26-2254.2-254.66-316.29-520.3-626.37-853.32-898.1-397.74-324.55-891.64-594.43-1433.16-791.1-110.78-40.23-223.55-77.41-337.34-111.64z" />
      <path class="bg"
        d="M17942.99 26069.65c114.87 134.8 214.65 267.44 309.56 399.38a14016.803 14016.803 0 00540.62-380.57c-263.21-277.63-529.68-552.53-819.53-807.58-2.85 103.25-5.67 198.64-8.38 283.28-8.04 251.52-15.13 408.29-22.27 505.49z" />
      <path class="bg"
        d="M19274.07 25716.28a14033.412 14033.412 0 01-332.37 260.76c-146.55-164.68-303.77-337.33-546-573.39-119.41-116.38-259.52-248.19-415.18-384.5 3.37-134.49 6.71-319.11 9.88-464.48 411.68 336.25 845.57 765.33 1283.67 1161.61z" />
      <path class="bg"
        d="M19426.84 25590.87c103-85.77 204.76-173 305.21-261.64-392.12-459.76-792.3-913-1250.81-1319.05-151.73-134.37-309.86-263.59-473.25-387-2.65 196.73-6.24 409.16-10.36 622.95 84.74 65.29 166.13 130.31 243.72 194.44 411.86 340.44 717.03 656.17 971.03 923.4a55107.69 55107.69 0 01214.46 226.9z" />
      <path class="bg"
        d="M19863.25 25211.99a14044.83 14044.83 0 00366.86-344.11c-338.71-506.83-696.87-1007.52-1171.17-1471.53-315.04-308.23-681.35-600.28-1055.62-858.53 6.12 100.98 9.92 260.79 9.57 518.09-.09 64.78-.45 135.76-1.03 211.66 513.95 399.31 981.15 875.67 1305.47 1246.2 243.75 278.48 406.81 497.23 545.92 698.22z" />
      <path class="bg"
        d="M19813.52 14617.97c.05-3.75.15-7.72.27-11.89 2.64-86.42 21.98-260.89-13.29-459.33-35.27-198.44-127-420.69-272.52-624.42-145.52-203.73-344.84-388.94-537.99-504.48-193.14-115.53-380.12-161.39-589.14-164.92-209.02-3.53-440.09 35.28-575.91 49.39s-176.39 3.52-335.14-437.45c-158.74-440.97-435.66-1312.33-584.27-1777.12-148.6-464.78-168.88-522.98-108.03-512.4 60.85 10.58 202.85 89.96 375.71 153.9 172.86 63.94 376.59 112.45 586.05 108.04 209.47-4.41 424.66-61.73 638.09-193.15 213.44-131.41 425.1-336.9 592.67-527.84 167.57-190.95 291.05-367.33 385.86-469.19 94.81-101.87 160.95-129.22 237.68-138.04 76.73-8.82 164.05.89 245.63 30 81.58 29.1 157.42 77.6 225.33 129.2 67.91 51.59 127.89 106.27 144.2 96.57 16.32-9.7-11.02-83.79-48.95-158.31-37.92-74.52-86.43-149.49-145.52-203.73-59.09-54.24-128.77-87.75-188.3-109.8-59.53-22.05-108.91-32.64-135.37-58.21-26.46-25.58-29.99-66.15-27.79-122.15 2.21-56.01 10.14-127.44 40.57-190.94s83.35-119.07 139.79-236.36c56.45-117.3 116.42-296.34 207.26-448.47 90.84-152.14 212.55-277.37 322.35-350.13 109.81-72.77 207.7-93.05 276.49-87.32 68.8 5.73 108.48 37.48 127.88 74.52 19.41 37.04 18.52 79.38-12.35 125.24-30.86 45.86-91.72 95.25-151.25 141.11-59.53 45.86-117.73 88.2-121.7 115.54-3.97 27.34 46.3 39.68 121.7 25.57 75.41-14.11 175.95-54.68 231.95-63.94 56.01-9.26 67.47 12.79 54.68 48.07-12.78 35.28-49.82 83.78-95.68 138.02-45.86 54.24-100.55 114.22-123.48 165.37-22.93 51.15-14.11 93.49-13.23 139.79.88 46.3-6.17 96.57-36.16 147.28-29.99 50.71-82.9 101.87-82.9 142.44 0 40.57 52.91 70.55 112 62.62 59.1-7.94 124.36-53.8 169.34-116.42 44.98-62.62 69.68-141.99 92.17-178.15 22.49-36.16 42.77-29.11 67.02-18.96 24.26 10.14 52.48 23.36 71.44-5.74 18.96-29.11 28.67-100.54 50.71-161.39 22.05-60.86 56.45-111.13 84.67-129.21 28.22-18.08 50.27-3.97 57.76 25.14 7.5 29.1.45 73.19-20.72 113.32-21.17 40.13-56.44 76.29-76.73 130.53-20.28 54.24-25.57 126.56-14.55 155.23 11.03 28.66 38.37 13.66 51.6 23.37 13.23 9.7 12.34 44.09 19.39 89.07 7.06 44.98 22.06 100.55 47.63 136.71 25.58 36.16 61.74 52.91 88.64 43.65 26.9-9.26 44.54-44.53 59.53-98.33 15-53.8 27.34-126.12 37.04-112.89 9.7 13.23 16.76 112 10.14 183.88-6.61 71.88-26.9 116.86-56.45 162.28-29.54 45.42-68.34 91.28-58.2 100.98 10.14 9.7 69.23-16.75 109.36-34.83 40.13-18.08 61.29-27.79 79.37-10.59 18.08 17.2 33.08 61.3 61.74 85.12 28.66 23.81 71 27.33 97.45-.45 26.46-27.78 37.05-86.87 47.63-134.49 10.58-47.63 21.17-83.79 46.74-115.1 25.58-31.31 66.15-57.77 114.21-82.9 48.07-25.14 103.64-48.95 163.61-91.72 59.97-42.78 124.36-104.51 173.3-184.33 48.95-79.82 82.47-177.71 87.76-252.68 5.29-74.97-17.64-127-45.42-174.62-27.78-47.63-60.42-90.85-63.07-108.93-2.64-18.08 24.7-11.02 42.34-14.99 17.64-3.97 25.58-18.97 31.31-41.45 5.74-22.49 9.26-52.48 44.98-63.5 35.72-11.02 103.63-3.08 157.43-.88 11.73.48 22.81.68 33.03.24 237.99 404.6 456.18 822.26 653.23 1251.6-52.98 33.19-121.73 84.41-176.1 135.11-71.87 67.02-118.62 133.17-154.34 208.14-35.72 74.96-60.41 158.74-77.17 193.58-16.76 34.84-25.58 20.73-45.87-43.21-20.28-63.94-52.03-177.72-74.08-203.73-22.05-26.02-34.39 35.71-40.57 105.83-6.17 70.11-6.17 148.61-10.58 193.15-4.41 44.53-13.23 55.12-29.11 37.04-15.87-18.08-38.8-64.83-75.4-114.66-36.6-49.83-86.87-102.74-144.64-143.31-57.77-40.57-123.03-68.8-191.39-91.73-68.35-22.93-139.78-40.56-187.85-48.5-48.06-7.94-72.76-6.17-63.5 33.08 9.26 39.24 52.48 115.97 80.7 175.94 28.22 59.97 41.45 103.19 49.83 156.11 8.38 52.91 11.9 115.53 25.57 164.92 13.67 49.39 37.49 85.55 74.97 120.83s88.64 69.67 104.51 112.44c15.88 42.78-3.53 93.94-25.58 145.09-22.04 51.15-46.74 102.3-65.26 144.19-18.52 41.89-30.86 74.53-7.93 90.84 22.93 16.32 81.13 16.32 127.43 20.73 46.31 4.41 80.7 13.23 109.8 38.8 29.11 25.58 52.93 67.92 67.92 101.87 14.99 33.96 21.17 59.53 37.48 33.51 16.32-26.01 42.78-103.63 68.35-149.49 25.58-45.86 50.28-59.97 80.7-64.38 30.43-4.41 66.59.89 85.55 0 18.96-.88 20.73-7.93 1.76-50.71-18.96-42.77-58.64-121.27-77.61-183.45-18.96-62.17-17.19-108.03-13.23-142.87 3.97-34.83 10.15-58.65 20.73-52.92 10.58 5.74 25.58 41.01 43.22 72.76 17.64 31.75 37.92 59.98 44.09 45.42 6.18-14.55-1.76-71.87 3.53-95.69 5.29-23.81 23.82-14.11 54.68 20.72 30.87 34.84 74.09 94.82 100.98 162.73 26.9 67.91 37.49 143.75 52.04 168.44 14.55 24.7 33.08-1.75 60.42-27.77 27.34-26.02 63.5-51.59 108.04-50.71 44.54.88 97.45 28.22 132.29 41.89 34.84 13.67 51.59 13.67 55.12-22.93 3.53-36.6-6.18-109.81-2.21-164.93 3.97-55.12 21.61-92.16 43.66-126.56 22.05-34.39 48.51-66.14 35.72-87.31-12.79-21.16-64.82-31.75-111.57-52.48-46.74-20.72-88.19-51.59-117.3-72.75-29.1-21.17-45.85-32.64-39.68-49.83 6.17-17.2 35.28-40.13 68.35-83.78 33.07-43.66 70.11-108.06 90.39-183.45 12.81-47.64 18.95-99.69 21.72-150.34 738.67 1702.56 1148.16 3581.09 1148.16 5555.24 0 3660.26-1407.73 6991.77-3711.21 9482.6-17.79-68.25-38.14-145.19-61.3-231.84-171.1-640.29-495.67-1811.52-649.13-2410.37-153.46-598.84-135.82-625.3 34.39-728.49 170.22-103.19 493.02-283.1 727.61-457.73 234.6-174.62 381.01-343.96 494.78-608.55 113.77-264.58 194.91-624.41 224.01-906.64 29.11-282.22 6.18-486.83-104.07-682.62-110.24-195.79-307.79-382.77-432.15-568.86-124.35-186.09-175.51-371.3-194.91-508.89-19.4-137.58-7.06-227.53-46.75-244.29-39.68-16.76-131.41 39.69-222.25 67.03-90.84 27.34-180.79 25.57-311.32-67.48-130.52-93.04-301.6-277.36-405.23-447.14-103.62-169.77-139.78-325-140.22-517.71-.44-192.7 34.83-422.88 65.26-664.68 29.16-231.68 58.25-492.57 83.13-736.9z" />
      <path class="bg"
        d="M22381.99 7511.3a13991.1 13991.1 0 00-237.55-370.82c-11.65 11.85-26.16 23.9-41.14 36.25-35.27 29.1-73.2 59.97-100.1 89.96-26.9 29.98-42.78 59.09-37.93 73.2 4.86 14.11 30.43 13.23 57.77 11.47 27.34-1.77 56.45-4.41 87.31 18.96 30.87 23.37 63.51 72.76 96.58 112.45 33.07 39.68 66.59 69.67 109.36 60.41 20.42-4.42 42.94-17.79 65.7-31.88z" />
      <path class="bg"
        d="M22070.83 7030.6c-411.84-608.58-870.42-1182.96-1370.57-1717.99 1.96 15.43 2.52 31.79 1.61 49.07-5.29 99.65-59.97 230.19-156.99 276.05-97.01 45.86-236.35 7.06-307.79 1.77-71.44-5.3-74.97 22.93-95.26 65.26-20.28 42.33-57.32 98.78-121.7 128.77-64.38 29.98-156.11 33.51-224.02 14.11-67.91-19.41-112-61.74-143.75-130.53-31.75-68.8-51.16-164.05-68.8-184.33-17.63-20.29-33.51 34.4-59.97 97.02-26.45 62.61-63.5 133.17-80.26 148.16-16.75 14.99-13.23-25.58-7.06-89.08 6.18-63.5 15-149.93 9.71-181.68-5.29-31.75-24.7-8.82-83.79 26.46s-157.86 82.9-246.94 104.07c-89.07 21.17-168.45 15.87-232.83-22.93-64.38-38.81-113.77-111.12-131.41-175.5-17.64-64.39-3.53-120.83 24.69-170.22 28.22-49.39 70.56-91.73 74.08-112.89 3.53-21.17-31.74-21.17-71.43-40.57-39.69-19.41-83.78-58.21-107.6-98.78-23.81-40.57-27.34-82.91-55.57-93.49-28.22-10.58-81.13 10.58-154.33 72.32-73.2 61.74-166.69 164.04-216.96 262.82-50.27 98.78-57.32 194.03-59.09 301.63-1.76 107.6 1.76 227.54-89.96 455.97-91.72 228.42-278.69 565.33-479.78 820.21-201.08 254.88-416.27 427.74-590.9 543.28-174.63 115.53-308.68 173.74-343.96 207.26-35.28 33.51 28.22 42.33 134.05 38.8 105.84-3.53 254-19.4 395.11-38.8 141.12-19.41 275.17-42.34 300.75-34.4 25.58 7.94-57.33 46.74-160.52 77.61-103.18 30.87-226.65 53.8-379.23 64.39-152.57 10.58-334.26 8.81-437.45 26.45-103.18 17.64-127.88 54.68-216.07 106.72-88.19 52.03-239.89 119.06-422.45 162.28-182.56 43.21-395.99 62.62-579.44 69.68-183.44 7.05-336.9 1.75-425.1 15.86-88.19 14.11-111.12 47.63-96.13 91.73 15 44.09 67.91 98.78 135.82 170.22 67.91 71.43 150.82 159.63 223.14 240.77 72.32 81.13 134.05 155.22 231.06 226.66 97.02 71.43 229.31 140.23 330.73 183.45 101.43 43.21 171.98 60.84 208.14 48.5 36.16-12.35 37.93-54.69 10.59-99.66-27.34-44.98-83.79-92.61-119.07-136.7-35.27-44.1-49.39-84.67-20.29-113.77 29.11-29.11 101.43-46.75 126.12-92.61 24.7-45.86 1.77-119.95 9.71-168.45 7.94-48.51 46.74-71.44 81.13-56.44 34.4 14.99 64.39 67.9 95.25 111.12 30.87 43.21 62.62 76.73 108.48 91.72 45.86 14.99 105.84 11.47 119.07 34.4 13.23 22.93-20.29 72.32-43.22 119.95-22.93 47.62-35.27 93.48-26.01 151.25 9.26 57.76 40.12 127.44 64.81 162.28 24.7 34.83 43.22 34.83 70.56 22.49 27.34-12.35 63.5-37.05 89.07-65.27 25.58-28.22 40.58-59.97 57.77-81.58 17.2-21.61 36.61-33.07 63.95-22.49 27.34 10.58 62.62 43.22 95.69 89.52 33.08 46.3 63.94 106.27 74.52 143.75 10.59 37.48.89 52.48-40.12 53.8-41.01 1.32-113.33-11.02-158.75-8.37-45.42 2.64-63.95 20.28-78.06 37.48-14.11 17.2-23.81 33.95-18.52 73.2 5.29 39.25 25.58 100.98 53.8 144.2 28.22 43.21 64.38 67.91 96.13 62.62 31.75-5.3 59.09-40.57 96.13-72.76 37.04-32.2 83.79-61.3 121.71-67.47 37.93-6.18 67.03 10.58 97.46 49.39 30.43 38.8 62.18 99.66 71.88 151.7 9.7 52.03-2.64 95.24-33.07 103.18-30.43 7.94-78.94-19.41-122.6-38.81-43.65-19.4-82.46-30.87-114.21-27.34-31.75 3.53-56.44 22.05-71 48.51-14.55 26.46-18.96 60.85-11.47 101.86 7.5 41.01 26.91 88.64 47.19 131.41 20.29 42.78 41.45 80.7 75.4 84.23 33.96 3.53 80.71-27.34 127.01-65.71 46.3-38.36 92.17-84.22 146.41-121.26 54.24-37.04 116.85-65.27 189.17-83.35s154.35-26.01 158.76-17.63c4.41 8.37-68.8 33.07-125.25 63.5-56.44 30.42-96.12 66.58-126.11 105.38-29.99 38.81-50.27 80.27-43.66 115.98 6.61 35.72 40.13 65.71 104.07 64.38 63.94-1.32 158.31-33.95 248.71-93.48s176.83-145.96 247.38-288.83c70.56-142.88 125.25-342.21 137.59-483.32 12.35-141.11-17.63-224.01-38.36-295-20.73-71-32.19-130.1-25.58-205.5 6.61-75.41 31.31-167.13 60.85-239.89 29.55-72.76 63.94-126.56 76.73-126.56 12.79 0 3.97 53.8 22.05 85.99 18.08 32.19 63.06 42.78 98.78 20.73s62.18-76.74 105.83-112.9c43.66-36.16 104.52-53.79 138.03-72.31 33.51-18.52 39.69-37.93 20.28-60.42-19.4-22.49-64.38-48.06-131.41-67.46-67.03-19.41-156.1-32.64-178.15-45.43-22.05-12.79 22.93-25.13 49.83-41 26.9-15.88 35.72-35.29 33.07-72.33-2.64-37.04-16.75-91.72-3.96-112 12.79-20.29 52.47-6.18 86.86 2.2 34.4 8.38 63.51 11.02 58.65-23.81-4.85-34.84-43.65-107.16-58.65-198.88-14.99-91.73-6.17-202.85 9.26-241.65 15.44-38.81 37.49-5.3 67.03 24.69 29.55 29.99 66.59 56.44 109.36 57.33 42.78.88 91.29-23.82 140.68-51.6s99.66-58.65 162.72-68.35c63.06-9.7 138.9 1.76 190.93 25.58 52.04 23.81 80.27 59.97 98.79 108.04 18.52 48.06 27.34 108.04 46.74 137.59 19.41 29.54 49.39 28.65 101.42 23.8 52.04-4.85 126.13-13.67 141.12-.44 14.99 13.23-29.11 48.51-78.94 99.67-49.83 51.15-105.39 118.17-137.58 171.97-32.19 53.8-41.01 94.37-29.55 121.27 11.47 26.9 43.22 40.13 78.94 54.68 35.72 14.55 75.4 30.43 78.49 44.1 3.09 13.67-30.43 25.13-73.65 32.63-43.21 7.5-96.12 11.02-149.48 20.73-53.36 9.7-107.16 25.57-156.55 28.66-49.39 3.09-94.37-6.62-121.27-6.18-26.9.44-35.71 11.03-20.28 26.47 15.44 15.43 55.12 35.71 82.9 75.4 27.78 39.69 43.66 98.78 30.87 167.57-12.79 68.79-54.24 147.29-82.91 187.86-28.66 40.57-44.53 43.21-61.29 14.99-16.76-28.22-34.39-87.32-58.21-135.82-23.81-48.51-53.79-86.44-103.18-97.46-49.39-11.02-118.19 4.85-176.4 57.33-58.2 52.48-105.83 141.55-140.23 239.45-34.39 97.9-55.55 204.61-87.75 355.43-32.19 150.81-75.4 345.72-128.76 497.86-53.36 152.13-116.86 261.49-194.91 342.63-78.05 81.14-170.66 134.05-217.85 170.65-47.18 36.61-48.94 56.89-29.54 69.24 19.4 12.35 59.97 16.76 163.16.44 103.19-16.31 268.99-53.36 399.08-123.04 130.09-69.67 224.46-171.97 318.39-306.91 93.93-134.94 187.41-302.51 332.49-448.91 145.08-146.41 341.76-271.64 490.8-377.03 149.05-105.4 250.48-190.94 315.74-298.54 65.26-107.6 94.37-237.24 142.43-351.01 48.07-113.78 115.1-211.67 141.12-370.42 26.02-158.76 11.02-378.36 33.51-542.4 22.49-164.05 82.47-272.53 143.32-365.57 60.86-93.05 122.59-170.66 151.69-186.97 29.11-16.32 25.58 28.66 33.96 83.78 8.38 55.12 28.66 120.39 53.79 178.16 25.14 57.76 55.13 108.03 56.45 133.17 1.32 25.13-26.02 25.13-58.21 22.05-32.19-3.09-69.23-9.27-103.19 5.29-33.95 14.55-64.82 49.83-89.52 112.01-24.69 62.18-43.21 151.25-44.53 189.62-1.32 38.36 14.55 26.01 45.42 3.96s76.73-53.8 127.44-77.17c50.71-23.37 106.28-38.37 156.99-74.97 50.71-36.6 96.57-94.8 151.69-131.4 55.12-36.6 119.51-51.6 200.65-55.12 81.14-3.53 179.03 4.4 265.02 5.73 85.99 1.32 160.08-3.97 214.32-46.74 54.24-42.78 88.63-123.03 93.04-183 4.41-59.98-21.16-99.67-63.5-117.75-42.33-18.08-101.42-14.55-150.81 15.88s-89.08 87.75-109.37 98.34c-20.28 10.58-21.16-25.58-7.05-72.32 14.11-46.75 43.22-104.07 74.52-145.08 31.31-41.02 64.83-65.71 94.81-78.06 29.99-12.35 56.45-12.35 79.82 5.29 23.37 17.64 43.66 52.92 63.5 49.4 19.84-3.53 39.25-45.87 62.18-67.03 22.93-21.17 49.38-21.17 67.46 9.7 18.08 30.87 27.79 92.6 35.28 134.06 7.5 41.45 12.79 62.61 31.75 66.58 18.96 3.97 51.6-9.26 60.42.44s-6.18 42.33-26.47 76.29c-20.28 33.95-45.85 69.23-57.76 119.06-11.91 49.83-10.14 114.21 7.94 130.09 18.08 15.87 52.47-16.76 87.31-52.92s70.11-75.84 79.81-66.14c9.71 9.7-6.17 68.79-6.17 119.5 0 50.71 15.88 93.05 46.74 80.26 30.87-12.79 76.74-80.7 125.24-129.65 48.51-48.95 99.67-78.93 136.71-97.45 37.04-18.53 59.97-25.58 80.25-16.32 20.29 9.26 37.93 34.83 69.24 40.13 24.99 4.22 58.69-4.48 91.44-5.02z" />
      <path class="bg"
        d="M20521.41 5124.79c-1506.86-1553.47-3371.49-2757.95-5460.98-3480.51-7.54 15.46-15.18 31.17-22.41 46.73-40.56 87.31-68.79 170.22-60.85 242.54 7.94 72.32 52.03 134.05 117.29 145.52 65.27 11.47 151.7-27.34 211.67-21.16 59.97 6.17 93.49 57.32 49.39 94.36-44.1 37.04-165.8 59.98-237.24 90.85-71.44 30.86-92.6 69.67-76.73 109.36 15.88 39.68 68.79 80.25 102.3 124.35 33.52 44.1 47.63 91.72 3.53 98.78-44.1 7.06-146.4-26.46-196.67-30.87-50.27-4.41-48.51 20.29-3.53 78.5 44.98 58.2 133.18 149.93 114.65 324.56-18.52 174.62-143.75 432.14-322.79 612.06-179.03 179.92-411.87 282.22-633.24 361.6-221.36 79.38-431.27 135.82-593.55 188.74-162.27 52.92-276.93 102.3-404.81 100.54-127.88-1.77-268.99-54.68-295.45-60.85-26.46-6.18 61.74 34.39 139.35 72.32 77.61 37.92 144.64 73.19 210.78 90.83 66.15 17.64 131.42 17.64 185.21 38.81 53.8 21.16 96.14 63.5 117.3 110.24 21.17 46.74 21.17 97.9-19.4 98.78-40.57.88-121.71-48.5-168.46-59.96-46.74-11.47-59.08 14.98-37.92 52.03 21.17 37.04 75.85 84.66 109.36 134.94 33.52 50.27 45.86 103.18 18.52 102.3-27.34-.88-94.36-55.56-152.57-93.48-58.21-37.93-107.6-59.09-131.42-50.27-23.81 8.81-22.04 47.62-14.11 106.71 7.94 59.09 22.06 138.46 5.3 213.43-16.76 74.97-64.38 145.52-171.1 221.37-106.71 75.85-272.52 156.98-390.7 195.79-118.18 38.8-188.73 35.28-253.12 47.63-64.38 12.34-122.59 40.57-158.75 71.44-36.16 30.86-50.27 64.38-32.63 91.72 17.64 27.34 67.03 48.5 158.75 46.74 91.72-1.76 225.78-26.46 359.83-42.33 134.06-15.88 268.11-22.93 390.7-13.23 122.6 9.7 233.72 36.15 343.96 72.31 110.25 36.16 219.61 82.03 308.68 104.08 89.08 22.05 157.88 20.28 197.56 39.69 39.69 19.4 50.28 59.97 76.73 89.96 26.46 29.98 68.8 49.38 78.5 27.33 9.7-22.05-13.24-85.55-46.76-157.87-33.51-72.32-77.6-153.45-95.24-252.23s-8.82-215.2 9.7-276.93c18.52-61.74 46.75-68.8 66.15-2.65 19.4 66.15 29.99 205.49 43.21 247.83 13.23 42.33 29.11-12.35 44.98-78.49 15.88-66.15 31.75-143.77 67.91-217.85 36.16-74.08 92.61-144.64 141.11-201.96 48.51-57.33 89.08-101.43 90.84-94.37 1.77 7.05-35.28 65.26-44.1 97.9-8.82 32.63 10.59 39.68 36.16 37.04 25.58-2.65 57.33-14.99 109.36-12.34 52.04 2.64 124.36 20.27 166.69 37.03 42.34 16.76 54.68 32.63 42.33 44.1-12.34 11.46-49.38 18.52-61.73 30.87-12.34 12.34 0 29.98 20.28 55.56 20.29 25.57 48.52 59.09 50.28 93.49 1.76 34.39-22.93 69.67-63.5 64.38-40.57-5.29-97.02-51.16-157.87-72.32-60.85-21.17-126.12-17.64-171.1 8.82-44.98 26.46-69.67 75.84-83.79 139.34-14.11 63.5-17.63 141.12-8.81 254.01 8.82 112.89 29.98 261.05 104.94 371.3 74.97 110.24 203.74 182.56 399.53 298.98 195.79 116.41 458.61 276.93 650.87 400.4 192.27 123.47 313.98 209.9 392.47 232.83 78.5 22.93 113.77-17.63 133.17-85.54 19.41-67.91 22.93-163.17-6.18-242.54-29.1-79.38-90.83-142.88-136.69-158.75-45.86-15.88-75.85 15.87-79.38 62.62-3.52 46.74 19.41 108.47-1.76 137.58-21.16 29.1-86.43 25.58-149.05.89-62.61-24.7-122.59-70.56-136.7-135.82-14.11-65.27 17.64-149.93 89.07-209.9 71.44-59.98 182.57-95.26 285.75-81.15 103.19 14.11 198.44 77.61 256.65 190.5 58.21 112.89 79.37 275.17 70.55 405.7-8.81 130.53-47.62 229.3-53.79 287.51-6.17 58.21 20.28 75.85 87.31 84.67 67.03 8.82 174.62 8.82 254.88-13.23 80.26-22.05 133.17-66.14 131.41-107.59-1.76-41.46-58.21-80.26-89.96-150.82-31.75-70.56-38.8-172.86-8.82-262.82 29.99-89.96 97.02-167.57 170.22-220.48 73.2-52.92 152.58-81.15 154.34-45.87 1.76 35.28-74.08 134.05-104.95 220.49-30.87 86.43-16.76 160.51 7.93 215.2 24.7 54.68 59.98 89.95 106.72 83.78 46.75-6.18 104.95-53.8 147.28-111.13 42.34-57.33 68.8-124.35 83.79-201.96 15-77.61 18.52-165.81 32.63-191.38 14.11-25.58 38.81 11.46 53.8 71.43 14.99 59.97 20.29 142.88-1.76 231.96-22.05 89.07-71.44 184.32-142 291.04-70.55 106.71-162.27 224.89-189.61 280.46-27.34 55.56 9.7 48.5 127-23.81 117.3-72.32 314.85-209.91 486.83-382.77 171.98-172.86 318.39-381 436.57-585.61 118.18-204.62 208.13-405.7 253.11-560.92 44.98-155.23 44.98-264.59 17.64-368.66-27.34-104.07-82.02-202.84-162.28-278.69-80.25-75.85-186.09-128.77-292.81-155.23-106.71-26.46-214.3-26.46-233.71-42.33-19.4-15.88 49.39-47.63 143.76-59.97 94.37-12.35 214.31-5.3 305.15 28.22 90.85 33.51 152.58 93.49 182.56 89.96 29.99-3.53 28.23-70.56-6.17-179.04-34.4-108.48-101.42-258.41-184.33-383.64-82.9-125.24-181.67-225.78-314.85-290.16-133.17-64.38-300.74-92.61-474.49-83.79-173.74 8.82-353.65 54.68-478.89 115.54-125.24 60.85-195.79 136.69-216.96 258.4-21.17 121.71 7.06 289.28 65.26 375.71 58.21 86.43 146.41 91.73 214.32 88.2 67.91-3.53 115.53-15.87 119.06-3.52 3.53 12.34-37.04 49.38-74.08 103.18-37.04 53.8-70.56 124.35-90.85 220.49-20.28 96.13-27.33 217.84-5.29 313.09 22.05 95.25 73.21 164.04 159.64 230.19 86.43 66.14 208.13 129.64 334.25 179.03 126.12 49.39 256.65 84.67 365.13 92.61 108.48 7.94 194.91-11.47 243.41-59.97 48.51-48.51 59.1-126.13 64.39-199.33 5.29-73.2 5.29-141.99 8.82-206.37 3.53-64.38 10.58-124.36-7.94-160.52-18.52-36.16-62.62-48.5-120.83-38.8-58.21 9.7-130.53 41.45-216.08 7.94-85.55-33.52-184.32-132.29-191.38-164.04-7.05-31.75 77.61 3.52 149.05 11.46 71.44 7.94 129.65-11.47 197.56-25.58 67.91-14.11 145.52-22.93 209.9 0s115.54 77.61 141.11 130.53c25.58 52.91 25.58 104.07 37.92 134.94 12.35 30.86 37.05 41.45 33.52 63.5-3.53 22.05-35.28 55.56-58.21 95.25s-37.04 85.55-46.74 144.64c-9.7 59.09-15 131.41-29.11 186.98-14.11 55.56-37.04 94.36-67.91 129.64-30.86 35.28-69.67 67.03-113.77 116.42-44.09 49.39-93.48 116.41-144.64 204.61-51.15 88.19-104.06 197.56-148.16 260.18-44.1 62.61-79.38 78.49-82.91 59.09-3.53-19.41 24.7-74.09 37.93-133.18s11.46-122.59-10.59-180.8c-22.04-58.21-64.38-111.12-107.6-134.05-43.21-22.94-87.3-15.88-120.82-25.58-33.51-9.71-56.44-36.16-81.14-75.85-24.69-39.69-51.15-92.6-122.59-141.99-71.44-49.39-187.85-95.26-303.39-147.29-115.53-52.04-230.19-110.24-302.51-157.86-72.32-47.63-102.3-84.68-77.61-107.61 24.7-22.93 104.07-31.75 115.54-67.91 11.47-36.16-44.98-99.66-52.92-137.58-7.93-37.93 32.63-50.27 41.45-73.2s-14.11-56.45-18.52-82.02c-4.41-25.58 9.71-43.22 39.69-60.86 29.99-17.64 75.85-35.27 74.96-58.2-.88-22.93-48.5-51.16-86.43-101.43-37.92-50.27-66.14-122.59-85.54-168.45-19.4-45.86-29.99-65.27-53.8-37.04-23.81 28.22-60.86 104.06-93.49 166.68-32.63 62.62-60.85 112.01-75.85 169.34-14.99 57.32-16.75 122.59-24.69 141.99-7.94 19.4-22.05-7.05-63.5-37.92s-110.24-66.15-160.51-80.26c-50.27-14.11-82.02-7.06-89.08 14.99-7.05 22.05 10.58 59.1 20.28 103.2 9.7 44.09 11.47 95.25-13.23 158.75-24.69 63.5-75.84 139.34-129.64 184.32-53.8 44.98-110.24 59.09-125.24 44.98-14.99-14.11 11.47-56.45 35.28-101.42 23.82-44.98 44.98-92.61 29.1-106.72-15.87-14.11-68.78 5.29-135.81 4.41-67.03-.89-148.17-22.05-210.79-57.33-62.62-35.28-106.71-84.66-133.17-125.23-26.46-40.57-35.28-72.32-25.58-86.43 9.7-14.11 37.93-10.59 56.45-24.7 18.52-14.11 27.34-45.86 27.34-84.66 0-38.81-8.82-84.67 2.64-108.48 11.47-23.82 43.22-25.58 63.5-39.69 20.29-14.12 29.11-40.57 48.51-63.5s49.39-42.34 88.19-53.8c38.81-11.47 86.43-14.99 82.9-37.04-3.52-22.05-58.2-62.62-96.13-112.01-37.92-49.39-59.08-107.6-32.63-105.83 26.46 1.76 100.55 63.49 156.11 97.01 55.56 33.51 92.6 38.81 112.88 17.64 20.29-21.17 23.82-68.79 42.34-77.61 18.52-8.82 52.04 21.16 82.02 31.75 29.99 10.58 56.44 1.76 84.66-34.4 28.23-36.16 58.21-99.66 104.07-136.7 45.87-37.04 107.6-47.63 125.24-29.99 17.64 17.64-8.82 63.5-29.99 114.66-21.16 51.15-37.04 107.59-29.98 155.22 7.06 47.62 37.04 86.43 80.25 89.08 43.22 2.64 99.67-30.88 142.88-74.09 43.22-43.22 73.2-96.13 83.78-142.87 10.59-46.75 1.77-87.32 0-150.82-1.76-63.5 3.54-149.93 25.58-206.37 22.05-56.45 60.86-82.9 100.54-114.65 39.69-31.75 80.26-68.8 80.26-79.38 0-10.59-40.57 5.29-102.31 15.87-61.73 10.58-144.64 15.88-211.67 5.3-67.02-10.59-118.17-37.05-182.55-69.68-64.38-32.63-142-71.44-142-90.84 0-19.4 77.62-19.4 135.82-35.27 58.21-15.88 97.02-47.63 152.58-79.38 55.56-31.75 127.88-63.5 194.91-72.32 67.03-8.82 128.76 5.29 189.61 38.81 60.86 33.51 120.84 86.42 175.52 111.12 54.68 24.69 104.06 21.17 179.02 4.41 74.97-16.76 175.52-46.74 298.11-58.2 122.59-11.47 267.23-4.42 435.68 65.26 168.45 69.67 360.72 201.96 485.07 350.13 124.35 148.16 180.8 312.21 213.43 439.21 32.63 127 41.45 216.96 67.02 253.12 25.58 36.16 67.92 18.52 110.25-15.87 42.33-34.4 84.67-85.56 121.71-105.84 37.04-20.29 68.79-9.7 96.13-6.17 27.34 3.52 50.27 0 67.91-39.69 17.64-39.69 29.98-115.54 92.6-159.64 62.62-44.1 175.51-56.44 204.61-42.33 29.11 14.11-25.57 54.68-57.32 102.31-31.75 47.62-40.57 102.3-21.17 155.22 19.4 52.91 67.03 104.07 110.24 117.3 43.22 13.23 82.02-11.47 93.49-60.85 11.47-49.39-4.41-123.48-9.7-181.68-5.29-58.21 0-100.55 45.86-82.03 45.86 18.52 132.29 97.9 199.32 159.64 67.03 61.73 114.65 105.82 151.69 176.38 37.05 70.56 63.5 167.57 89.08 192.27 25.58 24.69 50.27-22.93 79.37-68.79 29.11-45.87 62.63-89.96 106.72-67.03 44.1 22.93 98.78 112.89 147.28 149.93 48.51 37.04 90.85 21.17 150.82 6.18 59.97-15 137.58-29.11 198.43-37.93 60.86-8.82 104.95-12.35 181.68-7.06 56.89 3.92 131.72 12.71 197.9 33.87z" />
      <path class="bg"
        d="M10492.87 4243.66c15.43 10.81 31.16 21.06 47.24 30.58 95.24 56.44 202.84 88.19 328.96 87.31 126.12-.88 270.75-34.4 395.1-91.72 124.36-57.33 228.43-138.47 349.25-208.14 120.83-69.68 258.42-127.88 428.63-149.93 170.22-22.05 373.06-7.94 550.33 14.99 177.28 22.93 328.97 54.68 467.44 60.86 138.47 6.17 263.7-13.24 377.47-47.63 113.77-34.4 216.08-83.78 279.58-130.52 63.5-46.75 88.19-90.84 78.49-144.64-9.7-53.8-53.79-117.31-116.41-154.35-62.62-37.04-143.76-47.63-223.14-22.93-79.37 24.69-156.99 84.67-211.67 132.3-54.68 47.62-86.43 82.9-106.72 82.9-20.28 0-29.09-35.28-9.69-76.73s67.03-89.08 89.96-129.65c22.93-40.57 21.16-74.08 14.1-114.65-7.05-40.57-19.39-88.2 7.06-104.07 26.46-15.88 91.73 0 152.58 6.17 60.85 6.17 117.3 2.65 143.75-28.22 26.46-30.87 22.94-89.08 27.35-119.95 4.41-30.87 16.75-34.39 57.32-3.52 40.57 30.86 109.37 96.13 198.44 122.59 89.08 26.45 198.44 14.11 261.94-42.33 63.5-56.45 81.14-156.99 21.17-236.36-59.97-79.38-197.56-137.59-227.55-167.57-29.98-29.99 47.63-31.76 124.36-19.41 76.73 12.35 152.57 38.8 211.66 81.14 59.09 42.33 101.43 100.54 107.6 170.22 6.17 69.67-23.81 150.81-74.97 216.08-51.15 65.26-123.46 114.64-156.98 159.62-33.51 44.98-28.22 85.55-.88 114.66 27.34 29.1 76.73 46.74 157.87 37.04 81.14-9.7 194.02-46.75 286.62-105.84 92.61-59.09 164.93-140.22 224.02-254.87 59.09-114.66 104.96-262.82 106.72-347.49 1.77-84.67-40.57-105.84-88.2-92.61-47.62 13.23-100.53 60.85-141.99 94.37-41.45 33.51-71.43 52.92-77.61 22.05-6.17-30.87 11.46-112.01 23.81-175.51 12.35-63.5 19.4-109.36-4.41-116.41-23.81-7.06-78.49 24.69-136.7 53.8-58.21 29.1-119.94 55.55-134.06 44.97-14.11-10.58 19.41-58.21 47.63-104.07 28.22-45.86 51.15-89.95 25.57-108.47-25.57-18.53-99.66-11.47-171.98-3.53-72.31 7.93-142.87 16.75-164.04-1.77-21.16-18.52 7.06-64.38 67.03-99.66s151.7-59.97 137.59-94.37c-14.11-34.4-134.06-78.49-221.37-119.06-87.31-40.57-141.99-77.61-115.53-94.36 26.46-16.76 134.05-13.24 200.19-23.82 66.15-10.58 90.85-35.28 123.48-45.86 32.63-10.58 73.2-7.06 109.36-9.7 36.16-2.65 67.91-11.47 78.49-37.04 10.59-25.58 0-67.92 14.99-87.32 15-19.4 55.57-15.88 74.09-47.63 18.52-31.75 14.99-98.77 29.1-126.99 14.11-28.23 45.86-17.64 85.55 1.76 39.69 19.4 87.31 47.63 138.46 22.94 40.82-19.71 83.88-73.11 135.9-123-829.39-275.15-1693.26-474.72-2583.46-590.46-5.42 45.73-14.18 103.06-24.53 172.82-13.22 89.06-29.1 198.44-33.51 258.41-4.41 59.97 2.65 70.56 37.92 59.98 35.28-10.59 98.78-42.35 123.47-43.23 24.7-.88 10.59 29.1-10.58 86.43-21.16 57.33-49.39 141.99-82.02 203.73-32.63 61.74-69.67 100.54-84.67 127-14.99 26.46-7.93 40.58 1.77 65.28 9.7 24.69 22.05 59.96 22.05 102.3 0 42.33-12.35 91.72-59.98 154.34-47.62 62.62-130.52 138.46-162.27 177.27-31.75 38.8-12.35 40.57 29.1 58.21 41.45 17.63 104.95 51.15 152.57 90.84 47.63 39.68 79.38 85.55 80.26 104.95.89 19.4-29.1 12.35-72.32 9.7-43.21-2.65-99.65-.88-155.22 17.64-55.56 18.52-110.24 53.79-158.75 43.21-48.5-10.58-90.84-67.03-110.24-114.65-19.4-47.63-15.88-86.43-29.99-91.72-14.11-5.3-45.86 22.93-99.66 52.92-53.8 29.98-129.64 61.73-207.25 70.55-77.61 8.82-156.99-5.29-202.85-1.76-45.86 3.53-58.2 24.69-99.66 41.45-41.45 16.76-112 29.1-191.38 37.04-79.37 7.94-167.57 11.46-238.13 19.4-70.55 7.94-123.46 20.28-183.44 51.15-19.21 9.89-39.16 21.68-59.58 34.76v480.58c39.26 1.39 76.4 1.59 109.85-.28 78.49-4.41 136.7-20.28 175.5-42.33 38.81-22.05 58.22-50.27 55.57-91.72-2.64-41.45-27.34-96.14-7.94-160.52 19.41-64.38 82.91-138.47 128.77-156.99 45.86-18.52 74.08 18.53 71.43 67.92-2.64 49.39-36.16 111.12-60.85 156.1-24.69 44.98-40.57 73.2-49.39 96.13-8.82 22.93-10.58 40.57 37.04 29.99 47.63-10.59 144.64-49.39 171.98-51.15 27.35-1.77-14.99 33.51-86.43 90.84-71.43 57.32-171.98 136.7-242.54 195.79-70.55 59.09-111.12 97.89-205.49 100.54-28.18.79-61.16-1.65-97.5-6.34z" />
      <path class="bg"
        d="M12193.56 982.99c-557.41-67.64-1124.99-102.47-1700.69-102.47v1598.07c173.91 0 347.81 0 532.66-16.75 184.85-16.76 380.64-50.28 531.45-99.66 150.81-49.39 256.65-114.66 320.15-179.04s84.66-127.88 89.95-186.09c5.3-58.21-5.29-111.12-50.27-97.01-44.97 14.11-124.35 95.25-164.04 118.18-39.68 22.93-39.68-12.35-37.92-49.39 1.77-37.05 5.29-75.85-41.45-77.61-46.74-1.77-143.76 33.51-212.55 67.91-68.79 34.39-109.36 67.91-124.36 59.97-14.99-7.94-4.4-57.33 22.94-107.6 27.34-50.27 71.43-101.43 123.46-133.18 52.04-31.75 112.02-44.09 127.01-63.49 14.99-19.41-14.99-45.86-102.31-130.53-87.31-84.67-231.94-227.54-253.11-276.93-21.17-49.39 81.14-5.3 136.7 16.75 55.56 22.05 64.38 22.05 59.09-30.86-5.29-52.92-24.7-158.76-20.29-196.68 4.41-37.92 32.64-7.94 55.57 16.76 22.93 24.69 40.57 44.1 59.09 30.87 18.52-13.23 37.92-59.09 86.34-97.88 48.42-38.79 125.87-70.52 203.48-65.22 77.61 5.29 155.39 47.59 203.98 66.98s68 15.86 109.45-21.18c13.49-12.06 29.33-27.67 45.67-43.92z" />
      <path class="bg"
        d="M15704.54 21134.49c536.88 103.67 1060.57 295.01 1652.24 637.31 673.8 389.82 1435.81 975.43 1934.99 1458.73 499.18 483.31 735.54 864.32 903.11 1164.18 68.81 123.13 126.02 232.6 176.39 333.98a14038.99 14038.99 0 00272.78-280.48c-32.89-89.17-70.73-197.11-114.19-327.51-211.66-634.99-557.39-1802.69-751.42-2384.78-194.02-582.08-236.36-578.56-470.96-527.41-234.59 51.16-661.46 149.94-1075.98 107.6-414.51-42.33-816.67-225.77-1084.79-506.23-268.11-280.46-402.16-657.94-439.21-1023.07-37.04-365.12 22.94-717.89 32.64-945.44 9.7-227.54-30.87-329.84-76.73-413.63-45.86-83.78-97.02-149.05-80.26-171.1 16.76-22.04 101.42-.88 211.66-51.15 110.25-50.27 246.07-171.98 307.8-371.3 61.74-199.32 49.4-476.25 15-683.51-34.39-207.25-90.84-344.84-169.33-425.98-78.49-81.14-179.04-105.83-273.41-91.72-94.36 14.11-182.56 67.02-218.72 40.56-36.16-26.45-20.28-132.29-31.75-255.76-11.46-123.47-50.27-264.58-127-402.17-76.72-137.58-191.38-271.63-316.77-411.93-125.38-140.29-261.5-286.82-347.93-464.09-16.2-33.23-30.67-67.54-43.17-102.83-98 2730.37-2342.35 4913.77-5096.66 4913.77v2609.73c417.07-254 834.14-508 1346.06-763.77 511.93-255.76 1118.7-513.29 1746.64-647.35 627.05-133.86 1275.21-144.61 1891.76-53.32z" />
      <path class="bg"
        d="M15576.22 14435.4c56.82-194.63 173.3-397.67 353.41-592.91 209.89-227.54 506.24-444.5 704.67-572.38 198.44-127.88 298.99-166.69 340.44-226.66 41.45-59.97 23.81-141.11-33.52-376.59-57.32-235.48-154.34-625.3-218.72-822.86-64.38-197.55-96.13-202.85-116.42-194.03-20.28 8.82-29.1 31.75-38.8 81.14-9.7 49.39-20.29 125.24-47.63 197.56-27.34 72.32-71.43 141.11-104.95 194.91-33.51 53.8-56.44 92.6-73.2 149.04-16.75 56.45-27.34 130.54-58.21 189.63-30.86 59.09-82.02 103.18-127.88 147.28-45.86 44.1-86.43 88.19-104.95 164.04-18.52 75.85-15 183.45-15 255.77 0 72.32-3.52 109.36-25.57 90.84-22.05-18.52-62.62-92.61-109.37-139.35-46.74-46.74-99.65-66.15-171.09-41.46-71.44 24.7-161.39 93.5-261.94 127.01-62.8 20.93-129.73 28.09-186.4 24.3 156.1 424.6 257.35 875.7 295.13 1344.72z" />
      <path class="bg"
        d="M15183.98 12846.32c14.29-25 27.08-49.21 32.14-70.99 11.46-49.39-16.76-86.44-75.85-135.83-23.95-20.01-52.96-42.07-81.99-64.6a5081.525 5081.525 0 01125.7 271.42z" />
      <path class="bg"
        d="M14935.17 12343.52c28.92-30.9 79.34-55.76 127.49-64.73 52.03-9.7 101.43-.88 132.3 3.53 30.87 4.41 43.21 4.41 51.15-20.29 7.94-24.69 11.46-74.08 29.1-126.12 17.64-52.03 49.39-106.71 85.55-102.3 36.16 4.41 76.73 67.91 103.19 137.58 26.46 69.68 38.8 145.52 65.26 146.4 26.46.89 67.03-73.2 105.83-79.37 38.81-6.17 75.86 55.56 95.26 121.71 19.4 66.15 21.17 136.7 34.39 186.09 13.23 49.39 37.93 77.61 74.97 61.73 37.04-15.87 86.43-75.84 127.88-130.52 41.45-54.68 74.97-104.07 114.65-161.4 39.69-57.32 85.56-122.59 142-210.79 56.45-88.19 123.47-199.31 137.58-252.23 14.11-52.92-24.69-47.62-76.73-33.51-52.03 14.11-117.3 37.04-174.63 36.15-57.32-.88-106.71-25.57-119.94-80.26-13.23-54.68 9.71-139.34 28.23-190.5 18.52-51.15 32.63-68.78 46.74-39.68 14.11 29.11 28.22 104.95 60.85 131.41 32.63 26.46 83.79 3.53 112.01-37.92s33.52-101.43 42.34-150.82c8.82-49.39 21.16-88.19 58.2-102.31 37.05-14.11 98.78-3.52 150.81 3.53 52.04 7.06 94.38 10.59 119.07 1.77 24.69-8.82 31.75-29.99-32.64-245.19-64.38-215.19-200.19-624.41-279.57-849.75-79.37-225.33-102.3-266.78-129.2-286.63-26.9-19.84-57.77-18.07-89.96-8.37-32.19 9.7-65.71 27.33-82.47 55.11-16.75 27.79-16.75 65.71-29.1 90.4-12.34 24.7-37.04 36.17-69.67 23.38-32.63-12.79-73.2-49.83-88.2-109.8-14.99-59.97-4.4-142.88 9.71-181.25 14.11-38.36 31.75-32.18 50.71-18.07s39.25 36.15 75.41 40.12c36.16 3.97 88.19-10.14 124.79-25.58 36.61-15.43 57.77-32.18 62.62-59.52 4.85-27.34-6.61-65.27-24.69-108.92-18.08-43.66-42.78-93.05-71-116.42-28.22-23.37-59.97-20.73-93.49-7.94-33.51 12.79-68.79 35.72-88.2 63.06-19.4 27.34-22.92 59.09-40.56 74.53-17.64 15.43-49.39 14.54-76.29-4.86-26.9-19.4-48.95-57.33-64.83-106.27-15.87-48.95-25.57-108.92-16.31-145.08 9.26-36.16 37.49-48.51 67.03-48.07 29.55.44 60.41 13.67 86.43 25.14 26.02 11.46 47.18 21.17 81.58 15.44 34.4-5.74 82.02-26.9 90.84-51.59 8.82-24.7-21.16-52.93-86.43-77.18-65.26-24.26-165.81-44.54-283.55-85.99-117.74-41.46-252.68-104.08-405.7-227.11-153.02-123.04-324.11-306.48-466.99-455.53-142.87-149.05-257.53-263.71-285.75-286.64-28.22-22.93 29.99 45.87 116.42 235.49 86.43 189.61 201.09 500.06 246.06 789.34 44.98 289.27 20.29 557.39.88 715.26-19.4 157.87-33.51 205.49-21.16 235.48 12.35 29.99 51.15 42.33 79.37 65.26 28.23 22.93 45.86 56.45 7.05 78.49-38.8 22.05-134.05 32.64-196.67 89.96-62.62 57.33-92.6 161.4-108.48 238.13-15.87 76.73-17.64 126.12 20.28 154.34 37.93 28.22 115.55 35.28 186.98 33.51 71.44-1.76 136.71-12.35 142.88-1.77 6.17 10.59-46.74 42.34-80.26 77.62-33.51 35.28-47.63 74.08-40.58 112 7.06 37.93 35.29 74.98 59.98 98.79 24.7 23.81 45.86 34.4 44.98 53.8-.88 19.4-23.81 47.62-59.97 80.25s-85.55 69.68-142.88 98.78c-57.32 29.11-122.59 50.27-208.14 67.91-46.97 9.69-100.07 18.31-147.44 22.07 220.26 254.78 415.73 531.61 582.63 826.72z" />
      <path class="bg"
        d="M14196.27 11344.12c-.4-20.35-1.87-40.03-5.85-57.53-8.81-38.8-29.98-67.03-53.8-87.32-23.81-20.28-50.27-32.62-92.61-18.51-2.28.76-4.61 1.6-6.97 2.5a5139.012 5139.012 0 01159.23 160.86z" />
      <path class="bg"
        d="M10492.87 9274.72c68.69 43.13 134 81.05 189.15 103.34 82.89 33.51 142.88 31.74 200.2-.89 57.33-32.63 112.01-96.13 172.86-98.77 60.86-2.65 127.88 55.55 179.03 67.9 51.16 12.35 86.44-21.17 111.13-67.03 24.7-45.86 38.81-104.06 65.27-123.46 26.46-19.41 65.26 0 90.84-17.64s37.92-72.33 60.85-95.26c22.93-22.93 56.45-14.11 88.2-15.87 31.75-1.77 61.73-14.11 80.25-35.28 18.52-21.17 25.58-51.15 52.92-41.45 27.34 9.7 74.96 59.09 95.24 101.43 20.29 42.33 13.24 77.6 26.46 102.3 13.23 24.69 46.75 38.81 78.5 59.1 31.75 20.28 61.73 46.73 43.21 61.73-18.52 14.99-85.54 18.51-124.35 45.85-38.8 27.34-49.39 78.5-73.2 117.31-23.81 38.8-60.86 65.26-101.43 62.62-40.57-2.65-84.66-34.4-110.24-28.22-25.57 6.17-32.63 50.26-48.51 48.5-15.87-1.77-40.56-49.39-62.61-73.2-22.05-23.82-41.46-23.82-79.38-2.65-37.92 21.16-94.37 63.5-131.41 102.31-37.04 38.8-54.68 74.08-95.25 68.79-40.57-5.29-104.07-51.16-168.45-70.56-64.38-19.4-129.65-12.35-148.17 8.82-18.52 21.17 9.71 56.44.89 104.07-6.68 36.08-34.65 79.26-65.82 102.28 1180.89 74.53 2252.71 550.98 3080.16 1294.05 31.6-45.59 82.27-93.35 143.92-143.96 83.78-68.79 187.86-142.88 256.65-206.38 68.79-63.5 102.31-116.41 105.83-153.46 3.53-37.04-22.92-58.2-44.97-74.08-22.05-15.87-39.69-26.46 1.76-70.56 41.45-44.09 142-121.7 198.44-199.31 56.45-77.61 68.79-155.23 67.91-316.63-.88-161.39-15-406.57-89.08-694.96-74.08-288.4-208.14-620.02-340.43-874.9-132.29-254.88-262.82-433.04-504.48-590.02-241.65-156.99-594.43-292.81-782.29-358.95-187.85-66.15-210.78-62.63-194.02-46.75 16.76 15.87 73.2 44.1 99.66 74.97 26.46 30.86 22.93 64.38 25.57 91.72 2.65 27.34 11.47 48.5 60.86 71.44 49.39 22.93 139.35 47.62 209.02 121.71 69.68 74.08 119.06 197.56 111.12 363.37-7.94 165.8-73.21 373.93-171.11 530.04-97.9 156.1-228.42 260.17-252.24 253.12-23.81-7.06 59.1-125.24 111.13-248.71 52.04-123.47 73.2-252.24 77.61-359.83 4.41-107.6-7.94-194.03-41.46-276.05-33.51-82.02-88.19-159.63-106.71-172.86-18.52-13.23-.88 37.92-5.29 102.3s-30.87 142-45.87 156.99c-14.99 14.99-18.51-32.63-29.98-102.3-11.46-69.68-30.87-161.4-94.37-263.7-63.5-102.31-171.09-215.2-247.82-280.46-76.73-65.27-122.59-82.91-164.04-85.55-41.45-2.65-78.5 9.69-214.32 70.55-135.82 60.85-370.41 170.22-530.93 254.89-160.51 84.66-246.94 144.63-272.52 182.56-25.57 37.92 9.7 53.79 62.62 93.48 52.92 39.69 123.47 103.19 165.8 185.21 42.34 82.02 56.45 182.56 40.57 283.1-15.87 100.54-61.73 201.09-81.13 217.85-19.4 16.75-12.35-50.28-34.4-138.47-22.04-88.2-73.2-197.56-137.58-268.99-64.38-71.44-142-104.96-224.9-104.96s-171.1 33.52-255.77 87.32c-84.66 53.79-165.8 127.88-247.82 213.43a3267 3267 0 00-31.28 33.11z" />
      <path class="bg"
        d="M10492.87 9619.88v130.65c77.08 0 153.77 1.71 230 5.09-17.49-12.7-35-29.16-53.2-44.19-40.56-33.52-84.66-59.97-132.29-77.61-14.54-5.39-29.42-9.95-44.51-13.94z" />
      <path class="bg"
        d="M10492.87 14450.53c220.91 0 400 179.09 400 400s-179.09 400-400 400-400-179.09-400-400 179.09-400 400-400z" />
    </g>
  </g>
</svg>