<svg width="210mm" height="210mm" viewBox="0 0 21000 21000" shape-rendering="geometricPrecision"
  text-rendering="geometricPrecision" image-rendering="optimizeQuality" fill-rule="evenodd" clip-rule="evenodd"
  xmlns="http://www.w3.org/2000/svg">
  <defs>
    <style>
      svg {
        background-color: #fff;
      }

      .bg {
        fill: #fff
      }

      .fg {
        fill: #201922;
      }
    </style>
  </defs>
  <path class="fg"
    d="M7419.499 17773.319c-6.368 24.198-34.387 36.934-57.312 25.472-527.267-261.081-862.221-811.26-857.127-1398.373 0-22.924 19.104-40.754 42.029-40.754 291.652 8.915 557.833-193.581 631.7-472.492 5.095-17.83 19.105-29.292 36.935-30.565 155.378-10.189 308.21-40.754 455.946-87.876 44.576-14.009 73.868 52.216 49.67 84.055-24.198 31.839-92.972 5.094-163.02 73.867-89.151 85.328-30.566 187.213-104.434 182.119-110.803-8.915-210.143 87.876-203.775 197.403 6.368 100.611-95.52 19.103-173.208 147.733-70.048 115.894 28.019 188.487-35.66 217.779-122.266 56.037-118.445 244.524-3.822 306.929 62.406 33.113-43.302 96.791 14.01 220.326 57.312 120.989 174.482 85.329 150.284 156.649-40.755 115.894 45.849 247.071 168.114 259.807 54.764 5.094 58.585 126.082 49.67 157.921zm226.7-471.218c-21.652-43.301-48.397-85.329-72.595-126.083-33.114-57.31-184.671-306.929-161.747-362.965 81.51-193.582 207.596-313.297 357.88-450.842 285.284-261.08 471.228-593.48 579.483-964.087 6.368-20.377 94.246-92.97 119.718-119.715l-520.9 1241.724c-35.66 86.602-241.981 238.156-304.387 387.163-15.283 38.207 2.547 123.536 20.378 159.196 35.66 73.866 120.99 109.526 197.406 82.781 40.755-14.009 99.34-62.404 118.444-100.611 73.869-150.281 25.472-401.173 62.406-489.048l514.53-1228.989c0 49.669 12.737 170.658 1.274 188.487-499.247 857.108-132.453 1114.368-347.69 1628.888-26.746 62.404-427.927 147.733-514.53 174.478-19.105 6.368-39.482-2.547-49.67-20.377zm2854.118-6560.124c-129.907 0-235.615-104.433-235.615-234.336 0-129.903 105.708-235.609 235.615-235.609 129.906 0 234.34 105.706 234.34 235.609 0 129.903-104.434 234.336-234.34 234.336zm2013.548-3444.99c3.821-61.13 45.849-597.3 31.84-625.318-19.104-35.66-112.076 22.924-141.369-45.85-31.84-73.865 75.142-66.224 98.067-66.224 185.944-7.641 118.444-50.943 197.406-75.14 28.019-8.915 58.586 22.924 54.765 49.669-12.736 95.517-71.321 761.59-57.312 797.25 15.283 38.207 40.755 12.736 81.51 21.65 59.859 14.01 50.944 100.612-20.377 96.792-77.69-5.095-155.379-7.642-234.341-3.821-39.482 1.274-113.35 16.556-126.086-39.48-8.915-47.122 44.576-59.858 80.236-56.037 15.283 1.273 35.661-36.934 35.661-53.49zm-2437.654 9758.043c-775.618-189.761-1323.262-868.57-1348.734-1662-1.273-29.292 26.746-49.669 54.765-40.754 78.962 28.018 160.472 54.763 241.982 78.961 15.283 3.82 26.745 17.829 28.02 35.659 68.773 742.488 696.654 1319.412 1448.073 1319.412 751.419 0 1378.026-576.924 1446.8-1319.412 1.273-17.83 12.736-31.839 29.292-35.659 81.51-24.198 161.746-50.943 241.983-78.961 26.745-8.915 54.764 11.462 54.764 40.754-26.745 793.43-573.116 1472.239-1350.007 1662-132.453 33.112-291.652 142.639-393.54 255.986-16.556 17.83-44.575 17.83-61.132 0-101.887-114.621-257.266-222.874-392.266-255.986zm4227.05-8149.532c-131.18-14.01-183.397-84.055-340.049-129.903-22.924-6.368-36.934 14.009-16.556 33.113 118.444 109.526-183.398 199.949-119.718-71.32 81.51-346.41 420.285-249.618 431.747-489.048 2.548-68.773-14.009-131.177-73.868-171.931-127.359-86.603-227.973 21.65-155.378 48.395 106.982 38.207 85.331 185.94-21.651 183.393-113.35-3.82-183.397-152.827-113.35-264.901 89.152-142.64 471.229-110.8 556.56 133.724 48.396 138.819-14.01 261.08-150.284 313.297-99.34 36.933-259.813 67.499-328.587 150.28-7.641 8.915 0 21.65 10.189 20.377 119.718-8.915 284.011 85.329 338.775 76.414 64.954-8.915 7.642-90.423 84.058-117.168 16.556-6.368 72.594-1.273 49.67 91.697-19.104 81.508-40.755 205.044-151.558 193.58zM7543.037 17873.93c-24.198-7.642-35.66-36.933-22.924-58.584 16.556-29.292 105.708-110.8 147.736-76.414 50.944 43.301 122.265 56.037 184.67 38.207 120.992-36.933 113.35-154.101 177.03-115.894 99.34 58.584 239.435 8.915 273.822-104.432 22.925-72.593 108.255 35.659 219.058-68.773 118.444-112.073 1.273-199.949 71.32-227.968 110.803-44.574 149.01-194.855 73.869-286.551-45.85-58.584 77.69-68.773 78.963-205.044 1.274-132.451-119.718-152.828-64.953-206.317 73.868-72.593 75.142-197.403 6.368-275.09-43.302-47.122 57.31-115.894 86.604-59.857 71.32 138.818 159.2 268.721 262.36 385.889 12.736 14.009 14.01 33.113 5.094 48.396-129.906 212.685-124.812 485.227 16.557 692.818 52.217 76.414 122.265 110.8 80.236 152.828-416.464 416.455-1037.977 560.367-1595.81 366.786zm1849.255-1861.95c8.915-64.951-25.472-129.903-84.057-156.648-49.67-22.924 1.273-77.687-20.378-142.639-26.745-78.961-92.972-85.329-64.953-132.451 16.557-28.018 17.83-87.875 67.5-76.413 790.901 191.034 1627.651 191.034 2419.825 0 22.924-5.095 45.849 8.915 49.67 31.839 6.368 31.839 43.302 71.319 6.368 98.064-52.218 38.207-73.869 109.527-53.491 170.658 17.83 50.942-56.038 52.216-87.878 114.62-34.387 66.226 5.094 124.809-47.123 137.545-78.963 19.104-127.359 101.885-108.255 179.573-95.52-19.104-187.218 56.036-183.397 154.101-75.142-30.566-161.746 5.094-194.86 78.961-21.651 48.395-75.142 2.547-142.642 22.924-63.68 20.377-77.689 98.064-127.359 73.866-58.586-29.292-131.18-19.103-177.03 29.292-36.934 39.481-71.321-26.744-142.642-24.197-86.604 2.547-108.255 63.678-145.189 24.197-45.85-48.395-119.718-58.584-177.029-29.292-48.397 24.198-61.133-50.942-126.086-72.593-64.953-22.924-122.265 24.198-143.916-24.197-33.113-73.867-119.717-109.527-194.86-78.961 3.82-98.065-89.151-173.205-183.397-152.828 10.19-44.575 0-92.97-29.292-129.903-43.302-56.037-117.17-42.028-109.53-95.518zm890.24-1062.151c-212.689-291.646-156.651-850.741 262.36-876.212h1.274c296.747 3.821 338.775 296.74 171.935 306.929-95.52 6.368-177.029-140.092-89.152-182.12 52.218-25.471-166.84-114.62-239.435 110.8-6.368 19.104-42.028 123.536-21.651 133.724 19.104 8.915 49.67-58.583 126.086-57.31 245.803 5.094 394.813 464.851 109.529 624.046l-73.869-113.347c49.67-100.612 49.67-259.807 17.831-360.418-31.84-106.98-117.171-72.594-160.473 90.423-25.472 90.423-31.84 185.94-5.094 277.636 7.641 28.019 38.207 64.952 71.321 58.584l52.217 80.235c-86.604 14.009-170.661-20.377-222.879-92.97zm4370.967-4610.299c-171.935 1.273-241.983-333.674 101.887-343.862 135.001-3.821 285.285 68.772 333.681 201.223l1.274 2.547c62.406 259.807-262.36 233.062-169.388 285.278 136.274 76.414 220.331 257.26 90.425 382.069-216.51 208.864-634.249 12.735-559.107-194.855 38.208-104.433 199.954-59.858 219.058 31.839 15.283 76.414-39.481 84.055-64.953 95.517 0 35.66 95.519 73.867 136.274 68.772 70.048-7.641 117.171-36.933 123.539-110.8 6.368-77.687 15.283-193.581-66.227-234.335-95.519-48.396-140.095 16.556-194.86-19.104-43.302-26.744-59.858-119.715 67.501-105.705 73.868 7.641 168.114-2.548 205.048-76.414 52.217-108.253 7.642-247.071-129.906-243.251-100.614 2.547-104.435 71.32-77.689 75.14 99.34 14.01 105.708 184.667-16.557 185.941zm-2236.427 3723.899c5.094 82.781-91.699 81.508-119.718 17.83-11.462-29.292 14.01-92.971 20.378-126.083 28.019-129.904 35.66-261.081 39.481-393.531 1.274-16.557 25.472-11.462 35.661-10.189 84.057 5.094 168.114 21.651 250.897 19.104 11.463-1.274 114.624-1.274 122.265-21.651 20.378-61.131 84.057-68.772 96.793-15.283 12.736 54.764-26.745 174.478-91.699 203.77-72.594 34.387-305.662-2.547-315.85 5.095-7.642 5.094-15.283 99.338-17.831 119.715-7.641 47.121 101.888-61.131 266.181 59.857 135.001 100.612 164.293 275.09 82.784 422.823-117.171 211.412-471.229 187.214-534.909-5.094-42.028-124.809 73.868-199.95 169.388-123.536 49.67 39.481 76.415 119.715 10.189 156.648-43.303 24.198 135 96.791 183.397-92.97 24.198-94.243 33.113-229.241-47.123-301.834-81.51-72.593-151.558 38.207-150.284 85.329zm1581.801-1203.518c62.406 11.462 53.491-64.951 64.953-154.101l-12.736-14.009h-300.568c-57.311 0-77.689-57.31-19.103-120.989 31.839-33.112 206.321-309.475 183.397-364.239-14.01-31.839-47.123-48.395-58.585-81.508-40.755-115.894 152.831-157.921 210.142-19.103 36.934 87.876-126.085 357.871-175.756 424.096-5.094 8.915 0 20.377 10.189 20.377h173.209c6.368 0 11.462-5.094 12.736-11.462l63.679-499.236c2.547-20.377 57.312-10.189 71.321-11.462 64.953-3.821 132.454-30.566 147.737 24.197 12.736 44.575-29.293 38.207-44.576 63.678-15.283 25.472-53.491 369.334-61.132 416.456l12.736 14.009c113.349 0 31.84-17.83 95.519-44.575 29.293-11.462 68.774 19.104 52.217 87.876-28.019 115.894 75.142 98.064-168.114 98.064-19.104 0-19.104 66.226-25.472 113.347-3.82 30.566-16.556 64.952 30.567 59.858 137.548-16.556 120.991 109.526 42.028 96.791-92.972-15.283-224.152-11.462-318.398-1.274-84.057 8.915-94.246-118.441 14.01-96.791zm-5704.417 2352.272c-579.484 542.538-1446.8 636.781-2130.718 222.873-115.897-71.319-306.936-105.706-458.493-98.064-24.2 1.273-44.576-19.104-43.303-43.301 8.916-152.828-24.198-338.768-96.793-458.483-413.917-682.63-320.945-1549.927 221.605-2129.398 20.378-21.65 54.765-15.283 67.5 10.189 36.935 76.413 75.143 152.827 115.898 227.968 7.64 15.282 6.368 33.112-5.095 45.848-477.597 574.377-439.39 1425.117 90.425 1954.919 528.54 528.529 1380.574 568.01 1954.963 90.423 12.736-11.462 30.567-12.735 45.85-5.094 75.142 40.754 150.283 78.961 227.972 115.894 25.472 11.462 30.566 47.122 10.19 66.226zm178.303-876.212c45.85 142.639-253.445 163.016-208.87-99.338 38.208-235.609 286.559-309.476 376.984-511.972 5.094-11.462-6.368-17.83-16.557-17.83-80.236-1.274-215.237-39.481-275.096-35.66-19.103 1.274-90.425 7.642-89.15 31.839 6.367 132.451-81.51 122.262-96.794 66.226-12.736-50.943 28.02-182.12 43.302-224.148 53.49-142.639 239.435-53.489 318.398 3.821 10.19 7.641 21.65 15.283 34.387 22.924 17.83 11.462 29.293-11.462 24.198-21.65-39.48-80.235 103.16-180.846 163.02-36.934 21.65 53.49 12.736 128.63 2.547 183.393-36.934 203.771-252.17 324.759-281.464 503.058-7.64 45.848-8.915 94.244 5.095 136.271zm-1417.507 1580.492c-78.963 201.223-280.19 337.494-495.427 336.221-25.472-1.274-44.576-22.924-40.755-47.122 17.83-126.083 49.67-248.345 96.793-366.786 7.64-17.83 28.019-29.292 47.122-24.198 117.17 25.471 236.888 42.028 355.333 45.848 28.019 1.274 47.122 30.566 36.934 56.037zm73.868-674.988c-53.49-81.508-171.935-92.97-238.162-20.377-31.84-75.141-118.444-110.8-193.586-82.782-19.103 7.641-40.755 0-50.943-17.83-31.84-59.857-95.52-90.423-161.746-76.414-52.218 10.189-43.302-61.131-101.888-104.432-57.311-42.027-124.812-8.915-132.453-62.404-8.915-63.679-63.68-118.442-127.36-127.357-53.49-7.641-20.377-75.14-62.405-132.45-43.303-58.584-114.624-49.669-104.435-101.885 12.736-66.226-16.557-129.904-76.415-161.743-45.85-25.471 2.547-73.867-11.463-142.639-15.283-64.952-91.698-86.602-63.68-133.724 42.03-70.046 22.925-160.469-45.85-206.317 38.209-24.198 64.955-64.952 70.049-112.074 8.915-70.046-53.49-112.074-8.915-145.186 50.943-38.207 72.595-108.253 50.943-169.384-19.103-52.216 54.765-53.49 86.605-115.894 35.66-73.867-6.368-124.81 47.123-138.819 31.84-8.915 76.415-52.216 103.16-7.641 425.38 696.639 1013.78 1283.752 1710.434 1710.395 20.378 12.736 25.472 39.481 12.736 58.584-19.104 26.745-21.651 81.508-66.227 75.14-62.406-10.188-129.906 25.472-157.925 82.782-22.925 48.395-76.416-3.821-143.916 17.83-71.321 24.198-84.057 91.696-129.906 63.678-70.048-40.754-161.747-16.556-203.775 50.943zm-119.718-2222.368c-241.982 62.404-584.578-151.554-435.568-384.616 62.406-98.065 193.586-105.706 165.567-134.998-91.7-99.338-185.944-236.883-92.972-370.607l118.444 92.97c1.273 10.189 3.82 19.104 7.64 26.745 11.464 36.933 104.436 177.025 129.908 161.743 175.755-103.159 43.302-308.203-91.7-280.184l-82.782-64.952c147.736-58.584 334.954 6.368 393.54 157.922 47.122 120.988-40.756 205.043-137.548 258.533-36.935 19.104 115.896 91.697 173.208 239.43 31.84 84.055 16.557 185.94-49.67 247.071l-103.161-81.508c38.208-98.064-110.802-234.335-173.208-292.919-20.378-17.83-115.897 56.036-129.907 94.243-50.943 133.724 75.142 266.175 211.416 253.439l-1.273 1.274zm-219.057-4021.913c-78.963-5.094-156.652-7.641-235.615-3.821-39.481 1.274-113.35 16.557-124.812-39.48-10.19-47.122 43.302-59.858 80.236-56.037 14.01 1.274 34.387-36.933 35.66-53.49 2.548-61.131 44.577-597.301 30.567-625.32-17.83-35.66-110.802 22.925-141.368-45.847-11.463-25.472-1.274-53.49 28.019-62.405 43.302-12.736 177.029 3.82 205.048-29.292 76.415-90.423 122.265-35.66 117.17 0-12.736 95.517-71.32 761.59-57.311 797.25 15.283 38.208 42.028 12.736 81.51 21.65 59.858 14.01 50.943 100.613-19.104 96.792zM8100.87 7502.032c-39.48 1.273-114.623 15.283-126.085-39.481-8.915-47.122 43.302-59.857 80.236-56.036 15.283 1.273 34.387-36.934 35.66-53.49 3.82-61.131 45.85-597.301 31.84-625.32-19.103-35.66-112.076 22.924-141.368-45.848-29.293-67.5 56.038-66.225 96.793-66.225 174.48 0 123.538-52.216 198.68-75.14 28.02-8.915 58.585 22.924 54.764 48.395-14.01 96.79-71.32 762.864-57.312 798.524 15.284 38.207 40.755 12.736 81.51 21.65 59.86 14.01 49.67 100.612-20.377 96.79-77.69-5.093-156.652-8.913-234.34-3.82zm571.843 0c-39.482 1.273-113.35 15.283-124.812-39.481-10.19-47.122 43.302-59.857 80.236-56.036 14.01 1.273 34.387-36.934 35.66-53.49 2.548-61.131 44.576-597.301 30.567-625.32-17.83-35.66-112.076 22.924-141.37-45.848-30.565-73.867 71.322-66.225 98.068-66.225 185.944-7.642 119.717-50.943 198.68-75.14 26.745-8.915 57.312 22.924 53.49 48.395-12.735 96.79-71.32 762.864-57.311 798.524 15.283 38.207 42.03 12.736 81.51 21.65 59.86 14.01 50.944 100.612-19.104 96.79-78.963-5.093-156.652-8.913-235.614-3.82zm1400.95-598.575c-39.481 2.547-113.35 16.556-124.812-38.207-10.188-47.122 43.303-59.857 80.237-56.037 14.009 1.274 34.387-36.933 35.66-54.763 2.547-59.857 45.85-596.027 30.566-624.046-17.83-35.66-110.802 22.924-140.095-45.848-29.292-67.5 54.765-66.225 96.793-66.225 174.482 0 123.539-52.217 198.681-75.141 28.019-8.915 57.311 22.924 53.491 48.396-12.736 96.79-71.322 762.864-57.312 798.524 15.283 36.933 42.028 11.462 82.783 21.65 58.586 14.01 49.67 100.612-20.377 96.79-78.963-5.093-156.652-8.914-235.615-5.093zm880.052 8.915c-129.906-12.736-216.51-105.706-341.322-131.177-84.057-16.556 3.82 43.3 10.188 70.046 24.199 95.517-199.953 124.809-145.189-106.98 81.51-346.41 420.285-250.891 430.474-489.048 3.821-70.046-12.736-131.177-72.595-171.931-127.359-86.602-229.246 21.65-155.378 47.122 105.708 38.207 85.331 185.94-21.651 183.393-113.35-2.547-183.397-151.554-113.35-264.901 89.152-142.64 471.229-110.8 555.286 134.998 48.397 138.818-14.009 261.08-149.01 312.023-99.34 38.207-259.813 67.499-329.86 151.554-6.368 8.915 0 21.65 11.462 20.377 118.444-8.915 285.285 84.055 337.502 76.414 64.953-8.915 7.641-90.423 84.057-118.442 17.83-5.094 72.595 0 50.944 92.97-19.104 81.508-40.755 203.77-151.558 193.582zm-4149.36 11088.915l-140.096 109.527c-52.217 42.027-286.558 56.036-402.455 170.657-113.35 113.347-80.236 334.947 92.972 365.513 49.67 8.915 129.907-5.094 171.935-34.386 131.18-90.423 203.775-305.656 258.54-347.683l165.566-129.904c63.68 82.782 118.444 194.856 113.35 303.108-207.596 29.292-299.294 290.373-146.463 443.2-58.585 133.725-371.89 284.005-252.171 531.076 42.028 86.603 143.915 128.63 235.614 98.065 47.123-16.557 109.529-67.499 131.18-113.347 73.868-149.007 22.925-352.778 61.132-439.38 216.51 7.642 351.512-240.703 220.332-417.729 67.5-75.14 175.755-114.62 272.548-132.45l22.925 221.6c6.368 68.772-96.793 269.995-71.321 427.917 8.915 49.669 53.49 118.442 94.246 147.733 142.642 103.159 324.766-26.744 327.313-187.213 2.547-161.743-149.01-341.315-156.652-407.541l-20.378-198.675c108.256 12.735 216.51 19.103 323.493 15.282l21.65 122.262c6.369 45.849-49.67 168.111-24.197 273.816 29.292 119.715 187.217 171.932 268.727 68.773 85.33-106.979 21.65-215.232-42.028-315.844-47.123-73.866-36.935-76.414-52.218-161.742 184.67-21.651 366.795-70.046 538.73-141.366 272.548 636.782 783.258 1157.669 1409.865 1451.862-20.377 77.688 15.284 161.743 87.878 198.676 1.274 63.678 30.566 131.177 54.765 188.488 59.858 138.818 44.575 146.459 44.575 291.645 0 104.433 138.822 136.272 165.567 35.66 14.01-52.216 6.368-137.545 6.368-193.581 0-84.056 101.888-208.865 100.614-322.212 71.321-36.933 108.255-120.988 86.604-198.676 624.06-292.919 1134.77-811.26 1407.319-1444.22 164.293 67.498 337.502 113.347 513.257 136.271l-15.283 77.687c-11.462 43.301-113.349 138.819-122.265 249.619-10.188 119.715 118.445 225.42 230.521 159.195s89.151-198.676 70.047-306.929c-15.283-84.055-7.641-82.781 8.915-165.563 108.256 3.821 217.784 0 326.04-12.736l-21.651 175.752c-7.642 66.225-163.02 243.251-164.294 406.267-1.273 160.469 179.577 292.919 324.766 192.308 40.755-28.019 86.604-95.517 96.793-145.186 29.293-157.922-71.321-360.419-63.679-429.191l25.471-210.138c103.161 14.009 221.605 54.763 295.474 134.998-126.086 168.11-6.368 416.455 208.869 416.455 53.491 136.271-61.133 463.577 197.406 554 91.699 31.839 193.586-10.189 235.615-96.791 21.651-45.848 29.292-126.083 12.736-173.205-52.218-156.648-233.068-266.174-267.455-354.05 157.926-146.46 78.963-419.003-138.821-450.842-5.094-100.611 43.302-206.317 100.614-285.278l170.661 140.092c53.491 43.301 122.265 258.534 252.171 352.777 42.029 29.292 120.991 45.848 171.935 36.934 173.208-28.019 210.143-248.345 99.34-362.966-113.349-117.168-347.69-136.271-399.908-178.299l-155.378-126.083c86.604-66.225 166.841-138.818 240.709-217.779l100.614 71.32c36.934 28.018 84.057 154.101 177.029 210.138 105.708 63.678 254.718-10.189 239.435-140.092-16.556-136.272-137.548-168.111-254.718-194.856-84.057-19.103-78.963-26.744-151.557-76.413 115.896-147.734 211.416-309.476 281.463-481.407 644.438 257.259 1372.932 264.901 2025.011 29.292 39.481 70.046 124.812 104.432 201.227 78.961 45.85 44.574 114.624 71.319 173.209 94.243 140.095 56.037 135.001 72.593 238.161 174.478 72.595 73.867 193.586-1.273 141.369-91.696-26.745-45.848-92.972-101.885-132.453-141.366-58.586-59.857-76.416-217.779-156.652-298.013 24.198-77.688-8.915-163.017-78.963-202.497 234.341-648.244 227.973-1375.448-26.745-2016.051 164.293-68.772 319.671-157.921 459.766-267.448l44.576 66.225c22.925 39.481 17.83 178.299 89.151 263.628 77.69 91.697 243.256 75.14 276.37-50.943 31.84-126.082-78.963-203.77-168.114-266.174-70.048-48.396-63.68-53.49-110.803-123.536 80.237-73.867 154.105-154.101 221.605-239.43l109.529 140.092c40.755 52.216 56.038 286.552 170.661 402.446 112.076 113.347 333.681 80.235 365.521-92.97 8.915-49.669-6.368-129.903-34.387-171.931-90.425-131.177-305.662-203.77-348.964-258.533l-129.906-165.564c84.057-63.678 196.133-118.441 304.388-113.347 29.293 207.591 290.379 298.014 443.21 146.46 133.727 57.31 282.737 370.607 531.088 250.892 86.604-42.028 128.632-142.639 96.793-234.336-15.283-47.121-67.501-109.526-112.076-131.177-149.011-73.866-352.785-24.197-440.663-62.404 8.915-215.232-240.709-350.23-416.465-219.053-75.141-67.499-115.896-177.025-132.453-273.816l221.605-21.651c68.774-7.641 270.001 96.791 427.927 71.32 49.67-8.915 117.17-53.49 147.736-94.244 103.161-142.639-26.745-326.032-187.218-327.306-163.019-2.547-341.322 149.007-408.823 155.375l-198.68 20.377c14.01-106.979 19.104-215.232 16.557-323.485l120.991-21.651c47.123-5.094 168.114 50.943 275.096 24.198 118.444-29.292 171.935-185.94 68.774-267.448-108.256-85.329-215.237-21.651-315.851 42.027-73.868 45.849-76.415 36.934-163.02 52.217-21.651-185.941-68.774-366.787-140.095-538.718 636.796-272.542 1157.695-784.515 1451.895-1411.108 77.689 21.651 161.746-15.283 198.68-86.602 62.406-1.274 129.906-30.566 188.492-56.037 137.547-59.857 146.463-44.575 291.652-44.575 104.435 0 135.001-137.544 35.661-164.289-52.218-14.009-137.548-6.368-193.586-6.368-85.331 0-210.143-101.885-322.219-100.612-36.934-71.319-120.991-108.252-198.68-86.602-292.926-624.046-811.278-1134.745-1444.253-1407.287 67.5-164.29 113.349-337.495 136.274-514.52l76.416 15.283c44.575 11.462 138.821 114.62 250.897 123.536 119.718 8.915 225.426-118.442 159.199-230.515-66.227-112.074-199.954-89.15-306.936-70.046-84.057 15.282-82.783 7.64-165.566-8.915 3.82-109.527 0-217.78-14.01-326.033l177.029 21.65c66.227 7.642 243.256 163.017 405.002 164.29 160.473 0 294.2-179.572 193.586-324.758-29.292-42.027-95.519-87.876-146.463-96.791-156.651-29.292-360.426 71.32-429.2 63.678l-208.869-25.471c14.009-104.432 54.764-222.873 133.727-295.466 169.388 126.082 417.738 6.367 417.738-208.865 136.274-53.49 463.587 61.13 554.012-198.676 31.84-90.423-10.188-192.308-96.793-234.335-45.849-22.924-126.085-29.292-173.208-14.01-157.925 53.49-266.181 233.063-354.058 267.449-147.737-157.922-419.012-77.688-450.852 140.092-100.614 5.094-206.322-44.575-286.558-100.612l140.095-171.931c43.302-53.49 259.813-120.988 352.785-252.165 30.566-40.754 45.849-120.99 38.208-170.658-28.019-173.204-248.351-211.411-364.247-99.338-115.897 113.347-135.001 347.683-177.03 399.899l-127.359 154.1c-66.227-85.328-138.821-165.562-216.51-239.43l70.047-101.884c29.293-36.933 154.105-82.781 211.416-175.751 63.68-105.706-10.188-254.713-140.095-239.43-137.548 15.282-168.114 137.544-194.859 253.439-19.104 85.328-28.019 80.234-77.689 151.554-146.463-115.894-308.21-210.138-480.144-281.458 257.265-641.876 263.633-1372.9 29.292-2023.692 70.048-39.48 103.161-124.81 78.963-202.496 43.302-45.848 70.047-113.347 94.246-171.931 54.764-140.092 71.321-134.998 174.482-238.156 73.868-73.867-1.274-193.582-91.699-141.366-47.123 26.745-101.887 91.697-141.369 131.177-59.858 59.858-219.057 77.687-299.294 157.922-76.415-24.198-161.746 8.915-201.227 78.96-648.258-234.335-1375.479-229.24-2016.096 25.472-68.774-164.29-159.199-318.39-267.454-458.483l64.953-44.574c39.482-22.924 179.577-17.83 263.634-89.15 91.698-78.96 76.415-243.25-49.67-276.363-124.812-31.84-205.049 78.96-267.455 168.11-48.396 70.046-53.49 63.679-122.264 110.8-73.869-80.234-154.105-154.1-240.709-221.6l140.095-109.526c52.217-42.028 287.832-56.037 402.455-170.658 114.623-113.347 81.51-334.947-91.699-365.512-49.67-8.915-129.906 5.094-171.935 34.386-132.453 90.423-205.048 305.655-258.539 347.683l-165.567 129.903c-63.679-82.781-118.444-194.855-114.623-303.108 208.869-29.292 299.294-290.372 147.737-443.2 57.311-133.724 370.615-284.004 250.897-531.076-42.028-86.602-142.642-128.63-234.34-98.064-48.397 16.556-109.529 67.499-132.454 113.347-72.595 149.007-22.925 352.777-61.132 439.38-215.237-7.642-351.512 240.703-219.058 417.728-68.774 73.867-177.029 114.62-273.822 131.177l-22.925-220.326c-6.368-68.773 98.067-269.996 71.321-427.918-7.641-49.67-52.217-118.44-94.246-147.733-142.642-103.16-324.766 26.745-327.313 187.214-1.273 161.742 150.284 341.315 156.652 407.54l20.378 199.95c-106.982-14.01-215.237-19.104-323.493-16.557l-21.651-122.262c-6.368-45.848 50.944-166.837 24.198-273.816-29.292-119.715-187.218-171.93-268.727-68.772-85.331 106.979-21.651 215.232 43.302 315.843 45.849 73.867 36.934 76.414 52.217 163.016-185.944 21.65-366.794 68.773-538.729 140.092-272.549-636.781-784.533-1157.67-1411.14-1451.862 21.651-77.687-15.283-161.742-86.604-198.676-1.274-63.678-30.566-131.177-56.038-188.487-59.859-138.818-44.576-146.46-44.576-291.646 0-104.432-137.548-136.271-165.567-35.66-14.009 52.216-6.368 137.545-6.368 193.582 0 84.055-100.613 210.138-99.34 322.21-72.594 36.935-109.529 120.99-87.878 198.677-624.06 292.92-1133.496 811.26-1407.318 1444.22-164.294-67.498-336.228-113.346-513.258-136.27l15.283-77.688c11.463-43.3 114.624-138.818 123.54-249.618 8.914-119.715-118.445-225.42-231.795-159.195-109.528 64.95-87.877 199.949-68.773 306.928 14.009 84.055 6.368 82.782-8.916 165.564-109.528-3.821-217.784 0-326.04 12.735l20.378-175.752c8.916-66.225 164.294-243.25 164.294-406.266 1.273-160.47-179.577-292.92-323.492-192.308-42.03 29.292-87.878 95.517-96.793 146.46-29.293 156.648 71.32 360.418 62.406 427.917l-24.2 210.138c-104.433-14.01-222.877-54.764-295.472-134.998 126.086-168.11 6.368-416.455-210.143-416.455-53.49-136.271 62.406-463.577-197.406-554-91.7-31.84-192.313 10.188-235.615 96.79-21.65 45.849-29.292 126.083-12.736 173.205 53.49 156.648 233.068 266.175 267.455 354.05-157.926 146.46-77.69 419.003 140.095 450.842 5.094 100.612-44.576 206.317-100.614 285.278l-171.935-138.818c-53.49-44.575-122.265-261.08-252.171-354.05-40.755-29.293-120.991-45.85-170.661-36.934-174.482 28.019-211.417 248.345-99.34 362.966 113.35 117.167 347.69 136.27 398.634 178.298l155.378 126.083c-85.33 66.226-165.567 138.819-239.435 217.78l-101.888-70.046c-36.934-29.292-84.057-155.375-177.03-211.412-104.433-63.678-253.444 10.189-238.161 140.092 15.283 136.27 136.275 168.11 253.445 194.855 85.33 19.104 80.236 26.745 151.558 76.414-115.897 147.733-210.143 309.476-281.464 481.407-641.89-257.26-1374.206-264.901-2023.737-29.292-40.755-70.046-126.086-104.432-202.501-78.961-45.85-43.301-114.624-71.32-173.21-94.244-140.094-56.037-133.726-72.593-236.887-174.478-73.868-73.867-193.586 1.274-142.642 91.697 28.019 47.122 92.972 101.885 132.453 141.365 61.133 61.13 76.416 220.327 156.652 298.014-24.198 77.687 8.915 163.016 78.963 202.496-233.067 648.244-227.973 1375.45 26.745 2016.05-164.293 68.773-318.398 157.923-459.766 267.449l-43.302-66.225c-22.925-39.481-17.83-178.3-90.425-263.628-77.69-91.696-243.256-75.14-275.096 50.943-33.114 126.083 77.689 203.77 166.84 266.175 70.048 48.395 64.953 53.489 110.803 123.535-78.963 73.867-154.105 154.1-220.332 239.43l-110.802-140.092c-40.755-52.216-56.038-286.552-169.388-402.446-113.35-113.347-334.954-80.234-366.794 92.97-8.915 49.669 6.368 129.904 35.66 171.93 90.426 131.178 305.662 205.045 347.69 258.535l129.907 165.563c-82.783 63.678-196.133 118.44-303.114 113.347-30.567-207.591-290.38-298.014-443.21-146.46-133.727-58.584-284.011-370.607-531.088-250.892-87.878 42.028-129.906 142.639-98.067 234.336 16.557 47.122 67.5 109.526 113.35 132.45 149.01 72.594 352.785 22.925 439.39 61.132-7.642 215.232 240.708 350.229 417.737 219.052 73.869 67.499 114.623 177.026 131.18 273.816l-220.331 21.65c-68.774 7.642-270.002-96.79-427.927-71.318-50.944 8.914-118.444 53.489-147.737 94.243-103.16 142.639 26.746 326.032 187.218 328.58 161.747 1.273 341.323-150.281 407.55-156.65l198.68-20.376c-14.01 106.98-19.104 215.232-15.283 323.485l-122.265 21.65c-45.85 5.095-168.114-50.942-273.822-24.197-119.718 29.292-173.21 185.94-70.048 267.448 108.256 85.329 216.51 21.65 317.125-42.027 73.868-47.122 76.415-36.933 161.746-52.216 21.65 185.94 70.047 366.786 141.368 538.717-636.795 272.543-1157.694 784.515-1451.894 1411.108-77.69-21.65-163.02 15.283-199.954 86.602-62.406 1.274-129.906 30.566-187.218 56.037-138.821 59.858-146.463 44.575-292.926 44.575-103.16 0-135 137.545-34.387 164.29 52.217 14.009 137.548 6.367 192.312 6.367 85.33 0 210.143 101.885 322.22 100.612 38.207 71.319 122.264 108.253 199.953 86.602 292.926 624.046 810.004 1134.745 1442.98 1407.288-67.501 164.289-113.35 337.494-135.001 514.519l-77.69-15.283c-44.575-12.735-138.821-114.62-249.623-123.535-119.718-8.915-225.426 118.441-160.473 230.515 66.227 110.8 201.228 89.149 308.21 70.046 84.056-15.283 82.783-7.642 165.566 8.915-5.094 109.526 0 217.779 12.736 326.032l-177.03-21.651c-66.226-7.641-241.982-163.016-405.001-164.289-160.473 0-292.926 180.846-193.586 324.758 29.292 42.028 96.793 87.876 146.463 96.791 157.925 29.292 360.426-71.32 429.2-63.678l208.87 25.471c-14.01 104.432-54.765 222.874-133.728 295.467-168.114-126.083-416.464-6.368-417.738 208.864-135 54.763-462.314-61.131-552.74 197.402-31.84 91.697 10.19 193.582 96.794 235.61 44.576 22.924 124.812 29.292 173.209 14.009 156.65-53.49 264.907-233.062 354.058-267.448 146.463 157.921 417.738 77.687 450.852-140.092 100.613-5.095 205.048 44.574 285.284 100.611l-140.095 171.931c-43.302 53.49-259.813 120.989-352.785 252.166-29.292 40.754-45.85 120.988-38.208 170.657 28.02 173.205 249.624 211.412 364.248 99.338 117.17-113.347 136.274-347.683 178.302-399.899l126.086-154.101c66.227 85.329 138.82 165.563 217.784 238.156l-71.321 103.159c-28.02 36.933-154.105 82.782-211.416 177.025-63.68 104.432 10.189 253.439 141.368 238.157 136.275-16.557 166.84-136.272 193.586-253.439 19.104-85.329 28.02-80.235 77.69-151.554 146.463 115.894 308.209 210.137 481.417 280.183-258.54 643.15-264.907 1374.175-30.566 2024.966-70.048 39.48-103.161 126.083-78.963 202.497-43.302 45.848-70.047 113.347-92.972 171.931-56.038 140.092-72.595 134.997-175.756 238.156-72.594 73.867 2.548 193.582 92.973 141.365 45.849-26.744 100.613-91.696 140.095-131.177 59.858-59.857 220.33-77.687 299.294-157.921 76.415 25.471 163.02-8.915 202.5-78.961 648.259 234.335 1374.206 227.967 2016.096-26.745 67.5 164.29 157.926 319.664 267.455 459.756l-66.227 44.575c-39.482 22.924-179.577 17.83-263.634 89.149-91.698 78.961-76.415 243.251 49.67 276.364 127.36 33.112 205.049-77.688 267.455-168.111 48.396-70.046 53.49-63.678 123.538-110.8 73.868 80.235 154.105 154.101 239.435 221.6zm2401.993-636.781c-154.105-157.922-191.04-401.173-98.067-598.575 12.736-24.198 45.85-30.566 66.227-11.462 85.33 80.234 178.303 152.827 277.643 215.232 17.83 11.462 24.198 33.113 16.556 50.942-52.217 122.263-119.717 235.61-199.953 340.042-15.284 20.377-44.576 21.65-62.406 3.821zm3508.744-788.336c16.557-387.163-86.604-753.95-271.275-1091.444-11.462-19.103 0-133.724-1.273-169.384l510.71 1245.545c35.661 86.602-3.821 338.768 57.312 489.048 16.556 38.207 89.151 85.329 127.359 99.338 77.689 26.745 163.02-8.915 198.68-81.508 17.83-38.207 25.472-114.62 12.736-154.101-54.764-159.195-266.181-303.108-301.841-390.984l-505.616-1232.809 122.265 110.8c6.368 6.368 10.189 12.736 12.736 21.651 252.171 958.993 692.834 881.305 904.25 1397.098 25.472 61.132-198.681 407.541-239.435 487.775-10.189 17.83-30.567 26.745-49.671 20.377-101.887-31.839-482.691-108.253-511.983-179.572-78.963-194.855-73.869-368.06-64.954-571.83zm2120.53-1141.113c-682.645 413.908-1549.961 319.665-2130.718-222.873-20.378-19.104-15.283-54.764 11.462-66.226 76.416-36.933 152.831-75.14 227.973-115.894 15.283-7.641 31.84-6.368 45.849 5.094 573.116 477.587 1425.149 438.106 1954.963-90.423 528.541-529.802 568.022-1380.542 89.152-1954.919-10.189-12.736-12.736-30.566-3.821-45.848 39.481-75.141 78.963-151.555 114.623-227.968 12.736-25.472 48.397-31.839 67.501-10.189 542.55 579.471 636.795 1446.768 221.605 2129.398-70.048 117.168-105.709 306.929-96.793 459.756 1.273 24.198-19.104 44.575-43.303 43.301-152.831-8.915-340.049 24.198-458.493 96.791zm-413.917-380.795c-62.406 30.565-68.774 103.158-118.444 84.055-76.415-28.018-161.746 7.641-193.586 82.782-66.227-72.593-184.671-61.131-238.161 20.377-24.199-38.207-64.954-64.952-112.076-71.32-70.048-8.915-112.077 54.763-145.19 10.189-39.481-50.943-109.529-73.867-170.661-50.943-50.944 17.83-52.217-56.037-114.623-86.602-73.869-36.934-124.812 5.094-138.822-47.122-8.915-31.839-52.217-76.414-8.915-103.159 697.928-426.643 1285.054-1013.756 1711.707-1710.395 26.746-43.301 70.048-1.274 103.161 7.641 52.217 14.009 11.462 75.14 45.849 136.272 39.482 71.319 105.708 66.225 86.605 117.167-21.652 61.131 0 131.177 52.217 170.658 16.556 12.735 21.651 35.66 10.189 53.489-42.029 68.773-17.831 161.743 50.943 203.771-81.51 53.489-92.972 171.931-20.377 238.156-76.416 31.839-112.076 117.168-82.784 193.582 19.104 48.395-50.943 54.763-84.057 117.167-31.84 59.858 14.01 124.81-38.208 141.366-62.406 20.377-106.981 80.234-104.434 146.46 1.274 54.763-68.774 31.839-118.444 84.055-58.585 63.678-30.566 120.988-85.331 119.715-66.226-2.547-126.085 42.027-146.463 104.432-16.556 52.216-78.962 7.641-140.095 38.207zm1784.302-573.104c-126.086-17.83-249.624-49.669-366.794-98.064-19.104-7.641-29.293-26.745-25.472-47.122 26.745-117.168 40.755-235.609 45.849-355.324 0-28.018 29.293-47.122 56.038-36.933 201.228 78.961 338.776 280.184 336.228 497.963 0 24.198-21.651 43.301-45.849 39.48zm152.831-28.018c8.915-292.92-187.218-556.547-471.229-631.687-17.83-5.095-29.292-19.104-30.566-36.934-11.462-155.374-40.755-308.202-87.878-455.935-14.009-44.575 52.217-73.867 84.057-49.669 30.566 24.197 5.095 92.97 73.868 163.016 85.331 89.149 187.218 30.565 180.85 104.432-7.641 110.8 87.878 208.864 198.681 202.497 100.614-5.095 19.104 96.79 146.463 174.478 120.991 72.593 189.765-30.566 219.058 34.386 56.038 123.536 244.529 119.715 305.662 5.094 34.387-63.678 98.066 43.301 221.604-14.009 119.718-57.31 84.058-174.478 155.379-150.281 117.17 40.754 248.35-45.848 259.812-168.11 5.095-54.763 126.086-59.857 159.199-49.669 24.199 6.368 35.661 34.386 25.472 57.31-261.086 527.256-811.278 863.476-1399.677 857.109-22.925 0-40.755-19.104-40.755-42.028zm454.672-864.749c-194.859-81.509-313.303-207.591-450.851-357.872-261.086-285.278-594.767-471.218-964.109-580.745-21.651-5.094-92.972-92.97-119.718-118.441l1241.752 519.614c86.604 36.933 236.888 241.977 387.172 304.381 36.934 16.557 122.265-1.273 159.199-19.103 73.868-35.66 109.529-120.989 82.783-197.402-14.009-40.754-62.406-99.338-100.613-118.442-150.284-73.866-402.455-25.471-489.059-62.404l-1230.29-514.52 165.567-7.641c8.915-1.274 16.557 1.273 24.198 5.094 855.854 499.237 1114.393 133.724 1627.65 348.956 63.68 26.745 147.737 427.918 175.756 514.52 5.094 19.103-2.547 39.48-20.378 48.395-43.302 22.924-85.33 49.669-126.085 72.593-57.312 34.387-306.936 185.941-362.974 163.017zm846.939-617.679c58.585-99.338 8.915-239.43-103.161-273.816-71.321-21.65 30.566-113.347-70.048-220.326-112.076-119.715-198.68 0-227.973-70.046-43.302-110.8-193.586-149.007-286.558-75.14-57.311 47.121-68.774-77.688-203.774-77.688-133.728-1.273-152.831 118.442-206.322 64.952-73.869-75.14-197.407-75.14-275.096-6.368-48.397 43.301-117.171-57.31-59.859-86.602 138.822-71.32 268.728-160.469 385.898-263.628 14.01-11.462 33.114-12.735 48.397-3.82 211.416 128.629 487.785 122.262 692.834-16.557 76.415-52.216 110.802-123.535 152.831-81.508 416.464 417.729 560.38 1039.228 366.794 1597.049-7.641 24.197-36.934 34.386-58.585 22.924-29.293-16.557-112.076-106.98-76.416-147.734 42.029-50.942 56.038-120.988 36.934-185.94-35.66-119.715-152.83-112.073-115.896-175.752zm-8035.09 4615.394c87.878-119.715 161.746-248.345 221.605-383.343 8.915-20.377 30.566-29.292 50.944-22.924 78.962 25.471 143.916 26.745 143.916 72.593v396.078c0 49.669-92.973 48.396-92.973 163.016 0 193.582 294.2 193.582 294.2 0 0-114.62-92.972-113.347-92.972-163.016v-304.381c0-33.113 38.208-53.49 64.953-34.387 87.878 63.679 175.756 151.554 205.048 239.43 6.368 20.377 25.472 33.113 25.472 56.037v399.899c0 49.669-92.972 48.395-92.972 163.016 0 193.582 295.473 193.582 295.473 0 0-114.621-94.246-113.347-94.246-163.016v-399.899c0-11.462 3.821-20.377 10.189-28.018 38.208-43.302 15.283-122.262 221.605-267.449 26.746-19.103 64.953 1.274 64.953 33.113v305.655c0 49.669-94.245 48.396-94.245 163.016 0 193.582 295.473 193.582 295.473 0 0-114.62-94.246-113.347-94.246-163.016v-396.078c0-45.848 66.227-47.122 132.454-68.772 20.377-6.368 42.028 2.547 50.943 22.924 61.133 138.818 137.548 271.269 227.973 392.257 8.915 12.736 10.189 26.745 5.094 40.754-169.387 402.446-486.512 767.959-852.032 1009.936-14.01 8.915-30.567 8.915-44.576 0-369.342-244.524-687.74-615.131-857.127-1022.671-5.095-14.01-3.82-29.292 5.094-40.754zm-3414.5-1891.242c-54.763 141.366-94.244 289.099-115.895 439.379-2.547 15.283-11.463 26.745-25.472 31.84-405.002 164.289-886.42 198.675-1316.894 112.073-16.557-2.547-28.02-15.283-31.84-31.839-87.878-434.285-50.943-922.06 118.444-1329.6 5.095-12.736 16.557-22.924 31.84-24.198 146.463-22.924 290.379-61.131 429.2-114.62 19.104-8.915 42.029 0 50.944 19.103 38.208 75.14 82.784 122.262 49.67 154.101l-278.916 280.184c-35.66 34.386-101.888-31.839-182.124 48.396-137.548 137.544 71.32 346.409 208.87 208.864 80.235-80.235 14.009-146.46 49.67-182.12l215.236-215.232c22.925-22.924 63.68-10.188 68.774 22.924 17.83 106.98 17.83 230.515-24.198 313.297-8.915 19.103-5.094 43.301-20.378 58.584l-282.737 282.731c-35.66 35.66-100.614-31.839-180.85 48.395-137.548 137.545 71.32 346.409 208.869 208.865 80.236-80.235 12.736-145.187 48.396-180.846l282.738-282.731c7.64-7.642 16.557-11.462 26.745-12.736 57.312-3.821 96.793-76.414 345.144-33.113 33.113 6.368 45.849 47.122 21.65 70.046l-215.236 215.232c-35.66 35.66-100.614-31.839-180.85 49.669-137.548 136.272 71.32 345.136 208.869 207.591 80.236-80.234 12.736-145.186 48.396-180.846l280.19-278.91c12.736-14.009 33.114-16.556 49.67-6.368 58.586 34.386 131.18 53.49 112.076 101.885zm-1576.705-1367.807c-17.83 92.97 7.642 166.837-50.944 166.837-588.4 0-1133.496-341.315-1389.488-871.117-10.19-21.651 2.547-49.669 26.745-57.311 31.84-8.915 152.83-3.82 157.926 50.943 10.188 123.536 141.368 211.411 258.539 171.931 71.32-24.198 34.387 91.697 154.104 150.28 123.539 58.584 187.218-48.395 221.605 15.283 56.038 106.979 224.152 122.262 294.2 20.377 15.283-24.198 29.293-57.31 64.953-42.027 109.53 45.848 243.256-31.839 255.992-150.281 7.642-72.593 103.16 5.094 199.954-89.149 94.246-92.97 22.925-192.308 99.34-192.308 105.708 1.273 192.313-85.329 198.68-189.761 3.82-63.678 123.539-42.028 104.435 19.103-47.123 149.007-76.416 303.108-87.878 458.483-1.273 19.103-12.736 33.113-30.566 38.207-241.982 58.584-430.474 253.439-477.597 500.51zm-454.672-746.308c-61.133 25.471-407.55-197.402-486.512-239.43-17.83-8.915-26.746-29.292-20.378-48.395 31.84-101.885 108.256-483.954 179.577-511.973 194.86-80.234 368.068-75.14 571.842-66.225 385.899 16.556 752.693-86.602 1091.468-271.269 19.104-10.188 133.728 0 169.388-1.273l-1246.846 510.698c-85.33 35.66-338.775-2.547-487.786 58.584-38.207 15.283-85.33 87.876-99.34 127.357-26.745 76.413 8.915 161.742 81.51 197.402 38.208 19.103 114.623 26.745 154.105 12.736 159.199-53.49 303.114-266.175 390.992-301.835l1232.837-505.604c-33.113 33.112-110.803 129.903-132.454 134.997-959.014 252.166-882.6 694.092-1398.403 904.23zm-708.117-948.804c20.377 70.046-100.614 36.933-146.463 166.836-44.576 124.81 62.406 183.393-5.095 216.506-110.802 53.49-142.642 207.591-63.68 301.835 34.388 42.027-48.396 131.177-77.688 147.733-21.651 12.736-49.67 1.273-58.585-22.924-188.492-557.821-38.208-1183.141 383.35-1594.501 16.557-16.557 43.303-15.283 58.586 1.273 119.717 124.809 289.105 198.676 462.314 198.676 255.992 0 314.577-126.083 366.794-81.508 115.897 101.885 245.803 189.761 383.35 261.08 42.03 20.377 15.284 87.876-24.197 92.971-39.481 5.094-67.5-61.132-166.84-63.679-123.54-2.547-155.38 112.074-202.502 56.037-72.594-85.329-210.142-86.602-284.01-3.821-66.227 73.867-82.784-54.763-226.7-19.103-133.727 33.113-113.35 154.101-179.576 129.903-126.086-48.395-257.266 87.876-219.058 212.686zm1306.705 1849.213c-25.472 2.547-47.123-16.556-47.123-40.754 2.547-221.6 149.01-421.549 355.332-494.142 25.472-8.915 53.49 10.188 54.764 38.207 3.82 117.168 19.104 234.335 44.576 348.956 3.82 20.377-6.368 39.48-25.472 47.122-122.264 49.669-250.897 84.055-382.077 100.611zM3401.317 11368.57c-12.736 8.915-26.745 11.462-40.755 5.094-402.455-169.384-767.975-485.228-1009.958-850.74-10.188-14.009-10.188-31.839 0-45.848 244.53-369.334 615.145-687.725 1022.694-855.835 14.01-6.368 28.02-5.094 40.755 3.82 118.444 87.877 247.077 163.017 383.35 221.6 19.105 8.916 29.294 30.566 22.926 50.943-25.472 78.96-26.745 143.913-73.868 143.913h-394.814c-49.67 0-48.396-92.97-163.02-92.97-193.585 0-193.585 295.466 0 295.466 113.35 0 113.35-94.243 163.02-94.243h304.389c33.113 0 52.217 38.207 33.113 64.951-62.406 89.15-150.284 175.752-238.162 205.044-20.377 6.368-34.387 26.745-56.038 26.745h-399.907c-49.67 0-48.397-94.244-163.02-94.244-194.86 0-194.86 295.467 0 295.467 113.35 0 113.35-94.244 163.02-94.244h399.907c10.19 0 19.104 3.821 26.746 10.189 44.575 38.207 123.538 15.283 268.728 221.6 19.103 26.745-1.274 64.952-34.387 64.952h-304.39c-49.67 0-49.67-94.244-163.02-94.244-193.584 0-193.584 295.467 0 295.467 114.625 0 113.35-92.971 163.02-92.971h394.815c19.104 0 35.66 11.462 40.755 30.566 16.556 66.225 53.49 131.177 6.368 151.554-138.822 61.131-271.275 137.545-392.267 227.968zm2246.616 849.466c8.915 26.745-11.462 56.037-40.755 54.764-793.447-26.745-1472.272-573.104-1662.037-1349.977-33.113-131.177-142.642-291.646-255.992-392.258-19.104-16.556-17.83-45.848 0-62.404 114.623-100.612 222.879-257.26 255.992-390.984 189.765-776.874 868.59-1323.233 1662.037-1349.977 29.293-1.274 49.67 28.018 40.755 54.763-28.02 80.234-54.764 160.469-78.963 241.977-5.094 16.556-17.83 28.018-35.66 29.292-742.504 67.499-1319.441 695.365-1319.441 1446.768 0 751.402 576.937 1379.269 1319.44 1446.768 17.83 1.273 30.567 12.735 35.66 29.291 24.199 81.509 50.945 161.743 78.964 241.977zm-282.737-452.114c-36.934-50.943-109.53-73.867-169.388-52.217-52.217 17.83-52.217-57.31-114.623-89.149-67.5-34.386-124.812 5.094-137.548-47.122-20.378-77.687-101.887-126.083-180.85-108.253 20.377-95.517-54.765-187.214-152.831-182.119 30.566-76.414-5.095-163.016-78.963-196.129-48.396-21.651-2.547-73.867-22.925-141.366-20.377-64.951-98.066-78.96-73.868-128.629 29.293-57.311 19.104-131.177-29.292-175.752-39.482-38.207 26.745-72.593 24.198-143.913-2.547-86.602-63.68-108.253-24.198-145.186 47.122-44.575 58.585-118.441 29.292-177.025-24.198-48.396 52.217-62.405 72.595-126.083 21.65-67.5-25.472-122.262 24.198-143.913 73.868-33.112 109.529-118.441 78.963-194.855 98.066 3.82 173.208-87.876 152.83-183.393 44.576 11.462 92.973 0 129.907-29.292 56.038-43.301 40.755-117.168 95.52-109.526 63.68 8.915 128.632-24.198 156.65-84.056 22.926-48.395 76.417 2.548 142.644-20.377 77.689-25.471 84.057-91.696 131.18-64.951 29.292 16.556 89.15 17.83 77.689 67.499-191.04 792.156-191.04 1628.887 0 2419.77 5.094 22.924-8.916 45.848-31.84 50.942-33.114 6.368-72.595 42.028-99.34 5.095zm-979.392-2727.973c-12.736 11.462-31.84 12.736-48.397 3.82-211.416-129.903-483.965-124.808-691.56 16.557-76.415 52.216-110.802 122.262-152.831 80.235-416.464-415.182-560.38-1039.228-368.068-1595.775 8.915-24.198 36.934-34.386 59.859-22.924 29.292 16.556 110.802 106.979 76.415 149.007-80.236 94.243-49.67 247.07 61.133 303.108 66.227 34.386-40.755 90.423 2.547 215.232 44.576 128.63 165.567 99.338 145.19 168.11-33.114 106.979 54.764 224.147 166.84 224.147 34.387 0 85.33-30.565 103.16 14.009 43.303 106.98 182.124 146.46 276.37 82.782 89.152-62.405 56.038 68.772 215.237 70.046 132.454 1.274 152.83-118.441 205.048-64.952 73.869 75.14 198.68 75.14 276.37 6.368 47.123-43.301 115.897 57.31 59.859 86.602-138.822 71.32-268.728 160.469-387.172 263.628zm1094.015-478.86c-857.127-500.51-1113.12-133.724-1627.65-348.956-62.406-26.745-147.737-427.917-174.482-514.52-6.368-19.103 2.547-39.48 20.377-48.395 42.029-22.924 85.33-49.67 126.086-72.593 57.31-34.386 306.935-185.94 362.973-163.016 193.586 81.508 312.03 207.59 450.852 357.87 261.086 285.279 593.493 471.219 964.109 580.746 20.377 5.094 92.972 94.244 119.717 118.44l-1243.025-519.613c-85.33-36.933-236.888-241.977-385.898-304.381-38.208-16.556-123.54 1.273-160.473 19.103-72.595 35.66-108.255 120.989-81.51 197.403 12.736 40.754 62.406 99.338 99.34 118.44 150.284 73.868 402.455 25.472 490.333 62.406l1229.016 515.793c-44.576-1.274-170.661 11.462-189.765 1.273zm-1514.3-1504.078c-101.888-56.037-238.162 6.368-267.455 118.44-6.368 22.926-30.566 35.66-53.49 28.02-117.171-40.754-247.077 45.848-259.813 169.384-5.095 53.489-126.086 58.584-157.926 48.395-24.198-6.368-36.934-34.386-25.471-57.31 259.812-527.255 810.004-863.476 1398.403-857.108 22.925 0 42.029 19.103 40.755 42.027-7.641 290.373 191.039 556.547 472.503 631.688 16.556 5.094 29.292 19.103 30.566 36.933 10.188 155.375 39.48 308.202 86.604 457.209 15.283 44.575-52.217 72.593-84.057 48.396-30.566-22.925-3.82-91.697-72.595-163.016-86.604-89.15-187.218-30.566-182.123-104.433 8.915-109.526-86.605-208.864-198.68-202.496-100.614 5.094-17.831-96.791-146.464-174.478-117.17-70.046-189.765 29.292-217.784-34.387-26.745-58.583-92.972-95.517-156.652-92.97-152.83 7.642-140.095 141.366-206.321 105.706zm1220.1-390.984c-25.472 117.168-40.755 235.609-44.575 355.324-1.274 28.019-30.567 47.122-56.04 36.934-202.5-77.688-338.774-280.184-337.5-496.69 0-25.471 22.924-44.575 47.123-40.754 126.085 17.83 248.35 50.942 366.794 98.064 19.104 7.642 29.293 26.745 24.198 47.122zm1068.544 3124.05c352.785-10.188 483.964 937.343-78.963 973.003l-2.547 1.274c-313.304-14.01-326.04-300.561-166.84-304.382 101.887-2.547 169.387 137.545 85.33 183.393-47.123 25.471 165.567 108.253 239.435-113.347 6.368-19.103 42.029-120.988 21.65-131.177-17.83-8.915-48.395 57.31-126.084 56.037-197.407-1.274-347.69-327.306-212.69-527.255l147.736 115.894c-14.01 86.602-14.01 175.752 11.463 259.807 62.406 202.496 238.16-117.168 166.84-365.513-28.02-92.97-108.255-78.961-147.736 1.274l-110.803-86.603c48.397-38.207 105.708-59.857 173.209-62.404zm-284.011-1732.045c-40.755 75.14-78.963 151.554-115.897 227.968-11.463 25.47-47.123 31.839-67.5 10.188-542.55-579.471-636.796-1446.768-221.606-2129.398 70.048-117.167 105.709-306.928 96.794-459.756-1.274-24.198 20.377-44.575 44.575-43.301 152.83 8.915 338.776-24.198 457.22-96.79 683.918-413.91 1551.234-319.665 2130.718 222.873 20.377 19.103 15.283 54.763-10.19 66.225-77.688 36.933-152.83 75.14-227.971 115.894-15.283 8.915-33.114 6.368-45.85-3.821-574.39-478.86-1426.422-439.38-1954.963 89.15-529.814 529.802-568.022 1380.542-90.425 1954.919 11.463 12.736 12.736 30.566 5.095 45.849zm5740.077-2559.862c-792.174-191.035-1628.924-191.035-2421.098 0-21.65 5.094-44.576-8.915-49.67-31.84-6.368-31.84-42.03-71.32-5.094-98.064 50.943-38.207 72.594-109.526 52.217-170.657-17.83-50.943 57.31-52.216 89.15-114.62 34.388-67.5-5.093-124.81 47.124-137.546 77.69-19.103 126.086-101.885 108.255-179.572 95.52 19.103 185.945-56.037 182.124-154.1 76.416 30.564 161.746-5.096 194.86-78.962 21.65-48.396 75.14-2.547 142.642-22.924 66.227-20.377 78.962-98.065 128.633-73.867 57.311 29.292 131.179 19.103 175.755-29.292 38.208-39.48 72.595 26.745 142.642 24.198 87.878-2.547 108.256-63.68 146.463-24.198 44.576 48.395 118.444 58.584 175.756 29.292 49.67-24.198 62.406 52.216 127.359 72.593 66.227 21.65 122.265-24.198 143.916 24.198 33.114 73.866 118.444 109.526 194.86 78.96-3.821 98.065 87.877 173.205 182.123 152.828-10.188 44.575 1.274 92.97 29.293 129.904 43.302 56.036 117.17 42.027 110.802 95.517-8.915 64.952 24.199 129.903 82.784 156.648 49.67 22.924-1.274 76.414 21.651 142.64 25.472 77.687 91.698 85.328 64.953 132.45-17.83 28.018-19.104 87.876-67.5 76.414zm-1209.912-1282.48c-751.42 0-1379.3 576.926-1448.074 1320.687-1.274 16.556-12.736 30.565-28.02 35.66-81.51 24.197-163.02 49.668-241.981 77.687-28.02 8.915-56.038-11.462-54.765-40.754 25.472-793.43 573.116-1472.24 1348.734-1662 132.453-33.113 291.652-142.64 393.539-255.986 16.557-17.83 45.85-17.83 61.133 0 101.887 114.62 257.265 222.873 392.266 255.986 776.891 189.76 1323.262 868.57 1350.007 1662 0 29.292-28.019 49.669-54.764 40.754-80.237-28.02-160.473-53.49-241.983-77.688-16.556-5.094-28.019-19.103-29.292-35.66-68.774-743.76-695.381-1320.685-1446.8-1320.685zM9859.7 3793.417c-61.132-138.82-137.548-269.996-229.246-392.258-8.916-12.735-10.19-26.744-3.82-40.754 169.386-402.446 485.237-767.958 850.758-1009.935a42.643 42.643 0 0145.849 0c368.068 244.524 687.74 615.13 855.854 1022.67 6.368 14.01 3.821 29.293-5.095 40.755-87.877 119.715-161.746 248.345-221.604 383.343-7.642 20.377-29.293 29.292-49.671 22.924-80.236-25.472-145.189-26.745-145.189-72.593v-396.08c0-49.667 94.246-48.394 94.246-163.015 0-193.581-295.473-193.581-295.473 0 0 114.62 94.245 113.348 94.245 163.016v304.382c0 33.113-38.207 53.49-64.953 34.386-89.151-63.678-177.029-151.554-205.048-239.43-6.368-20.377-26.746-34.386-26.746-56.036v-399.9c0-49.668 94.246-48.395 94.246-163.015 0-193.582-295.473-193.582-295.473 0 0 114.62 92.972 113.347 92.972 163.016v399.899c0 11.462-2.547 20.377-10.189 28.018-38.207 43.3-15.283 122.262-220.331 267.448-26.745 19.104-64.953-1.273-64.953-33.112v-305.656c0-49.67 92.972-48.395 92.972-163.016 0-193.581-294.2-193.581-294.2 0 0 114.62 92.973 113.347 92.973 163.016v396.079c0 19.103-12.736 34.386-30.567 39.48-67.5 17.83-131.18 54.763-151.557 6.368zm5033.234 4024.459c-426.653-696.64-1015.052-1283.751-1711.707-1710.395-19.104-12.736-25.472-39.48-12.736-58.584 19.104-26.745 21.651-81.508 66.227-75.14 63.679 10.188 129.906-25.471 157.925-81.508 24.198-49.67 77.689 2.547 143.916-19.104 72.595-24.197 85.331-91.696 131.18-63.678 68.774 40.754 160.473 16.557 203.775-50.942 52.217 81.508 170.661 92.97 236.888 20.377 17.83 42.027 53.491 73.866 98.066 87.876 63.68 19.103 120.991-34.387 146.463 12.735 33.114 59.858 95.52 90.423 161.746 76.414 52.218-10.19 44.576 61.13 103.161 104.432 57.312 43.3 123.539 8.915 131.18 62.405 8.915 63.678 63.68 118.44 127.359 127.356 54.765 7.64 20.378 75.14 62.406 132.45 43.303 58.585 114.624 49.67 104.435 101.886-12.736 66.225 17.83 129.903 76.415 161.742 45.85 25.472-2.547 73.867 12.736 142.639 14.01 64.952 90.425 86.603 62.406 133.724-42.028 70.046-22.924 160.469 47.123 206.318-39.481 24.197-64.953 64.95-71.321 112.073-8.915 70.046 53.491 112.074 10.189 145.186-52.217 38.207-73.869 108.253-50.944 169.384 17.83 52.217-56.038 52.217-86.604 115.895-36.934 73.866 5.094 124.809-47.123 138.818-33.113 8.915-76.415 52.216-103.161 7.64zm52.217-1762.611c-529.814-528.53-1381.847-568.01-1954.963-89.15-14.009 10.189-30.566 12.736-45.849 3.82-75.142-40.753-151.557-78.96-227.973-115.893-26.745-11.462-31.84-47.122-11.462-66.225 580.757-542.538 1448.073-636.782 2130.718-222.874 117.171 71.32 306.936 105.706 459.767 98.064 24.198-1.273 44.576 19.104 43.302 43.302-10.189 152.827 24.198 338.767 95.52 458.482 425.379 700.46 315.85 1593.228-262.36 2172.699h-1.274c-44.576-95.517-90.425-188.487-140.095-281.457-8.915-15.283-6.368-33.113 3.821-45.85 478.87-574.376 439.389-1425.116-89.152-1954.918zm285.285-933.522l-278.917 278.91c-33.113 33.113-80.236-11.462-142.642-43.3-19.104-10.19-28.019-31.84-20.377-52.217 56.038-141.365 95.519-289.1 117.17-439.38 2.547-15.282 11.462-26.744 25.472-31.838 403.728-164.29 886.42-199.95 1315.62-112.074 16.557 2.547 29.293 15.283 31.84 31.84 89.151 434.284 50.943 922.059-117.171 1329.599-6.368 12.736-17.83 21.65-31.839 24.198-147.737 22.924-291.653 61.13-429.201 114.62-20.377 8.916-42.028 0-52.217-19.103-36.934-75.14-81.51-120.988-49.67-154.101l280.19-280.184c35.661-34.386 100.614 31.839 180.85-48.395 137.548-137.545-71.321-346.41-208.869-208.865-80.236 80.235-12.736 146.46-48.397 180.846l-215.236 216.506c-22.925 22.924-64.954 10.189-70.048-22.924-17.83-106.98-17.83-230.515 24.198-313.297 10.189-19.103 5.095-43.3 20.378-58.583l284.011-282.732c34.387-35.66 100.613 31.84 180.85-48.395 137.548-137.545-71.322-346.41-208.869-208.864-80.237 80.234-14.01 145.186-48.397 180.846l-284.011 282.73c-6.368 7.642-15.283 11.463-25.472 12.736-58.585 3.82-98.066 76.414-346.417 33.113-31.839-6.368-44.575-47.122-21.651-70.046l215.237-215.232c35.661-35.66 100.614 31.84 182.124-48.396 137.548-137.544-72.595-346.41-208.869-208.864-81.51 80.235-14.01 145.186-49.67 180.846zm538.729 2548.4c48.397-149.007 77.689-303.108 87.878-458.483 1.274-19.103 14.009-33.112 31.84-38.207 282.737-67.498 491.606-331.126 487.785-624.046-1.273-22.924 17.831-42.027 40.755-42.027 587.126 1.273 1132.223 340.04 1388.215 869.844 11.462 21.65-1.273 49.669-25.472 57.31-33.113 8.915-154.104 2.547-159.199-50.943-5.094-64.951-44.575-124.81-104.434-156.648-110.803-61.131-187.218 28.018-206.322-43.301-28.019-112.074-163.02-175.752-267.454-120.99-64.953 35.66-57.312-101.884-203.775-105.704-165.567-3.821-141.369 141.365-211.416 110.8-109.529-45.85-243.256 31.839-254.718 150.28-7.642 73.867-103.161-5.094-199.954 89.15-95.52 92.97-24.199 192.308-99.34 192.308-105.709-1.274-193.586 86.602-199.954 189.76-2.548 64.952-123.539 42.028-104.435-19.103zm-264.907 4039.743c189.765-792.157 189.765-1628.888 0-2419.77-6.368-22.925 8.915-45.85 31.84-50.943 31.84-6.368 71.321-42.028 98.066-5.094 38.208 50.942 109.529 73.866 169.388 52.216 52.217-17.83 52.217 57.31 115.897 89.149 67.5 34.387 123.538-5.094 137.548 47.122 19.104 77.687 101.887 126.083 179.576 108.253-20.377 95.517 56.038 187.214 154.105 182.12-31.84 76.413 3.821 163.016 78.963 196.128 47.122 20.377 2.547 73.867 22.924 141.366 19.104 64.952 98.067 78.961 72.595 128.63-29.293 57.31-17.83 131.177 29.292 175.751 40.755 38.207-25.471 72.594-22.924 143.913 2.547 86.602 63.679 108.253 22.924 145.186-47.122 44.575-58.585 118.442-29.292 177.026 25.472 48.395-50.944 62.404-72.595 126.082-20.377 67.499 25.472 122.262-22.924 143.913-73.869 33.113-109.529 118.441-78.963 194.855-98.067-3.821-173.209 87.876-154.105 183.393-44.575-10.188-91.698 0-128.633 29.292-56.038 43.301-42.028 117.168-96.792 109.527-63.68-8.915-128.633 24.197-156.652 84.055-22.925 48.395-76.416-2.547-142.643 20.377-77.689 25.471-84.057 91.696-131.179 64.952-28.019-16.557-89.152-17.83-76.416-67.499zM16785.491 10500c0-751.403-575.663-1379.27-1319.441-1446.768-16.556-1.274-30.566-12.736-35.66-29.292-24.198-81.508-49.67-161.743-77.689-241.977-10.189-26.745 11.462-56.037 39.481-54.763 793.448 26.744 1473.545 573.103 1663.311 1349.977 31.839 131.177 141.368 291.646 255.992 392.257 17.83 16.556 17.83 45.848 0 62.405-114.624 100.611-222.879 257.26-255.992 390.984-189.766 776.873-869.863 1323.232-1663.311 1349.977-28.019 1.273-49.67-28.019-39.481-54.764 28.019-80.234 53.491-160.468 77.689-241.977 5.094-16.556 19.104-28.018 35.66-29.291 743.778-67.499 1319.441-695.366 1319.441-1446.768zm-175.755-1465.872c-117.171-101.885-245.804-189.761-383.351-261.08-42.029-20.377-15.284-87.876 24.198-92.97 38.207-5.094 66.227 59.857 165.567 62.404 123.538 3.82 155.378-110.8 203.774-54.763 71.321 85.329 210.143 86.602 284.011 3.82 66.227-73.866 81.51 54.764 226.7 19.104 132.453-33.112 113.349-154.101 178.302-129.903 126.086 47.122 258.539-87.876 220.332-212.685-20.378-68.773 100.613-38.207 145.189-166.837 45.849-124.81-61.132-182.12 5.095-215.232 112.076-54.763 142.642-208.865 63.679-303.108-34.387-42.028 48.397-131.177 77.689-147.734 21.651-12.735 50.944-1.273 58.585 22.925 188.492 559.094 39.482 1180.593-383.351 1594.5-15.283 16.557-42.028 15.283-58.585-1.273-201.227-212.685-524.72-259.807-779.438-112.073-16.557 8.915-34.387 6.367-48.396-5.095zm739.956 245.798c-100.613 76.414-211.416 141.366-327.313 191.035-19.104 7.64-39.481 1.273-50.943-16.557-63.68-100.611-137.548-196.13-220.332-282.731-19.104-20.377-11.462-54.763 14.01-66.225 198.68-86.602 436.842-40.754 588.399 113.347 17.83 17.83 15.283 47.122-3.821 61.13zM7818.132 6107.48C7121.479 6534.124 6533.08 7121.236 6107.7 7819.149c-26.746 43.3-71.322 0-103.161-8.915-53.491-14.01-11.463-75.14-45.85-136.271-40.755-71.32-105.708-66.225-87.878-117.168 21.652-61.131 0-131.177-50.943-170.658-17.83-12.735-21.651-35.66-11.463-53.49 42.029-68.772 17.83-161.742-49.67-203.77 38.208-24.197 66.227-67.498 68.774-113.346 5.095-68.773-54.764-112.074-12.736-145.187 52.218-42.027 70.048-110.8 45.85-173.204-17.83-48.396 50.943-54.763 84.057-117.168 31.84-59.858-12.736-124.81 39.48-141.366 61.134-20.377 105.709-80.234 103.162-146.46-1.274-54.763 70.048-31.838 118.444-84.055 59.859-63.678 31.84-120.988 86.604-119.714 64.953 1.273 124.812-42.028 145.19-104.433 16.556-52.216 78.962-7.641 140.095-38.207 62.406-30.565 68.774-103.158 118.444-84.055 76.415 28.019 163.02-6.368 194.86-82.781 66.226 72.593 184.67 61.13 236.887-20.377 24.199 38.207 66.227 64.95 112.076 71.319 70.048 8.915 113.35-54.763 146.464-10.188 38.207 50.942 108.255 72.593 169.387 50.942 50.944-17.83 53.49 56.037 115.897 86.603 72.595 36.933 124.812-5.095 138.82 47.12 8.917 31.84 50.945 76.415 7.643 103.16zm640.617-396.078l-122.265-112.074c-6.367-5.094-11.462-12.735-12.735-20.377-253.445-958.993-694.108-882.58-905.524-1398.372-24.198-61.13 198.68-407.54 240.71-487.775 8.914-17.83 29.292-25.47 48.396-20.377 101.887 31.84 482.69 109.527 511.983 179.573 80.236 194.855 75.142 368.06 66.227 571.83-17.83 387.163 86.604 753.95 271.275 1091.443 10.19 19.104 0 133.724 0 169.384L8047.38 4439.112c-35.661-86.602 2.547-338.768-58.586-489.048-15.283-38.207-89.151-85.33-127.36-99.338-76.414-26.745-161.745 8.915-197.406 81.508-19.103 38.207-26.745 114.62-12.735 154.1 53.49 159.197 266.18 303.109 301.84 390.985zm3983.795-42.028c0-49.67-12.736-169.384-1.274-188.487 499.248-857.108 133.727-1114.368 348.964-1628.887 25.472-62.405 427.927-147.734 514.531-174.478 19.104-6.368 39.482 2.547 48.397 20.377 22.924 43.3 48.396 85.328 72.595 126.082 34.387 57.31 185.944 306.93 163.019 362.966-81.51 193.58-207.595 313.296-359.153 450.84-285.284 261.08-471.228 594.755-579.484 964.088-6.368 21.65-94.246 92.97-118.444 119.715l519.626-1241.724c35.66-86.602 241.982-238.156 304.388-387.163 16.557-38.207-2.547-123.535-20.377-160.47-34.387-72.592-119.718-108.252-197.407-81.507-39.481 14.01-99.34 62.405-117.171 100.612-73.868 150.28-26.745 401.172-62.406 489.048zm4132.805 2615.899c-385.899-16.556-752.693 86.602-1091.468 271.269-19.104 10.189-132.454 0-168.114 1.274l1245.572-510.7c86.604-35.66 338.775 3.822 489.059-58.583 38.208-15.283 85.331-87.876 98.067-127.356 28.019-76.414-7.642-161.743-81.51-197.403-38.208-19.103-113.35-25.471-154.105-12.735-157.925 53.489-301.841 266.174-389.719 301.834l-1234.11 505.605c35.661-35.66 110.803-129.904 132.454-134.998 960.288-252.165 881.325-692.818 1398.403-904.23 61.133-25.471 407.55 197.402 487.786 239.43 17.83 8.915 25.472 29.292 20.377 48.395-31.84 101.885-109.529 483.954-179.576 511.973-194.86 80.234-368.068 75.14-573.116 66.225zm-2238.974-3098.58c-117.171-26.744-236.888-42.027-355.333-45.848-28.019-1.273-47.122-29.29-36.934-56.036 77.689-201.223 280.19-338.768 496.701-337.495 25.472 1.274 44.576 22.925 40.755 47.122-17.83 126.083-50.944 249.62-98.067 366.786-7.641 19.104-28.019 29.292-47.122 25.472zm-741.231-1828.836c-42.028-122.262 5.095-141.365-11.462-182.12 557.833 249.62 918.259 815.08 911.892 1425.118 0 21.65-19.104 40.754-42.029 40.754-294.2-8.915-556.56 187.213-632.975 471.218-3.821 17.83-19.104 29.292-36.934 30.566-154.105 10.188-308.209 40.754-455.946 87.875-59.859 19.104-81.51-96.79-17.83-100.61 106.981-5.095 192.312-94.245 192.312-197.403 0-24.198 20.378-43.3 44.576-40.754 109.529 7.64 208.869-87.876 202.501-198.676-5.095-99.338 98.066-20.377 173.208-147.734 70.048-115.894-28.019-188.487 35.661-217.78 122.265-56.036 119.717-244.523 3.821-306.928-63.68-34.386 44.575-95.517-14.01-220.326-57.312-120.988-173.208-85.33-149.01-155.375 39.481-117.167-45.849-248.344-169.388-259.806-16.556-1.274-29.292-12.736-34.387-28.02zm-1369.111 1414.93c-72.594-138.82-160.472-268.723-263.633-385.89-11.463-14.01-14.01-33.114-3.821-48.396 128.633-212.685 124.812-485.228-17.83-692.82-50.944-76.412-122.265-110.8-80.237-152.826 416.465-416.455 1040.525-560.368 1597.084-366.786 24.199 7.64 34.387 36.933 21.651 58.584-15.283 29.292-105.708 110.8-147.736 76.413-49.67-42.027-119.718-57.31-184.671-36.933-120.991 35.66-112.076 152.828-175.756 115.894-99.34-59.857-240.708-8.915-275.095 103.159-21.651 70.046-112.077-31.84-219.058 68.772-119.718 113.347 0 199.95-71.321 227.968-109.529 44.575-149.011 194.855-73.869 286.552 47.123 58.584-76.415 68.772-78.962 205.043-1.274 132.45 119.717 152.828 66.226 206.318-75.141 72.593-76.415 197.402-6.368 275.09 42.029 47.12-57.311 117.167-86.604 59.857zm-399.908-527.256c-86.604-80.235-179.576-152.828-278.916-215.233-16.557-11.462-24.198-33.112-15.283-50.942 50.943-122.262 118.444-235.61 199.954-340.041 15.283-19.104 44.575-21.65 62.406-3.821 154.104 157.922 191.038 401.172 96.793 598.574-11.463 24.198-44.576 30.566-64.954 11.463zm-2655.438 2.547c-20.377 19.103-53.49 12.735-64.953-12.736-86.604-198.676-40.755-438.105 113.35-589.66 17.83-16.556 47.122-15.282 61.132 5.095 76.415 100.61 140.095 210.138 189.765 327.305 8.915 17.83 1.274 39.48-15.283 50.943-100.614 63.678-196.133 137.545-284.01 219.053zM7502.282 8783.236c-147.736 345.136-467.408 292.92-559.106-7.641-68.774-220.326-71.322-424.097 77.689-608.763l126.085 98.064c-45.85 151.554-84.057 447.02-45.85 589.66 16.558 58.584 92.973 108.253 146.464 67.499 67.5-52.216 94.246-271.27 104.435-350.23 67.5-509.425-120.992-494.143-166.84-404.993l-91.7-71.32c42.029-34.386 91.7-58.584 149.01-59.857 73.869-2.547 147.737 43.3 188.492 101.885 128.633 183.393 159.2 440.653 71.32 645.696zm168.114-3553.24c-149.01-47.123-303.114-76.415-459.766-86.603-17.83-1.274-31.84-14.01-36.934-31.84-58.586-240.703-254.72-430.464-501.795-477.586-91.7-16.556-165.567 8.915-165.567-50.942 0-588.386 341.322-1132.198 869.863-1388.184 22.924-11.462 50.943 1.274 57.31 25.47 10.19 31.84 3.822 154.103-49.67 157.923-123.537 11.462-211.415 141.366-171.934 258.534 24.199 71.32-91.698 34.386-150.283 155.374-59.86 123.536 48.396 185.94-16.557 220.326-115.897 61.13-119.718 249.62 2.547 306.93 63.68 29.29-35.66 100.61 33.113 217.78 70.048 118.44 183.398 63.677 174.483 137.543-15.284 113.347 85.33 219.053 199.953 211.412 24.199-2.547 44.576 16.556 44.576 40.754-1.273 105.706 85.33 193.58 189.765 199.95 63.68 3.82 42.029 122.26-19.104 103.158zm11.463-1974.024c-42.03 35.66-131.18-47.122-146.463-76.414-12.736-22.924-1.274-50.942 22.924-59.857 557.833-188.488 1183.167-36.933 1594.537 384.616 15.283 15.283 15.283 42.028-1.274 58.584-212.69 201.223-259.813 524.708-112.076 779.42 8.915 15.283 6.368 34.387-5.094 48.396-101.888 115.894-189.765 245.797-261.087 383.342-21.65 42.028-87.877 15.283-94.245-24.197-5.095-38.207 62.406-68.773 63.68-166.837 2.546-124.81-110.803-154.1-54.765-202.497 84.057-72.593 86.604-210.138 3.82-284.004-75.141-66.226 54.765-81.508 19.104-226.694-33.113-132.45-154.104-113.347-129.906-179.573 48.397-126.082-89.15-257.26-213.963-219.053-68.774 20.377-35.66-99.338-165.567-146.46-126.085-44.574-183.397 63.679-216.51-3.82-53.491-112.074-207.596-142.64-303.115-64.952zm-1063.45 1905.25c-49.67-123.535-82.783-252.165-99.34-383.342-3.82-24.198 16.557-47.122 40.756-47.122 221.605 2.547 420.285 150.28 492.88 355.324 8.915 26.745-10.19 54.763-36.935 54.763-117.17 5.095-235.614 19.104-350.237 44.575-19.104 5.094-39.482-5.094-47.123-24.198zm-2978.93 4107.242c-20.378-15.283-21.651-44.575-3.82-62.405 157.925-154.101 401.18-191.034 597.314-96.79 25.472 11.462 31.84 44.574 12.736 64.95-80.237 85.33-152.831 179.574-216.511 278.912-10.19 16.556-31.84 22.924-49.67 15.282-122.265-52.216-235.614-119.715-340.05-199.95zm594.767 2626.087c-197.406 86.603-436.842 40.754-588.4-113.347-17.83-17.83-15.282-47.122 5.095-62.404 100.614-76.414 210.143-140.092 326.04-189.761 19.104-7.642 40.755-1.274 50.943 16.556 64.954 100.612 138.822 196.129 220.332 282.731 19.104 20.377 12.736 54.763-14.01 66.225zm7547.304 5458.493c-17.831 17.829-47.123 15.282-62.406-3.821-76.416-100.612-140.095-210.138-189.765-327.306-7.642-17.83-1.274-39.48 16.556-50.942 100.614-63.679 194.86-137.545 282.738-219.053 20.377-19.104 54.764-12.736 66.226 12.735 85.331 198.676 40.755 436.832-113.349 588.387zm64.953 143.912c-15.283-16.556-15.283-43.301 1.274-58.584 213.963-202.496 259.812-525.981 113.349-780.694-8.915-15.283-7.641-34.386 5.095-48.395 101.887-115.895 188.491-245.798 259.812-383.343 21.651-42.028 89.152-15.283 94.246 24.198 5.094 38.207-61.132 68.772-63.68 166.837-2.547 124.809 110.803 154.101 54.765 202.496-87.878 75.14-85.331 220.327 6.368 291.646 57.311 45.848-61.133 85.329-28.019 219.053 31.84 131.177 154.104 113.347 128.633 179.572-47.123 126.083 89.151 257.26 213.963 219.053 70.048-21.65 36.934 100.612 166.84 146.46 124.812 44.575 183.398-62.405 215.237 5.094 54.765 112.074 207.596 142.639 303.115 63.678 42.029-34.386 131.18 47.122 147.737 76.414 11.462 22.924 1.273 50.943-22.925 59.858-560.38 187.213-1180.619 38.207-1595.81-383.343zm2084.869-869.844c47.123-109.526-31.839-241.977-150.283-254.712-72.595-7.642 6.368-103.159-87.878-199.95-91.699-94.243-193.586-24.197-192.313-99.338 1.274-105.705-86.604-193.581-191.038-198.675-63.68-3.821-40.755-123.536 19.104-104.433 149.01 47.122 304.388 76.414 459.766 86.603 17.83 1.273 33.114 14.009 36.934 31.839 58.586 240.703 254.719 430.464 501.795 477.586 91.699 16.556 166.841-7.641 165.567 52.216 0 587.113-341.322 1130.924-869.863 1386.91-22.924 11.463-50.943-1.273-57.311-25.471-8.916-31.839-3.821-152.827 50.943-157.922 66.227-6.367 124.812-45.848 156.652-104.432 59.859-110.8-28.019-188.487 43.302-207.591 110.803-28.018 175.756-163.016 119.718-266.174-34.387-66.226 103.161-54.764 106.981-205.044 3.821-164.29-141.368-141.366-112.076-211.412zm508.163-357.871c-220.331-2.547-419.011-149.007-491.606-354.05-8.915-25.472 8.915-53.49 36.934-54.764 117.171-5.094 234.341-20.377 348.964-45.848 20.378-3.821 39.482 6.368 47.123 25.471 49.67 122.262 82.784 250.892 100.614 382.069 2.547 24.198-16.557 47.122-42.029 47.122zm2925.44-4475.301c-157.925 154.101-402.455 191.034-598.588 96.791-24.198-11.462-30.566-44.575-12.736-64.952 81.51-85.329 152.831-179.572 216.511-278.91 11.462-16.557 31.84-22.924 50.944-15.283 120.991 52.216 235.614 119.715 340.049 199.949 19.104 15.283 21.651 44.575 3.82 62.405zm221.605-419.002c-119.717-87.876-248.35-163.016-384.624-221.6-19.104-8.915-29.293-30.566-21.651-50.943 25.471-78.961 26.745-143.913 72.594-143.913h396.087c49.67 0 48.397 92.971 161.746 92.971 194.86 0 194.86-295.467 0-295.467-113.349 0-112.076 94.244-161.746 94.244h-305.662c-31.839 0-52.217-38.207-33.113-64.952 62.406-89.15 151.557-175.752 239.435-205.044 20.378-6.368 33.114-26.745 54.765-26.745h401.181c49.67 0 48.396 94.244 161.746 94.244 194.86 0 194.86-295.467 0-295.467-113.35 0-112.076 94.244-161.746 94.244h-401.181c-10.189 0-19.104-3.821-26.746-10.189-43.302-38.206-122.265-15.282-267.454-221.6-19.104-26.744 0-64.951 33.113-64.951h305.662c49.67 0 48.397 94.243 161.746 94.243 194.86 0 194.86-295.466 0-295.466-113.349 0-112.076 92.97-161.746 92.97h-396.087c-19.104 0-34.387-11.462-39.481-30.566-17.83-66.225-54.764-131.177-7.642-151.554 140.096-61.131 271.275-137.544 393.54-227.967 11.463-8.915 26.746-11.463 40.755-5.095 402.455 169.384 766.702 485.228 1009.958 850.741a42.64 42.64 0 010 45.848c-244.529 369.333-615.144 687.724-1023.967 855.834-12.736 6.368-28.019 5.095-39.482-3.82zm-649.531-5221.61c-63.68-16.556-128.633-30.565-194.86-42.027-25.472-3.821-40.755-31.84-30.566-56.037 210.143-504.33 247.077-1083.802 72.595-1605.963-12.736-39.48-44.576-155.375-82.784-174.48-155.378-77.686-373.162-126.081-542.55-149.005-411.37-56.037-821.466 1.273-1203.544 159.195-24.198 10.188-52.217-6.368-56.038-31.84-11.462-64.951-25.472-129.903-43.302-193.581-6.368-20.377 3.821-42.027 24.198-49.67 433.021-174.476 894.061-226.693 1357.649-157.92 236.888 34.386 473.776 96.79 691.56 198.675 34.387 16.557 91.699 197.403 105.708 238.157 202.501 597.3 188.492 1257.007-48.396 1840.299-7.642 20.377-29.293 30.565-49.67 24.197zm-5928.569-4160.73c-133.727-100.612-327.313-225.421-491.607-278.91-40.755-14.01-145.189 45.847-180.85 63.677-490.332 244.524-872.41 676.262-1081.28 1178.046-10.188 24.198-40.754 33.113-61.131 17.83-54.765-39.48-110.803-75.14-168.114-106.98-19.104-11.461-25.472-33.112-17.83-52.215 183.396-429.191 472.502-793.43 848.21-1072.34 191.04-142.64 403.73-266.175 630.429-347.683 35.661-12.736 205.048 73.866 243.256 92.97 564.201 280.184 1021.421 755.223 1265.95 1335.968 8.915 19.103 1.274 42.027-16.557 52.216-58.585 33.112-114.623 68.772-168.114 108.253-21.651 15.282-52.217 6.367-62.406-17.83-157.925-384.616-407.549-718.29-739.956-973.003zM5886.095 5483.433c-106.982 17.83-231.794 16.556-314.577-25.47-19.104-8.916-42.03-3.822-57.312-20.378l-282.738-282.73c-35.66-35.66 31.84-100.613-48.396-180.847-137.548-137.545-346.417 71.32-208.87 208.864 80.237 80.235 145.19 12.736 180.85 48.395L5437.79 5514c7.642 7.64 11.463 16.556 11.463 26.744 3.82 58.584 76.415 96.79 33.113 345.136-5.094 33.113-45.85 45.848-68.774 22.924l-215.237-216.506c-35.66-34.386 30.566-100.61-49.67-180.846-137.548-137.544-346.417 71.32-208.87 208.865 80.237 80.234 146.464 14.009 182.125 48.395l278.916 280.184c14.01 14.009 16.557 33.113 6.368 49.669-24.198 42.028-45.85 84.055-67.5 127.356-149.01-67.498-313.304-108.252-473.776-131.177-15.283-2.547-26.746-11.462-31.84-25.471-165.567-404.993-199.954-886.4-113.35-1315.59 3.82-16.557 16.557-29.293 33.114-31.84 433.02-89.15 920.806-52.216 1328.356 117.168 14.01 6.368 22.924 17.83 25.472 31.84 21.65 146.46 61.132 290.37 114.623 429.19 7.64 19.103 0 42.027-19.104 50.942-75.142 38.207-122.265 82.782-154.105 49.67l-280.19-278.91c-35.66-35.66 31.84-100.612-48.396-180.847-137.548-137.545-346.417 71.32-208.87 208.864 80.237 80.235 146.464 12.736 180.85 48.396l215.238 215.232c24.198 22.924 10.188 63.678-21.651 70.046zM4253.35 6101.11c-66.227 11.462-131.18 25.47-194.86 43.3-20.377 5.096-40.754-5.093-48.396-24.196-174.482-433.012-226.7-895.315-159.2-1357.62 35.66-236.882 98.068-475.038 199.955-691.544 16.557-34.386 197.407-92.97 238.162-105.705 597.314-202.497 1257.035-189.761 1840.34 48.395 19.104 7.64 29.292 29.292 24.198 48.395-17.83 64.952-31.84 129.904-42.03 196.13-3.82 25.47-31.84 40.753-56.037 30.565-505.616-210.138-1083.826-247.072-1606-72.593-39.48 12.735-155.377 44.574-174.481 82.78-77.69 152.829-127.36 375.702-149.01 541.266-56.038 412.634 1.274 822.72 157.925 1204.79 10.19 24.198-5.094 52.216-30.566 56.037zm-1388.215 5873.674c-10.188 17.83-31.84 25.471-50.943 17.83-430.474-183.393-793.448-472.492-1072.364-848.193-142.643-192.308-267.455-404.993-347.691-630.414-14.01-35.66 73.868-205.044 92.972-243.251 278.917-564.188 755.24-1022.671 1335.998-1267.195 19.104-7.642 40.755 0 50.944 17.83 33.113 57.31 70.047 113.347 108.255 168.11 15.283 20.377 6.368 52.216-17.83 61.13-384.625 159.197-718.306 408.815-971.75 741.215-101.888 132.45-226.7 328.579-280.191 491.595-12.736 40.754 45.85 143.913 64.953 180.846 243.256 490.322 676.277 871.118 1176.799 1079.982 24.198 10.188 33.113 40.754 17.83 62.405-38.208 54.763-73.868 110.8-106.982 168.11zM4762.787 17148c-236.888-34.386-475.05-96.791-692.834-198.676-33.113-16.556-91.7-197.402-105.708-238.156-201.228-597.302-188.492-1257.007 49.67-1840.299 7.642-19.104 28.019-29.292 48.396-24.198 63.68 17.83 129.907 31.839 194.86 42.028 25.472 3.82 42.028 31.839 31.84 56.036-160.473 384.616-219.058 797.251-164.294 1211.159 22.925 163.016 72.595 394.805 150.284 545.085 15.283 30.566 59.859 40.754 89.152 52.216 533.634 211.412 1155.147 177.026 1681.14-38.207 24.199-10.188 50.944 5.095 56.039 30.566 10.188 66.225 25.47 131.177 43.302 196.129 5.094 19.103-5.095 40.754-24.2 48.395-433.02 174.478-895.333 226.694-1357.647 157.922zm5508.283 2365.007c-565.475-280.184-1022.694-755.223-1267.224-1335.968-7.64-19.104-1.273-40.754 17.83-52.216 57.312-33.113 113.35-68.773 166.84-106.979 21.652-15.283 52.219-7.642 62.407 16.556 159.2 384.616 408.823 718.29 741.23 973.002 133.728 101.885 327.314 225.421 490.333 278.911 42.029 14.009 146.463-45.849 182.124-63.679 489.059-244.524 871.137-676.262 1080.006-1178.046 10.188-24.197 40.755-31.839 62.406-17.83 53.49 39.481 109.528 75.141 168.114 106.98 17.83 11.462 25.472 33.112 16.556 52.216-182.123 429.191-472.502 793.43-846.938 1072.34-192.312 142.639-405.002 267.448-630.428 347.683-35.66 12.736-205.048-73.867-243.256-92.97zm4646.062-3352.019c-14.009-5.094-22.924-17.83-24.198-31.839-22.925-146.46-61.132-290.372-115.897-429.191-7.641-19.103 1.274-42.027 20.378-50.942 75.142-38.207 120.991-82.782 154.104-49.669l278.917 278.91c35.66 35.66-31.84 100.612 49.67 180.846 137.548 137.545 346.417-71.319 208.869-207.591-81.51-81.508-146.463-14.009-182.124-49.669l-215.237-215.232c-22.924-22.924-10.188-63.678 22.925-70.046 106.982-17.83 230.52-16.556 313.304 25.472 19.103 8.915 42.028 5.094 57.311 20.377l284.011 282.731c34.387 35.659-31.84 100.611 48.397 180.846 137.547 137.544 346.417-71.32 208.869-208.865-80.237-80.234-146.463-12.735-180.85-48.395L15561.57 15486c-6.368-7.642-10.189-16.557-11.463-26.745-3.82-57.31-76.415-98.064-33.113-345.136 5.094-33.112 45.849-45.848 70.048-22.924l215.236 216.506c35.661 34.386-31.839 100.611 48.397 180.846 137.548 137.545 346.417-71.32 208.869-208.864-80.236-80.235-145.189-14.01-180.85-48.396l-280.19-280.184c-12.736-14.009-15.283-33.112-6.368-49.669 24.198-42.027 47.123-84.055 67.5-127.356 151.558 64.952 312.03 106.979 475.05 131.177 14.009 2.547 25.472 11.462 31.84 25.471 164.293 404.993 198.68 886.4 112.076 1315.591-2.547 16.556-15.283 29.292-31.84 33.113-427.927 86.602-927.175 48.395-1329.63-118.442zm1794.491 873.665c-597.315 202.496-1257.035 189.761-1841.614-48.396-19.103-7.641-29.292-28.018-24.198-48.395 17.83-64.952 31.84-129.904 43.302-196.129 3.821-26.745 31.84-42.027 56.038-31.839 477.597 199.949 1017.6 243.251 1516.848 101.885 39.481-11.462 240.709-67.499 263.633-110.8 76.416-152.827 126.086-375.701 149.011-541.264 56.038-412.635-1.274-822.722-159.199-1204.791-10.189-24.198 5.094-52.216 30.566-56.037 66.227-11.462 131.18-25.471 194.859-43.301 20.378-5.094 42.029 5.094 49.67 24.198 174.483 433.011 225.426 895.315 157.926 1357.618-34.387 236.883-96.793 475.039-199.954 691.545-15.283 34.386-197.407 92.97-236.888 105.706zm1465.904-5038.217c-20.378 7.642-42.029 0-52.217-17.829-33.114-57.311-68.774-113.348-108.256-168.111-15.283-21.65-6.368-52.216 17.831-61.131 384.624-159.195 718.305-408.814 971.75-741.214 100.614-131.177 227.973-331.126 280.19-491.595 12.736-40.754-45.849-143.913-63.679-180.846-244.53-489.048-676.278-871.117-1178.073-1079.982-24.198-10.188-33.113-40.754-17.83-62.404 38.208-53.49 73.868-110.8 106.982-168.111 10.188-17.83 33.113-25.471 52.217-17.83 429.2 183.394 792.174 472.492 1071.091 848.194 143.915 192.308 267.454 403.719 348.964 630.413 12.736 35.66-73.869 205.044-92.973 243.251-280.19 564.189-755.239 1021.398-1335.997 1267.195zm-2319.21-4980.905c-3.821-117.168-19.104-234.336-44.576-348.957-3.821-20.377 6.368-39.48 25.472-47.122 123.538-49.67 252.171-84.055 383.351-100.611 24.198-2.547 45.849 16.556 45.849 42.028-2.547 220.326-149.01 420.275-355.332 492.868-25.472 8.915-53.491-10.188-54.764-38.206z" />
</svg>