<svg viewBox="0 0 21000 21000" shape-rendering="geometricPrecision" text-rendering="geometricPrecision"
  image-rendering="optimizeQuality" fill-rule="evenodd" clip-rule="evenodd" xmlns="http://www.w3.org/2000/svg">
  <defs>
    <style>
      svg {
        background-color: var(--bg, #fff);
      }

      .bg {
        fill: var(--bg, #fff);
      }

      .fg {
        fill: currentColor;
      }
    </style>
  </defs>
  <path class="fg"
    d="M10500.005 500C16022.851 500 20500 4977.149 20500 10499.994 20500 16022.84 16022.85 20500 10500.005 20500 4977.15 20500 500 16022.84 500 10499.994 500 4977.15 4977.149 500 10500.005 500z" />
  <path class="bg"
    d="M15508.185 2372.363c6197.293 3894.27 5928.822 12709.478-113.35 16325.007-960.223 574.594-1961.408 954.57-3058.51 1171.583 474.017-1227.303 173.041-1304.524-469.711-2240.7-148.994-217.012-141.378-194.595 62.053-388.985 223.172-213.269 127.32 114.817 203.84 358.627 203.247 647.693 829.105 976.945 1479.786 992.825 243.691 5.944 400.916-15.794 575.392-108.053 138.745-73.36 206.558-149.005-7.606-96.057-238.6 59.01-413.172 90.824-699.896 34.23-324.602-64.07-549.964-325.874-687.048-611.553l90.587-45.299c448.287 495.495 1446.311 667.662 1467.272-224.747 10.022-426.668-436.776-628.944-509.865-92.324-64.599 474.49-613.624 66.53-498.073-480.479 25.578-121.117 173.234-292.183 168.606-44.597-4.908 258.125 163.677 68.115 232.763-41.2 269.529-426.43 897.048-585.662 1343.89-736.112 2577.006-1023.937 3240.072-1602.306 2344.275-4303.483-64.005-193.009-65.796-146.156-30.196-252.926 414.391-110.512 827.207-292.507 1158.918-566.243 289.227-238.686 633.884-599.61 785.197-951.301 176.234-409.633 238.222-1165.951 74.287-1595.143-178.931-468.374-627.67-692.679-681.697-1276.7-40.563-438.514-24.63-1122.53-287.265-1605.285-262.279-482.085-843.96-838.263-1336.348-1060.778-284.222-128.442-521.57-197.011-762.542-332.196-153.741-790.624-372.965-1200.128-844.759-1828.111zm931.58 2326.41l456.767 173.645c642.062 345.186 1170.708 712.195 1355.227 1457.142 14.057 56.756 49.981 276.326 67.663 442.008 26.474 248.546-80.047 379.578-192.243 124.236-72.431-164.853-118.917-298.775-188.306-446.852-213.387-455.245-534.86-839.634-946.813-1121.062-137.084-93.651-1122.594-629.116-552.294-629.116zm-5939.77 5437.588c200.819 0 363.632 162.814 363.632 363.633 0 200.83-162.813 363.644-363.633 363.644-200.83 0-363.643-162.813-363.643-363.644 0-200.82 162.813-363.633 363.643-363.633zm3576.627-6717.309c853.28-32.742 1401.044 732.023 1109.853 1485.46-130.946 338.756-521.117 613.29-269.097 113.103 69.507-137.926 142.833-347.192 76.562-713.328-39.225-216.743-163.72-390.71-337.849-526.619-501.288-391.239-1282.268 10.335-1719.507 311.44-369.567 254.49-811.445 649.269-1187.236 939.974-833.356 644.694-1811.767 1071.275-2636.826 113.253l15.092-54.738c384.173 136.825 508.603 187.27 928.646 196.288 257.77 5.545 368.94-12.535 607.777-120.783 160.473-72.743 308.032-180.02 415.254-320.88 109.197-143.47 61.093-168.466-28.62-181.001-399.676-55.829-397.627-388.694-188.198-606.58 173.148-180.139 501.18-150.86 771.734 187.356 297.987-148.94 89.95-1193.568-94.374-1483.573-122.757-193.138-303.619-554.948 75.506-228.383 703.424 605.868 388.93 1471.782 90.598 2147.966 417.756-381.185 572.964-1137.136 758.766-1285.386 184.746-147.386 9.559 222.407 373.461-94.913 267.102-232.892 444.209-88.7 832.654-342.984 167.755-109.812 361.13-409.838 360.483 169.038-.162 152.78-150.364 302.81 45.32 295.29zm-4086.417 5.664c-1.165 1.91 200.528 786.233-92.486 866.356-16.333 4.466-740.136 84.32-989.998 139.673-717.632 158.983 449.517 140.654 404.876 381.271-37.197 200.582-307.87 123.944-491.806 104.925-315.432-32.613-60.035 143.847 48.244 231.058 195.156 157.204 506.078 423.442 664.404 600.215 202.826 226.473-398.165 602.933-271.805 845.6 124.505 239.117 172.727 157.408 205.739 285.01 81.245 314.072-113.48 393.558-286.898 124.58-83.143-128.94-152.467-397.033-245.374-456.777-209.59-134.775-649.796 118.442-792.749-239.71-32.191-80.63-196.936-418.458-251.038-426.571-121.894 253.875-194.52 318.55-464.328 398.252-300.275 88.71-870.402 59.312-1211.768 66.066-440.843 8.738-383.904-291.677-205.74-636.085 137.883-266.584 442.484-436.172 683.273-594.562 345.53-126.328 731.117-242.775 1066.01-375.651-327.385 76.369-973.643 75.883-1158.28 149.404-73.51 29.268-140.159 101.105-156.556 179.21-3.14 14.985 5.048 86.532-73.802 88.668-150.72 4.067-373.396-279.745-89.454-437.531 271.233-150.677 999.319-194.93 1297.09-201.78 409.839-9.461 333.901-69.637-31.857-229.041-342.207-149.112-873.044-404.832-1145.712-649.3-126.63-113.512-125.26-330.805-23.421-447.273 146.232-167.226 421.22-58.784 275.419 144.064-159.501 222.072 675.148 657.035 869.172 731.678-114.72-184.854-305.108-421.554-441.674-600.226-209.601-274.232-420.53-759.198-409.58-1102.29 16.56-518.841 209.882-539.533 609.655-351.076 320.697 151.184 1005.414 612.815 1198.563 847.477 182.76 222.029-214.24 633.97 266.142 318.992 159.382-104.504 204.002-178.338 218.943-190.647 78.408-64.599 588.068 189.59 705.927 209.526 118.68 20.076 393.829-225.719 460.542-271.805 137.72-95.119 363.87-132.747 383.17 28.308 22.17 184.993-471.6 386.298-522.843 469.992zm6526.231 2086.722c576.989 293.111 886.38 499.13 1131.322 1191.853 59.064 167.031 112.562 371.443 145.887 559.608 31.436 177.647-33.206 269.95-145.887 74.589-163.018-282.712-152.856-301.817-373.72-592.674-248.19-326.835-548.766-561.658-896.562-771.982-244.166-211.619-335.433-702.367 138.96-461.394zm-7240 8540.134c312.723 659.042 690.661 1707.759 1503.994 1849.19 493.38 85.787 1101.082-63.735 1327.545-435.74 247.467-406.483 205.88-786.298-235.838-997.7-952.617-456.12-1092.56 1191.69-575.78 467.327 127.353-178.564 461.848 30.638 454.879 175.533-23.885 496.228-576.913 520.858-870.143 286.897-136.253-108.711-205.102-270.597-252.915-436.01-323.685-1119.929 1861.295-1536.844 2029.06 22.644 30.4 282.626-56.616 540.482-266.141 736.123-454.965 424.823-1758.41 668.093-2078.135 1449.601-399.924 977.505 779.847 1317.307 1275.946 1630.787 132.822 83.93 308.484 245.708 366.168 385.047 143.427 346.329-258.946 447.758-502.421 469.798-991.454 89.767 1160.136-188.36-530.028-894.48-174.098-72.734-324.602-174.433-449.721-297.557-310.858-305.906-465.063-744.105-435.514-1199.221 43.54-670.984 737.655-964.624 771.993-1087.198-228.47-55.99-397.205-114.03-617.228-251.027-574.841-357.959-910.727-979.49-1092.042-1595.175-144.333-490.102-120.923-905.193 176.32-278.84zm5219.215-9662.35c118.83 70.564 213.711 360.17 117.018 481.308-208.803 261.665-539.24-362.683-469.981 115.141 63.304 436.647 786.47 320.438 276.843 415.017-317.913 59.043-486.315-282.842-476.919-603.775 9.062-308.808 337.181-535.854 553.04-407.691zm-8208.92 6174.551c-448.21 255.98-498.526 1069.495 760.871 1398.067-134.99 478.536-944.763 766.782-1206.104 1511.891-128.615 366.665-109.65 492.421 151.853 97.395 87.922-132.78 646.28-904.73 1037.077-1182.058 401.402-284.837 401.466 80.522 165.963 347.786-47.446 53.832-117.622 115.917-233.734 206.483-1834.702 1431.143-571.95 2699.095 578.186 2273.333 400.646-148.292 502.248-617.205 160.375-821.855-100.642-60.251-288.375-39.56-316.705 83.057 66.001 17.1 148.444 15.826 204.347 53.585 265.99 179.6-204.638 867.747-947.924 339.392-327.676-232.925-467.91-672.074 147.688-1217.432 480.35-425.524 873.595-669.226 1134.18-85.55 143.784 321.981 392.588 829.009 459.259 953.416 813.527 1518.138 494.772 3697.206-1332.573 2927.5-354.15-149.177-725.723-1172.37-12.341-638.146 752.24 563.396 698.957-856.312-204.725-930.35-262.743-21.533-400.582 80.824-489.53 181.056-313.198 352.93-290.76 69.615-138.13-69.853 60.338-55.149 131.496-100.88 172.782-114.99 223.021-76.196 270.09-234.37-15.114-149.727-120.309 35.697-228.362 112.929-303.846 175.176-199.611 164.626-315.26 81.234-409.611-182.113-94.126-262.71-114.04-288.559-192.535-583.224-86.606-325.12-134.969-554.624-432.234-785.208-645.071-500.382-3164.103 153.428-3036.976-813.505 48.826-371.282 244.932-579.804 1.898-1011.704-43.066-76.52-288.472-130.708-186.87-347.289 348.691-743.275-385.015-193.656-147.225-717.254 76.434-168.294 556.135-347.774 24.543-753.103-510.868-389.524-358.023-598.284 12.137-1010.43 383.116-426.57 980.58-978.002 1097.705-1333.835 87.48-265.785 15.244-481.06-46.226-733.329-198.058-812.577-82.216-1353.07 291.611-2101.685 356.308-713.521 352.899-32.785 320.87 309.553-38.395 410.334 20.011 692.852 52.84 1079.635 39.235 462.064 171.12 942.315 451.965 1316.682 238.901 318.431 259.096 256.249 109.897-79.885-87.663-197.519-201.154-401.877-222.104-538.421-62.517-407.508 241.523 91.072 283.122 166.103 167.98 309.531 313.263 617.001 536.78 891.137 217.78 267.133 284.503 274.383 109.219-64.373-138.972-268.58-532.164-1092.225-583.008-1461.036-23.378-169.62 70.619-284.384 179.222-109.067 176.546 284.944 353.309 835.243 565.693 1194.29 439.926 743.707 1274.522 931.873 1872.331 1470.51 658.6 593.32-227.358 746.586-424.898 859.375zm11019.79 1554.095c275.451 631.154 319.909 1169.478 144.937 1829.61-141.237 388.941-666.119 1128.613-1139.973 1436.245-330.438 214.51-641.846 240.854-120.87-171.616 325.908-258.04 589.18-602.394 785.198-966.393 173.688-333.664 256.68-552.856 290.673-943.75 6.678-407.12 12.87-687.9-86.822-1094.75-76.95-313.9-41.329-474.857 126.857-89.346zm1609.631-3323.238c65.807 243.227 56.616 605.264-18.868 845.6-101.17 322.056-308.733 671.265-554.927 906.002-279.054 266.098-593.213 474.728-967.407 538.561-888.235 151.518-1461.63-593.062-1357.979-1437.012 87.448-273.196 210.087-333.847 227.876 17.66 20.756 410.054 380.225 967.376 825.34 1009.136 756.847 30.293 1285.968-1106.93 1494.89-1736.498 99.099-298.581 158.163-856.367 351.075-143.449zm-1980.87 3623.189c128.217 432.805 127.202 746.738 17.876 1178.594-163.805 647.057-341.41 925.28-783.061 1362.477-312.735 309.682-358.228 141.377-149.587-100.394 482.765-559.5 812.502-1622.447 713.985-2372.982-58.816-448.255 82.95-465.397 200.788-67.695zm569.027-3068.262c305.83 333.965 73.165 1040.464-476.087 928.991-336.793-68.375-574.626-359.372-361.961-717.589 222.212-234.165 227.53 79.584 256.324 219.3 84.913 412.125 260.5-10.335 272.528-210.67 15.254-253.605.518-557.084 309.196-220.032zM6665.932 10832.514c159.415 0 288.634 131.021 288.634 292.648 0 161.626-129.22 292.647-288.634 292.647-159.404 0-288.634-131.02-288.634-292.647 0-161.627 129.23-292.648 288.634-292.648z" />
</svg>